<svg width="25" height="24" viewBox="0 0 25 24" fill="none" xmlns="http://www.w3.org/2000/svg">
<g id="vuesax/bulk/star">
<g id="star">
<g id="Group">
<path id="Vector" d="M15.89 5.21L17.3 8.03C17.49 8.42 18 8.79 18.43 8.87L20.98 9.29C22.61 9.56 22.99 10.74 21.82 11.92L19.83 13.91C19.5 14.24 19.31 14.89 19.42 15.36L19.99 17.82C20.44 19.76 19.4 20.52 17.69 19.5L15.3 18.08C14.87 17.82 14.15 17.82 13.72 18.08L11.33 19.5C9.62 20.51 8.58001 19.76 9.03001 17.82L9.60002 15.36C9.71002 14.9 9.52001 14.25 9.19001 13.91L7.20002 11.92C6.03002 10.75 6.41002 9.57 8.04002 9.29L10.59 8.87C11.02 8.8 11.53 8.42 11.72 8.03L13.13 5.21C13.88 3.68 15.12 3.68 15.89 5.21Z" fill="#667085"/>
</g>
<path id="Vector_2" opacity="0.4" d="M8.5 5.75H2.5C2.09 5.75 1.75 5.41 1.75 5C1.75 4.59 2.09 4.25 2.5 4.25H8.5C8.91 4.25 9.25 4.59 9.25 5C9.25 5.41 8.91 5.75 8.5 5.75Z" fill="#667085"/>
<path id="Vector_3" opacity="0.4" d="M5.5 19.75H2.5C2.09 19.75 1.75 19.41 1.75 19C1.75 18.59 2.09 18.25 2.5 18.25H5.5C5.91 18.25 6.25 18.59 6.25 19C6.25 19.41 5.91 19.75 5.5 19.75Z" fill="#667085"/>
<path id="Vector_4" opacity="0.4" d="M3.5 12.75H2.5C2.09 12.75 1.75 12.41 1.75 12C1.75 11.59 2.09 11.25 2.5 11.25H3.5C3.91 11.25 4.25 11.59 4.25 12C4.25 12.41 3.91 12.75 3.5 12.75Z" fill="#667085"/>
</g>
</g>
</svg>
