<svg width="75" height="72" viewBox="0 0 75 72" fill="none" xmlns="http://www.w3.org/2000/svg">
	<g id="Group">
		<g id="Group_2">
			<path id="Vector" d="M20.2781 68.7558C20.4976 67.1372 20.6879 65.3626 20.4464 63.7588C20.4391 63.6845 20.322 63.6697 20.2854 63.7365C19.5096 65.1844 19.495 66.9367 19.2242 68.5479C19.0705 68.4737 18.9169 68.3994 18.7559 68.3252C18.4412 68.1841 18.0679 68.1173 17.6947 68.043C17.6581 68.0282 17.6362 68.0059 17.5922 67.9985C17.3946 67.9613 17.1897 67.9242 16.9848 67.8871C16.6482 67.7906 16.3847 67.9242 16.2164 68.147C16.1944 68.1841 16.1652 68.2212 16.1505 68.2583C16.1505 68.2658 16.1432 68.2806 16.1359 68.288C15.9237 68.7187 16.0334 69.335 16.6262 69.4463C16.8238 69.4835 17.0287 69.5206 17.2263 69.5503C17.38 69.5726 17.5117 69.5503 17.6288 69.5057C17.9655 69.528 18.3021 69.58 18.5509 69.7211C18.9681 69.9587 19.3486 69.9809 19.8097 69.9958C20.1244 70.0032 20.3732 69.7879 20.4098 69.4686C20.4391 69.179 20.4098 68.9414 20.2854 68.7484L20.2781 68.7558Z" fill="#F0BE07" />
			<path id="Vector_2" d="M26.9742 70.1073C27.0254 68.4738 27.0327 66.6918 26.6229 65.1177C26.6009 65.0434 26.4912 65.0434 26.4619 65.1103C25.8398 66.6324 26.0082 68.3773 25.9057 70.0108C25.7447 69.9514 25.5837 69.8919 25.4154 69.84C25.0861 69.736 24.7055 69.7063 24.3323 69.6766C24.2957 69.6692 24.2664 69.6469 24.2225 69.6469C24.0176 69.6321 23.8127 69.6172 23.6077 69.6024C23.2638 69.543 23.015 69.7063 22.8686 69.9439C22.8466 69.981 22.8247 70.0182 22.81 70.0627C22.81 70.0701 22.8027 70.085 22.7954 70.0924C22.6344 70.5453 22.8027 71.1468 23.4028 71.1913C23.6077 71.2062 23.8127 71.221 24.0103 71.2284C24.1639 71.2359 24.2957 71.1987 24.4054 71.1393C24.7421 71.1245 25.0787 71.1393 25.3422 71.2581C25.7886 71.4512 26.1618 71.4363 26.6229 71.3992C26.9376 71.3769 27.1645 71.1319 27.1645 70.8126C27.1645 70.5231 27.1132 70.2855 26.9595 70.1073H26.9742Z" fill="#F0BE07" />
			<path id="Vector_3" d="M33.6708 70.3748C33.4952 68.7487 33.2464 66.9816 32.6243 65.4892C32.595 65.4223 32.4853 65.4298 32.4633 65.504C32.0608 67.1004 32.4779 68.8007 32.6024 70.4342C32.434 70.3971 32.2657 70.3674 32.0901 70.3377C31.7534 70.2783 31.3729 70.308 30.9923 70.3377C30.9557 70.3377 30.9265 70.3228 30.8825 70.3228C30.6776 70.3377 30.4727 70.3525 30.2751 70.3674C29.9238 70.3674 29.697 70.553 29.5945 70.8129C29.5799 70.85 29.5652 70.8946 29.5506 70.9391C29.5506 70.954 29.5506 70.9614 29.5506 70.9762C29.4555 71.4514 29.7116 72.0157 30.3044 71.9712C30.5093 71.9563 30.7142 71.9415 30.9118 71.9192C31.0655 71.9043 31.1899 71.8524 31.2924 71.7781C31.6217 71.7187 31.9583 71.6816 32.2364 71.7558C32.7048 71.8821 33.0707 71.8152 33.5245 71.7113C33.8318 71.6445 34.0221 71.3623 33.9782 71.0505C33.9343 70.7609 33.8538 70.5382 33.6782 70.3822L33.6708 70.3748Z" fill="#F0BE07" />
			<path id="Vector_4" d="M40.5205 70.3373C40.3156 68.7113 40.0375 66.9515 39.3862 65.474C39.3569 65.4071 39.2471 65.422 39.2252 65.4888C38.8519 67.0926 39.291 68.7855 39.4447 70.4116C39.2764 70.3819 39.1081 70.3448 38.9324 70.3225C38.5958 70.2705 38.2152 70.3002 37.8347 70.3373C37.7981 70.3373 37.7688 70.3225 37.7249 70.3225C37.52 70.3373 37.3151 70.3596 37.1175 70.3819C36.7662 70.3819 36.5467 70.5824 36.4442 70.8422C36.4296 70.8794 36.4149 70.9239 36.4076 70.9685C36.4076 70.9833 36.4076 70.9907 36.4076 71.0056C36.3198 71.4808 36.5832 72.0451 37.1834 71.9857C37.3883 71.9708 37.5859 71.9485 37.7908 71.9263C37.9445 71.9114 38.0616 71.852 38.1713 71.7778C38.5007 71.711 38.8373 71.6664 39.1154 71.7406C39.5838 71.8594 39.9497 71.7852 40.4034 71.6738C40.7108 71.5996 40.8938 71.3174 40.8425 71.0056C40.7986 70.716 40.7108 70.4933 40.5278 70.3448L40.5205 70.3373Z" fill="#F0BE07" />
			<path id="Vector_5" d="M47.2536 68.3627C46.6389 66.848 45.929 65.2219 44.9264 63.9597C44.8825 63.9003 44.7727 63.9448 44.78 64.0191C44.8239 65.6674 45.6875 67.1895 46.2437 68.7191C46.068 68.7339 45.8997 68.7488 45.7241 68.7636C45.3874 68.8007 45.0215 68.9344 44.6702 69.0606C44.6336 69.068 44.5971 69.0606 44.5605 69.0755C44.3702 69.1423 44.1726 69.2165 43.9823 69.2908C43.6457 69.3799 43.4774 69.6323 43.4481 69.9071C43.4481 69.9516 43.4408 69.9962 43.4481 70.0407C43.4481 70.0556 43.4481 70.063 43.4481 70.0778C43.4847 70.5605 43.8799 71.0357 44.4434 70.8278C44.6336 70.7609 44.8239 70.6867 45.0142 70.6124C45.1606 70.553 45.263 70.4714 45.3435 70.3674C45.6436 70.2189 45.9583 70.0853 46.2437 70.0853C46.7267 70.0853 47.0633 69.9071 47.4732 69.6843C47.7439 69.5358 47.8537 69.2165 47.7293 68.9195C47.6122 68.6522 47.4732 68.4592 47.2609 68.3627H47.2536Z" fill="#F0BE07" />
			<path id="Vector_6" d="M53.3422 65.5561C52.4859 64.1676 51.5126 62.6826 50.3197 61.6134C50.2611 61.5614 50.166 61.6208 50.1806 61.6951C50.4953 63.3137 51.5931 64.6651 52.4054 66.0758C52.2371 66.1204 52.0688 66.1575 51.9004 66.2095C51.5711 66.306 51.2418 66.499 50.9125 66.6847C50.8759 66.6995 50.8466 66.6995 50.81 66.7218C50.6344 66.8183 50.4514 66.9223 50.2758 67.0336C49.9538 67.1821 49.8367 67.4569 49.8513 67.7316C49.8513 67.7761 49.8513 67.8207 49.8659 67.8578C49.8659 67.8727 49.8659 67.8801 49.8733 67.8949C49.983 68.3627 50.4587 68.7637 50.9783 68.4592C51.154 68.3553 51.3296 68.2513 51.5052 68.1474C51.637 68.0657 51.7248 67.9618 51.7907 67.8504C52.0614 67.6499 52.3542 67.4717 52.6323 67.4197C53.108 67.3306 53.408 67.1079 53.7739 66.8109C54.0154 66.6178 54.074 66.2837 53.8983 66.0164C53.7373 65.7788 53.569 65.608 53.3422 65.5412V65.5561Z" fill="#F0BE07" />
			<path id="Vector_7" d="M28.716 31.1188C27.9403 23.0256 26.601 18.0137 25.9351 17.5088C25.9497 17.5237 26.0229 17.5608 26.1253 17.5459L26.0082 16.2837C26.6962 16.2169 27.4646 16.7218 28.416 20.8278C29.038 23.523 29.5869 27.1316 29.9528 30.9926L28.7087 31.1188H28.716Z" fill="#5F50B8" />
			<path id="Vector_8" d="M34.3369 29.7822H33.0928C33.0928 26.0845 33.2465 22.6022 33.5319 19.9812C33.949 16.1425 34.4613 15.3926 35.2078 15.3926V16.6548C35.3615 16.6548 35.4639 16.5731 35.4859 16.5509C35.0029 17.1449 34.3296 22.0751 34.3296 29.7896L34.3369 29.7822Z" fill="#5F50B8" />
			<path id="Vector_9" d="M39.145 31.3639H37.9009C37.9009 23.976 41.7576 17.9692 46.4999 17.9692V19.2315C42.4456 19.2315 39.145 24.674 39.145 31.3639Z" fill="#5F50B8" />
			<path id="Vector_10" d="M69.0844 31.2893C69.0844 31.2893 68.938 31.2151 68.6599 31.0814C68.5208 31.0146 68.3525 30.9329 68.1476 30.8587C67.95 30.7844 67.7231 30.6805 67.4524 30.6062C66.9254 30.4206 66.2668 30.2795 65.5057 30.1756C64.7446 30.0939 63.8737 30.0865 62.9589 30.2424C62.0441 30.3983 61.0927 30.7325 60.2365 31.3042C59.8047 31.5863 59.4168 31.9427 59.0582 32.3363C58.8753 32.5293 58.7289 32.7669 58.5606 32.9748L58.5313 33.0119C58.5825 32.9377 58.5386 32.9971 58.5533 32.9822V32.9971L58.5313 33.0194L58.4728 33.1159L58.3557 33.3164L58.1215 33.7173L58.0044 33.9178L57.9312 34.1108L57.7775 34.4895C57.6604 34.7271 57.5873 35.0167 57.5068 35.2988L57.3823 35.722L57.2945 36.1675C57.236 36.4645 57.1701 36.7615 57.1408 37.066C56.9725 38.2911 56.9506 39.5756 56.9652 40.8824C56.9725 42.1966 57.0164 43.5406 56.9652 44.9067C56.914 46.2655 56.7749 47.6614 56.3944 49.0128C56.2773 49.3469 56.1675 49.681 56.0577 50.0151L56.0138 50.1414L55.9479 50.2973L55.8601 50.5052L55.6772 50.921C55.5381 51.2105 55.3478 51.5447 55.1868 51.8491C55.0039 52.1387 54.8209 52.4134 54.638 52.6955C53.8549 53.7796 52.8523 54.6706 51.7765 55.2646C50.7007 55.866 49.5737 56.1482 48.593 56.2521C47.605 56.3486 46.7634 56.2595 46.0828 56.163C45.4095 56.0442 44.8973 55.918 44.5533 55.8066C44.2093 55.7027 44.0264 55.6433 44.0264 55.6433L45.3364 52.1015C45.3364 52.1015 45.4608 52.1535 45.7023 52.2426C45.9438 52.3466 46.2951 52.4579 46.7415 52.5767C47.1879 52.6733 47.7368 52.7846 48.3515 52.7698C48.9589 52.7549 49.6322 52.6436 50.3055 52.3391C50.9861 52.0347 51.6667 51.5372 52.2815 50.8244C52.4278 50.6388 52.5742 50.4458 52.7206 50.2527C52.845 50.0523 52.9694 49.8815 53.1084 49.6439L53.3207 49.2429L53.4304 49.0425L53.4597 48.9905L53.4743 48.9682V48.9534C53.4743 48.9534 53.5109 48.894 53.467 48.9905L53.5036 48.9014C53.6061 48.6638 53.7158 48.4188 53.8183 48.1737C54.1915 47.1491 54.4111 45.9759 54.5575 44.7285C54.6965 43.4811 54.7624 42.1669 54.8575 40.823C54.9453 39.4791 55.0771 38.1055 55.3625 36.7467C55.421 36.4051 55.5162 36.071 55.6113 35.7369L55.7503 35.2394L55.9333 34.7494C56.0577 34.4227 56.1675 34.1108 56.3505 33.7841L56.592 33.3089L56.7164 33.0713L56.8481 32.8783L57.1116 32.4922L57.2433 32.2991L57.3092 32.2026L57.3677 32.1135L57.4116 32.069C57.6385 31.8165 57.8361 31.5566 58.0776 31.3265C58.5533 30.8735 59.0582 30.48 59.6071 30.183C60.6829 29.5742 61.8172 29.2846 62.8491 29.1955C63.8883 29.099 64.8324 29.1881 65.6447 29.3366C66.4571 29.5148 67.145 29.7227 67.6939 29.9603C67.972 30.0642 68.2135 30.1904 68.4184 30.287C68.6306 30.3835 68.7989 30.48 68.9307 30.5617C69.1941 30.7176 69.3405 30.7993 69.3405 30.7993L69.1063 31.2522L69.0844 31.2893Z" fill="#5F50B8" />
			<path id="Vector_11" d="M55.7647 57.292C55.7647 72.6394 11.4155 72.6394 11.4155 57.292C11.4155 41.9445 22.3272 29.5522 33.1876 29.5522C44.048 29.5522 55.7647 41.952 55.7647 57.292Z" fill="#5F50B8" />
			<g id="Vector_12" style="mix-blend-mode:screen" opacity="0.2">
				<path d="M33.7511 33.8439C43.1478 33.8439 53.1667 43.1177 55.7061 55.5545C54.8645 41.0238 43.6382 29.5522 33.1876 29.5522C22.737 29.5522 11.4155 41.952 11.4155 57.292C11.4155 58.3315 11.6278 59.3041 12.0083 60.2025C12.6377 45.5011 23.2127 33.8439 33.7511 33.8439Z" fill="#5F50B8" />
			</g>
			<path id="Vector_13" d="M24.2888 37.8904H23.0446C23.0446 30.2798 19.0708 24.0948 14.1895 24.0948V22.8325C19.7587 22.8325 24.2888 29.5892 24.2888 37.8978V37.8904Z" fill="#5F50B8" />
			<path id="Vector_14" d="M24.2888 37.8904H23.0446C23.0446 30.2798 19.0708 24.0948 14.1895 24.0948V22.8325C19.7587 22.8325 24.2888 29.5892 24.2888 37.8978V37.8904Z" fill="#5F50B8" />
			<path id="Vector_15" d="M43.1333 37.5783H41.8892C41.8892 30.4652 47.1145 24.6812 53.5326 24.6812V25.9434C47.7951 25.9434 43.1333 31.1632 43.1333 37.5783Z" fill="#5F50B8" />
			<g id="Group_3">
				<g id="Vector_16" style="mix-blend-mode:multiply">
					<path d="M13.1942 27.525C10.0839 27.525 7.55176 24.956 7.55176 21.8003C7.55176 21.5182 7.58103 21.236 7.63958 20.8945C8.07136 18.1101 10.4059 16.0757 13.1942 16.0757C16.3045 16.0757 18.8366 18.6447 18.8366 21.8003C18.8366 24.956 16.3045 27.525 13.1942 27.525Z" fill="#F0D907" />
				</g>
				<path id="Vector_17" d="M13.1942 27.525C10.0839 27.525 7.55176 24.956 7.55176 21.8003C7.55176 21.5182 7.58103 21.236 7.63958 20.8945C8.07136 18.1101 10.4059 16.0757 13.1942 16.0757C16.3045 16.0757 18.8366 18.6447 18.8366 21.8003C18.8366 24.956 16.3045 27.525 13.1942 27.525Z" fill="#F0D907" />
				<g id="Group_4">
					<g id="Group_5">
						<path id="Vector_18" d="M8.53223 21.8005C8.53223 24.4141 10.618 26.5302 13.194 26.5302C15.7701 26.5302 17.8558 24.4141 17.8558 21.8005C17.8558 19.1869 15.7701 17.0708 13.194 17.0708C10.618 17.0708 8.53223 19.1869 8.53223 21.8005Z" fill="white" />
						<path id="Vector_19" d="M8.70787 20.5903C8.85423 23.0703 10.8595 25.0379 13.3404 25.0379C15.4993 25.0379 17.2996 23.538 17.8265 21.5185C17.8265 21.615 17.8558 21.7041 17.8558 21.8006C17.8558 24.4142 15.7701 26.5303 13.194 26.5303C10.618 26.5303 8.53223 24.4142 8.53223 21.8006C8.53223 21.3774 8.60541 20.9764 8.70787 20.5903Z" fill="#E8E8E8" />
					</g>
					<g id="Group_6">
						<path id="Vector_20" d="M11.4596 22.6841C12.4183 23.5454 13.8893 23.4563 14.7382 22.4836C15.5871 21.5109 15.5066 20.0185 14.5406 19.1572C13.5819 18.2959 12.1109 18.385 11.262 19.3577C10.4131 20.3304 10.5009 21.8228 11.4596 22.6841Z" fill="black" />
						<path id="Vector_21" d="M12.5354 20.5011C12.916 20.8427 13.5088 20.813 13.8454 20.4195C14.182 20.0334 14.1528 19.4394 13.7649 19.0904C13.3843 18.7489 12.7916 18.7786 12.4549 19.1721C12.111 19.5582 12.1476 20.1596 12.5281 20.5011H12.5354Z" fill="white" />
					</g>
				</g>
			</g>
			<g id="Group_7">
				<g id="Vector_22" style="mix-blend-mode:multiply">
					<path d="M34.4023 20.8501C31.3579 20.8501 28.8843 18.3404 28.8843 15.2517C28.8843 14.9769 28.9135 14.6948 28.9721 14.3681C29.3892 11.6505 31.6726 9.66064 34.4023 9.66064C37.4467 9.66064 39.9203 12.1703 39.9203 15.2591C39.9203 18.3479 37.4467 20.8575 34.4023 20.8575V20.8501Z" fill="#F0D907" />
				</g>
				<path id="Vector_23" d="M34.4023 20.8501C31.3579 20.8501 28.8843 18.3404 28.8843 15.2517C28.8843 14.9769 28.9135 14.6948 28.9721 14.3681C29.3892 11.6505 31.6726 9.66064 34.4023 9.66064C37.4467 9.66064 39.9203 12.1703 39.9203 15.2591C39.9203 18.3479 37.4467 20.8575 34.4023 20.8575V20.8501Z" fill="#F0D907" />
				<g id="Group_8">
					<g id="Group_9">
						<path id="Vector_24" d="M29.8428 15.2591C29.8428 17.8133 31.8846 19.8848 34.4021 19.8848C36.9196 19.8848 38.9614 17.8133 38.9614 15.2591C38.9614 12.7049 36.9196 10.6333 34.4021 10.6333C31.8846 10.6333 29.8428 12.7049 29.8428 15.2591Z" fill="white" />
						<path id="Vector_25" d="M30.0184 14.0713C30.1648 16.4918 32.1261 18.4149 34.5485 18.4149C36.6561 18.4149 38.4199 16.9522 38.9322 14.9771C38.9322 15.0737 38.9614 15.1628 38.9614 15.2519C38.9614 17.8061 36.9196 19.8776 34.4021 19.8776C31.8846 19.8776 29.8428 17.8061 29.8428 15.2519C29.8428 14.8435 29.916 14.45 30.0111 14.0713H30.0184Z" fill="#E8E8E8" />
					</g>
					<g id="Group_10">
						<path id="Vector_26" d="M32.7043 16.1131C33.641 16.9595 35.0754 16.8704 35.9097 15.92C36.744 14.9696 36.6562 13.5143 35.7194 12.6679C34.7827 11.8214 33.3483 11.9105 32.514 12.8609C31.6797 13.8113 31.7675 15.2666 32.7043 16.1131Z" fill="black" />
						<path id="Vector_27" d="M33.758 13.9896C34.1312 14.3237 34.7094 14.294 35.0387 13.9079C35.368 13.5292 35.3388 12.9501 34.9655 12.6085C34.5923 12.2744 34.0215 12.3041 33.6848 12.6828C33.3482 13.0615 33.3848 13.648 33.758 13.9822V13.9896Z" fill="white" />
					</g>
				</g>
			</g>
			<g id="Group_11">
				<g id="Vector_28" style="mix-blend-mode:multiply">
					<path d="M53.5254 29.7895C50.4809 29.7895 48.0073 27.2799 48.0073 24.1911C48.0073 23.9164 48.0366 23.6342 48.0951 23.3075C48.5123 20.59 50.7956 18.6001 53.5254 18.6001C56.5698 18.6001 59.0434 21.1097 59.0434 24.1985C59.0434 27.2873 56.5698 29.797 53.5254 29.797V29.7895Z" fill="#F0D907" />
				</g>
				<path id="Vector_29" d="M53.5254 29.7895C50.4809 29.7895 48.0073 27.2799 48.0073 24.1911C48.0073 23.9164 48.0366 23.6342 48.0951 23.3075C48.5123 20.59 50.7956 18.6001 53.5254 18.6001C56.5698 18.6001 59.0434 21.1097 59.0434 24.1985C59.0434 27.2873 56.5698 29.797 53.5254 29.797V29.7895Z" fill="#F0D907" />
				<g id="Group_12">
					<g id="Group_13">
						<path id="Vector_30" d="M48.9658 24.1985C48.9658 26.7527 51.0076 28.8243 53.5251 28.8243C56.0427 28.8243 58.0845 26.7527 58.0845 24.1985C58.0845 21.6443 56.0427 19.5728 53.5251 19.5728C51.0076 19.5728 48.9658 21.6443 48.9658 24.1985Z" fill="white" />
						<path id="Vector_31" d="M49.1415 23.0181C49.2878 25.4386 51.2491 27.3617 53.6715 27.3617C55.7792 27.3617 57.5429 25.899 58.0552 23.9239C58.0552 24.0204 58.0845 24.1095 58.0845 24.1986C58.0845 26.7528 56.0427 28.8244 53.5251 28.8244C51.0076 28.8244 48.9658 26.7528 48.9658 24.1986C48.9658 23.7903 49.039 23.3967 49.1341 23.0181H49.1415Z" fill="#E8E8E8" />
					</g>
					<g id="Group_14">
						<path id="Vector_32" d="M51.8273 25.0525C52.7641 25.899 54.1985 25.8099 55.0328 24.8595C55.8671 23.9091 55.7792 22.4538 54.8425 21.6073C53.9057 20.7609 52.4713 20.85 51.6371 21.8004C50.8028 22.7508 50.8906 24.2061 51.8273 25.0525Z" fill="black" />
						<path id="Vector_33" d="M52.8884 22.929C53.2616 23.2632 53.8398 23.2335 54.1691 22.8474C54.4984 22.4687 54.4691 21.8896 54.0959 21.548C53.7227 21.2139 53.1518 21.2436 52.8152 21.6223C52.4785 22.0009 52.5151 22.5875 52.8884 22.9216V22.929Z" fill="white" />
					</g>
				</g>
			</g>
			<g id="Group_15">
				<g id="Vector_34" style="mix-blend-mode:multiply">
					<path d="M25.3133 24.622C21.4711 24.622 18.3462 21.4516 18.3462 17.5534C18.3462 17.2119 18.3828 16.8555 18.456 16.4323C18.9829 13.0019 21.8663 10.4849 25.3133 10.4849C29.1554 10.4849 32.2803 13.6553 32.2803 17.5534C32.2803 21.4516 29.1554 24.622 25.3133 24.622Z" fill="#F0D907" />
				</g>
				<path id="Vector_35" d="M25.3133 24.622C21.4711 24.622 18.3462 21.4516 18.3462 17.5534C18.3462 17.2119 18.3828 16.8555 18.456 16.4323C18.9829 13.0019 21.8663 10.4849 25.3133 10.4849C29.1554 10.4849 32.2803 13.6553 32.2803 17.5534C32.2803 21.4516 29.1554 24.622 25.3133 24.622Z" fill="#F0D907" />
				<g id="Group_16">
					<g id="Group_17">
						<path id="Vector_36" d="M19.561 17.5606C19.561 20.7831 22.1371 23.3967 25.3133 23.3967C28.4894 23.3967 31.0655 20.7831 31.0655 17.5606C31.0655 14.3382 28.4894 11.7246 25.3133 11.7246C22.1371 11.7246 19.561 14.3382 19.561 17.5606Z" fill="white" />
						<path id="Vector_37" d="M19.7806 16.061C19.9636 19.1201 22.4371 21.5481 25.4962 21.5481C28.1601 21.5481 30.3849 19.6993 31.0362 17.2045C31.0435 17.3233 31.0728 17.4347 31.0728 17.5535C31.0728 20.7759 28.4967 23.3895 25.3206 23.3895C22.1444 23.3895 19.5684 20.7759 19.5684 17.5535C19.5684 17.0337 19.6562 16.5362 19.7806 16.061Z" fill="#E8E8E8" />
					</g>
					<g id="Group_18">
						<path id="Vector_38" d="M23.1761 18.637C24.3617 19.7062 26.1693 19.5949 27.2232 18.392C28.277 17.1892 28.1672 15.3478 26.9817 14.286C25.7961 13.2168 23.9812 13.3282 22.9346 14.531C21.8808 15.7339 21.9906 17.5678 23.1761 18.637Z" fill="black" />
						<path id="Vector_39" d="M24.5081 15.9564C24.9838 16.3796 25.7084 16.3351 26.1255 15.8599C26.5426 15.3772 26.4987 14.6422 26.0304 14.2189C25.5547 13.7957 24.8302 13.8403 24.413 14.3155C23.9959 14.7981 24.0398 15.5332 24.5081 15.9564Z" fill="white" />
					</g>
				</g>
			</g>
			<g id="Group_19">
				<g id="Vector_40" style="mix-blend-mode:multiply">
					<path d="M44.092 25.0899C40.2133 25.0899 37.0518 21.8823 37.0518 17.947C37.0518 17.5981 37.0883 17.2417 37.1615 16.811C37.6958 13.3435 40.6158 10.8042 44.092 10.8042C47.9707 10.8042 51.1322 14.0118 51.1322 17.947C51.1322 21.8823 47.978 25.0899 44.092 25.0899Z" fill="#F0D907" />
				</g>
				<path id="Vector_41" d="M44.092 25.0899C40.2133 25.0899 37.0518 21.8823 37.0518 17.947C37.0518 17.5981 37.0883 17.2417 37.1615 16.811C37.6958 13.3435 40.6158 10.8042 44.092 10.8042C47.9707 10.8042 51.1322 14.0118 51.1322 17.947C51.1322 21.8823 47.978 25.0899 44.092 25.0899Z" fill="#F0D907" />
				<g id="Group_20">
					<g id="Group_21">
						<path id="Vector_42" d="M38.2739 17.9468C38.2739 21.2064 40.8793 23.8497 44.092 23.8497C47.3048 23.8497 49.9101 21.2064 49.9101 17.9468C49.9101 14.6872 47.3048 12.0439 44.092 12.0439C40.8793 12.0439 38.2739 14.6872 38.2739 17.9468Z" fill="white" />
						<path id="Vector_43" d="M38.4935 16.4321C38.6764 19.5209 41.1793 21.9786 44.275 21.9786C46.9681 21.9786 49.2148 20.1075 49.8735 17.5904C49.8808 17.7092 49.9101 17.8206 49.9101 17.9468C49.9101 21.2064 47.3048 23.8497 44.092 23.8497C40.8793 23.8497 38.2739 21.2064 38.2739 17.9468C38.2739 17.4197 38.3617 16.9222 38.4935 16.4396V16.4321Z" fill="#E8E8E8" />
					</g>
					<g id="Group_22">
						<path id="Vector_44" d="M41.9257 19.0382C43.1259 20.1148 44.9555 20.0035 46.0167 18.7932C47.0778 17.5755 46.9754 15.7192 45.7752 14.6426C44.575 13.566 42.7454 13.6774 41.6842 14.8876C40.6231 16.1053 40.7328 17.9616 41.9257 19.0382Z" fill="black" />
						<path id="Vector_45" d="M43.2724 16.3205C43.7481 16.7512 44.4799 16.7066 44.9117 16.224C45.3362 15.7414 45.2923 14.9989 44.8166 14.5682C44.3409 14.1376 43.609 14.1821 43.1846 14.6648C42.7601 15.1474 42.804 15.8899 43.2797 16.3205H43.2724Z" fill="white" />
					</g>
				</g>
			</g>
			<g id="Group_23">
				<path id="Vector_46" d="M33.9486 45.5234C32.0751 45.5234 30.3406 45.1299 28.8989 44.4542C28.8989 44.4839 28.8989 44.5062 28.8989 44.5359C28.8989 47.9514 31.2774 50.7283 34.212 50.7283C37.1467 50.7283 39.5252 47.9588 39.5252 44.5359C39.5252 44.4171 39.5178 44.3057 39.5105 44.1943C37.981 45.0259 36.0563 45.5308 33.9559 45.5308L33.9486 45.5234Z" fill="#315400" />
				<path id="Vector_47" d="M39.4959 44.209C39.2544 47.3646 36.9784 49.8445 34.212 49.8445C31.4457 49.8445 29.3088 47.5131 28.9575 44.4911C28.9428 44.4911 28.9209 44.4763 28.9062 44.4689C28.9062 44.4986 28.9062 44.5208 28.9062 44.5505C28.9062 47.966 31.2847 50.743 34.2194 50.743C37.154 50.743 39.5325 47.9734 39.5325 44.5505C39.5325 44.4317 39.5252 44.3204 39.5178 44.209C39.5178 44.209 39.5178 44.209 39.5105 44.209H39.4959Z" fill="#89C23A" />
				<g id="Group_24">
					<path id="Vector_48" d="M32.558 45.449C32.0749 45.397 31.6066 45.3154 31.1528 45.2114C31.387 45.9168 31.6358 46.637 31.7383 47.0677C31.9286 47.8621 32.2945 46.3103 32.558 45.4416V45.449Z" fill="white" />
					<path id="Vector_49" d="M35.6172 45.4121C35.8806 46.2883 36.2246 47.7287 36.4076 46.9565C36.51 46.5407 36.7515 45.8428 36.9784 45.1597C36.5393 45.271 36.0856 45.3527 35.6172 45.4121Z" fill="white" />
					<path id="Vector_50" d="M34.8777 45.4863C34.5704 45.5086 34.263 45.5235 33.9483 45.5235C33.7653 45.5235 33.5897 45.5235 33.4141 45.5086C33.5677 45.865 33.758 46.2734 33.9337 46.7189C34.3289 47.7064 34.563 46.3996 34.8704 45.4863H34.8777Z" fill="white" />
				</g>
			</g>
			<path id="Vector_51" d="M46.1922 50.0229C46.1922 50.0229 46.1629 50.0749 46.1922 50.0749C46.2215 50.0749 46.2215 50.0229 46.1922 50.0229Z" fill="#5F50B8" />
			<path id="Vector_52" d="M64.7808 29.7824C66.6542 30.4804 65.5345 34.0815 65.959 35.7299C66.4786 35.3586 66.786 34.7275 67.3129 34.4602C67.2909 37.0515 69.2376 39.331 71.9161 39.4795C71.5283 38.3063 70.3866 37.1035 70.4159 35.7596C71.3819 35.6333 72.2894 36.9401 73.0578 37.4079C72.1503 36.361 72.8529 35.0765 73.2261 33.9404C73.5188 34.4082 73.8409 34.9948 74.3312 35.2101C74.5288 33.6137 75.0484 31.661 74.0458 30.2576C72.8895 28.639 70.4012 28.394 68.6448 28.8766C69.1352 28.8989 69.7792 28.5499 70.4232 28.4905C70.2695 28.1861 69.9475 28.1861 69.6474 28.2529C70.0426 27.9559 70.1597 27.6589 70.6427 27.5401C68.235 26.2036 64.7734 29.775 64.7734 29.775L64.7808 29.7824Z" fill="#F0D907" />
			<path id="Vector_53" d="M29.1625 38.1504C28.3941 38.1504 28.3136 39.3607 29.0893 39.3607C29.8651 39.3607 29.9382 38.1504 29.1625 38.1504Z" fill="#F0D907" />
			<path id="Vector_54" d="M32.2731 39.8506C31.8706 39.8506 31.8925 40.4891 32.295 40.4891C32.6975 40.4891 32.6756 39.8506 32.2731 39.8506Z" fill="#F0D907" />
			<path id="Vector_55" d="M32.3972 42.0186C31.9801 42.0186 32.0094 42.6794 32.4265 42.6794C32.8437 42.6794 32.8144 42.0186 32.3972 42.0186Z" fill="#F0D907" />
			<path id="Vector_56" d="M30.7288 41.1646C30.2019 41.1646 30.2824 41.9887 30.8093 41.9887C31.3362 41.9887 31.2557 41.1646 30.7288 41.1646Z" fill="#F0D907" />
			<path id="Vector_57" d="M27.3184 42.4644C26.3158 42.4644 26.389 44.0384 27.3916 44.0384C28.3942 44.0384 28.321 42.4644 27.3184 42.4644Z" fill="#F0D907" />
			<path id="Vector_58" d="M31.4603 42.9766C31.1749 42.9766 30.9188 43.1399 30.8895 43.4443C30.8602 43.7116 31.0651 44.0235 31.3506 44.0235C31.636 44.0235 31.8921 43.8601 31.9287 43.5557C31.958 43.2958 31.7531 42.9766 31.4677 42.9766H31.4603Z" fill="#F0D907" />
			<path id="Vector_59" d="M34.6878 42.6646C33.7877 42.6646 33.7877 44.0827 34.6878 44.0827C35.588 44.0827 35.588 42.6646 34.6878 42.6646Z" fill="#F0D907" />
			<path id="Vector_60" d="M34.8269 41.6846C34.6366 41.6846 34.6147 41.9816 34.8123 41.9816C35.0099 41.9816 35.0245 41.6846 34.8269 41.6846Z" fill="#F0D907" />
			<path id="Vector_61" d="M34.593 39.2861C33.8026 39.2861 33.7368 40.5335 34.5345 40.5335C35.3322 40.5335 35.3907 39.2861 34.593 39.2861Z" fill="#F0D907" />
			<path id="Vector_62" d="M36.8905 41.0388C36.5392 41.0017 36.1075 41.4472 36.349 41.8036C36.3782 41.8555 36.4148 41.9001 36.4441 41.9521C36.671 42.2491 37.1467 42.1897 37.293 41.8333C37.2491 41.9149 37.2418 41.9372 37.2711 41.8927C37.4906 41.5511 37.3077 41.0759 36.8905 41.0388Z" fill="#F0D907" />
			<path id="Vector_63" d="M36.8251 43.4219C36.4006 43.4219 36.4299 44.0975 36.8544 44.0975C37.2788 44.0975 37.2495 43.4219 36.8251 43.4219Z" fill="#F0D907" />
			<path id="Vector_64" d="M38.6106 43.251C38.2886 43.251 38.2886 43.7559 38.6106 43.7559C38.9327 43.7559 38.9327 43.251 38.6106 43.251Z" fill="#F0D907" />
			<path id="Vector_65" d="M38.098 41.6772C37.7321 41.6772 37.7395 42.2564 38.1127 42.2564C38.4859 42.2564 38.4713 41.6772 38.098 41.6772Z" fill="#F0D907" />
			<path id="Vector_66" d="M32.2582 37.4746C31.7606 37.4746 31.8264 38.2542 32.3168 38.2542C32.8071 38.2542 32.7485 37.4746 32.2582 37.4746Z" fill="#F0D907" />
			<path id="Vector_67" d="M37.0738 39.1899C36.6347 39.1899 36.6713 39.873 37.1104 39.873C37.5495 39.873 37.5129 39.1899 37.0738 39.1899Z" fill="#F0D907" />
			<path id="Vector_68" d="M40.1696 39.5835C39.4231 39.5835 39.3353 40.7566 40.0891 40.7566C40.8428 40.7566 40.9233 39.5835 40.1696 39.5835Z" fill="#F0D907" />
			<path id="Vector_69" d="M40.5497 42.8872C39.4373 42.8872 39.613 44.6321 40.7181 44.6321C41.8231 44.6321 41.6548 42.8872 40.5497 42.8872Z" fill="#F0D907" />
			<path id="Vector_70" d="M37.4176 38.3433C37.4176 38.3433 37.4103 38.3433 37.4029 38.3358C37.1322 38.2245 36.8101 38.3878 36.7662 38.6922C36.715 39.0412 37.0663 39.3159 37.3883 39.1897C37.4029 39.1823 37.4176 39.1749 37.4322 39.1674C37.842 39.0783 37.8786 38.3953 37.4176 38.3507V38.3433Z" fill="#F0D907" />
			<path id="Vector_71" d="M39.2985 37.9795C38.6325 37.9795 38.5154 39.0338 39.1887 39.0338C39.862 39.0338 39.9718 37.9795 39.2985 37.9795Z" fill="#F0D907" />
			<path id="Vector_72" d="M35.5736 36.2422C35.1858 36.2422 34.8638 36.5763 34.8638 36.9698C34.8638 37.3634 35.1931 37.6901 35.581 37.6901C35.9688 37.6901 36.2908 37.3559 36.2908 36.9624C36.2908 36.5689 35.9615 36.2422 35.5736 36.2422Z" fill="#F0D907" />
			<path id="Vector_73" d="M26.5644 39.7837C26.0667 39.7837 26.1326 40.5633 26.6229 40.5633C27.1132 40.5633 27.0547 39.7837 26.5644 39.7837Z" fill="#F0D907" />
			<path id="Vector_74" d="M28.9721 40.8383C28.8843 40.4522 28.3427 40.5487 28.2622 40.8828C28.2476 40.9496 28.2476 41.009 28.2476 41.0759C28.2476 41.5733 29.0013 41.5139 29.0013 41.0165C29.0013 40.9571 28.9867 40.8977 28.9721 40.8383Z" fill="#F0D907" />
			<path id="Vector_75" d="M24.4495 42.739C24.0836 42.5459 23.6591 42.8058 23.6298 43.2067C23.6079 43.5037 23.8421 43.8304 24.1494 43.8304C24.7861 43.8304 25.0276 43.0508 24.4495 42.7464V42.739Z" fill="#F0D907" />
			<path id="Vector_76" d="M25.9646 45.9315C25.9427 45.8796 25.9207 45.8276 25.8988 45.7756C25.7963 45.486 25.4158 45.3969 25.1816 45.5751C24.9181 45.7756 24.9401 46.2731 25.2767 46.3919C25.3206 46.4067 25.3645 46.429 25.4084 46.4439C25.7158 46.5701 26.1037 46.2879 25.9573 45.9315H25.9646Z" fill="#F0D907" />
			<path id="Vector_77" d="M28.2042 46.1619C28.2042 46.1619 28.1823 46.147 28.1676 46.1396C27.9334 45.9911 27.648 46.2213 27.6627 46.4737C27.6773 46.741 27.9773 46.8895 28.1969 46.7484C28.2042 46.7484 28.2115 46.7336 28.2262 46.7336C28.4384 46.5925 28.4091 46.2955 28.2042 46.1619Z" fill="#F0D907" />
			<path id="Vector_78" d="M25.3498 38.4546C25.1156 38.4546 24.9473 38.7145 24.9692 38.9298C24.9985 39.1822 25.2034 39.3159 25.4376 39.3159C25.6718 39.3159 25.8401 39.056 25.8181 38.8407C25.7889 38.5882 25.584 38.4546 25.3498 38.4546Z" fill="#F0D907" />
			<path id="Vector_79" d="M42.5403 41.1795L42.5257 41.1275C42.4086 40.7043 41.8524 40.8454 41.7573 41.1943L41.7426 41.2612C41.6694 41.5285 41.9402 41.7735 42.189 41.7512C42.4745 41.7215 42.6062 41.4468 42.5403 41.1869V41.1795Z" fill="#F0D907" />
			<path id="Vector_80" d="M31.3288 34.8979C30.6628 34.8979 30.5457 35.9523 31.219 35.9523C31.8923 35.9523 32.002 34.8979 31.3288 34.8979Z" fill="#F0D907" />
			<path id="Vector_81" d="M27.7794 35.0913C27.0329 35.0913 26.9451 36.2645 27.6989 36.2645C28.4527 36.2645 28.5332 35.0913 27.7794 35.0913Z" fill="#F0D907" />
			<path id="Vector_82" d="M33.9342 35.2471C33.8757 35.2471 33.861 35.3436 33.9196 35.3436C33.9781 35.3436 33.9928 35.2471 33.9342 35.2471Z" fill="#F0D907" />
			<path id="Vector_83" d="M33.7586 34.0146C33.2098 34.0146 32.7121 34.3636 32.6682 34.9576C32.6243 35.4848 33.0414 36.0639 33.5976 36.0639C34.1538 36.0639 34.6442 35.715 34.6881 35.121C34.732 34.5938 34.3148 34.0146 33.7586 34.0146Z" fill="#F0D907" />
			<path id="Vector_84" d="M37.3299 38.2247C37.1908 38.2247 37.0445 38.2247 36.9054 38.2173C36.3053 38.247 35.9613 38.9746 36.1809 39.4944C36.3053 39.7914 36.5761 40.0067 36.8908 40.0513C37.1689 40.0884 37.6006 39.977 37.7397 39.7023C37.8275 39.5389 37.9373 39.3904 37.9519 39.1974C37.9885 38.7222 37.7909 38.3732 37.3299 38.2321V38.2247Z" fill="#F0D907" />
			<path id="Vector_85" d="M38.1862 35.5142C37.9593 35.5142 37.791 35.7666 37.813 35.9819C37.8349 36.2344 38.0471 36.3606 38.274 36.3606C38.5009 36.3606 38.6692 36.1082 38.6473 35.8928C38.618 35.6404 38.4131 35.5142 38.1862 35.5142Z" fill="#F0D907" />
			<path id="Vector_86" d="M41.0402 39.9176C40.967 39.3607 40.5133 39.1157 40.0083 39.1157C39.5033 39.1157 39.1594 39.7097 39.2179 40.1626C39.2911 40.7195 39.7448 40.9645 40.2498 40.9645C40.7548 40.9645 41.0987 40.3705 41.0402 39.9176Z" fill="#F0D907" />
			<path id="Vector_87" d="M41.8088 37.2368C40.6818 37.2368 40.8721 38.9965 41.9844 38.9965C43.0968 38.9965 42.9212 37.2368 41.8088 37.2368Z" fill="#F0D907" />
			<path id="Vector_88" d="M23.8057 40.6819C23.8057 40.6819 23.8057 40.6745 23.7984 40.6671C23.5715 40.3478 23.0592 40.4815 23.0007 40.8676C22.9348 41.2834 23.5276 41.6101 23.7837 41.224C23.8935 41.0606 23.9228 40.8676 23.7984 40.6968L23.8057 40.6819Z" fill="#F0D907" />
			<path id="Vector_89" d="M23.6594 40.7191C23.6009 40.4221 23.3374 40.1622 23.0227 40.1548C22.7154 40.1548 22.4446 40.3033 22.2982 40.578C22.1445 40.8676 22.1811 41.2314 22.4226 41.4616C22.6934 41.7289 23.0593 41.714 23.3521 41.521C23.3447 41.521 23.3447 41.5284 23.3594 41.521C23.3813 41.5061 23.396 41.4913 23.4179 41.4764C23.4252 41.4764 23.4326 41.4616 23.4399 41.4542C23.4252 41.4616 23.4252 41.4616 23.4179 41.469C23.6448 41.2834 23.7399 40.979 23.6521 40.7191H23.6594Z" fill="#F0D907" />
			<path id="Vector_90" d="M43.4114 42.7983C42.5113 42.7983 42.5113 44.2165 43.4114 44.2165C44.3116 44.2165 44.3116 42.7983 43.4114 42.7983Z" fill="#F0D907" />
			<path id="Vector_91" d="M43.2136 45.6419C43.1477 45.6344 43.0891 45.627 43.0233 45.6419C42.7159 45.6864 42.5988 46.1913 42.9647 46.2433C43.0306 46.2507 43.0891 46.2656 43.155 46.2581C43.4697 46.2136 43.5868 45.7013 43.2136 45.6493V45.6419Z" fill="#F0D907" />
			<path id="Vector_92" d="M44.6555 41.0903C44.1945 41.0903 44.2457 41.8106 44.6994 41.8106C45.1532 41.8106 45.1093 41.0903 44.6555 41.0903Z" fill="#F0D907" />
			<path id="Vector_93" d="M72.6262 30.1533C71.9749 29.2772 70.8332 28.9356 69.7282 28.9356C69.5818 28.9728 69.1793 28.8836 68.6597 28.8391C68.6597 28.7351 68.6597 28.6238 68.7036 28.5124C68.8353 28.1857 69.1793 27.9258 69.494 27.7848C68.9085 27.7699 68.4109 28.0446 67.9644 28.4085C67.8474 28.505 67.679 28.6683 67.4888 28.8317C66.8594 28.9059 66.1934 29.1212 65.6445 29.6484C66.3325 30.1979 66.7203 32.0615 66.8082 32.7372C66.8667 33.1679 66.874 33.5837 66.8447 33.9995C66.9838 33.8435 67.1228 33.695 67.2985 33.5985C67.3204 35.6701 68.4548 38.1426 70.5917 38.2168C70.2697 37.2887 69.7867 35.6627 69.794 34.586C70.5625 34.4672 71.3089 35.4993 71.931 35.8631C71.1918 35.039 71.7334 34.0069 72.0188 33.0936C72.2603 33.4574 72.5238 33.9252 72.919 34.0886C73.0507 32.8115 73.4386 31.2448 72.6189 30.1385L72.6262 30.1533Z" fill="#F0BE07" />
			<path id="Vector_94" d="M23.5421 0.15664C23.5421 0.15664 23.586 0.14179 23.6446 0.134365C23.8422 0.0972406 24.0032 0.0378407 24.0105 0.00814083C24.0471 -0.0141341 23.908 -0.0141341 24.2007 0.327415C24.2154 0.342265 24.2739 0.416515 24.2886 0.423939C24.3105 0.446214 24.413 0.616989 24.5886 0.891713C24.6911 1.03279 24.7789 1.18871 24.874 1.35949C24.9619 1.52284 25.1155 1.72331 25.2107 1.91636C25.4302 2.30246 25.6351 2.73311 25.8108 3.15633C25.9937 3.58698 26.1255 4.01763 26.2133 4.44085C26.3011 4.86408 26.345 5.26502 26.3523 5.6437C26.367 6.01495 26.3304 6.36392 26.2938 6.65349C26.2426 6.95792 26.1987 7.18809 26.1401 7.37372C26.0889 7.55192 26.0596 7.64844 26.0596 7.64844C26.0596 7.64844 26.0084 7.72269 25.9132 7.84892C25.8254 7.97514 25.6791 8.16819 25.5473 8.39094C25.401 8.61369 25.24 8.88841 25.1082 9.17056C25.0424 9.31164 24.9838 9.46014 24.9179 9.60863C24.8667 9.74971 24.8374 9.89078 24.8082 10.0244C24.7204 10.4922 24.8082 10.7521 24.8521 10.908C24.9106 11.0491 24.9545 11.0639 24.9179 11.0342C24.8887 11.0045 24.7862 10.9526 24.574 10.9006C24.3691 10.8486 24.0763 10.7744 23.7616 10.6481C23.7763 10.6704 23.6153 10.6036 23.3225 10.4774C23.1908 10.4105 23.0225 10.3289 22.8542 10.2323C22.6785 10.1358 22.4809 10.017 22.3126 9.89821C21.954 9.66061 21.5954 9.37104 21.3539 9.14829C21.1124 8.91811 20.9441 8.76961 20.9441 8.76961C20.9441 8.76961 20.8489 8.62854 20.7319 8.38351C20.6148 8.13849 20.4391 7.76724 20.3147 7.32917C20.1757 6.88367 20.0952 6.37135 20.0659 5.81447C20.0513 5.26502 20.1025 4.67103 20.2415 4.0993C20.3806 3.52758 20.6074 2.97071 20.9148 2.47323C21.2222 1.97576 21.5588 1.53769 21.954 1.18871C22.137 1.01051 22.3419 0.869438 22.5175 0.735789C22.6932 0.602139 22.8542 0.498189 23.0079 0.423939C23.3079 0.26059 23.5055 0.178915 23.5348 0.178915L23.5421 0.15664Z" fill="#F2C82C" />
			<path id="Vector_95" d="M13.8747 6.24515C13.8747 6.24515 13.904 6.20802 13.9479 6.1709C14.0942 6.04467 14.1967 5.91102 14.1894 5.88132C14.2113 5.8442 14.0869 5.91845 14.5187 6.01497C14.5407 6.01497 14.6285 6.03725 14.6431 6.04467C14.6724 6.04467 14.8553 6.12635 15.1408 6.23772C15.3018 6.2897 15.4554 6.35652 15.6238 6.43077C15.7848 6.50502 16.0043 6.57185 16.1873 6.66095C16.5678 6.8243 16.9484 7.01734 17.307 7.21782C17.6729 7.41829 17.9876 7.64104 18.2584 7.87122C18.5365 8.10139 18.7633 8.33899 18.939 8.59144C19.0341 8.71024 19.1146 8.82904 19.1805 8.95526C19.2537 9.07406 19.3195 9.18544 19.3708 9.30424C19.4805 9.52699 19.5537 9.72746 19.5976 9.89081C19.6489 10.0319 19.6708 10.1284 19.6708 10.1284C19.6708 10.1284 19.6489 10.4774 19.6635 10.9897C19.6708 11.1085 19.6635 11.2719 19.6854 11.4055C19.7001 11.5392 19.722 11.6951 19.744 11.8436C19.7952 12.148 19.8684 12.4524 19.9782 12.69C20.1538 13.1058 20.3514 13.2766 20.4539 13.3731C20.5637 13.4548 20.6076 13.44 20.571 13.44C20.5344 13.44 20.4246 13.4474 20.2416 13.529C20.0587 13.5959 19.8025 13.7295 19.5098 13.826C19.5318 13.8335 19.3781 13.8854 19.1 13.9671C18.9609 14.0117 18.7999 14.0562 18.617 14.0859C18.434 14.123 18.2364 14.1602 18.0315 14.1824C17.8339 14.2047 17.629 14.227 17.4314 14.2344C17.2411 14.2418 17.0362 14.2567 16.8898 14.2493C16.5752 14.2344 16.3629 14.227 16.3629 14.227C16.3629 14.227 16.2092 14.1824 15.9751 14.0785C15.7482 13.9671 15.3969 13.8038 15.0529 13.5365C14.6943 13.284 14.3284 12.9351 13.9991 12.5193C13.8381 12.3114 13.6917 12.0812 13.5454 11.8436C13.4136 11.5986 13.2965 11.3461 13.1941 11.0788C13.0989 10.8115 13.0258 10.5368 12.9672 10.2621C12.916 9.98734 12.894 9.69776 12.8794 9.42304C12.8794 8.86616 12.9306 8.33157 13.0843 7.85637C13.1429 7.62619 13.2526 7.39602 13.3331 7.21039C13.4136 7.01735 13.4941 6.854 13.582 6.71292C13.7576 6.43077 13.8747 6.26742 13.8966 6.25257L13.8747 6.24515Z" fill="#F2C82C" />
			<path id="Vector_96" d="M33.4659 1.38912C33.4659 1.38912 33.4951 1.35942 33.5391 1.3223C33.6854 1.2035 33.7952 1.07728 33.7879 1.04758C33.8098 1.01045 33.6854 1.07728 34.1099 1.16638C34.1318 1.16638 34.2197 1.18865 34.2343 1.18865C34.2636 1.18865 34.4465 1.2629 34.7246 1.3817C34.8783 1.4411 35.0247 1.51535 35.193 1.60445C35.354 1.69355 35.5662 1.78265 35.7346 1.90145C36.1078 2.1242 36.4591 2.4212 36.7884 2.76275C37.1177 3.10429 37.3812 3.51267 37.5861 3.96559C37.791 4.41851 37.9154 4.90856 37.9667 5.39861C38.0179 5.88866 37.9886 6.37128 37.9227 6.77966C37.8349 7.20288 37.7325 7.537 37.6227 7.78203C37.5202 8.01963 37.4471 8.15328 37.4471 8.15328C37.4471 8.15328 37.3739 8.23495 37.2275 8.3686C37.0958 8.50225 36.8689 8.68045 36.6274 8.86608C36.3786 9.0517 36.0785 9.23732 35.7858 9.4081C35.5077 9.57887 35.1637 9.7051 34.9442 9.83875C34.5417 10.0466 34.3221 10.1654 34.227 10.2471C34.1318 10.3362 34.1392 10.3733 34.1538 10.3362C34.1831 10.2768 34.1099 9.8536 33.8318 9.36355C33.8318 9.38582 33.7659 9.25217 33.6415 9.0517C33.5757 8.94775 33.5025 8.83638 33.4146 8.71758C33.3268 8.59878 33.2244 8.47255 33.1292 8.35375C32.9316 8.11615 32.7048 7.90083 32.5511 7.75975C32.3974 7.61125 32.273 7.52216 32.273 7.52216C32.273 7.52216 32.2291 7.44791 32.1559 7.33653C32.09 7.21773 31.9949 7.04696 31.9144 6.84648C31.8705 6.74253 31.8339 6.63116 31.8119 6.51236C31.7753 6.38613 31.7534 6.25991 31.7387 6.11883C31.7022 5.83669 31.6948 5.50999 31.7387 5.14616C31.7753 4.78234 31.8632 4.38139 32.0022 3.97302C32.1413 3.55722 32.3096 3.14884 32.5218 2.76275C32.6169 2.57712 32.7487 2.3915 32.8438 2.22815C32.939 2.0648 33.0341 1.92372 33.1365 1.7975C33.3195 1.55247 33.4512 1.40397 33.4732 1.38912H33.4659Z" fill="#F2C82C" />
			<path id="Vector_97" d="M40.4545 3.14884C40.4545 3.14884 40.4911 3.11914 40.535 3.08944C40.6887 2.97806 40.7985 2.85184 40.7912 2.82214C40.8131 2.79244 40.6887 2.85184 41.1059 2.94836C41.1278 2.94836 41.2156 2.97806 41.2303 2.98549C41.2596 2.98549 41.4352 3.07459 41.7206 3.24536C41.867 3.32704 42.006 3.44584 42.1597 3.57949C42.3061 3.72056 42.511 3.87648 42.65 4.06211C42.972 4.43336 43.2282 4.90113 43.4258 5.42088C43.6161 5.9332 43.7112 6.49008 43.7185 7.02467C43.7185 7.55927 43.638 8.0716 43.4916 8.53194C43.3453 8.98487 43.1477 9.38582 42.9355 9.70509C42.5183 10.3436 42.0865 10.6703 42.0865 10.6703C42.0865 10.6703 41.9914 10.7075 41.8231 10.7817C41.6694 10.8485 41.4132 10.9302 41.1425 11.0193C40.8644 11.101 40.5497 11.1901 40.2277 11.2643C39.9203 11.346 39.5837 11.398 39.3348 11.4722C38.9104 11.5985 38.6689 11.6801 38.5664 11.7544C38.4566 11.8286 38.464 11.8658 38.4786 11.8361C38.5225 11.7841 38.5005 11.3609 38.3249 10.804C38.3176 10.8188 38.281 10.6778 38.2078 10.4476C38.1273 10.21 38.0175 9.89072 37.9078 9.58629C37.776 9.26702 37.6663 8.97744 37.5638 8.75469C37.4687 8.53194 37.3955 8.39087 37.3955 8.39087C37.3955 8.39087 37.3882 8.29434 37.3662 8.12357C37.3442 7.96022 37.3516 7.73005 37.3589 7.4776C37.3808 7.22515 37.4101 6.943 37.5052 6.66085C37.5857 6.3787 37.7028 6.09655 37.8785 5.8144C38.0395 5.53968 38.259 5.26496 38.5152 5.00508C38.764 4.74521 39.0421 4.47791 39.3275 4.21803C39.4666 4.08438 39.6276 3.95816 39.7447 3.83936C39.8691 3.72056 39.9862 3.60919 40.1033 3.50524C40.3082 3.31219 40.4399 3.17111 40.4692 3.15626L40.4545 3.14884Z" fill="#F2C82C" />
			<path id="Vector_98" d="M50.6491 2.20591C50.6491 2.20591 50.693 2.18363 50.7442 2.16136C50.9272 2.08711 51.0736 1.99801 51.0736 1.96088C51.1102 1.93118 50.9638 1.96088 51.3224 2.23561C51.3443 2.25046 51.4102 2.30243 51.4249 2.31728C51.4541 2.33213 51.5932 2.48806 51.8054 2.70338C51.9298 2.81476 52.0615 2.94841 52.1933 3.08206C52.325 3.22313 52.5007 3.35678 52.647 3.53498C52.9617 3.85425 53.2544 4.24778 53.5179 4.75268C53.7814 5.265 53.9716 5.90355 54.0082 6.65347C54.0229 7.03214 54.0302 7.41824 53.957 7.76722C53.9058 8.11619 53.8106 8.53199 53.7521 8.71761C53.6277 9.15569 53.4081 9.66801 53.1886 10.0615C52.9544 10.4699 52.7348 10.7743 52.5446 10.9971C52.3616 11.2124 52.2445 11.3312 52.2445 11.3312C52.2445 11.3312 52.1421 11.3906 51.9664 11.4946C51.7835 11.5985 51.498 11.7247 51.198 11.8584C50.8979 11.992 50.5101 12.1257 50.1515 12.2222C49.8148 12.341 49.3977 12.3856 49.1123 12.4598C48.8708 12.5266 48.6585 12.5415 48.5048 12.5712C48.3511 12.6009 48.2414 12.6157 48.1682 12.6454C48.0291 12.6974 48.0072 12.7345 48.0438 12.7122C48.0731 12.6825 48.1462 12.5712 48.1901 12.3633C48.2121 12.2593 48.2414 12.1554 48.256 12.0292C48.278 11.9104 48.256 11.7396 48.256 11.5985C48.2414 11.6134 48.2414 11.4574 48.2121 11.2124C48.1828 10.9748 48.095 10.6036 48.0145 10.2991C47.9121 9.97243 47.8023 9.63831 47.7145 9.42298C47.6266 9.19281 47.5535 9.02946 47.5535 9.02946C47.5535 9.02946 47.5461 8.91809 47.5388 8.73989C47.5388 8.56169 47.5242 8.28696 47.5535 7.98996C47.5608 7.83404 47.5827 7.66327 47.612 7.48507C47.6413 7.31429 47.6925 7.07669 47.751 6.86137C47.773 6.77969 47.795 6.69802 47.8242 6.61634C47.8462 6.55694 47.8681 6.49754 47.8974 6.43814C47.9779 6.31934 47.9925 6.20054 48.0804 6.07432C48.1609 5.96295 48.2194 5.76247 48.3072 5.60655C48.3951 5.43577 48.4902 5.19817 48.5927 5.00512C48.8049 4.55963 49.0391 4.06958 49.3245 3.62408C49.4489 3.41618 49.6392 3.20086 49.7709 3.03008C49.91 2.85188 50.0344 2.71081 50.1807 2.59201C50.4515 2.35441 50.6272 2.23561 50.6564 2.22076L50.6491 2.20591Z" fill="#F2C82C" />
			<path id="Vector_99" d="M56.0062 11.4873C56.0062 11.4873 56.0501 11.4799 56.1086 11.4725C56.3062 11.4428 56.4745 11.3834 56.4745 11.3611C56.5111 11.3462 56.3575 11.3388 56.7453 11.5838C56.7673 11.5987 56.8478 11.6507 56.8551 11.6581C56.8844 11.6729 57.0381 11.814 57.2503 12.0887C57.3601 12.2298 57.4552 12.3932 57.5503 12.5936C57.6455 12.7941 57.7626 13.0391 57.8065 13.2842C57.9455 13.7965 57.9455 14.3905 57.8358 14.9548C57.8065 15.0959 57.7699 15.2369 57.7333 15.3854C57.6894 15.5265 57.6455 15.6527 57.5869 15.7864C57.4772 16.0537 57.3454 16.2987 57.1991 16.5215C57.0527 16.7516 56.8917 16.9521 56.7161 17.1229C56.5404 17.3085 56.3648 17.457 56.1818 17.5832C55.8159 17.8505 55.4573 18.0139 55.128 18.1178C54.806 18.2218 54.5132 18.2589 54.3156 18.2663C54.1107 18.2812 53.9863 18.2663 53.9863 18.2663C53.9863 18.2663 53.8912 18.2292 53.7302 18.1698C53.5765 18.1104 53.335 17.999 53.0788 17.8802C52.8154 17.754 52.53 17.6055 52.2372 17.4496C51.9591 17.3085 51.6591 17.1229 51.4249 17.0264C51.0297 16.8482 50.7955 16.7888 50.6784 16.7813C50.5613 16.7813 50.5467 16.811 50.576 16.7962C50.6345 16.7813 50.7662 16.3878 50.8541 15.8012C50.8394 15.8087 50.8687 15.6676 50.9126 15.4151C50.9492 15.1553 51.0004 14.8211 51.0517 14.4796C51.0956 14.1306 51.1322 13.7965 51.1614 13.5515C51.1907 13.3064 51.198 13.1431 51.198 13.1431C51.198 13.1431 51.2346 13.054 51.3005 12.9129C51.3737 12.7718 51.4615 12.5862 51.5932 12.408C51.7103 12.2224 51.8786 12.0516 52.0543 11.9105C52.1494 11.8437 52.2372 11.7843 52.3397 11.7323C52.4495 11.6878 52.5519 11.6507 52.6617 11.6284C52.7788 11.5987 52.9032 11.5987 53.0276 11.5913C53.1667 11.5913 53.3057 11.6061 53.4521 11.6135C53.7594 11.6432 54.0888 11.6729 54.4474 11.6804C54.8499 11.7026 55.1426 11.6507 55.4719 11.6061C55.75 11.5541 55.9403 11.4947 55.9696 11.4947L56.0062 11.4873Z" fill="#F2C82C" />
			<path id="Vector_100" d="M3.39457 12.1627C3.39457 12.1627 3.43116 12.1404 3.48239 12.1181C3.65803 12.0364 3.78976 11.9622 3.78976 11.9325C3.81904 11.9028 3.68731 11.9399 4.06786 12.1255C4.08982 12.133 4.17032 12.1701 4.17764 12.1775C4.20691 12.1849 4.36791 12.2889 4.6021 12.4077C4.8802 12.5191 5.16561 12.6379 5.51689 12.675C5.84622 12.7121 6.14627 12.6973 6.40973 12.675C6.68783 12.6527 6.91469 12.6601 7.14888 12.7195C7.38307 12.7789 7.60994 12.8977 7.82949 13.0537C8.04904 13.2096 8.26127 13.4101 8.43691 13.6031C8.80283 14.0041 9.02969 14.405 9.02969 14.405C9.02969 14.405 9.1102 14.7688 9.22729 15.3109C9.27852 15.5707 9.34438 15.8752 9.41025 16.2018C9.47611 16.4988 9.53466 16.8404 9.60784 17.0854C9.73225 17.5012 9.82008 17.7388 9.89326 17.8428C9.96644 17.9467 10.003 17.9393 9.97376 17.9319C9.92253 17.8947 9.52002 17.9319 8.98578 18.1398C9.00042 18.1472 8.86869 18.1843 8.64182 18.2734C8.40764 18.3625 8.10027 18.4813 7.78558 18.5927C7.46357 18.7115 7.14888 18.8229 6.90006 18.9045C6.65123 18.9788 6.49023 19.0308 6.49023 19.0308C6.49023 19.0308 6.38046 19.0308 6.18286 19.0159C5.97795 18.9862 5.70717 18.9491 5.37784 18.8451C5.20952 18.7932 5.03388 18.7189 4.85824 18.6372C4.67528 18.5481 4.47769 18.4293 4.28741 18.3031C3.89954 18.0358 3.49703 17.672 3.14575 17.2042C2.97011 16.9815 2.80911 16.6845 2.67006 16.4246C2.53101 16.1499 2.42855 15.8083 2.34805 15.5188C2.27487 15.2069 2.23828 14.8654 2.23096 14.5684C2.23096 14.2639 2.28219 13.9521 2.34073 13.6922C2.38464 13.4398 2.53833 13.1873 2.63347 12.9943C2.73592 12.8012 2.83106 12.6453 2.96279 12.5191C3.19698 12.274 3.35798 12.1627 3.38725 12.1478L3.39457 12.1627Z" fill="#F2C82C" />
			<path id="Vector_101" d="M0.0721783 23.0331C0.0721783 23.0331 0.0721783 22.9886 0.06486 22.9366C0.06486 22.751 0.0282683 22.595 0.00631326 22.5876C-0.00832342 22.5505 -0.0229601 22.6916 0.277092 22.3797C0.291728 22.3649 0.357594 22.298 0.364912 22.2906C0.386867 22.2683 0.540552 22.1495 0.767421 21.9788C0.884514 21.8748 1.01624 21.7857 1.15529 21.6892C1.22116 21.6372 1.29434 21.5852 1.37484 21.5258C1.45534 21.459 1.53585 21.3996 1.61635 21.3476C1.94567 21.11 2.275 20.9318 2.61164 20.7611C2.96292 20.5754 3.29225 20.4789 3.61425 20.4121C3.94358 20.3378 4.25827 20.3378 4.55832 20.375C4.85105 20.3972 5.12915 20.4715 5.36334 20.5754C5.59753 20.672 5.79512 20.7685 5.93417 20.8502C6.07322 20.9318 6.15372 20.9987 6.15372 20.9987C6.15372 20.9987 6.36595 21.2808 6.67332 21.6892C6.82701 21.8971 7.00996 22.1198 7.20024 22.3574C7.29538 22.4688 7.39052 22.5802 7.49297 22.699C7.58811 22.8029 7.68325 22.892 7.77839 22.9737C8.09308 23.2336 8.30531 23.345 8.4224 23.3821C8.5395 23.4118 8.56145 23.3821 8.53218 23.3969C8.46631 23.3969 8.23213 23.7014 7.9028 24.1914C7.92476 24.1914 7.83694 24.3028 7.68325 24.5181C7.53689 24.726 7.32465 24.9859 7.09047 25.2532C6.97337 25.3943 6.85628 25.5279 6.7465 25.6467C6.62941 25.7729 6.52695 25.8992 6.43182 25.9808C6.24154 26.1665 6.11713 26.2853 6.11713 26.2853C6.11713 26.2853 6.01467 26.3372 5.82439 26.4189C5.64144 26.4932 5.37066 26.6045 5.04865 26.6565C4.72664 26.7159 4.34609 26.7456 3.94358 26.7159C3.54107 26.6714 3.11661 26.5674 2.70678 26.4041C2.28964 26.2259 1.89444 25.9586 1.54316 25.6541C1.19188 25.3274 0.884514 24.9636 0.664964 24.5924C0.54787 24.4216 0.46005 24.2063 0.379549 24.0281C0.299047 23.8573 0.233182 23.6939 0.189272 23.538C0.101452 23.2484 0.0575416 23.0628 0.0575416 23.0331H0.0721783Z" fill="#F2C82C" />
			<path id="Vector_102" d="M62.8853 15.9869C62.8853 15.9869 62.9219 15.9646 62.9731 15.9497C63.1487 15.8829 63.2878 15.8012 63.2878 15.7715C63.3171 15.7418 63.1853 15.7715 63.5586 15.972C63.5805 15.9869 63.6537 16.024 63.6683 16.0314C63.6976 16.0463 63.844 16.1651 64.0709 16.3952C64.1953 16.5066 64.305 16.6477 64.4221 16.8036C64.5319 16.967 64.7002 17.16 64.7954 17.3605C64.9051 17.5684 65.0003 17.7986 65.0881 18.0436C65.154 18.2886 65.2271 18.5559 65.2564 18.8232C65.2857 19.0979 65.3003 19.3801 65.2784 19.6622C65.2564 19.9444 65.2052 20.2265 65.132 20.5087C64.9783 21.0655 64.7222 21.5853 64.4075 22.0308C64.2392 22.2461 64.0708 22.4466 63.8952 22.6248C63.7122 22.7956 63.5293 22.9515 63.3537 23.0777C62.9877 23.3302 62.6657 23.4935 62.4242 23.59C62.1827 23.6866 62.0363 23.7163 62.0363 23.7163C62.0363 23.7163 61.9266 23.7163 61.7363 23.7163C61.546 23.7088 61.2679 23.6643 60.9752 23.6197C60.6751 23.5678 60.3385 23.4712 60.0238 23.3673C59.7164 23.2782 59.3944 23.1223 59.1529 23.0406C58.7358 22.8921 58.5016 22.8104 58.3772 22.803C58.2528 22.803 58.2308 22.8253 58.2601 22.8104C58.3186 22.7956 58.5528 22.4466 58.6992 21.8971C58.6845 21.9046 58.7285 21.7709 58.787 21.5407C58.8456 21.3106 58.8895 20.9839 58.9187 20.6869C58.9407 20.375 58.9334 20.0706 58.9187 19.8553C58.9041 19.64 58.8821 19.4915 58.8821 19.4915C58.8821 19.4915 58.8968 19.4098 58.9261 19.291C58.948 19.1573 58.9919 19.0014 59.0505 18.8232C59.0797 18.7341 59.1163 18.6524 59.1602 18.5633C59.1968 18.4742 59.2481 18.3851 59.3139 18.3035C59.3652 18.2144 59.4383 18.1327 59.5188 18.051C59.592 17.9619 59.6872 17.8802 59.7896 17.7986C59.9872 17.6278 60.2507 17.457 60.5507 17.2862C60.6971 17.1971 60.8508 17.1006 61.0191 17.0115C61.1728 16.915 61.3411 16.8185 61.5094 16.7294C61.6924 16.6328 61.8534 16.5363 61.9998 16.4546C62.1461 16.3655 62.2925 16.2839 62.4242 16.217C62.673 16.076 62.8341 15.9794 62.8633 15.972L62.8853 15.9869Z" fill="#F2C82C" />
		</g>
		<path id="Vector_103" d="M48.6805 49.9857C50.1149 49.8818 51.2346 50.8322 52.4128 51.3222C52.2299 50.2902 51.7395 49.2729 50.9711 48.5601C50.3417 47.9736 49.2952 47.9513 48.739 47.4093C47.5168 46.2213 50.7369 46.7781 51.4102 46.7707C50.8979 46.0059 48.9512 45.1372 47.5681 45.0036C45.9727 49.221 34.0145 54.1808 34.0145 54.1808C34.0145 54.1808 21.061 48.9314 20.0365 44.6323C18.6606 44.8402 16.6554 45.9391 16.1944 46.7856C16.8676 46.7262 20.0218 45.8649 18.9168 47.1642C18.4118 47.7582 17.3653 47.877 16.7945 48.523C16.0992 49.3026 15.6967 50.3644 15.6089 51.4039C16.7432 50.8025 17.7678 49.7481 19.2095 49.7184C18.7924 50.7357 17.8703 51.0698 17.7019 52.384C17.5775 53.3344 17.5775 56.0222 18.6167 56.4529C18.6826 55.1015 19.8169 52.5696 21.4855 52.7998C21.4196 53.468 20.9293 53.869 20.9074 54.6486C20.8635 55.9406 21.3245 57.2474 21.8441 58.4057C21.8441 57.9008 22.7077 56.2079 23.359 56.4603C23.6371 56.5643 23.7176 58.376 24.0323 58.7918C24.325 58.0121 24.7788 57.4404 25.5326 57.0172C25.4886 57.9008 25.7375 59.2595 26.2058 59.9723C26.2571 58.9997 26.5791 57.7077 27.1499 56.8241C27.1353 57.6186 27.289 58.4131 27.7134 59.1779C27.6549 58.7546 27.6549 58.3017 27.9476 58.0196C27.75 58.9848 28.1964 60.158 28.8917 60.8856C28.9136 60.2693 29.1332 59.6011 29.4625 59.1259C29.6162 60.1208 30.2529 61.0415 30.8164 61.8286C30.5017 60.7742 32.1776 59.8387 32.4411 58.7769C32.4484 59.3857 32.5289 59.9872 32.6753 60.5441C33.6047 59.8164 34.6146 59.1407 34.7024 57.8636C34.5634 58.866 35.0903 59.1482 35.566 58.324C35.6538 58.1755 35.7197 57.9973 35.7855 57.8117C35.9026 58.8586 36.2612 59.8238 37.2492 60.5663C37.0223 59.9129 37.3444 59.3412 37.5273 58.7101C38.0835 58.8883 38.3909 59.5862 38.5372 60.1282C39.0642 59.5491 39.8106 58.621 39.7814 57.7894C39.8619 57.9899 39.9131 58.1978 39.9643 58.4131C40.0009 58.621 40.0302 58.8215 40.0521 59.0294C40.0521 59.0294 40.0668 59.0219 40.0741 59.0145C40.1692 59.7941 40.1326 60.6257 40.1253 61.4053C40.8718 60.7074 41.728 60.3881 42.3501 59.5268C42.5038 59.9797 42.6209 60.4401 42.6794 60.841C43.0746 60.0911 43.199 58.7101 43.0746 57.8339C43.8577 58.1829 44.37 58.7175 44.7286 59.46C45.0067 59.0219 44.9188 57.2102 45.1823 57.0766C45.8117 56.7647 46.8216 58.3685 46.8728 58.8734C47.2827 57.6706 47.6193 56.3267 47.4583 55.0421C47.3632 54.2699 46.8362 53.921 46.7118 53.2601C48.3438 52.874 49.7123 55.2872 49.9026 56.6311C50.8979 56.1039 50.6491 53.4309 50.4442 52.4954C50.1514 51.2034 49.2074 50.9584 48.6951 49.9857H48.6805Z" fill="#F0BE07" />
	</g>
</svg>
