<svg width="20" height="20" viewBox="0 0 20 20" fill="none" xmlns="http://www.w3.org/2000/svg">
<g id="check">
<g id="vuesax/bold/verify">
<g id="verify">
<path id="Vector" d="M17.9667 8.95L16.8334 7.63333C16.6167 7.38333 16.4417 6.91667 16.4417 6.58333V5.16666C16.4417 4.28333 15.7167 3.55833 14.8334 3.55833H13.4167C13.0917 3.55833 12.6167 3.38333 12.3667 3.16666L11.0501 2.03333C10.4751 1.54166 9.5334 1.54166 8.95007 2.03333L7.64173 3.175C7.39173 3.38333 6.91673 3.55833 6.59173 3.55833H5.15006C4.26673 3.55833 3.54173 4.28333 3.54173 5.16666V6.59166C3.54173 6.91666 3.36673 7.38333 3.1584 7.63333L2.0334 8.95833C1.55007 9.53333 1.55007 10.4667 2.0334 11.0417L3.1584 12.3667C3.36673 12.6167 3.54173 13.0833 3.54173 13.4083V14.8333C3.54173 15.7167 4.26673 16.4417 5.15006 16.4417H6.59173C6.91673 16.4417 7.39173 16.6167 7.64173 16.8333L8.9584 17.9667C9.5334 18.4583 10.4751 18.4583 11.0584 17.9667L12.3751 16.8333C12.6251 16.6167 13.0917 16.4417 13.4251 16.4417H14.8417C15.7251 16.4417 16.4501 15.7167 16.4501 14.8333V13.4167C16.4501 13.0917 16.6251 12.6167 16.8417 12.3667L17.9751 11.05C18.4584 10.475 18.4584 9.525 17.9667 8.95ZM13.4667 8.425L9.44173 12.45C9.32507 12.5667 9.16673 12.6333 9.00007 12.6333C8.8334 12.6333 8.67507 12.5667 8.5584 12.45L6.54173 10.4333C6.30007 10.1917 6.30007 9.79167 6.54173 9.55C6.7834 9.30833 7.1834 9.30833 7.42507 9.55L9.00007 11.125L12.5834 7.54167C12.8251 7.3 13.2251 7.3 13.4667 7.54167C13.7084 7.78333 13.7084 8.18333 13.4667 8.425Z" fill="#292D32"/>
</g>
</g>
</g>
</svg>
