<svg xmlns="http://www.w3.org/2000/svg" fill="none" viewBox="0 0 400 400" height="400" width="400"><g id="biologist-2--science-technology-biologist"><g id="observation 1"><path id="vector" fill="#38A1FF" fill-rule="evenodd" d="M113.4778 56.8518c1.046 0.466 3.338 1.808 5.322 2.666 3.066 1.334 4.746 1.476 8.936 -0.996 1.862 -1.09 3.168 -2.096 5.02 -3.52 0.27 -0.208 2.36 -1.832 2.954 -2.164 0.02 -6.066 0.05 -10.76 0.066 -13.166l-32.302 0.186c3.366 8.83 3.522 11.206 3.916 12.62 0.748 2.6 3.816 3.358 6.09 4.372l-0.002 0.002Zm6.658 -13.412c1.542 -0.386 0.058 0.158 7.472 -2.004 0.574 -0.164 1.154 0.126 1.376 0.662 1.77 3.612 2.138 5.158 2.368 5.686 0.272 0.63 -0.034 1.33 -0.636 1.55 -0.282 0.11 -3.65 0.726 -3.85 0.764 -1.702 0.316 -5.252 1.15 -6.422 0.188 -0.824 -0.602 -1.082 -4.51 -1.24 -5.534 -0.034 -0.612 0.346 -1.16 0.932 -1.312Z" clip-rule="evenodd" stroke-width="1"></path><path id="vector_2" fill="#38A1FF" fill-rule="evenodd" d="M85.344 51.3342c0.13 -0.666 0.418 -2.156 0.486 -3.016 -1.186 -0.804 -5.358 -0.69 -6.788 -0.596 0.282 1.204 0.492 2.754 0.638 3.982 2.762 -0.094 4.218 -0.216 5.662 -0.372l0.002 0.002Z" clip-rule="evenodd" stroke-width="1"></path><path id="vector_3" fill="#38A1FF" fill-rule="evenodd" d="M82.534 66.8238c6.114 3.392 6.562 0.886 10.624 -2.676 0.886 -0.778 7.31 -6.3 8.942 -7.628 1.018 -0.84 1.384 -1.144 3.458 -2.566 -0.268 -0.652 -0.438 -1.42 -0.606 -2.184 -0.598 -2.736 -0.494 -1.246 -3.908 -11.888 -1.802 0.014 -28.434 0.284 -31.634 0.334l1.288 27.248c1.144 -0.59 2.68 -1.284 4.148 -1.758 3.26 -1.056 4.544 -0.622 7.69 1.122l-0.002 -0.004Zm-5.03 -21.214c0.39 -0.036 3.72 0.124 3.924 0.134 1.702 0.082 5.38 0.082 6.292 1.284 0.664 0.768 0.034 4.554 -0.052 5.672 -0.11 0.604 -0.606 1.038 -1.208 1.066 -1.874 -0.118 -5.86 0.138 -7.734 0.244 -0.204 0.012 -1.042 -0.072 -1.188 -0.958 -0.868 -3.784 -0.918 -5.562 -1.008 -6.08 -0.118 -0.686 0.344 -1.29 0.974 -1.362Z" clip-rule="evenodd" stroke-width="1"></path><path id="vector_4" fill="#38A1FF" fill-rule="evenodd" d="M128.734 47.6276c-0.546 -1.11 -1.094 -2.538 -1.53 -3.732 -2.848 0.774 -4.06 1.178 -5.43 1.656 0.05 1.42 0.124 2.444 0.216 3.046 1.428 0.492 5.286 -0.524 6.744 -0.97Z" clip-rule="evenodd" stroke-width="1"></path><path id="vector_5" fill="#38A1FF" fill-rule="evenodd" d="M115.598 117.5976c3.754 4.874 3.924 4.73 7.162 4.306 4.262 -0.558 9.104 -2.094 13.068 -3.394l-0.126 -36.026c-0.48 -0.234 -0.438 -0.646 -1.404 -1.336 -1.398 -1 -1.968 -0.79 -2.718 -1.688 -0.59 -0.706 -1.442 -1.098 -1.918 -1.358 -0.672 2.2 -2.06 4.602 -3.1 7.164 -1.702 4.278 -3.206 8.82 -7.454 11.122 -1.122 0.644 -5.258 1.442 -6.53 1.674 -0.548 9.118 -2.08 11.196 -1.662 12.912 0.576 2.47 2.516 3.87 4.68 6.622l0.002 0.002Zm8.198 -8.948c0.102 -0.912 0.372 -1.334 0.862 -7.692 0.056 -0.584 0.536 -1.028 1.116 -1.04 2.676 -0.222 4.174 -0.192 5.396 -0.158 0.912 0.028 1.212 -0.062 1.614 0.326 0.234 0.222 0.358 0.57 0.358 0.848 0 0.338 -0.648 3.674 -0.688 3.876 -0.322 1.678 -0.846 5.31 -2.168 6.046 -0.78 0.498 -4.742 -0.594 -5.606 -0.862 -0.586 -0.182 -0.952 -0.746 -0.884 -1.344Z" clip-rule="evenodd" stroke-width="1"></path><path id="vector_6" fill="#38A1FF" fill-rule="evenodd" d="M112.036 79.4644c0.018 -1.424 -0.004 -2.452 -0.064 -3.054 -1.36 -0.552 -5.284 0.252 -6.784 0.632 0.48 1.092 0.994 2.664 1.342 3.804 2.774 -0.604 4.128 -0.976 5.506 -1.382Z" clip-rule="evenodd" stroke-width="1"></path><path id="vector_7" fill="#38A1FF" fill-rule="evenodd" d="M124.608 62.1638c0.146 0.256 4.328 8.226 4.328 8.226 0.882 1.774 1.27 3.426 1.194 5.112 0.22 0.13 0.478 0.254 0.704 0.416 0.36 0.268 0.582 0.584 0.908 0.852 1.406 1.034 1.358 0.458 2.682 1.884 0.53 0.582 0.404 0.422 1.274 1.18 -0.008 -4.912 -0.004 -21.292 0.004 -24.368 -4.166 2.674 -7.57 5.578 -11.094 6.698Z" clip-rule="evenodd" stroke-width="1"></path><path id="vector_8" fill="#38A1FF" fill-rule="evenodd" d="M77.3258 82.8056c-0.488 1.102 -1.294 2.542 -1.894 3.56 2.286 1.604 3.494 2.37 4.742 3.12 1.042 -0.93 1.798 -1.656 2.208 -2.114 -0.5 -1.372 -3.79 -3.74 -5.054 -4.566h-0.002Z" clip-rule="evenodd" stroke-width="1"></path><path id="vector_9" fill="#38A1FF" fill-rule="evenodd" d="M130.8318 102.168c-1.242 0.106 -2.786 0.096 -4.034 0.064 -0.312 2.886 -0.388 4.25 -0.438 5.658 1.366 0.478 2.322 0.776 2.914 0.91 0.966 -1.046 1.45 -5.214 1.558 -6.632Z" clip-rule="evenodd" stroke-width="1"></path><path id="vector_10" fill="#38A1FF" fill-rule="evenodd" d="M117.972 94.4116c2.926 -1.818 5.078 -6.882 6.476 -10.042 2.332 -5.27 5.346 -8.03 2.72 -13.272 -0.852 -1.7 -4.204 -7.52 -4.904 -8.512 -1.49 0.036 -2.958 -0.368 -4.358 -0.9 -1.418 -0.54 -8.042 -3.648 -9.854 -4.918 -0.444 -0.318 -0.82 -0.618 -1.142 -0.914 -5.344 4.404 -7.152 5.188 -12.244 9.948 -1.326 1.308 -2.692 3.69 -5.152 4.6 2.352 3.258 3.738 5.17 5.636 7.506 3.368 4.144 2.532 15.84 0.26 20.672 5.09 -0.894 20.388 -2.894 22.562 -4.168Zm-15.366 -18.566c0.312 -0.668 0.344 -0.604 4.976 -1.232 1.61 -0.218 4.88 -0.786 6.016 0.186 0.224 0.192 0.472 0.822 0.598 1.576 0.222 1.444 0.366 3.988 0.366 4.014 0.004 0.612 -0.406 1.128 -0.996 1.264 -3.364 0.56 -4.256 0.8 -7.564 1.628 -0.566 0.132 -1.142 -0.178 -1.34 -0.728 -1.11 -2.584 -1.552 -4.016 -1.914 -5.248 -0.208 -0.706 -0.364 -0.98 -0.142 -1.46Z" clip-rule="evenodd" stroke-width="1"></path><path id="vector_11" fill="#38A1FF" fill-rule="evenodd" d="M230.228 18.58398 57.616 24.526l2.244 118.366 86.554 -0.084c1.252 -6.644 3.704 -12.69 6.952 -18.78 -1.984 0.208 -4.14 0.444 -6.49 0.71 -0.608 0.082 -1.192 -0.344 -1.286 -0.97 -0.074 -0.626 0.368 -1.2 0.982 -1.284 5.302 -0.834 5.264 -0.766 8.178 -0.976 4.63 -8.18 9.242 -14.528 18.858 -19.682 -0.2 0.026 -9.144 1.538 -12.644 1.58 -4.004 0.042 -7.696 0.97 -9.966 1.36 -0.782 0.132 -1.848 0.244 -2.314 0.33 -1.478 0.276 -1.916 -1.922 -0.46 -2.226 2.154 -0.582 2.638 -0.704 5.912 -1.032 7.488 -0.754 6.27 -1.05 11.92 -1.21 7.406 -0.21 11.062 -1.678 12.27 -1.004 12.1 -4.88 24.388 -4.344 29.024 -3.732 12.218 1.616 21.014 6.846 27.378 14.226l-4.5 -91.53402ZM182.868 39.594c9.444 -0.654 5.014 -0.08 12.802 -0.596 1.852 -0.126 3.666 -0.336 5.492 -0.418 5.66 -0.248 8.086 0.136 18.362 -0.528 0.606 0 1.104 0.488 1.122 1.096 0.02 0.62 -0.49 1.144 -1.1 1.144 -12.15 0.01 -15.34 0.976 -20.95 0.89 -5.196 -0.078 -9.604 0.554 -12.82 0.674 -1.238 0.046 -2.092 0 -2.87 0.01 -0.602 0.006 -1.096 -0.468 -1.132 -1.084 -0.022 -0.63 0.468 -1.162 1.094 -1.188Zm35.028 13.836c-1.62 -0.168 -1.056 -0.21 -2.516 -0.142 -2.12 0.1 -2.814 0.536 -4.078 0.3 -1.556 -0.288 -3.036 0.15 -3.996 0.156 -0.31 0 -0.6 -0.058 -0.888 -0.088 -1.546 0 -1.508 -2.226 -0.056 -2.272 2.912 -0.378 1.744 0.234 4.706 -0.184 2.514 -0.356 2.438 0.476 6.81 -0.01 0.634 0 1.136 0.502 1.138 1.118 -0.016 0.63 -0.51 1.122 -1.12 1.122Zm-0.272 14.89c-23.212 1.088 -23.362 1.176 -25.636 1.244 -2.434 0.072 -3.176 -0.166 -10.082 0.298 -1.548 0.102 -11.526 1.18 -12.448 1.18 -1.426 0 -1.534 -2.076 -0.142 -2.264 7.908 -1.078 9.434 -0.836 19.214 -1.526 12.912 -0.912 14.636 0.074 28.912 -1.164 1.486 -0.128 1.65 2.128 0.182 2.232ZM146.528 41.38c0.348 -0.442 0.748 -0.418 1.61 -0.552 2.048 -0.312 2.568 -0.37 4.888 -0.47 7.252 -0.312 6.304 -0.936 13.558 -0.714 7.758 0.228 8.592 0.004 10.552 0.032 1.424 0.02 1.486 2.238 -0.066 2.238 -8.74 -0.678 -10.48 0.07 -15.07 0.266 -1.738 0.074 -3.406 -0.244 -9.378 0.568 -0.792 0.108 -3.4 0.474 -5.202 0.474 -0.948 0 -1.482 -1.106 -0.892 -1.842Zm0.318 11.98c2.164 -0.206 3.752 -0.406 5.384 -0.522 0.644 -0.046 20.178 -1.026 20.29 -1.028 2.518 -0.062 24.55 0.064 25.692 0.058 1.476 0.032 1.438 2.272 -0.016 2.24 -17.788 -0.392 -19.07 0.344 -28.732 0.278 -7.536 -0.066 -14.392 0.768 -18.412 1.04 -0.822 0.056 -3.494 0.162 -4.012 0.2 -1.498 0.11 -1.656 -2.126 -0.194 -2.266Zm14.534 17.276c-0.324 0 -0.628 -0.014 -0.934 -0.026 -3.058 -0.112 -4.508 0.34 -6.142 0.34 -0.822 0 -1.474 -0.156 -2.452 -0.242 -2.172 -0.19 -2.656 0.078 -4.342 -0.206 -0.556 -0.09 -0.906 -0.076 -1.24 -0.466 -0.396 -0.464 -0.362 -1.186 0.108 -1.598 0.362 -0.32 0.71 -0.266 1.18 -0.296 0.636 -0.036 0.878 -0.048 2.136 0.154 2.722 0.438 3.354 0.092 4.258 0.084 1.386 -0.014 3.648 0.678 6.784 0.106 0.234 -0.042 0.332 -0.082 0.536 -0.082 1.476 0 1.498 2.12 0.108 2.232ZM138.086 128.204c0 0.604 -0.492 1.1 -1.096 1.104 -0.162 0 -64.69 0.61 -64.69 0.61 -0.67 0 -1.238 -0.542 -1.266 -1.216 -3.952 -94.452 -4.074 -90.378 -2.654 -90.412 0.134 -0.002 68.334 -0.856 68.526 -0.86 0.726 0.042 1.15 0.532 1.15 1.114 0 0.118 0.032 89.296 0.03 89.66Zm81.846 -42.64c-21.934 -0.31 -23.366 0.526 -37.708 1.384 -1.292 0.078 -6.136 0.25 -7.256 0.312 -11.494 0.622 -17.982 1.702 -29.096 1.862 -0.6 0.008 -1.106 -0.47 -1.142 -1.076 -0.02 -0.642 0.454 -1.164 1.078 -1.196 34.626 -2.224 34.406 -2.34 36.99 -2.494 4.148 -0.248 34.486 -1.02 37.152 -1.034 0.628 0.006 1.12 0.504 1.12 1.13 -0.016 0.616 -0.532 1.118 -1.136 1.11l-0.002 0.002Z" clip-rule="evenodd" stroke-width="1"></path><path id="vector_12" fill="#38A1FF" fill-rule="evenodd" d="M85.188 112.5244c-0.538 1.312 -0.894 2.274 -1.06 2.864 1.058 1.018 5.004 1.7 6.542 1.898 -0.042 -1.2 0.052 -2.834 0.144 -4.03 -2.666 -0.434 -4.114 -0.596 -5.626 -0.732Z" clip-rule="evenodd" stroke-width="1"></path><path id="vector_13" fill="#38A1FF" fill-rule="evenodd" d="M118.39 123.7738c-2.926 -1.546 -5.566 -5.67 -6.246 -6.524 -0.99 -1.244 -1.984 -2.444 -2.702 -3.864 -1.47 1.752 -3.598 3.026 -5.996 6.028 -1.826 2.29 -4.78 4.068 -7.184 7.918 2.75 -0.006 35.604 -0.188 39.608 -0.222l-0.032 -6.318c-12.054 3.11 -15.29 4.122 -17.448 2.982Z" clip-rule="evenodd" stroke-width="1"></path><path id="vector_14" fill="#38A1FF" fill-rule="evenodd" d="M103.1498 116.404c2.764 -2.624 2.236 -2.406 3.668 -3.86 0.198 -0.2 1.69 -1.61 1.84 -1.712 -0.118 -1.542 0.378 -2.96 0.552 -4.362 0.22 -1.528 0.498 -4.936 0.926 -7.968 -0.204 0.038 -15.242 2.946 -16.872 2.726 -2.17 1.254 -6.006 1.63 -7.932 2.174l-12.742 4.148 0.938 19.816c20.172 -0.026 20.046 0.076 20.174 -0.124 0.336 -0.458 6.372 -7.894 7.034 -8.588 0.762 -0.802 1.64 -1.514 2.414 -2.25Zm-10.116 1.56c-0.068 0.71 -0.024 1.002 -0.38 1.382 -0.23 0.22 -0.534 0.342 -0.868 0.318 -0.318 -0.028 -6.144 -1.408 -7.584 -1.922 -1.114 -0.396 -1.928 -0.94 -2.18 -1.454 -0.146 -0.254 -0.14 -0.938 0.022 -1.684 0.32 -1.424 1.122 -3.844 1.13 -3.868 0.208 -0.578 0.794 -0.898 1.388 -0.812 2.344 0.546 5.602 1.024 7.634 1.258 0.578 0.086 0.998 0.588 0.98 1.168 0.086 2.76 -0.024 4.27 -0.142 5.614Z" clip-rule="evenodd" stroke-width="1"></path><path id="vector_15" fill="#38A1FF" fill-rule="evenodd" d="M93.652 79.1c-0.832 -1.074 -1.568 -2.18 -6.634 -8.34 -3.634 -0.154 -5.718 -3.018 -8.772 -3.688 -1.91 -0.374 -5.4 1.594 -7.044 2.652 -0.124 0.074 -0.256 0.122 -0.39 0.144l1.668 35.28c12.998 -4.852 18.058 -4.532 19.914 -6.082 1.276 -1.116 4.928 -15.266 1.26 -19.964l-0.002 -0.002ZM81.2 91.974c-0.446 0.414 -1.102 0.468 -1.604 0.122 -3.226 -2.554 -5.646 -4 -6.316 -4.468 -0.482 -0.332 -0.638 -0.966 -0.372 -1.48 1.114 -2.482 1.902 -3.856 2.602 -5.01 0.366 -0.61 0.448 -0.898 0.944 -1.054 0.68 -0.214 0.74 -0.104 4.286 2.848 1.208 1.006 3.92 3.096 3.926 4.552 0.062 0.946 -2.386 3.35 -3.464 4.49H81.2Z" clip-rule="evenodd" stroke-width="1"></path></g><g id="observation 2"><path id="vector_16" fill="#38A1FF" fill-rule="evenodd" d="M310.69 50.4558c-4.496 -6.978 -6.402 -10.632 -11.656 -16.38 -0.824 -0.912 -3.072 -3.404 -4.336 -3.404 -2.258 0 -0.92 4.586 0.006 6.636 2.428 5.198 10.536 11.54 15.986 13.146v0.002Z" clip-rule="evenodd" stroke-width="1"></path><path id="vector_17" fill="#38A1FF" fill-rule="evenodd" d="M305.774 94.3268c5.09 4.226 10.978 7.634 17.542 6.8 -4.578 -3.036 -6.666 -4.546 -9.44 -6.084 -3.3 -1.824 -9.032 -4.418 -12.728 -4.948 1.21 1.584 3.722 3.472 4.626 4.232Z" clip-rule="evenodd" stroke-width="1"></path><path id="vector_18" fill="#38A1FF" fill-rule="evenodd" d="M317.428 76.764c-2.686 -3.288 -5.602 -6.122 -8.75 -8.61 -0.206 -0.162 -4.946 -3.742 -6.76 -4.846 -1.338 -0.834 -2.452 -1.382 -4.024 -1.978 2.534 6.472 10.328 13.26 19.534 15.434Z" clip-rule="evenodd" stroke-width="1"></path><path id="vector_19" fill="#38A1FF" fill-rule="evenodd" d="M326.49 40.8302c-0.098 -1.398 -0.27 -2.744 -0.688 -4.046 -2.084 4.104 -3.606 9.782 -3.574 16.526 3.388 -3.564 4.618 -7.712 4.262 -12.48Z" clip-rule="evenodd" stroke-width="1"></path><path id="vector_20" fill="#38A1FF" fill-rule="evenodd" d="m267.304 13.44824 -11.58 156.82196 116.77 13.238 17.504 -161.33 -122.694 -8.72996Zm63.094 68.93396c0.534 -3.618 2.72 -9.872 3.862 -12.674 1.466 -3.486 3.122 -8.73 6.044 -8.236 1.308 0.228 2.202 1.758 2.51 3.05 0.344 1.68 0.236 3.222 -0.054 4.912 -0.44 3.136 -1.206 5.8 -3.258 9.202 -2 3.226 -5.008 6.692 -7.462 8.796 -0.714 0.612 -1.88 0.118 -1.88 -0.856 -0.03 -1.574 0.048 -2.946 0.24 -4.196l-0.002 0.002Zm23.772 -36.702c-0.7 0.602 -1.096 0 -3.4 -0.12 -2.626 -0.14 -3.178 0.25 -4.616 -0.13 -1.76 -0.46 -3.14 -0.102 -4.314 -0.15 -0.336 -0.016 -0.644 -0.09 -0.958 -0.128 -0.61 -0.01 -1.108 -0.52 -1.112 -1.142 0.014 -0.628 0.526 -1.13 1.142 -1.13 2.868 -0.236 1.966 0.282 5.194 0.154 2.822 -0.116 2.738 0.748 7.422 0.678 1.014 0.082 1.396 1.33 0.642 1.968Zm0.434 45.554c0.174 0.964 0.13 1.916 0.028 2.866 -0.824 5.942 -3.538 10.43 -7.6 14.846 -1.808 1.912 -3.61 3.476 -5.416 4.55 -0.71 0.422 -1.724 -0.048 -1.724 -0.988 -0.004 -4.016 0.792 -7.04 2.28 -10.77 1.27 -3.016 2.89 -6.454 4.968 -10.044 0.834 -1.43 2.13 -3.632 3.69 -4.192 2.162 -0.762 3.352 1.372 3.776 3.734l-0.002 -0.002Zm-34.254 -44.632c1.298 -5.85 1.148 -4.992 2.07 -7.624 0.364 -1.086 1.198 -3.352 1.36 -3.66 0.56 -1.06 0.726 -2 1.658 -2.166 0.478 -0.088 0.94 0.092 1.044 0.176 1.97 1.578 2.158 4.834 2.24 7.378 0.146 4.344 -0.87 7.706 -2.894 11.102 -1.106 1.806 -2.344 3.424 -3.888 4.84 -0.662 0.608 -1.774 0.218 -1.9 -0.694 -0.47 -3.408 -0.434 -5.998 0.31 -9.356v0.004Zm-25.864 -17.836c2.336 -0.176 4.796 2.778 6.388 4.416 4.78 5.03 8.34 11.206 12.456 17.192 4.292 6.252 7.074 13.362 9.366 20.624 13.654 44.048 13.168 41.434 15.026 50.24 1.3 6.284 2.674 14.726 3.974 19.94 0.17 0.612 -0.21 1.23 -0.818 1.386 -0.566 0.162 -1.208 -0.18 -1.384 -0.808 -0.914 -3.226 -2.196 -9.49 -2.786 -12.6 -3.65 -19.27 -3.104 -16.152 -16.462 -57.382 -2.026 -6.372 -4.138 -12.486 -7.598 -18.252 -3.63 -1.228 -7.242 -2.302 -12.728 -6.992 -3.29 -2.822 -5.746 -5.82 -6.918 -8.44 -1.692 -3.71 -2.596 -9.022 1.486 -9.324h-0.002Zm6.064 58.718c4.324 0.59 12.704 4.544 16.498 6.698 4.196 2.39 6.352 4.032 9.754 6.564 0.964 0.718 0.23 2.106 -0.428 2.024 -7.784 1.916 -15.728 -1.788 -22.008 -6.722 -1.19 -0.924 -3.502 -2.5 -4.98 -4.204 -2.708 -3.1 -1.424 -5.064 0.526 -4.558 0.124 0.032 0.544 0.186 0.638 0.198Zm-5.138 -26.874c0.1 -1.106 0.74 -1.738 1.854 -1.83 1.76 -0.14 4.372 1.654 5.858 2.638 2.734 1.792 1.772 0.866 9.662 7.138 3.502 2.784 5.822 5.358 8.206 9.208 0.496 0.76 -0.064 1.756 -0.932 1.756 -0.072 0 -0.188 -0.004 -0.25 -0.042 -6.188 -1.1 -14.828 -5.258 -19.466 -10.43 -1.716 -1.842 -5.13 -5.746 -4.93 -8.438h-0.002Zm15.932 48.528c2.784 -0.932 9.734 3.102 13.194 5.016 2.982 1.652 4.75 3.268 6.37 6.252 0.392 0.724 -0.146 1.532 -0.462 1.548 -4.76 2.794 -14.148 -1.05 -17.79 -4.546 -4.018 -3.778 -3.572 -7.528 -1.31 -8.27h-0.002Zm-36.326 -35.556c0.458 0.022 1.48 -0.004 2.484 0.078 1.344 0.11 2.426 0.388 5.742 0.666 1.134 0.094 2.336 0.11 3.528 0.268 2.754 0.364 3.65 0.952 11.616 1.898 0.982 0.174 1.278 1.442 0.466 2.016 -0.958 0.678 -2.142 -0.72 -9.942 -1.182 -4.764 -0.29 -3.088 -0.592 -7.844 -1 -1.44 -0.126 -2.916 -0.092 -4.388 -0.224 -0.618 -0.054 -1.232 -0.17 -1.81 -0.246 -1.486 -0.108 -1.364 -2.344 0.148 -2.27v-0.004Zm21.33 11.152c-0.732 0.584 -1.048 -0.028 -3.968 -0.238 -2.596 -0.186 -3.084 0.136 -5.334 -0.36 -3.64 -0.81 -2.754 -0.09 -5.826 -0.962 -0.602 -0.122 -1.004 -0.708 -0.878 -1.332 0.382 -1.912 3.538 -0.2 6.662 -0.038 0.43 0.028 0.896 -0.052 1.382 -0.004 2.18 0.21 2.236 0.864 7.35 0.948 1.032 0.114 1.38 1.37 0.614 1.986h-0.002Zm-23.394 59.196c0.63 0.074 1.234 0.102 1.88 0.194 1.98 0.282 1.756 0.458 4.386 0.678 0.598 0.05 1.176 0.134 1.764 0.158 0.59 0.026 1.204 -0.04 1.794 0 1.638 0.104 5.324 0.76 8.332 0.976 0.992 0.072 2.048 0.074 3.01 0.13 1 0.116 1.36 1.372 0.59 1.988 -0.92 0.732 -1.264 -0.466 -8.812 -0.456 -3.51 0.024 -3.56 -0.19 -6.002 -0.488 -4.57 -0.556 -3.588 -0.162 -7.34 -0.944 -1.51 -0.314 -1.036 -2.502 0.396 -2.238l0.002 0.002Zm41.632 14.61c-0.152 0 -0.222 -0.022 -0.66 -0.096 -10.6 -1.818 -14.774 -1.35 -20.924 -1.864 -2.328 -0.194 -3.402 -0.606 -11.852 -1.108 -4.498 -0.268 -4.898 -0.41 -8.012 -0.854 -0.616 -0.088 -1.064 -0.642 -0.996 -1.262 0.088 -0.636 0.646 -1.066 1.266 -0.994 0.656 0.076 3.54 0.296 4.322 0.376 3.638 0.374 5.128 0.814 12.73 1.152 5.384 0.238 24.074 2.398 24.274 2.422 1.368 0.172 1.24 2.228 -0.148 2.228Zm-4.58 -9.248c-2.24 -0.166 -4.522 -0.148 -6.718 -0.266 -0.558 -0.03 -2.41 -0.2 -2.794 -0.218 -1.046 -0.05 -1.464 -1.284 -0.744 -1.962 0.36 -0.346 0.72 -0.31 1.418 -0.314 2.81 -0.016 3.588 0.028 6.414 0.33 8.042 0.86 7.738 0.264 15.494 1.63 8.376 1.478 10.618 1.496 12.626 1.76 0.62 0.082 1.042 0.664 0.958 1.272 -0.104 0.626 -0.694 1.038 -1.28 0.944 -3.596 -0.672 -6.644 -1.326 -13.612 -1.858 -6.472 -0.496 -6.306 -0.91 -11.762 -1.318Zm50.36 13.146c-0.09 0.638 -0.68 1.06 -1.25 0.982 -2.342 -0.36 -6.072 -1.116 -14.128 -1.67 -8.428 -0.584 -4.49 -0.716 -12.642 -1.448 -2.25 -0.2 -4.488 -0.234 -6.694 -0.426 -1.016 -0.09 -2.336 -0.282 -2.784 -0.324 -0.624 -0.058 -1.088 -0.574 -1.056 -1.208 0.048 -0.604 0.552 -1.062 1.14 -1.062 3.748 0 6.584 0.53 9.27 0.814 2.546 0.272 7.684 0.624 9.042 0.782 2.52 0.296 5.05 0.792 7.602 1.162 7.242 1.052 8.324 0.934 10.508 1.156 0.618 0.062 1.06 0.63 0.994 1.244l-0.002 -0.002Zm4.184 -5.75c-0.206 0 -0.336 -0.05 -1.08 -0.246 -5.75 -1.526 -8.076 -1.246 -11.106 -1.688 -1.34 -0.192 -2.722 -0.802 -7.556 -0.924 -2.752 -0.074 -2.68 -0.17 -3.954 -0.306 -0.618 -0.032 -1.108 -0.562 -1.092 -1.184 0.032 -0.614 0.538 -1.09 1.136 -1.09 2.286 0 2.554 -0.02 4.744 0.298 5.588 0.806 5.096 0.106 10.624 1.384 4.874 1.128 6.854 1.296 8.486 1.538 1.352 0.28 1.112 2.22 -0.206 2.22l0.004 -0.002Zm-17.312 -36.888c0.394 -0.272 0.718 -0.18 1.102 -0.18 0.478 -0.002 0.636 0.032 1.094 0.2 1.07 0.392 1.618 0.128 2.3 0.24 0.902 0.154 1.598 0.77 3.238 0.822 0.37 0.01 0.85 0.006 1.166 0.54 0.298 0.502 0.164 1.192 -0.376 1.524 -1.006 0.612 -1.058 -0.582 -3.538 -0.37 -1.69 0.144 -0.95 -0.268 -2.594 -0.444 -0.438 -0.052 -0.924 0.042 -1.416 -0.064 -0.228 -0.05 -0.37 -0.142 -0.57 -0.222 -0.956 -0.206 -1.218 -1.486 -0.408 -2.046h0.002Zm18.52 4.84c-0.416 -0.12 -0.32 -0.35 -1.192 -0.262 -0.432 0.036 -0.876 0.386 -1.37 0.022 -0.252 -0.184 -0.636 -0.166 -0.924 -0.114 -0.368 0.074 -0.53 0.078 -0.814 -0.088 -0.202 -0.11 -0.482 -0.062 -0.792 -0.466 -0.362 -0.474 -0.302 -1.192 0.198 -1.584 0.406 -0.322 0.692 -0.202 0.892 -0.266 0.584 -0.19 0.806 0.312 1.556 0.228 0.182 -0.02 0.154 -0.12 0.46 -0.128 0.418 0.022 0.716 0.302 1.012 0.396 0.848 0.282 0.854 0.044 1.286 0.044 1.434 0.202 1.194 2.406 -0.312 2.218Zm4.564 -6.596c-0.7 0.496 -1.118 -0.024 -3.87 -0.476 -0.374 -0.062 -2.868 -0.396 -5.666 -0.446 -4.738 -0.088 -2.712 -0.406 -7.59 -0.708 -2.788 -0.168 -2.388 0.132 -5.842 -0.404 -1.002 -0.09 -1.376 -1.368 -0.622 -2.004 0.412 -0.348 0.782 -0.256 1.684 -0.236 2.606 0.058 3.6 0.434 6.92 0.588 1.15 0.058 2.254 0.022 3.366 0.126 1.598 0.15 3.134 0.492 4.69 0.732 4.788 0.73 5.564 0.676 6.462 0.808 0.97 0.144 1.288 1.44 0.466 2.018l0.002 0.002Zm-0.402 -70.986c-0.65 0 -0.732 -0.456 -3.344 -0.512 -0.91 -0.01 -1.662 0.136 -2.498 0.052 -0.686 -0.074 -1.024 -0.488 -3.266 -0.346 -0.884 0.058 -1.102 0.056 -1.728 -0.08 -0.386 -0.086 -0.71 -0.062 -1.042 -0.428 -0.654 -0.726 -0.134 -1.908 0.842 -1.9 0.53 0.004 0.812 -0.166 2.138 0.084 0.474 0.088 1.198 0.206 2.438 0.136 1.792 -0.088 2.108 0.298 4.074 0.594 1.764 0.266 1.106 0.124 2.52 0.17 1.412 0.2 1.224 2.23 -0.134 2.23Zm3.472 -7.356c-0.448 0 -2.42 -0.476 -5.742 -0.792 -6.84 -0.65 -7.018 -0.33 -11.214 -0.634 -1.814 -0.128 -3.788 -0.706 -10.716 -0.392 -2.986 0.132 -2.354 0.086 -5.098 0.086 -1.002 0 -1.486 -1.178 -0.852 -1.894 0.326 -0.364 0.624 -0.364 1.138 -0.41 4.996 -0.452 4.324 -0.072 12.708 -0.004 3.018 0.018 3.992 0.06 8.182 0.632 11.838 1.604 11.816 0.742 12.482 1.602 0.554 0.718 0.048 1.806 -0.888 1.806Z" clip-rule="evenodd" stroke-width="1"></path><path id="vector_21" fill="#38A1FF" fill-rule="evenodd" d="M340.624 67.9524c0.06 -0.852 0.08 -0.32 -0.102 -2.316 -0.28 -0.942 -0.328 -1.172 -0.622 -1.612 -1.678 1.258 -2.98 5.176 -3.566 6.56 -1.544 3.504 -3.082 9.388 -3.668 13.346 5.606 -5.106 7.58 -9.998 7.958 -15.978Z" clip-rule="evenodd" stroke-width="1"></path><path id="vector_22" fill="#38A1FF" fill-rule="evenodd" d="M328.282 120.5486c-2.194 -2.866 -6.154 -5.292 -9.396 -6.876 -1.694 -0.828 -4.326 -2.238 -6.214 -2.238 -0.236 0 -0.408 0.032 -0.524 0.098 -0.088 5.182 10.772 10.978 16.134 9.016Z" clip-rule="evenodd" stroke-width="1"></path><path id="vector_23" fill="#38A1FF" fill-rule="evenodd" d="M346.98 96.7126c-2.354 4.224 -3.986 9.38 -4.6 13.658 8.988 -6.304 11.3 -16.984 9.206 -20.44 -2.072 1.294 -3.9 5.472 -4.606 6.782Z" clip-rule="evenodd" stroke-width="1"></path></g><g id="person"><path id="vector_24" fill="#191919" fill-rule="evenodd" d="M155.1142 364.462c-0.64 -8.108 -0.962 -16.682 -1.08 -25.472 -0.784 0.032 -1.436 0.064 -1.936 0.094 0.104 9.222 0.416 17.702 0.938 25.382l2.078 -0.004Z" clip-rule="evenodd" stroke-width="1"></path><path id="vector_25" fill="#191919" fill-rule="evenodd" d="M223.212 171.4818c-0.656 -0.116 -1.286 0.322 -1.396 0.978 -3.75 22.53 -38.284 27.9922 -52.532 1.896 -2.72 -4.982 -10.022 -24.15 -8.732 -29.678 0.914 -3.922 3.806 -7.424 8.982 -9.48 5.396 -2.144 10.172 -2.056 14.172 -2.006 11.684 0.146 24.522 2.706 32.48 11.26 0.452 0.486 1.226 0.498 1.71 0.038s0.504 -1.23 0.04 -1.706c-7.26 -7.424 -23.416 -12.416 -34.206 -12.442 -3.562 -0.01 -10.26 0.822 -15.048 2.674 -5.992 2.316 -9.958 5.974 -10.806 11.466 -1.074 6.948 5.504 24.094 9.34 31.012 3.06 5.52 7.694 11.224 12.79 14.308 17.542 10.6122 40.474 2.42 44.172 -16.922 0.126 -0.654 -0.314 -1.282 -0.972 -1.398h0.006Z" clip-rule="evenodd" stroke-width="1"></path><path id="vector_26" fill="#191919" d="M200.334 337.442c-0.062 6.812 0.098 13.442 0.524 19.644 0.048 0.642 0.618 1.1 1.208 1.046 2.316 -0.208 0.202 -3.546 0.33 -20.796 -0.668 0.036 -1.356 0.072 -2.062 0.106Z" stroke-width="1"></path><path id="vector_27" fill="#191919" d="M201.066 317.71c0.688 0.722 1.382 1.452 2.072 2.18 1.026 -14.212 2.674 -26.196 4.526 -39.25 -0.7 -0.608 -1.41 -1.188 -2.116 -1.702 -2.328 12.94 -3.7 26.41 -4.482 38.772Z" stroke-width="1"></path><path id="vector_28" fill="#191919" d="m214.3 243.206 4.202 -22.206c0.118 -0.62 -0.292 -1.222 -0.914 -1.344 -0.628 -0.108 -1.232 0.294 -1.35 0.914 -0.116 0.578 -1.822 9.832 -3.908 21.194 0.658 0.474 1.314 0.954 1.97 1.442Z" stroke-width="1"></path><path id="vector_29" fill="#191919" fill-rule="evenodd" d="M225.668 290.682c-5.536 6.32 -11.348 13.5 -15.946 20.484 -0.37 0.562 -0.208 1.308 0.356 1.666 0.562 0.358 1.314 0.198 1.674 -0.368 6.642 -10.412 11.996 -16.65 16.088 -21.22 -0.724 -0.194 -1.448 -0.378 -2.172 -0.562Z" clip-rule="evenodd" stroke-width="1"></path><path id="vector_30" fill="#191919" fill-rule="evenodd" d="M231.436 253.244c-0.804 0.342 -2.068 0.708 -3.202 1.274 0.688 0.596 1.37 1.192 2.044 1.782 3.294 -1.472 9.122 -2.936 11.146 -7.84 1.394 -3.376 0.264 -8.25 -0.06 -11.558 -0.532 -5.438 -1.602 -16.508 -1.72 -21.216 -0.018 -0.678 -0.578 -1.218 -1.246 -1.208 -0.682 0.012 -1.222 0.57 -1.216 1.246 0.334 30.396 8.194 31.612 -5.75 37.52h0.004Z" clip-rule="evenodd" stroke-width="1"></path><path id="vector_31" fill="#191919" fill-rule="evenodd" d="M162.474 193.732c-0.244 -0.63 -0.946 -0.942 -1.586 -0.704 -2.646 0.988 -5.26 2.034 -7.766 3.284 -16.854 8.404 -41.09 30.144 -57.032 52.914 0.866 0.526 1.636 1.068 2.44 1.794 15.954 -21.746 40.726 -46.698 63.246 -55.702 0.622 -0.248 0.942 -0.954 0.696 -1.588l0.002 0.002Z" clip-rule="evenodd" stroke-width="1"></path><path id="vector_32" fill="#191919" d="m215.03 165.208 6.54 -4.472 -1.128 -1.65 -6.76 4.624c-4.896 0.152 -11.94 0.63 -18.956 1.606 -18.16 2.568 -21.674 2.362 -28.456 4.526 -0.648 0.206 -1.022 0.872 -0.83 1.524 0.192 0.652 0.874 1.026 1.526 0.834 1.438 -0.38 3.32 -0.696 5.484 -1.088 20.438 -3.718 20.104 -2.734 27.314 -3.608l13.324 -1.6c1.684 6.596 2.49 11.07 3.976 18.342l1.182 -0.244c0.652 -0.134 1.066 -0.772 0.934 -1.424 -1.008 -4.304 -2.084 -7.72 -4.148 -17.366l-0.002 -0.004Z" stroke-width="1"></path><path id="vector_33" fill="#191919" fill-rule="evenodd" d="M178.362 179.1438c0.416 -0.008 0.83 0.024 1.26 -0.022 0.994 -0.108 1.942 -0.442 2.95 -0.584 2.584 -0.364 2.62 -0.038 3.572 -0.116 1.44 -0.116 2.1 -0.544 5.188 -0.944 1.734 -0.224 1.394 -0.114 3.29 -0.118 0.652 -0.068 1.134 -0.66 1.068 -1.324 -0.066 -0.664 -0.652 -1.144 -1.32 -1.074 -1.996 0.414 -1.598 0.432 -3.23 0.536 -3.074 0.192 -3.436 -0.064 -4.95 0.072 -0.93 0.084 -2.274 0.51 -4.046 0.666 -0.8 0.07 -1.616 0 -2.43 0.106 -0.578 0.076 -1.126 0.244 -1.704 0.37 -0.668 0.096 -1.142 0.72 -1.038 1.39 0.104 0.67 0.712 1.138 1.394 1.042h-0.004Z" clip-rule="evenodd" stroke-width="1"></path><path id="vector_34" fill="#191919" fill-rule="evenodd" d="M199.348 176.6616c0.222 0.016 0.43 0.076 0.652 0.054 0.518 -0.052 0.978 -0.334 1.496 -0.426 1.31 -0.234 1.386 0.08 1.838 0.046 0.838 -0.062 0.924 -0.444 2.608 -0.694 0.85 -0.126 0.684 -0.042 1.674 0.09 0.666 -0.04 1.17 -0.614 1.126 -1.278 -0.044 -0.664 -0.608 -1.17 -1.274 -1.128 -1.068 0.28 -0.82 0.318 -1.69 0.334 -1.634 0.028 -1.804 -0.23 -2.594 -0.16 -0.596 0.052 -1.04 0.404 -2.074 0.484 -0.43 0.032 -0.844 -0.078 -1.274 -0.016 -0.296 0.042 -0.564 0.174 -0.86 0.266 -0.668 0.102 -1.126 0.73 -1.022 1.4 0.104 0.67 0.726 1.128 1.394 1.028Z" clip-rule="evenodd" stroke-width="1"></path><path id="vector_35" fill="#191919" fill-rule="evenodd" d="M184.794 185.3942c0.534 -0.048 1.068 -0.052 1.6 -0.13 1.274 -0.188 2.504 -0.584 3.78 -0.772 3.158 -0.468 3.44 -0.15 4.58 -0.246 2.046 -0.172 2.366 -0.548 6.684 -1.044 2.266 -0.26 1.96 -0.134 4.238 -0.178 0.668 -0.066 1.148 -0.656 1.082 -1.32 -0.066 -0.664 -0.652 -1.148 -1.32 -1.082 -2.576 0.468 -2.046 0.462 -4.164 0.598 -3.784 0.24 -4.442 -0.008 -6.372 0.164 -1.138 0.1 -2.966 0.57 -5.216 0.816 -2.922 0.318 -1.572 -0.172 -5.336 0.782 -0.668 0.124 -1.118 0.768 -0.994 1.432 0.126 0.668 0.77 1.106 1.438 0.98Z" clip-rule="evenodd" stroke-width="1"></path><path id="vector_36" fill="#191919" fill-rule="evenodd" d="M197.56 142.6674c0.256 -0.136 0.518 -0.194 0.76 -0.326 2.624 -1.436 5.654 -0.768 7.114 0.05 0.676 0.378 0.804 0.578 1.47 1.33 0.516 0.428 1.272 0.364 1.706 -0.15 0.428 -0.508 0.356 -1.27 -0.148 -1.698 -0.548 -0.346 -1.116 -0.622 -1.688 -0.956 -0.436 -0.254 -6.53 -4.81 -10.698 -0.206 -0.54 0.41 -0.654 1.184 -0.246 1.722 0.412 0.542 1.192 0.646 1.73 0.234Z" clip-rule="evenodd" stroke-width="1"></path><path id="vector_37" fill="#191919" fill-rule="evenodd" d="M174.9322 144.0358c-1.438 -0.566 -5.122 -0.39 -7.944 5.002 -0.254 0.484 -0.556 0.944 -0.824 1.472 -0.2 0.634 0.15 1.312 0.786 1.516 0.628 0.202 1.306 -0.146 1.516 -0.78 0.1 -0.79 0.072 -0.996 0.422 -1.624 0.502 -0.9 2.428 -3.078 4.958 -3.086 0.216 0 0.422 -0.084 0.648 -0.086 0.666 0.122 1.308 -0.32 1.43 -0.986 0.122 -0.666 -0.326 -1.306 -0.992 -1.428Z" clip-rule="evenodd" stroke-width="1"></path><path id="vector_38" fill="#191919" fill-rule="evenodd" d="M186.28 161.5954c0.524 3.118 1.024 3.996 1.31 5.334 0 0.666 0.562 1.196 1.23 1.182 0.642 -0.012 1.176 -0.564 1.176 -1.23 -0.656 -2.046 -0.044 -4.576 -1.47 -6.272 -0.268 -0.62 -0.988 -0.904 -1.604 -0.63 -0.616 0.274 -0.91 0.996 -0.642 1.618v-0.002Z" clip-rule="evenodd" stroke-width="1"></path><path id="vector_39" fill="#191919" fill-rule="evenodd" d="M198.466 151.7674c-0.264 0.508 -0.068 1.498 0.1 2.046 0.172 0.558 1.748 3.894 2.072 4.4 0.7 1.09 1.586 0.902 2.198 0.588 0.424 -0.218 0.742 -0.67 0.96 -1.3 0.346 -1.002 -0.274 -2.882 -0.658 -3.874 -0.526 -1.364 -1.294 -3.086 -2.754 -3.16 -0.582 -0.028 -1.236 0.298 -1.918 1.3Z" clip-rule="evenodd" stroke-width="1"></path><path id="vector_40" fill="#191919" fill-rule="evenodd" d="M179.1442 155.5054c-0.51 -1.35 -1.314 -3.086 -2.754 -3.158 -0.582 -0.028 -1.238 0.298 -1.92 1.3 -0.622 1.198 0.874 3.746 1.238 4.578 0.81 1.75 1.392 3.346 3.134 2.456 0.502 -0.256 1.062 -1.046 1.062 -1.996 0 -0.912 -0.33 -2.092 -0.76 -3.18Z" clip-rule="evenodd" stroke-width="1"></path><path id="vector_41" fill="#191919" fill-rule="evenodd" d="M103.818 334.554c-0.35 -0.732 -0.676 -1.468 -0.968 -2.2 -14.004 0.08 -28.976 0.892 -41.914 -1.928 -11.74 -2.558 -23.962 -6.57 -32.784 -14.59 -5.988 -5.444 -9.65006 -12.512 -9.66406 -20.636 0 -0.678 -0.548 -1.232 -1.23 -1.238 -0.666 -0.004 -1.222 0.542 -1.23 1.22 -0.25 22.668 22.32006 32.386 44.37406 37.64 15.814 3.768 28.824 2.08 43.416 1.732Z" clip-rule="evenodd" stroke-width="1"></path><path id="vector_42" fill="#38A1FF" fill-rule="evenodd" d="M211.5 128.2756c-0.4 -0.546 -1.156 -0.678 -1.71 -0.29 -0.564 0.396 -0.682 1.156 -0.296 1.712 1.646 2.382 3.832 6.918 5.038 9.876 1.866 4.572 2.284 6.288 3.502 10.756 1.414 5.186 0.896 3.456 1.954 8.9 0.784 4.04 2.166 9.432 2.372 17.13 0.394 14.772 -4.19 18.01 -1.536 18.776 0.634 0.184 1.318 -0.184 1.496 -0.828 1.278 -4.656 2.482 -13.896 2.02 -22.492 -0.498 -9.254 -1.17 -12.992 -5.55 -27.426 -2.34 -7.71 -3.538 -10.984 -7.288 -16.116l-0.002 0.002Z" clip-rule="evenodd" stroke-width="1"></path><path id="vector_43" fill="#38A1FF" fill-rule="evenodd" d="M173.874 212.944c2.146 1.418 5.534 2.608 8.588 3.492 0.334 -0.008 0.524 -0.01 0.524 -0.01s0.338 -0.67 0.884 -1.732c-5.218 -1.724 -10.32 -5.292 -10.872 -5.76 -3.172 -2.69 -3.876 -5.624 -3.058 -9.5702 0.174 -0.84 0.344 -1.74 0.7 -2.662 0.244 -0.63 -0.04 -1.344 -0.66 -1.608 -0.62 -0.262 -1.348 0.032 -1.604 0.658 -1.738 3.54 -2.052 6.9862 -0.162 10.8242 1.342 2.726 4.162 5.378 5.66 6.368Z" clip-rule="evenodd" stroke-width="1"></path><path id="vector_44" fill="#38A1FF" fill-rule="evenodd" d="M173.01 197.6778c0.54 0.414 1.308 0.318 1.724 -0.218 0.418 -0.536 0.32 -1.306 -0.216 -1.724 -12.194 -9.52 -22.342 -22.494 -24.156 -37.994 -1.802 -15.418 4.754 -31.318 14.644 -42.566 12.448 -14.154 38.202 -19.314 55.532 -9.866 16.752 9.134 21.69 29.694 23.886 48.632 1.498 12.928 -1.908 24.666 -7.37 36.424 -0.282 0.606 -0.014 1.32 0.592 1.596s1.32 0.008 1.59 -0.598c1.056 -2.368 2.026 -4.718 2.894 -7.064 1.382 2.14 2.932 4.606 3.722 6.298 4.72 10.1122 -2.454 16.5902 -12.044 22.2942 -10.86 6.458 -21.492 7.956 -32.742 5.51l-0.964 2.13c11.14 2.096 24.602 0.87 35.122 -5.23 2.814 -1.632 5.014 -3.41 7.396 -5.552 2.978 -2.678 5 -5.008 6.278 -8.55 3.126 -8.6662 -2.394 -15.0282 -5.736 -19.8282 2.972 -8.932 4.36 -17.894 3.204 -27.656 -2.332 -19.676 -7.354 -40.794 -24.654 -50.524 -18.298 -10.292 -44.784 -5.478 -58.522 10.398 -10.206 11.792 -17.064 28.716 -15.372 44.438 1.79 16.64 11.812 29.374 25.192 39.65Z" clip-rule="evenodd" stroke-width="1"></path><path id="vector_45" fill="#38A1FF" fill-rule="evenodd" d="M203.774 212.044c4.406 0.562 9.066 0.044 13.466 -0.256 0.66 -0.09 1.132 -0.7 1.038 -1.36 -0.094 -0.66 -0.7 -1.12 -1.36 -1.03 -3.79 0.834 -8.102 1.046 -12.43 0.21 -0.186 0.744 -0.428 1.55 -0.712 2.434l-0.002 0.002Z" clip-rule="evenodd" stroke-width="1"></path><path id="vector_46" fill="#38A1FF" fill-rule="evenodd" d="M207.378 206.666c5.902 0.218 11.944 -0.866 19.966 -4.786 0.58 -0.334 0.782 -1.072 0.444 -1.648 -0.338 -0.5758 -1.078 -0.7718 -1.658 -0.4358 -5.122 3.5698 -13.866 3.7978 -18.82 4.4138 -0.674 0.018 -1.206 0.584 -1.186 1.26 0.02 0.676 0.58 1.214 1.252 1.194l0.002 0.002Z" clip-rule="evenodd" stroke-width="1"></path><path id="vector_47" fill="#38A1FF" fill-rule="evenodd" d="M58.492 230.57c-1.476 -1.658 -3.428 -2.476 -5.584 -2.868 -1.202 -0.224 -4.96 -0.362 -5.836 -0.304 -3.22 0.216 -5.488 1.136 -8.124 2.292 -0.666 0.292 -1.33 0.536 -1.92 0.856 -0.958 0.52 -1.77 -0.874 -0.824 -1.446 0.618 -0.374 1.266 -0.786 1.986 -1.116 2.326 -1.072 6.178 -1.88 8.718 -2.212 2.206 -0.29 3.476 -0.498 6.372 0.278 1.208 0.312 2.324 0.774 3.358 1.364 5.368 3.076 1.01 -5.9 -4.188 -8.074 -1.914 -0.802 -3.784 -1.066 -5.84 -1.086 -0.992 -0.006 -4.868 0.338 -5.332 0.422 -2.94 0.526 -4.812 1.632 -7.002 2.986 -0.542 0.336 -1.104 0.648 -1.626 1.008 -0.852 0.658 -1.882 -0.622 -1.01 -1.32 1.526 -1.222 3.134 -2.59 8.404 -4.066 3.178 -0.894 5.372 -1.208 9.584 -0.23 1.74 0.406 2.574 0.742 3.812 1.272 4.642 1.948 4.066 -2.372 1.634 -5.694 -2.32 -3.168 -4.232 -3.44 -8.252 -3.914 -8.216 -0.984 -11.272 0.274 -16.804 3.356 -2.572 1.446 -4.212 3.054 -2.302 -0.642 7.076 -14.9066 16.056 -15.0646 20.692 -19.6126 2.23 -2.19 3.434 -5.948 0.528 -6.832 -1.51 -0.456 -4.142 0.244 -5.342 0.526 -6.464 1.498 -12.426 5.8178 -17.06 10.5538 -10.86194 11.0968 -12.90994 38.8728 -14.09594 54.5968 -1.104 15.086 -1.108 15.726 -0.858 16.752 1.084 4.452 11.80794 7.538 16.34994 8.142 3.838 0.508 4.2 -0.484 7.13 -5.104 3.414 -5.38 5.19 -6.356 6.634 -14.564 0 0 -0.338 -7.484 1.568 -13.18 0.726 -2.188 3.208 -5.278 5.232 -5.884 2.024 -0.608 5.308 0.59 7.222 0.962 8.532 1.632 6.282 -3.254 2.772 -7.214l0.004 -0.004Zm-17.934 7.952c-3.482 6.586 -3.882 12.976 -4.292 14.952 -1.078 5.264 -3.93 11.356 -7.972 14.754 -0.346 0.29 -0.874 0.23 -1.158 -0.12 -0.284 -0.35 -0.228 -0.872 0.126 -1.15 5.132 -4.032 5.744 -7.508 7.13 -13.884 0.216 -1.028 0.53 -2.04 0.76 -3.076 1.498 -6.526 1.646 -8.584 3.954 -12.308 0.554 -0.948 1.986 -0.138 1.454 0.832h-0.002Z" clip-rule="evenodd" stroke-width="1"></path><path id="vector_48" fill="#191919" fill-rule="evenodd" d="M174.212 217.378c0.394 -1.304 -1.268 -2.176 -2.134 -1.124 -0.752 0.914 -1.432 1.738 -2.054 2.486 1.228 -0.592 2.692 -1.034 4.188 -1.362Z" clip-rule="evenodd" stroke-width="1"></path><path id="vector_49" fill="#191919" fill-rule="evenodd" d="M160.5682 234.998c1.484 -1.948 1.684 -2.368 3.47 -4.694 0.306 -1.706 0.624 -3.948 1.394 -6.064 -4.126 4.95 -8.6 11.53 -9.48 13.178 1.614 -0.704 3.174 -1.48 4.616 -2.42Z" clip-rule="evenodd" stroke-width="1"></path><path id="vector_50" fill="#191919" fill-rule="evenodd" d="M275.028 342.924c-0.208 5.024 -0.28 13.908 -0.372 21.352h2.066c0.116 -5.726 0.252 -13.244 0.38 -21.12 65.09 5.896 94.988 -102.484 2.132 -151.2786 -7.634 -4.012 -16.194 -7.578 -25.654 -10.798 -0.638 -0.218 -1.334 0.124 -1.556 0.764 -0.222 0.642 0.12 1.338 0.77 1.56 36.578 12.538 70.696 36.5606 80.092 74.3886 5.334 21.468 1.566 47.832 -12.228 64.522 -23.364 28.27 -65.64 23.104 -83.856 -6.774 -1.404 -2.302 -2.508 -4.698 -3.034 -7.088 8.214 -8.528 15.236 -21.528 18 -33.222 5.378 1.976 6.078 1.87 14.972 3.786 9.676 2.084 9.668 2.382 13.68 3.49 11.084 3.064 19.434 6.392 26.394 15.88 0.944 1.288 3.378 -0.746 2.404 -2.012 -2.656 -3.454 -6.358 -6.5 -10.5 -9.068 1.936 -0.23 4.232 -0.338 7.84 -0.398 2.358 -0.038 3.106 -2.87 -0.052 -2.886 -1.872 0.092 -7.936 -0.29 -11.412 1.216 -14.366 -7.568 -19.208 -5.236 -43.794 -12.816 -0.88 -0.58 -2.21 0.38 -1.792 1.506 -2.304 11.604 -10.14 24.264 -17.614 32.638 -0.48 0.218 -0.784 0.736 -0.696 1.282 1.81 11.282 19.1 31.824 43.83 35.082v-0.006Z" clip-rule="evenodd" stroke-width="1"></path><path id="vector_51" fill="#191919" d="m188.37 364.41 2.572 -0.004c-1.606 -8.866 -2.93 -17.138 -4.056 -26.428l-2.186 0.072c1.022 8.248 2.338 18.156 3.67 26.36Z" stroke-width="1"></path><path id="vector_52" fill="#38A1FF" fill-rule="evenodd" d="M243.884 270.488c-0.598 -0.604 -14.562 -13.748 -23.718 -21.322 -8.854 -7.324 -22.728 -18.098 -34.55 -18.564 -6.578 -0.26 -13.79 0.682 -19.5 4.01 -1.056 0.616 -3.434 1.902 -4.212 3.26 -0.562 0.982 -0.582 2.026 0.552 3.018 3.854 3.37 10.314 0.314 14.268 -0.432 8.98 -1.696 19.13 1.312 20.636 3.324 -1.552 0.236 -4.876 1.118 -6.098 1.498 -3.702 1.152 -5.376 1.916 -8.92 5.296 -1.256 1.2 -2.93 3.106 -4.21 4.82 -3.996 5.346 -1.026 16.436 3.45 7.706 3.472 -6.772 10.046 -10.332 17.628 -10.986 1.12 -0.096 1.216 1.72 0.11 1.86 -8.304 1.06 -14.474 6.682 -16.316 10.612 -1.594 3.4 -2.19 15.186 3.644 5.54 2.658 -4.394 9.816 -8.29 14.18 -9.24 1.092 -0.238 1.774 1.496 0.712 1.746 -6.156 1.802 -8.572 3.7 -11.242 6.39 -7.894 7.954 -3.626 20.336 2.686 11.562 1.13 -1.57 2.682 -4.672 4.556 -5.614 1.874 -0.942 5.768 -0.402 7.784 0.68 5.252 2.818 10.112 8.44 10.112 8.44 4.292 3.196 7.386 4.376 8.846 4.66 1.922 0.374 3.908 0.658 5.932 0.858 0.202 0.098 2.654 1.178 3.438 1.366 0.854 0.206 1.752 0.232 2.812 -0.076 2.204 -0.644 8.526 -10.392 9.046 -16 0.198 -2.122 -0.358 -3.13 -1.626 -4.412Zm-9.66 13.232c-0.354 0.412 -0.816 0.368 -1.594 0.368 -5.656 0 -12.148 -2.868 -16.572 -6.44 -0.902 -0.73 -2.024 -1.638 -4.248 -3.066 -2.462 -1.58 -6.54 -3.316 -7.442 -3.604 -1.278 -0.408 -0.736 -2.34 0.592 -1.978 4.174 1.142 5.966 2.578 11.3 6.214 0.872 0.594 1.796 1.108 2.652 1.692 5.398 3.676 7.992 5.706 14.472 5.124 0.884 -0.08 1.444 1 0.838 1.692l0.002 -0.002Z" clip-rule="evenodd" stroke-width="1"></path></g><g id="table"><path id="vector_53" fill="#191919" fill-rule="evenodd" d="m102.3842 365.842 -30.98 0.042c-0.744 0.002 -0.14 -0.152 -22.14 16.87 -0.54 0.418 -0.644 1.196 -0.226 1.738 0.416 0.542 1.196 0.644 1.738 0.226l21.11 -16.044c0.666 -0.006 11.474 -0.056 28.492 -0.132l2.006 -2.7Z" clip-rule="evenodd" stroke-width="1"></path><path id="vector_54" fill="#191919" fill-rule="evenodd" d="m372.42 379.07 -18.986 -13.572 -214.2438 0.292c0.138 1.124 0.312 2.096 0.464 2.578 82.6658 -0.362 211.6338 -0.916 212.7858 -0.91l18.552 13.584c0.544 0.394 1.306 0.27 1.7 -0.272 0.394 -0.542 0.27 -1.306 -0.272 -1.7Z" clip-rule="evenodd" stroke-width="1"></path></g><g id="microscope"><path id="vector_55" fill="#191919" d="M172.732 311.162c-0.702 0 -1.188 -0.706 -0.932 -1.362l2.98 -7.678c0.2 -0.514 0.782 -0.77 1.292 -0.57 0.516 0.2 0.772 0.78 0.57 1.294l-2.98 7.678c-0.152 0.396 -0.53 0.638 -0.93 0.638Z" stroke-width="1"></path><path id="vector_56" fill="#191919" d="M144.86 308.058c-0.678 0 -1.16 -0.662 -0.952 -1.308l4.776 -14.762c0.408 -1.26 2.31 -0.644 1.902 0.616l-4.776 14.762c-0.136 0.424 -0.528 0.692 -0.95 0.692Z" stroke-width="1"></path><path id="vector_57" fill="#191919" fill-rule="evenodd" d="M170.034 231.534c-0.02 -0.026 -0.04 -0.052 -0.06 -0.076 -3.582 -4.074 0.876 -9.796 5.528 -10.824 2.386 -0.526 5.628 -0.358 9.078 0.406 2.078 0.46 4.422 1.336 5.59 1.74 4.546 1.568 9.148 3.552 12.466 6.208 4.368 3.5 5.854 7.18 5.168 9.646 0.57 0.376 1.142 0.76 1.712 1.15 1.178 -3.24 -0.186 -7.942 -5.496 -12.476 -3.572 -3.05 -8.474 -5.802 -13.536 -7.41 -3.676 -1.168 -11.082 -2.468 -15.474 -1.57 -6.478 1.322 -11.95 8.376 -7.364 14.19 0.778 -0.354 1.576 -0.68 2.388 -0.984Z" clip-rule="evenodd" stroke-width="1"></path><path id="vector_58" fill="#191919" fill-rule="evenodd" d="M177.63 229.566c3.168 -0.978 9.328 -0.304 12.316 0.438 2.2 0.546 4.486 1.374 6.826 2.424 -5.628 -4.83 -10.664 -5.94 -16.376 -5.75 -3.576 0.12 -6.226 0.69 -8.6 3.072 -0.324 0.29 -0.576 1.06 -0.712 1.408 2.116 -0.718 4.318 -1.256 6.546 -1.592Z" clip-rule="evenodd" stroke-width="1"></path><path id="vector_59" fill="#191919" fill-rule="evenodd" d="M166.758 243.97c-2.296 6.554 -2.256 5.618 -3.35 8.582 -1.402 3.794 -4.576 15.412 -8.346 23.758 -0.232 0.624 0.096 1.318 0.714 1.546 0.618 0.228 1.314 -0.094 1.546 -0.72 2.016 -7.214 5.732 -15.282 8.424 -22.714 0.872 -2.408 1.776 -5.668 3.528 -10.584 -0.732 0.146 -1.606 0.194 -2.514 0.134l-0.002 -0.002Z" clip-rule="evenodd" stroke-width="1"></path><path id="vector_60" fill="#191919" fill-rule="evenodd" d="M182.7762 278.578c-0.9 2.238 -1.688 4.21 -2.31 5.796 -0.242 0.614 0.048 1.318 0.674 1.57 0.614 0.248 1.318 -0.048 1.57 -0.666l1.088 -2.666c-0.704 -1.374 -0.96 -2.764 -1.022 -4.034Z" clip-rule="evenodd" stroke-width="1"></path><path id="vector_61" fill="#191919" fill-rule="evenodd" d="M159.082 248.602c0.92 -2.342 1.858 -4.362 3.048 -6.052 -0.74 -0.526 -1.27 -1.258 -1.52 -1.936 -3.224 3.81 -4.102 6.656 -4.512 10.65 -0.304 2.948 0.1 6.77 1.888 9.132 0.402 0.53 1.174 0.608 1.7 0.19 0.518 -0.412 0.618 -1.186 0.188 -1.694 -2.556 -3.04 -2.244 -6.592 -0.792 -10.29Z" clip-rule="evenodd" stroke-width="1"></path><path id="vector_62" fill="#191919" fill-rule="evenodd" d="M159.786 238.15c-18.546 2.04 -40.39 28.014 -48.502 44.63 -6.73 13.78 -10.59 31.906 -6.724 46.748 1.834 7.036 6.452 14.636 12.164 19.958 0.488 0.456 1.2462 0.422 1.7002 -0.066 0.454 -0.488 0.4298 -1.254 -0.0622 -1.704 -5.444 -4.968 -10.134 -12.054 -11.898 -18.686 -3.9 -14.648 0.672 -31.336 7.366 -45.006 5.72 -11.684 12.37 -21.06 22.8282 -30.36 5.826 -5.18 15.6518 -12.12 23.4198 -13.072 0.668 -0.082 0.714 -2.552 -0.29 -2.44l-0.002 -0.002Z" clip-rule="evenodd" stroke-width="1"></path><path id="vector_63" fill="#191919" fill-rule="evenodd" d="M155.958 255.318c-4.734 2.602 -7.5 4.756 -11.874 10.048 -3.006 3.638 -6.306 8.56 -8.21 12.878 -3.892 8.83 -5.806 22.938 -5.754 29.96 0.004 0.664 0.566 1.194 1.234 1.18 0.668 -0.014 1.206 -0.564 1.184 -1.23 -0.198 -5.61 -0.142 -9.742 1.524 -16.562 1.752 -7.174 6.394 -16.632 6.888 -17.534 3.262 -5.978 7.058 -9.956 12.378 -13.928 1.246 -0.93 2.48 -1.874 3.84 -2.67 0.586 -0.342 0.798 -1.086 0.466 -1.674 -0.336 -0.594 -1.08 -0.792 -1.674 -0.466l-0.002 -0.002Z" clip-rule="evenodd" stroke-width="1"></path><path id="vector_64" fill="#191919" fill-rule="evenodd" d="M137.204 266.024c-7.6 6.67 -11.598 16.362 -14.978 25.89 -6.33 17.836 -3.876 31.138 4.332 47.434 0.298 0.592 1.032 0.82 1.624 0.512 0.592 -0.308 0.826 -1.04 0.516 -1.626 -5.47 -10.31 -9.728 -18.532 -6.246 -36.982 2.24 -11.868 7.574 -25.16 16.402 -33.404 0.49 -0.456 0.542 -1.232 0.088 -1.736 -0.454 -0.504 -1.228 -0.534 -1.738 -0.088Z" clip-rule="evenodd" stroke-width="1"></path><path id="vector_65" fill="#191919" fill-rule="evenodd" d="M135.6302 326.33c0.372 0.676 0.638 1.4 0.994 2.102 0.828 1.634 1.756 3.264 2.4 5.026 1.32 3.604 1.136 4.758 1.388 6.442 0.24 1.61 0.812 4.13 0.6 7.128 -0.204 2.886 -0.816 4.99 -2.57 7.794 -0.318 0.578 -0.11 1.31 0.468 1.642 0.564 0.324 1.324 0.13 1.632 -0.454 1.248 -2.366 2.26 -6.436 2.606 -9.088 0.714 -5.452 0.18 -7.568 -1.032 -11.524 -2.348 -7.664 -3.004 -8.08 -4.37 -10.314 -0.836 -1.368 -2.918 -0.204 -2.12 1.25l0.004 -0.004Z" clip-rule="evenodd" stroke-width="1"></path><path id="vector_66" fill="#191919" fill-rule="evenodd" d="M137.21 346.748c-0.796 -3.77 -2.896 -5.186 -6.182 -5.272 -2.094 -0.054 -5.258 0.502 -7.53 1.61 -4.316 2.124 -8.34 8.362 -11.848 13.414l-11.572 15.058c-0.428 0.524 -0.352 1.3 0.176 1.728 0.528 0.43 1.296 0.352 1.726 -0.174 4.36 -5.122 6.084 -7.194 11.572 -15.272 3.8 -5.326 7.522 -11.418 13.706 -13.21 -0.804 5.608 -1.894 15.012 -3.28 27.732 -0.05 0.666 0.454 1.242 1.108 1.288 0.666 0.048 1.246 -0.454 1.296 -1.116 1.04 -10.03 3.292 -22.892 3.472 -28.452 3.48 -0.434 4.964 0.478 5.506 4.428 0.616 4.636 -0.968 16.26 -1.348 20.54 -0.038 0.664 0.466 1.236 1.134 1.278 0.654 0.042 1.232 -0.464 1.272 -1.128 1.06 -18.048 1.454 -19.346 0.794 -22.45l-0.002 -0.002Z" clip-rule="evenodd" stroke-width="1"></path><path id="vector_67" fill="#38A1FF" fill-rule="evenodd" d="M123.572 309.576c-1.058 0.008 -1.576 1.288 -0.882 2.052 -0.202 0 14.572 16.282 22.25 24.77 0.254 0.282 0.616 0.442 1.008 0.43l65.79 -1.916c1.178 -0.034 1.814 -1.464 0.97 -2.362l-22.198 -23.106c-0.226 -0.23 -0.528 -0.358 -0.844 -0.356 -66.992 0.528 -66.094 0.688 -66.094 0.488Zm2.746 2.37c4.408 -0.1 59.546 -0.594 62.87 -0.592l19.354 20.822c-0.454 0.012 -59.886 1.99 -62.064 2.03 -1.348 -1.526 -20.16 -22.262 -20.16 -22.262v0.002Z" clip-rule="evenodd" stroke-width="1"></path><path id="vector_68" fill="#38A1FF" fill-rule="evenodd" d="M120.966 360.188c-1.39 -2.388 -5.682 -1.772 -5.892 2.136 -0.292 5.41 9.08 3.336 5.892 -2.136Z" clip-rule="evenodd" stroke-width="1"></path><path id="vector_69" fill="#38A1FF" fill-rule="evenodd" d="M144.274 298.622c-2.622 -2.328 -3.882 -6.546 -2.782 -10.258 1.016 -3.428 3.59 -6.114 8.134 -7.328 4.64 -1.24 9.258 -0.266 13.888 0.926 1.952 0.502 3.942 1.052 5.88 1.756 7.166 2.602 13.772 6.676 15.904 11.548 0.876 2.002 1.312 4.896 -0.554 6.988 -1.246 1.396 -3.478 2.318 -7.064 2.624 -0.668 0.056 -1.146 0.654 -1.084 1.316 0.062 0.662 0.656 1.156 1.31 1.086 8.828 -0.942 11.886 -6.506 9.23 -12.8 -3.176 -7.524 -15.018 -13.37 -22.93 -15.274 -4.116 -0.99 -11.116 -1.626 -15.21 -0.486 -11.394 3.172 -13.88 15.362 -6.32 21.766 0.512 0.434 1.284 0.382 1.726 -0.13 0.442 -0.512 0.376 -1.288 -0.126 -1.732l-0.002 -0.002Z" clip-rule="evenodd" stroke-width="1"></path><path id="vector_70" fill="#38A1FF" fill-rule="evenodd" d="M147.216 295.434c1.476 -1.408 4.694 -3.348 7.878 -3.768 4.322 -0.57 11.124 1.442 14.174 3.408 2.844 1.836 4.828 4.22 5.176 7.614 0.11 0.658 0.724 1.112 1.38 1.012 0.656 -0.1 1.122 -0.718 1.01 -1.374 -1.034 -6.046 -9.516 -14.404 -22.026 -12.988 -5.284 0.598 -7.456 2.204 -9.394 4.416 -0.442 0.504 -0.434 1.27 0.068 1.736 0.494 0.46 1.27 0.44 1.734 -0.056Z" clip-rule="evenodd" stroke-width="1"></path><path id="vector_71" fill="#38A1FF" d="m247.058 372.252 -161.812 -0.198c-0.786 0 -1.424 0.638 -1.424 1.426l0.024 7.704c0 0.774 0.624 1.404 1.398 1.404l161.812 -0.236c0.65 0 1.174 -0.524 1.174 -1.168l0.038 -7.704c0 -0.678 -0.536 -1.228 -1.21 -1.228Zm-160.4 7.534 0.012 -4.894c3.91 -0.04 96.988 -0.166 108.506 -0.11l0.074 5.432c-4.202 -0.006 -100 -0.38 -108.594 -0.426l0.002 -0.002Zm110.594 0.43 -0.074 -5.424c8.736 0.042 45.534 -0.036 48.68 -0.07l0.024 5.304c-12.592 0.108 -33.336 0.21 -48.63 0.19Z" stroke-width="1"></path><path id="vector_72" fill="#191919" d="M203.856 205.934c-0.514 -4.438 -8.116 -6.5296 -11.898 -3.746 -1.158 0.852 -3.204 5.302 -3.626 6.13 -1.466 2.904 -3.37 6.146 -4.834 10.218 -0.264 0.62 0.0122 1.346 0.6302 1.622 0.616 0.274 1.3478 -0.004 1.6238 -0.624 2.044 -3.722 3.292 -7.204 4.912 -10.598 3.442 -0.532 7.954 0.202 10.096 2.436 -1 2.856 -2.66 5.81 -4.142 8.084 -0.366 0.564 -0.1638 1.312 0.4022 1.654 0.58 0.342 1.322 0.156 1.662 -0.414 0 0 1.3858 -2.68 2.7578 -5.828 1.052 -2.38 2.754 -6.21 2.418 -8.936l-0.002 0.002Zm-12.128 0.876c0.716 -1.376 1.304 -2.392 1.64 -2.608 0.634 -0.408 1.6362 -0.432 2.7082 -0.43 2.04 0.004 5.1498 0.522 5.5278 2.51 0.15 0.82 0.046 1.854 -0.216 2.974 -2.486 -1.938 -6.35 -2.664 -9.66 -2.446Z" stroke-width="1"></path></g><g id="plant"><path id="vector_73" fill="#38A1FF" fill-rule="evenodd" d="M41.122 277.09c-0.61 -4.98 0.98 -12.38 4.202 -17.16 1.506 -2.234 22.702 -12.398 29.322 -12.558 6.982 -0.17 11.964 5.526 17.224 8.51 1.642 0.932 6.784 7.248 -2.456 10.662 -21.382 7.902 -46.76 23.048 -48.292 10.546Z" clip-rule="evenodd" stroke-width="1"></path><path id="vector_74" fill="#191919" fill-rule="evenodd" d="M49.618 192.7912c-2.104 2.274 -2.612 1.65 -6.504 4.166 3.994 -1.25 7.412 -1.798 7.548 -0.902 0.084 0.552 -2.316 2.3 -1.928 4.2788 0.09 0.458 1.272 3.168 3.006 7.06 1.416 0.51 2.688 1.086 3.888 1.984 -2.18 -5.078 -3.876 -9.058 -4.028 -9.5188 0.236 -0.49 0.582 -0.862 0.996 -1.462 1.494 -2.164 1.018 -3.986 -1.094 -5.26 -0.436 -0.264 -1.086 -0.366 -1.882 -0.348l-0.002 0.002Z" clip-rule="evenodd" stroke-width="1"></path><path id="vector_75" fill="#191919" fill-rule="evenodd" d="M44.228 256.378c2.266 -4.968 4.36 -10.64 3.256 -15.95 -3.152 3.12 -2.354 11.486 -3.256 15.95Z" clip-rule="evenodd" stroke-width="1"></path><path id="vector_76" fill="#191919" fill-rule="evenodd" d="M95.4542 250.996c-5.566 -3.438 -28.0262 -13.88 -29.5182 -17.578 -0.548 -1.356 -3.34 -7.842 -6.316 -14.76 -0.05 1.556 -0.306 3.132 -0.672 4.648 4.734 2.412 6.34 7.974 5.456 12.242 4.46 5.104 23.564 13.368 29.95 17.242 4.948 3.002 6.338 8.798 1.72 13.72 -6.188 3.134 -42.83 16.33 -48.986 18.734l0.158 -0.076c-7.286 1.718 -11.406 -3.59 -10.608 -9.66 0.356 -2.712 1.278 -5.458 2.45 -8.228 -3.264 5.15 -3.594 6.416 -5.21 7.842 -1.074 7.926 4.966 14.73 13.96 12.474 40.1782 -15.562 48.908 -18.868 49.64 -19.634 5.578 -5.838 4.0802 -13.196 -2.0238 -16.966Z" clip-rule="evenodd" stroke-width="1"></path><path id="vector_77" fill="#191919" fill-rule="evenodd" d="M33.402 205.016c-0.496 0.646 -1.054 1.416 -1.592 2.18 1.306 0.164 1.12 0.21 1.518 1.242 0.686 -0.314 1.45 -0.632 2.284 -0.928 -0.426 -1.126 -0.668 -2.026 -2.21 -2.494Z" clip-rule="evenodd" stroke-width="1"></path><path id="vector_78" fill="#191919" fill-rule="evenodd" d="M44.004 206.032c-0.874 -3.018 -1.59 -5.712 -2.23 -8.1706 -0.78 0.55 -1.546 1.126 -2.306 1.722 0.56 1.8306 1.98 6.3786 2.044 6.5786 0.804 -0.084 1.636 -0.132 2.492 -0.13Z" clip-rule="evenodd" stroke-width="1"></path><path id="vector_79" fill="#191919" fill-rule="evenodd" d="M66.486 259.386c-2.286 -3.95 -5.894 -10.89 -9.456 -18.584 -1.11 -0.244 -2.244 -0.64 -3.36 -0.972 3.494 8.15 6.594 13.882 10.688 20.8 0.346 0.584 1.1 0.78 1.684 0.438 0.584 -0.342 0.784 -1.094 0.444 -1.68v-0.002Z" clip-rule="evenodd" stroke-width="1"></path><path id="vector_80" fill="#191919" fill-rule="evenodd" d="M36.084 187.1376c0.846 -0.432 1.706 -0.832 2.574 -1.198 -2.358 -9.042 -6.272 -24.338 -5.958 -25.094 1.854 -4.458 5.18 -11.634 4.372 -16.898 -0.428 -2.786 -2.626 -6.458 -5.252 -5.292 -6.068 2.694 -0.83 25.75 0.58 32.224 1.554 7.142 2.716 12.254 3.684 16.258Zm-4.82 -40.262c0.068 -1.104 0.166 -5.444 1.422 -6.006 1.024 -0.458 3.526 2.994 1.542 9.83 -0.614 2.118 -1.512 4.228 -2.384 6.192 -0.504 -3.334 -0.786 -6.62 -0.578 -10.016h-0.002Z" clip-rule="evenodd" stroke-width="1"></path><path id="vector_81" fill="#191919" fill-rule="evenodd" d="M26.906 167.132c0.776 -0.094 1.258 -0.892 0.996 -1.622 -1.558 -5.65 -2.52 -8.246 -6.64 -12.214 -1.57202 -1.514 -4.26802 -3.204 -5.88602 -2.906 -2.586 0.474 -2.586 3.614 -1.784 6.178 1.728 5.526 8.01802 10.964 13.31202 10.544v0.022l0.002 -0.002Zm-4.858 -9.412c1.282 1.692 1.802 4.328 2.936 7.05 -4.106 -0.382 -8.66602 -5.038 -9.14002 -10.022 -0.344 -3.63 4.014 0.08 6.20402 2.972Z" clip-rule="evenodd" stroke-width="1"></path><path id="vector_82" fill="#191919" fill-rule="evenodd" d="M37.686 172.4152c0.192 0.866 1.218 1.236 1.89 0.75 1.174 -0.854 5.264 -4.42 6.936 -6.318 1.5 -1.702 2.38 -3.268 2.612 -5.526 0.27 -2.624 -0.904 -5.668 -3.626 -5.2 -1.804 0.31 -4.11 3.058 -5.012 4.48 -0.774 1.222 -2.036 3.76 -2.36 4.562 -1.134 2.792 -1.032 4.574 -0.44 7.252Zm2.25 -2.352c-0.024 -1.08 0.184 -2.678 0.624 -4.012 0.826 -2.504 1.044 -2.732 1.978 -4.16 1.266 -1.938 1.944 -2.382 2.918 -2.874 0.618 -0.312 0.888 0.082 1.102 1.35 0.418 2.48 -0.75 4.27 -2.422 6.1 -1.326 1.452 -2.686 2.552 -4.2 3.596Z" clip-rule="evenodd" stroke-width="1"></path><path id="vector_83" fill="#191919" fill-rule="evenodd" d="M32.0198 183.8674c0.672 -0.176 1.078 -0.93 0.842 -1.592 -1.012 -3.662 -2.002 -5.84 -5.392 -8.95 -1.462 -1.34 -4.252 -2.632 -6.066 -2.144 -1.43994 0.388 -2.66794 1.614 -2.31794 4.41 0.254 2.038 2.48994 4.442 5.28594 6.106 0.888 0.528 1.84 0.984 2.764 1.364 3.664 1.5 4.994 0.596 4.884 0.806Zm-2.08 -2.186c-3.674 -0.17 -8.096 -4.008 -8.264 -6.33 -0.084 -1.154 0.228 -1.612 0.914 -1.604 0.314 0.004 0.656 0.004 0.996 0.1 0.866 0.246 1.712 0.784 2.292 1.28 2.29 1.962 2.864 3.88 4.062 6.554Z" clip-rule="evenodd" stroke-width="1"></path></g></g></svg>