<svg xmlns="http://www.w3.org/2000/svg" viewBox="0 0 400 400" height="400" width="400"><defs></defs><path d="M279.488 191.544c-3 10.676 -25 26.9 -59.306 28.522 -33.852 1.6 -54.536 -14.71 -59.252 -30.962 -6.136 7.62 -14.058 16.36 -22.142 21.814 -15.188 9.748 -18.6 44.568 -18.964 54.658 -0.88 24.086 9.724 41.256 36.348 50.758a99.876 99.876 0 0 0 63.532 1.036c12.884 -4.09 25.332 -10.974 38.87 -10.906a40.11 40.11 0 0 1 37.072 27.336c2.684 8.584 2.698 21.526 11.928 27.076 35.08 19.088 57.548 -8.984 60.712 -18.6A84.8 84.8 0 0 0 371.518 308c-2.986 -31.494 -21 -52.886 -42.416 -76.172 -14.984 -16.316 -34.22 -26.268 -49.614 -40.284z" fill="#fcafb7" stroke-width="1"></path><path d="M270.014 182.082A80.49 80.49 0 0 1 255.4 149.02c0.948 17.87 2.078 34.132 4.186 54.536 0.068 0.75 -1.09 0.736 -1.158 0 -2.118 -21.296 -4.584 -51.2 -4.868 -72.506a0.586 0.586 0 0 1 0.6 -0.578 14.576 14.576 0 0 0 14.104 -3.116 13.65 13.65 0 0 0 4.4 -11.112 13.156 13.156 0 0 0 -5.454 -10.102c-3.724 -2.14 -10.632 -1.98 -14.656 -1.514a0.628 0.628 0 0 1 -0.586 -0.586 23.49 23.49 0 0 0 -0.082 -2.4v-4.88c0 -1.622 0.354 -3.532 0.354 -5.304a25.912 25.912 0 0 0 -4.09 -13.4c-23.492 -36.182 -82.782 -39.784 -102.882 -0.558 -16.428 31.21 -5.71 70.76 29.8 78.76 0.34 0.098 0.624 0.76 0.6 0.968 -0.75 14.6 -1.016 28.528 -0.628 43.75a0.586 0.586 0 0 1 -1.158 0c-0.3 -12.468 -0.128 -25.694 0.286 -36.266 -2.02 12.24 -5.346 16.946 -13.102 26.464 2.39 8.072 4.924 15.754 10.6 22.264 9.918 11.372 26.354 15.974 41.336 17.874 11.848 1.748 21.832 1.8 32.694 -3 14.836 -6.556 27.476 -20.972 34.29 -34.6a82.234 82.234 0 0 1 -9.972 -11.632zm-137.278 18.352a10.912 10.912 0 0 0 -7.254 -1.76c-8.4 0.926 -21.682 6.986 -29.162 11.098a141.234 141.234 0 0 0 -60.166 75.708c-2.822 8.59 -4.826 18.488 -1.814 27.268a20.834 20.834 0 0 0 9.326 11.344 48.556 48.556 0 0 0 19.81 7.472c47.51 6.316 66.908 -63.234 74.494 -110.694 1.204 -7.6 0.892 -15.798 -5.234 -20.436z" fill="#fee992" stroke-width="1"></path><path d="M124.514 197.584c-8.534 1.29 -20.92 6.8 -28.8 11.126a142.234 142.234 0 0 0 -55.886 64.064c-3.8 8.644 -7.226 17.86 -7.962 27.35 -0.558 7.2 0.682 15.174 5.768 20.656a36.69 36.69 0 0 0 8.124 6.026c12.558 7.084 27.344 8.722 40.616 2.6 30.75 -14.248 44.264 -62.464 50.582 -95.9 0.434 -2.308 2.326 -12.954 2.6 -15.844 1.478 -13.956 -6.182 -21.502 -15.042 -20.078zM138 220.858c-4.87 29.292 -12.584 63.48 -29.614 87.678 -8.888 12.676 -21.2 22.4 -36.538 23.422a46.786 46.786 0 0 1 -32.108 -10.702c-9.518 -8.658 -7.668 -23.472 -3.64 -35.692 12.6 -38.128 41.926 -69.416 74.278 -82.4a63.16 63.16 0 0 1 15.052 -4.418 11.028 11.028 0 0 1 11.452 7.064c2.206 4.644 1.944 10.066 1.118 15.048zm143.044 -27.786a88.092 88.092 0 0 1 -16.62 -21.964A82.706 82.706 0 0 1 254.8 131.72a15.238 15.238 0 0 0 19.034 -13 15.6 15.6 0 0 0 -4.228 -12.16 13.816 13.816 0 0 0 -9.256 -3.3 40.974 40.974 0 0 0 -7.212 0.122 82.14 82.14 0 0 1 -0.07 -7.088 26.68 26.68 0 0 0 -1.036 -12.708 39.028 39.028 0 0 0 -7.376 -12.174 71.6 71.6 0 0 0 -9.98 -9.544c-20.2 -15.072 -48.778 -18.4 -70.636 -5.944 -37.226 21.5 -39.162 89.276 10.21 101.222a95 95 0 0 1 -2.154 11.37 34.748 34.748 0 0 1 -4.65 11.958 126.102 126.102 0 0 1 -7.566 10.238c-0.15 0.424 0.19 1.118 0.314 1.542a61.166 61.166 0 0 0 7.6 17.942 41 41 0 0 0 11.2 11.07 64.044 64.044 0 0 0 19.728 8.4 118.924 118.924 0 0 0 29.054 3.8c14.926 -0.568 28.096 -7.824 38.27 -18.514a88.042 88.042 0 0 0 15.08 -21.174 0.492 0.492 0 0 0 -0.082 -0.706zm-9.544 13.852a68.124 68.124 0 0 1 -25.8 21.282c-10.886 4.8 -20.868 4.74 -32.694 3 -14.982 -1.902 -31.42 -6.502 -41.338 -17.874 -5.674 -6.514 -8.228 -14.224 -10.6 -22.264C168.292 182.102 172 177.652 174.154 164.6c-0.564 14.4 -0.566 27.552 -0.286 36.266a0.588 0.588 0 0 0 1.16 0c-0.36 -15 -0.122 -29.028 0.6 -43.326a74.618 74.618 0 0 0 21.044 1.048 247.09 247.09 0 0 0 32.448 -4.432c0.736 -0.15 0.422 -1.268 -0.314 -1.118a214.684 214.684 0 0 1 -40.928 4.636c-21.932 -0.09 -41.482 -12.294 -47.746 -33.84 -6.566 -21.884 0.866 -49.782 19.988 -64.078 26.656 -19.244 69.066 -11 88 18.188a25.906 25.906 0 0 1 4.09 13.4c0 1.772 -0.314 3.53 -0.354 5.304 -0.026 1.128 -0.034 6.152 0.08 7.28a0.588 0.588 0 0 0 0.588 0.586c4.346 -0.434 10.892 -0.684 14.656 1.514a13.066 13.066 0 0 1 5.452 10.102 14.064 14.064 0 0 1 -18.35 14.248 0.584 0.584 0 0 0 -0.736 0.558c0 16.538 2.89 54.084 4.866 72.504 0.07 0.736 1.228 0.75 1.16 0 -1.702 -17.2 -3.284 -37 -4.186 -54.534a88.314 88.314 0 0 0 2.2 8.984 88.508 88.508 0 0 0 22.332 35.6 85.088 85.088 0 0 1 -8.418 13.434z" fill="#000000" stroke-width="1"></path><path d="M144.118 81c-2.54 4.496 8.264 8.616 13.13 10.334 3.846 1.346 4.832 -1.682 1.882 -4.062 -4.076 -3.544 -12.33 -11.018 -15.012 -6.272zm77.904 1.6a36.578 36.578 0 0 0 -19.672 10.09 2.834 2.834 0 0 0 -1.188 2.468c0.342 1.444 2.374 1.512 3.832 1.2 7.104 -1.514 20.56 -5.358 22.032 -8.536 1.39 -2.934 -0.708 -5.742 -5.004 -5.222z" fill="#e59e70" stroke-width="1"></path><path d="M169.014 131.61c3.4 5.906 13.224 6.702 16.688 -0.2 0.572 -1.106 -1.09 -2.074 -1.664 -0.982 -2.662 5.37 -10.4 5.09 -13.428 0.19 -0.546 -1.118 -2.222 -0.136 -1.664 0.982z" fill="#000000" stroke-width="1"></path><path d="M10.944 288.876a2.088 2.088 0 0 1 1.118 -3.832c14.07 1.228 27 2.482 41.216 6.232l0.722 -0.178c49.23 -30.848 34.366 -20.77 58.026 -33.744l15.692 -8.93a30 30 0 0 1 25.564 -1.758 109.216 109.216 0 0 1 15.938 7.8l16.66 9.38c23.2 11.658 51.14 23.478 75.68 35.216a8.934 8.934 0 0 1 1.064 15.12c-20.45 14.2 -56.69 39.4 -73.622 50.908 -10.744 4.582 -17.724 4.4 -28.85 6.108a16.334 16.334 0 0 1 -8.752 -1.036c-50.2 -20.752 -94.564 -51.714 -140.456 -81.286z" fill="#ffd35c" stroke-width="1"></path><path d="M258.942 80.484a59.98 59.98 0 0 0 -19.918 -30.172 50.016 50.016 0 0 0 -34.726 -10.112 3.854 3.854 0 0 1 -2.222 -0.122c-11.022 -2.252 -28.384 -0.356 -44.528 7.73A7.334 7.334 0 0 0 154 50.544c-0.736 1.458 0.45 2.468 1.786 2.8 2.742 0.508 47.74 4.104 46.736 4.104a0.586 0.586 0 0 1 0.15 1.146c-4.266 1 -12.364 3.48 -15.896 5.97a4.84 4.84 0 0 0 -1.756 5.036c1.126 3.76 7.9 3.718 11.644 3.218a111.036 111.036 0 0 0 32.258 -9.04 0.586 0.586 0 0 1 0.586 1 27.43 27.43 0 0 0 -7.826 7.034c-1.172 1.704 -2.304 4.458 -0.286 6.026 2.154 1.71 6.364 1.2 10.224 0.86 1.242 -0.11 2.578 -0.136 3.846 -0.342a33.498 33.498 0 0 0 10.28 -3.98 0.586 0.586 0 0 1 0.586 1 22.822 22.822 0 0 0 -7.948 8.726c-3.468 6.984 -0.902 15.066 3.108 17.33a26.2 26.2 0 0 0 7.54 2.63 7.234 7.234 0 0 0 7.6 -3.176 25.628 25.628 0 0 0 2.31 -20.402z" fill="#7d4ab4" stroke-width="1"></path><path d="M254.636 67.054c-10.734 -19.108 -28.258 -28.378 -46.642 -28.2 -2.6 0 -2.878 0.276 -4.812 0.286 -0.246 0 -14.294 -3.852 -34.848 2.986a72.306 72.306 0 0 0 -13.376 5.766 4.984 4.984 0 0 0 -2.386 3.436c-0.2 3.49 4.526 3.45 6.818 3.64l39.688 3.4a81.22 81.22 0 0 0 -7.772 2.658c-3.354 1.364 -7.512 3.026 -7.662 7.266 -0.4 11.846 30.172 2.888 41.214 -1.554 -7.512 6.188 -8.266 13.138 1.038 13.43 2.63 0.082 5.248 -0.314 7.88 -0.464a23.444 23.444 0 0 0 7.866 -2.046 17.9 17.9 0 0 0 -5.93 15.57 12.906 12.906 0 0 0 4.376 8.658 16.784 16.784 0 0 0 3.83 1.882c5.23 2.264 10.6 2.472 13.622 -2.29 6.938 -10.62 2.81 -24.25 -2.904 -34.424zM241.4 101.384c-5.734 -3.2 -8.412 -17.6 4.908 -26.014a0.586 0.586 0 0 0 -0.586 -1 33.51 33.51 0 0 1 -10.28 3.98c-0.73 0.11 -6.242 0.57 -7.6 0.614a10.188 10.188 0 0 1 -6.476 -1.132c-2.018 -1.568 -0.872 -4.322 0.286 -6.026a27.4 27.4 0 0 1 7.826 -7.034 0.586 0.586 0 0 0 -0.586 -1 111.052 111.052 0 0 1 -32.258 9.04c-3.814 0.508 -10.52 0.53 -11.642 -3.218a4.842 4.842 0 0 1 1.744 -5.032c3.524 -2.49 11.652 -4.966 15.898 -5.972 0.668 -0.162 0.464 -1.09 -0.15 -1.144C152.1 53.2 157.46 53.708 155.762 53.4c-1.362 -0.326 -2.508 -1.362 -1.786 -2.8a7.346 7.346 0 0 1 3.572 -2.782 84.96 84.96 0 0 1 28.032 -8.2 51.776 51.776 0 0 1 17.546 0.736 50.2 50.2 0 0 1 35.94 10 59.988 59.988 0 0 1 19.89 30.186 25.416 25.416 0 0 1 -2.412 20.4c-3.32 5.01 -9.848 3.236 -15.144 0.444zm-6.384 71.004c0 -0.736 -1.214 -0.75 -1.158 0l2.098 31.44c0 0.736 1.214 0.75 1.16 0zm12.066 -58.502 10.716 1.364c0.736 0.094 0.736 -1.064 0 -1.16l-10.716 -1.362c-0.736 -0.096 -0.736 1.072 0 1.158z" fill="#000000" stroke-width="1"></path><path d="M232.93 43.508c-2.1 -5.6 3.504 -12.46 10.756 -14.902a19.12 19.12 0 0 1 -10.756 14.902zm2.726 0.692c5.29 -4.6 11.426 -4.09 17.016 -3.108 -4.472 4.776 -10.39 9.056 -17.016 3.108z" fill="#7d4ab4" stroke-width="1"></path><path d="M344.89 295.434a153.334 153.334 0 0 0 -17.56 -10.552 0.586 0.586 0 0 0 -0.79 0.8 48.308 48.308 0 0 1 4.022 15.4c0 0.736 1.226 0.75 1.158 0a49.876 49.876 0 0 0 -3.504 -14.4 157.698 157.698 0 0 1 16.102 9.762c0.6 0.422 1.174 -0.59 0.572 -1.01z" fill="#000000" stroke-width="1"></path><path d="M166.848 229.282a2.848 2.848 0 0 0 0.298 -3.176 26.27 26.27 0 0 0 -4.744 -6.19 93.708 93.708 0 0 0 -14.914 -14.438c-9.038 -6.62 -16.66 -9.022 -26.9 -6.34a47.898 47.898 0 0 0 -17.248 7.962 40.984 40.984 0 0 0 -7.526 7.172 67.688 67.688 0 0 0 -15.242 28.468c-0.504 1.962 -0.94 3.954 -1.364 5.944s-1.362 4.772 0.07 6.816c2.086 2.946 5.452 0.874 7.334 -1.05 5.2 -5.6 6.89 -10.45 10.948 -17.11 0.628 -1.036 1.214 -2.358 2.564 -2.522a2.316 2.316 0 0 1 2.358 1.282c0.586 1.77 -0.29 2.92 1.172 9.788 0.696 3.4 1.6 6.736 2.222 10.144 0.286 1.568 0.356 5.222 2.578 5.454 1.6 0.176 3.068 -1.46 3.844 -2.646a15.652 15.652 0 0 0 1.458 -3.422c1.63 -4.6 4.47 -11.424 6.108 -15.106 0.52 -1.2 0.9 -2.562 2.182 -3.176a3.128 3.128 0 0 1 2.918 0.122 4.626 4.626 0 0 1 1.664 2.414l5.876 13.292c0.784 2.576 3.236 4.44 5.466 2.878a4.902 4.902 0 0 0 1.364 -2.822 122.14 122.14 0 0 0 0.314 -25.074 4.732 4.732 0 0 1 6.872 -5.63c6.274 2.87 10.15 6.102 13.292 7.648 2.222 0.9 5.3 1.462 7.036 -0.682z" fill="#fee992" stroke-width="1"></path><path d="M168.046 225.302a32.866 32.866 0 0 0 -4.826 -6.218c-7.618 -8.416 -13.114 -14.634 -23.504 -19.578a26.778 26.778 0 0 0 -9.64 -2.6 46.652 46.652 0 0 0 -27.526 9.34 41.27 41.27 0 0 0 -7.58 7.226 69.77 69.77 0 0 0 -16.934 35.188c-0.45 2.264 -1.186 4.676 0 6.816a4.676 4.676 0 0 0 6.98 1.692c5.9 -3.57 10.762 -15.13 14.384 -20.588a1.228 1.228 0 0 1 1.24 -0.708c1.358 0.19 0.968 1.836 0.968 3.422 0 4.2 2.636 13.294 3.4 18.4 0.286 1.84 0.926 4.4 3.094 4.812a5.062 5.062 0 0 0 4.4 -2.126 23.326 23.326 0 0 0 3.312 -7.336c2.362 -6.164 5.5 -13.288 5.414 -13.088a3.458 3.458 0 0 1 1.144 -1.786 1.922 1.922 0 0 1 2.632 0.628c0.232 0.44 6.826 15.6 6.748 15.4 1.464 3.86 7.314 5.03 8.712 -0.886a121.486 121.486 0 0 0 0.356 -25.578 4.472 4.472 0 0 1 0.818 -4.09c2.086 -2.1 4.948 -0.34 7.062 0.8 2.468 1.364 4.854 2.728 7.212 4.296a15.988 15.988 0 0 0 7 3.026c3.702 0.56 7.336 -2.892 5.134 -6.464zm-21.514 -3.068a4.736 4.736 0 0 0 -6.872 5.63 122.264 122.264 0 0 1 -0.312 25.074 4.914 4.914 0 0 1 -1.364 2.822c-2.224 1.556 -4.678 -0.292 -5.468 -2.878L126.64 239.6a4.6 4.6 0 0 0 -1.662 -2.414 3.128 3.128 0 0 0 -2.918 -0.122c-1.282 0.6 -1.664 1.964 -2.182 3.176 -5.63 12.878 -6.178 16.152 -7.554 18.542 -0.776 1.186 -2.248 2.822 -3.844 2.646 -2.222 -0.246 -2.29 -3.914 -2.576 -5.454 -1 -5.588 -2.482 -9.83 -3.04 -15.378 -0.298 -3.038 0.098 -3.188 -0.356 -4.554a2.316 2.316 0 0 0 -2.358 -1.282c-1.364 0.164 -1.936 1.472 -2.564 2.522 -4.168 6.892 -5.8 11.568 -10.948 17.11 -1.922 1.922 -5.248 4 -7.334 1.05 -1.364 -1.99 -0.504 -4.6 -0.068 -6.816a69.916 69.916 0 0 1 20.314 -38.4c7.434 -7.282 20.518 -12.714 31.058 -12.162 10.308 0.8 21.252 9.978 28.14 17.71 1.24 1.364 2.44 2.726 3.682 4.09a26.324 26.324 0 0 1 4.744 6.19c1.444 2.6 -1.564 6.358 -7.308 3.79 -2.786 -1.388 -7.96 -5.152 -13.334 -7.61zm2.726 -110.338a3.818 3.818 0 1 0 2.482 3.572 3.812 3.812 0 0 0 -2.482 -3.572zm56.69 0.464a3.816 3.816 0 1 0 2.44 3.626 3.812 3.812 0 0 0 -2.44 -3.626zM196.6 275.896a257.006 257.006 0 0 0 -19.21 -9.774c-3.94 -1.8 -8.316 -4.228 -12.788 -3.682a15.782 15.782 0 0 0 -9.148 5.262c-2.574 2.212 -7.616 5.468 -6.314 8.168 2.546 3.036 21.496 12.05 27.254 15.12 3.35 1.83 5.85 3.6 8.468 2.644a14.586 14.586 0 0 0 4.784 -3.748c9.132 -8.912 9.074 -8.652 9.694 -10 0.66 -1.998 -1.286 -3.172 -2.74 -3.99zm0.532 5.058c-1.6 1.59 -8.086 7.908 -9.722 9.476a5.432 5.432 0 0 1 -5 2.236 10.182 10.182 0 0 1 -2.822 -1.226c-8.484 -4.786 -20.016 -9.746 -28.372 -15.4 -0.368 -0.246 -1.062 -0.532 -1.2 -1 -0.462 -1.56 4.876 -5.264 6.8 -7.13 4.874 -4.914 9.56 -5.714 15.788 -2.728a236.51 236.51 0 0 1 23.504 11.78c0.724 0.41 1.718 0.846 2.074 1.664s-0.466 1.746 -1.054 2.328zM251.268 127.4c-5.458 -1.694 -9.886 -5.85 -13.526 -10.13 -0.49 -0.574 -1.362 0.258 -0.818 0.818 3.776 4.444 8.344 8.67 14.03 10.43 0.708 0.216 1.022 -0.902 0.314 -1.118z" fill="#000000" stroke-width="1"></path><path d="M281.718 252.2c-9.012 -7.266 -18.266 -16.932 -36.306 -23.79 -10.058 -3.558 -24.946 -5.51 -34.834 -1.95 -6.692 2.682 -10.738 6.47 -18.2 12.106 -11.076 8.364 -24.38 16.252 -31.14 28.904a6.92 6.92 0 0 0 -1.118 3.586 4.334 4.334 0 0 0 4.08 3.544c3.75 0.492 7.076 -2.726 9.83 -4.812 5.114 -3.94 29.014 -22.714 29.014 -22.714 0.53 -0.4 1.2 0.49 0.708 0.914 -2.876 2.4 -6.19 5.22 -7 9.066 -1.364 6.448 6.012 10.716 11.63 10 5.568 -1.092 9.278 -3.762 15.782 -8.434a10.85 10.85 0 0 1 0.954 -0.694c0.64 -0.41 1.172 0.572 0.586 1l-0.9 0.654c-2.778 2.344 -5.25 6.62 -4.622 9.98a5.694 5.694 0 0 0 2.2 2.904 14.334 14.334 0 0 0 16.21 0.682 62.866 62.866 0 0 0 7.4 -4.54 0.588 0.588 0 0 1 0.8 0.228A172.228 172.228 0 0 0 254.144 292c10.6 26.73 30.384 52.6 53.4 65.81a45.654 45.654 0 0 0 8.548 -12.952c8.186 -17.574 10.906 -37.484 7.172 -59.32 -13.844 -13.432 -27.028 -21.638 -41.546 -33.338z" fill="#fee992" stroke-width="1"></path><path d="M326 302.632a124.84 124.84 0 0 0 -1.664 -17.668 222.324 222.324 0 0 0 -24.424 -20.364c-11.58 -8.694 -13.902 -10.306 -24.99 -19.686 -10.384 -9 -24.178 -17.256 -38.024 -20.152a64.146 64.146 0 0 0 -23.752 -0.354 30.122 30.122 0 0 0 -8.274 3.53 98.316 98.316 0 0 0 -9.544 6.818c-14.252 11.102 -27.332 18.2 -34.848 31.534 -1.036 1.856 -2.1 4.09 -1.186 6.15 1.9 3.82 6.844 4 10.28 1.744a63.928 63.928 0 0 0 7.334 -5.452l20.314 -15.912c-6.524 9.874 6.318 20.164 18.542 12.462 6.902 -3.8 5.6 -4.508 4.078 -0.968a7.04 7.04 0 0 0 0.368 7.362 14.774 14.774 0 0 0 16.742 3.258 51.372 51.372 0 0 0 9 -5.14c10.22 42.158 35.812 74.344 61.462 88.962a0.6 0.6 0 0 0 0.708 -0.096 43.82 43.82 0 0 0 8.18 -11.752A95.8 95.8 0 0 0 326 302.632zm-9.912 42.224a45.654 45.654 0 0 1 -8.548 12.952c-24.87 -14.266 -50.508 -46.158 -60.712 -88.864a0.588 0.588 0 0 0 -0.828 -0.344 62.866 62.866 0 0 1 -7.4 4.54 14.334 14.334 0 0 1 -16.21 -0.682 5.694 5.694 0 0 1 -2.2 -2.904c-0.632 -3.376 1.86 -7.654 4.622 -9.98l0.9 -0.654c0.6 -0.422 0 -1.362 -0.586 -1 -0.76 0.496 -4.054 3.078 -7.894 5.412a23.676 23.676 0 0 1 -8.842 3.716c-5.618 0.722 -13 -3.532 -11.63 -10 0.818 -3.846 4.09 -6.668 7 -9.066 0.504 -0.424 -0.178 -1.364 -0.708 -0.914 0 0 -23.9 18.76 -29.014 22.714 -2.726 2.126 -6.08 5.29 -9.83 4.812a4.4 4.4 0 0 1 -4.09 -3.558 6.914 6.914 0 0 1 1.118 -3.586c6.858 -12.66 19.656 -20.256 31.14 -28.904 9.428 -7.098 15.624 -13.374 27.064 -13.838 18.87 -1.102 35.842 5.864 50.784 17.928 8.61 6.726 5.844 5.544 23.52 18.816 9.756 7.3 20.788 15.416 29.468 24.056 3.522 20.38 1.714 40.392 -7.116 59.348z" fill="#000000" stroke-width="1"></path><path d="M330.152 308.6a121.432 121.432 0 0 1 -5.454 30.432 41.236 41.236 0 0 1 -11.342 17.354c-0.518 0.546 0.3 1.364 0.818 0.818a75.576 75.576 0 0 0 6.49 -7.47c7.734 -11.2 9.756 -28.45 10.716 -41.092a0.616 0.616 0 0 0 -1.228 -0.042zM146.26 242.78l6.816 10.226c0.4 0.612 1.364 0 1 -0.586l-6.82 -10.22c-0.41 -0.62 -1.364 0 -0.996 0.58zm10.362 7.444c0.176 0.722 1.294 0.422 1.118 -0.314l-2.386 -9.856a0.58 0.58 0 0 0 -1.118 0.312c0 -0.204 2.434 10.058 2.386 9.858zm6.898 -10.538 -2.058 10.224c-0.15 0.724 0.968 1.036 1.118 0.314L164.638 240c0.15 -0.724 -0.968 -1.038 -1.118 -0.314zm33.812 51.548 6.462 11.262a0.588 0.588 0 0 0 1 -0.586l-6.462 -11.262a0.588 0.588 0 0 0 -1 0.586zm2.712 -2.454 12.952 4.432c0.71 0.246 1 -0.872 0.314 -1.118l-12.952 -4.432c-0.708 -0.244 -1.008 0.874 -0.314 1.118zm2.986 -3.23 12.272 -2.6c0.736 -0.15 0.422 -1.268 -0.314 -1.118l-12.272 2.6c-0.736 0.15 -0.422 1.268 0.314 1.118zm170.424 -1.05a56.36 56.36 0 0 1 7.552 50.786c-0.246 0.708 0.872 1 1.118 0.314a57.89 57.89 0 0 0 -7.676 -51.686c-0.436 -0.6 -1.424 -0.006 -0.994 0.586z" fill="#000000" stroke-width="1"></path><path d="M378.388 279.524a67.416 67.416 0 0 1 10.076 43.26c-0.082 0.736 1.078 0.736 1.158 0a68.528 68.528 0 0 0 -10.238 -43.846c-0.396 -0.628 -1.364 0 -0.996 0.586zm-299.398 -68.62a70.56 70.56 0 0 1 29.326 -19.824c0.696 -0.244 0.4 -1.362 -0.314 -1.118a71.29 71.29 0 0 0 -29.83 20.124c-0.49 0.56 0.33 1.366 0.818 0.818zm16.62 -21.624c0.682 -0.286 0.382 -1.362 -0.314 -1.118a68.622 68.622 0 0 0 -22.536 15.08c-0.532 0.532 0.3 1.364 0.818 0.818a68.218 68.218 0 0 1 22.032 -14.78zm169.892 -124.448a10.112 10.112 0 0 1 -0.356 -12.38 6.912 6.912 0 0 0 -1.812 -10.47c-0.656 -0.356 -1.242 0.654 -0.586 1a5.572 5.572 0 0 1 2.904 4.84c0 2.4 -1.8 4.172 -2.728 6.244a11.14 11.14 0 0 0 1.732 11.6c0.49 0.572 1.364 -0.26 0.818 -0.818zm5.18 -0.572c-3.274 -0.29 -3.726 -4.738 -1.964 -7.514 1.6 -3.012 4 -5.82 3.096 -9.474a4.324 4.324 0 0 0 -2.946 -3.286 0.586 0.586 0 0 0 -0.314 1.118c3.114 1.154 2.688 5.53 0.914 8.2a24.116 24.116 0 0 0 -2.658 5.126c-0.944 3.056 0.46 6.852 3.8 6.954a0.588 0.588 0 0 0 0 -1.16zM164.366 99.884c-1.714 4.878 -3.464 10.226 -1.692 15.338 2.718 7.936 11.424 8.27 14.316 3.2 0.354 -0.654 -0.654 -1.24 -1 -0.586a6.278 6.278 0 0 1 -8.874 1.664c-3.504 -2.372 -4.378 -7.076 -3.9 -11a40.654 40.654 0 0 1 2.268 -8.3c0.244 -0.712 -0.874 -1.012 -1.118 -0.316z" fill="#000000" stroke-width="1"></path><path d="M17.844 37.032a3.748 3.748 0 0 1 3.756 3.75V53.4a3.75 3.75 0 0 1 -7.498 0v-12.618a3.748 3.748 0 0 1 3.742 -3.75z" fill="#ffd35c" stroke-width="1"></path><path d="M45.316 40.318a4.506 4.506 0 0 0 -5.304 -3.83H37.04a4.43 4.43 0 0 0 -4.528 4.334v11.058a5.542 5.542 0 0 0 1.528 4.8c1.526 1.268 4.09 1.036 6.216 1.036h0.8a4.432 4.432 0 0 0 4.336 -4.62c-0.008 -12.114 0.02 -11.918 -0.076 -12.778zm-1.132 5.618V53.4a3.218 3.218 0 0 1 -3.164 3.164h-4.2a3.216 3.216 0 0 1 -3.122 -2.59c-0.018 -0.2 0 -14.054 0 -13.17a3.23 3.23 0 0 1 2.072 -2.986 7.17 7.17 0 0 1 2.468 -0.2h2.644a3.298 3.298 0 0 1 3.36 3.236c0.008 0.222 -0.056 4.862 -0.058 5.082z" fill="#000000" stroke-width="1"></path><path d="M57.042 37.032h8.52s3.75 0 3.75 3.75v12.61s0 3.75 -3.75 3.75h-8.52s-3.75 0 -3.75 -3.75v-12.61s0 -3.75 3.75 -3.75" fill="#aceac7" stroke-width="1"></path><path d="M26.868 71.704a4.31 4.31 0 0 0 -3.176 -2.986 11.946 11.946 0 0 0 -2.618 -0.11h-3.04a4.418 4.418 0 0 0 -4.526 4.308v12.722a4.466 4.466 0 0 0 5.2 4.226h4.022a4.446 4.446 0 0 0 4.34 -4.548c-0.006 -13.116 0.058 -12.686 -0.202 -13.612zm-0.974 13.838a3.224 3.224 0 0 1 -3.17 3.176H17.952a3.252 3.252 0 0 1 -3.3 -3.64v-12.134a3.236 3.236 0 0 1 2.074 -2.986 6.786 6.786 0 0 1 2.358 -0.19h3a3.292 3.292 0 0 1 3.844 3.34c-0.052 2.892 -0.036 12.636 -0.034 12.434z" fill="#000000" stroke-width="1"></path><path d="M36.808 69.18h17.954s3.75 0 3.75 3.75v12.61s0 3.75 -3.75 3.75h-17.954s-3.75 0 -3.75 -3.75v-12.61s0 -3.75 3.75 -3.75" fill="#ffd35c" stroke-width="1"></path><path d="M66.27 68.662a4.362 4.362 0 0 0 -4.988 3.666c-0.044 0.288 -0.042 13.282 -0.03 13.078a4.336 4.336 0 1 0 8.658 0.094v-12.46a4.382 4.382 0 0 0 -3.64 -4.378zm2.46 12.122a25.036 25.036 0 0 1 -0.128 5.658 3.178 3.178 0 0 1 -6.2 -1.118V73.34a3.34 3.34 0 0 1 2.25 -3.464 3.2 3.2 0 0 1 4.09 3.082c0.036 2.618 -0.012 5.242 -0.012 7.826z" fill="#000000" stroke-width="1"></path><path d="M81.242 69.18h7.156s3.75 0 3.75 3.75v12.61s0 3.75 -3.75 3.75h-7.156s-3.75 0 -3.75 -3.75v-12.61s0 -3.75 3.75 -3.75" fill="#ffd35c" stroke-width="1"></path><path d="M17.844 99.694h8.86s3.75 0 3.75 3.75v12.61s0 3.75 -3.75 3.75h-8.86s-3.75 0 -3.75 -3.75v-12.61s0 -3.75 3.75 -3.75" fill="#aceac7" stroke-width="1"></path><path d="M18.552 129.51a4.362 4.362 0 0 0 -5.018 3.9c-0.018 0.2 -0.012 13.042 0 12.842a4.336 4.336 0 1 0 8.658 0.096v-12.462a4.382 4.382 0 0 0 -3.64 -4.376zm2.46 12.12v4.35a3.182 3.182 0 1 1 -6.332 0.246v-11.984a3.342 3.342 0 0 1 2.25 -3.464 3.2 3.2 0 0 1 3.966 2.2c0.224 0.774 0.116 1.334 0.116 8.652z" fill="#000000" stroke-width="1"></path><path d="M32.322 130.028h14.996s3.75 0 3.75 3.75v12.61s0 3.75 -3.75 3.75h-14.996s-3.75 0 -3.75 -3.75v-12.61s0 -3.75 3.75 -3.75" fill="#ffd35c" stroke-width="1"></path><path d="M18.552 159.042a4.36 4.36 0 0 0 -5.018 3.898c-0.018 0.2 -0.012 13.044 0 12.844a4.336 4.336 0 1 0 8.658 0.096v-12.462a4.38 4.38 0 0 0 -3.64 -4.376zm2.46 12.134c0 5.282 0.034 5 -0.13 5.644a3.176 3.176 0 0 1 -6.2 -1.118v-12a3.34 3.34 0 0 1 2.25 -3.462 3.2 3.2 0 0 1 4.09 3.08c0.038 2.648 -0.01 5.252 -0.01 7.856z" fill="#000000" stroke-width="1"></path><path d="M17.844 187.74h6.134s3.75 0 3.75 3.75v12.61s0 3.75 -3.75 3.75H17.844s-3.75 0 -3.75 -3.75v-12.61s0 -3.75 3.75 -3.75" fill="#ffd35c" stroke-width="1"></path><path d="M40.98 162.682a4.55 4.55 0 0 0 -5.38 -3.696h-3.088a4.43 4.43 0 0 0 -4.538 4.322v12.558a4.4 4.4 0 0 0 1.718 3.462c1.704 1.364 4.214 0.886 6.232 0.886h0.762a4.442 4.442 0 0 0 4.338 -4.548c-0.002 -11.958 0.018 -12.356 -0.044 -12.984zm-1.106 13.238a3.216 3.216 0 0 1 -3.162 3.164h-4.364a3.268 3.268 0 0 1 -3.176 -3.818v-11.958a3.226 3.226 0 0 1 2.072 -2.984 7 7 0 0 1 2.428 -0.2H36.4a3.298 3.298 0 0 1 3.45 3.14c0.042 0.92 0.016 13.146 0.024 12.656zm28.782 -44.76a4.4 4.4 0 0 0 -3.448 -1.718h-2.456a4.43 4.43 0 0 0 -4.6 4.364c0 13.3 -0.226 13.624 0.8 15.052a4.434 4.434 0 0 0 3.612 1.854h2.672a4.42 4.42 0 0 0 4.336 -4.498v-10.69a6.628 6.628 0 0 0 -0.916 -4.364zm-0.286 15.6a3.218 3.218 0 0 1 -3.15 2.8c-1.6 0 -3.626 0.342 -4.908 -0.872s-1 -2.426 -1 -3.8v-11.11a3.21 3.21 0 0 1 2.248 -3.026 12.312 12.312 0 0 1 4.95 0.136A3.232 3.232 0 0 1 68.4 133.8s0 12.558 -0.03 12.958z" fill="#000000" stroke-width="1"></path><path d="M78.514 130.028a3.772 3.772 0 0 1 4.086 3.75v12.612a3.924 3.924 0 0 1 -7.84 0v-12.612a3.75 3.75 0 0 1 3.754 -3.75z" fill="#aceac7" stroke-width="1"></path><path d="M36.8 184.264h-2.038a0.586 0.586 0 0 0 -0.586 0.586v36.362a0.588 0.588 0 0 0 0.586 0.586c2.14 0 2.2 0.052 2.414 -0.136a0.542 0.542 0 0 0 0.15 -0.368V184.85a0.586 0.586 0 0 0 -0.526 -0.586zm81.32 92.11 2.14 1.364c0.544 0.322 0.252 0.1 7.4 -4.854a0.588 0.588 0 0 0 0 -1c-10.114 -5.384 -9.494 -5.126 -9.818 -5.044 -0.2 0.086 -7.036 4.328 -6.612 4.062a0.588 0.588 0 0 0 0 1c2.432 1.336 4.6 2.986 6.89 4.472zm0 -8.344 8.18 4.376q-2.918 2 -5.8 4.09c-4.156 -2.574 -4.4 -2.984 -7.84 -5.14zm-23.682 14.288c10.112 5.158 10.68 6.854 11.494 6.368 3.884 -2.728 7.648 -5.59 11.452 -8.4a0.584 0.584 0 0 0 0.186 -0.8 57.906 57.906 0 0 0 -9.512 -6.2 0.5 0.5 0 0 0 -0.546 0l-13.034 8.056a0.588 0.588 0 0 0 -0.04 0.976zm13.388 -7.88a60.866 60.866 0 0 1 8.33 5.358c-3.476 2.6 -6.94 5.2 -10.498 7.704 -3.162 -2.032 -6.38 -4 -9.734 -5.714 11.076 -6.86 12.102 -7.468 11.902 -7.348zm-5.466 15.652a80.384 80.384 0 0 0 -11.494 -6.258 0.5 0.5 0 0 0 -0.546 0l-12.448 7.662a0.588 0.588 0 0 0 0 1c12.916 7.184 12.044 6.838 12.448 6.6 3.968 -2.726 8.03 -5.344 12.04 -8.016a0.588 0.588 0 0 0 0 -0.988zm-23.042 1.894 11.316 -7a79.896 79.896 0 0 1 10.376 5.618c-3.668 2.44 -7.362 4.812 -11 7.322zm44.692 -11.942q4.728 2.89 9.542 5.644a0.48 0.48 0 0 0 0.614 0 354.942 354.942 0 0 0 7.568 -5.454 0.588 0.588 0 0 0 0 -1c-10.772 -5.734 -10.102 -5.506 -10.5 -5.276 -2.454 1.61 -4.852 3.3 -7.238 5a0.588 0.588 0 0 0 0.014 1.086zm16.36 -0.164q-3.23 2.346 -6.504 4.648 -4.282 -2.454 -8.494 -5.016a185.668 185.668 0 0 1 6.218 -4.296zm-9.926 7.472c-9.498 -5.376 -9.434 -5.934 -9.924 -5.754 -0.254 0 -7.372 5.472 -11.412 8.344a0.586 0.586 0 0 0 0 1c3.012 1.936 6.066 3.778 9.176 5.578a0.6 0.6 0 0 0 0.708 -0.096c3.696 -2.89 7.676 -5.454 11.52 -8.18a0.586 0.586 0 0 0 -0.068 -0.892zm-11.97 8.05a215.036 215.036 0 0 1 -8.112 -4.922c3.476 -2.496 6.818 -5.072 10.308 -7.6 2.726 1.744 5.562 3.4 8.384 5.018 -3.532 2.466 -7.158 4.852 -10.58 7.504zm-3.062 2.942c-8.286 -5.018 -9.2 -5.864 -9.508 -5.92h-0.328c-3.898 2.644 -7.88 5.18 -11.8 7.824a0.586 0.586 0 0 0 0 1s10.104 5.63 10.334 5.74c0.45 0.19 0.832 -0.11 1.226 -0.34a72.326 72.326 0 0 0 10.254 -7.486 0.588 0.588 0 0 0 -0.178 -0.818zm-11.076 7.562 -9.216 -5.126c3.544 -2.386 7.144 -4.69 10.688 -7.088 2.728 1.786 5.454 3.558 8.304 5.22a61.526 61.526 0 0 1 -9.776 6.994zm31.548 0.478c10.4 5.568 10.03 5.542 10.484 5.112 3.628 -2.972 7.186 -6 10.6 -9.216a0.588 0.588 0 0 0 -0.012 -0.83c-0.2 -0.2 -10.292 -5.416 -10.09 -5.306 -0.97 -0.53 -1.752 1.988 -11.084 9.34a0.586 0.586 0 0 0 0.102 0.9zm10.772 -9.026L155.544 302c-3.122 2.916 -6.366 5.684 -9.666 8.4 -2.904 -1.5 -5.78 -3.068 -8.658 -4.6a114.934 114.934 0 0 0 9.436 -8.444zm2.836 -3.122c10.572 5.388 9.876 5.2 10.2 5.126 0.614 0.052 1.146 -1.292 7.048 -5.848a0.588 0.588 0 0 0 0 -1c-9.324 -5.026 -8.484 -4.6 -8.684 -4.676 -0.656 -0.272 -1.542 0.422 -2.114 0.722a38.428 38.428 0 0 0 -6.572 4.622 0.586 0.586 0 0 0 0.122 1.054zm8.18 -5.126 7.676 4.09c-2 1.568 -3.914 3.244 -5.782 4.976q-4.39 -2.288 -8.8 -4.54a34.098 34.098 0 0 1 6.968 -4.5zM142.81 313.4c-3.25 -1.818 -6.572 -3.504 -9.844 -5.276a0.446 0.446 0 0 0 -0.612 0c-3.504 2.644 -7.036 5.248 -10.4 8.098a0.584 0.584 0 0 0 0.012 0.828c0.2 0.2 11 6.148 10.322 5.77a0.6 0.6 0 0 0 0.71 -0.094c3.218 -2.904 6.572 -5.658 9.926 -8.4a0.586 0.586 0 0 0 -0.114 -0.926zm-10.294 8.18 -9.12 -5.072c3.012 -2.522 6.162 -4.868 9.298 -7.24q4.378 2.372 8.8 4.704c-9.544 7.86 -8.978 7.798 -8.978 7.598zM163.2 301.4c3.8 2.1 7.646 4.104 11.426 6.23 0.6 0.3 0.53 -0.132 7.444 -6.012a0.588 0.588 0 0 0 -0.122 -0.914c-12.16 -6.488 -11.356 -6.188 -11.754 -5.958a64.4 64.4 0 0 0 -7.088 5.712 0.588 0.588 0 0 0 0.094 0.942zm17.452 -0.042q-2.934 2.512 -5.8 5.072 -5.138 -2.878 -10.348 -5.644a60.298 60.298 0 0 1 6.012 -4.826c5.346 2.84 10.404 5.546 10.142 5.404zM149.56 313.6q5.712 2.946 11.506 5.74a0.62 0.62 0 0 0 0.71 -0.096c3.544 -2.8 6.898 -5.848 10.278 -8.862a0.584 0.584 0 0 0 -0.012 -0.828c-0.228 -0.23 -9.838 -5.366 -11.454 -6.22 -0.9 -0.474 -0.954 1.028 -11.152 9.352a0.588 0.588 0 0 0 0.124 0.914zm11.724 4.554q-5.234 -2.52 -10.4 -5.18c3.272 -2.728 6.422 -5.454 9.544 -8.426q5.154 2.724 10.252 5.548c-3.11 2.734 -6.178 5.488 -9.396 8.052zm-3.258 2.98c-12.372 -6.068 -11.376 -5.908 -11.82 -5.7 -0.484 0.148 -7.816 6.442 -10.226 8.59a0.586 0.586 0 0 0 0.122 0.914l10.076 5.6a0.6 0.6 0 0 0 0.708 -0.096c3.614 -2.904 7.432 -5.536 11.166 -8.276a0.586 0.586 0 0 0 -0.026 -1.032zm-11.616 8.2 -9.01 -5.038a329.722 329.722 0 0 1 9.08 -7.676c3.354 1.76 6.816 3.45 10.158 5.114 -3.438 2.508 -6.874 4.948 -10.228 7.594zm29.108 -0.02c-4.46 -2.058 -8.93 -4.09 -13.362 -6.176a0.452 0.452 0 0 0 -0.614 0c-3.858 2.904 -7.852 5.63 -11.656 8.6a0.6 0.6 0 0 0 0.012 0.83c0.2 0.2 13.7 7.644 13.5 7.528a0.584 0.584 0 0 0 0.708 -0.096 89.536 89.536 0 0 1 11.438 -9.68c0.274 -0.284 0.412 -0.804 -0.026 -1.006zm-11.944 9.558 -12.23 -6.818c3.464 -2.726 7.064 -5.154 10.554 -7.77q6.066 2.874 12.2 5.644a87.674 87.674 0 0 0 -10.524 8.944zm14.826 -29.164c13.77 7.99 13.048 8.304 13.648 7.716q3.954 -3.158 7.894 -6.352a0.588 0.588 0 0 0 -0.122 -0.914l-14.02 -7.416a0.6 0.6 0 0 0 -0.71 0.094c-2.316 1.95 -4.6 3.954 -6.816 5.958a0.588 0.588 0 0 0 0.126 0.914zm7.24 -5.766 12.83 6.83 -6.818 5.534s-9.2 -5.616 -11.902 -7.184a191.722 191.722 0 0 1 5.884 -5.18zm-20.484 17.518c12.664 5.654 12.854 6.286 13.444 5.946 3.026 -2.304 6 -4.678 8.984 -7.05a0.586 0.586 0 0 0 -0.122 -0.912c-3.31 -2.07 -6.338 -3.978 -12.272 -7.268a0.6 0.6 0 0 0 -0.708 0.096c-3.136 2.726 -6.244 5.644 -9.544 8.276a0.584 0.584 0 0 0 0.218 0.912zm9.884 -8.06c7.344 4.178 11.342 6.738 11.14 6.612 -2.632 2.086 -5.264 4.186 -7.936 6.23q-5.874 -2.724 -11.71 -5.452c2.904 -2.356 5.698 -4.892 8.506 -7.39zm47.5 8.852 -18.814 -10c-0.538 -0.298 -0.074 -0.37 -8.888 6.682a0.582 0.582 0 0 0 0.012 0.828c0.294 0.294 7.22 4.542 10.812 6.548 2.264 1.268 4.582 2.44 6.818 3.694a0.57 0.57 0 0 0 0.586 0l9.4 -6.748a0.588 0.588 0 0 0 0.074 -1.004zm-26.23 -2.972q3.612 -2.904 7.2 -5.836l17.656 9.4 -8.358 5.986c-4.008 -2.23 -6.736 -3.394 -16.498 -9.55zm11.22 11.92a167.104 167.104 0 0 1 -16.538 -9.556c-0.732 -0.4 -0.8 0.532 -8.984 6.544 -0.314 0.232 -0.436 0.8 0 1 5.958 2.728 11.93 5.358 17.874 8.086a0.6 0.6 0 0 0 0.586 0l7.062 -5.072a0.586 0.586 0 0 0 0 -1.002zm-24.118 -2.644c2.468 -1.854 4.894 -3.8 7.308 -5.712a162.138 162.138 0 0 0 15.4 8.93l-6.026 4.322c-5.544 -2.528 -11.12 -5.024 -16.682 -7.532zm14.928 11.024c-20.02 -8.884 -18.93 -8.782 -19.332 -8.426a89.526 89.526 0 0 0 -12.162 10.022 0.586 0.586 0 0 0 0.014 0.828c0.2 0.2 16.48 9.2 16.28 9.084a0.58 0.58 0 0 0 0.586 0l14.614 -10.526a0.546 0.546 0 0 0 0 -0.982zm-14.956 10.308 -15.188 -8.44a90.4 90.4 0 0 1 11.152 -9.134c5.836 2.63 11.686 5.234 17.52 7.88 -13.772 9.902 -11.374 8.18 -13.484 9.694zm-45.892 -61.994c8.684 4.682 8.258 4.542 8.618 4.39a75.95 75.95 0 0 1 7.58 -5.59 0.586 0.586 0 0 0 0 -1c-8.656 -4.624 -8.2 -4.518 -8.6 -4.282a408.858 408.858 0 0 1 -7.62 5.454 0.586 0.586 0 0 0 0.022 1.028zm14.8 -1.662a53.538 53.538 0 0 0 -6.368 4.852q-3.542 -1.838 -7.048 -3.776c2.2 -1.554 4.4 -3.122 6.572 -4.718zM122 298.774q4.948 2.8 9.952 5.454a0.57 0.57 0 0 0 0.586 0c3.736 -2.878 7.24 -5.944 10.688 -9.162a0.586 0.586 0 0 0 -0.012 -0.83c-0.2 -0.2 -0.638 -0.268 -8.848 -4.746a0.476 0.476 0 0 0 -0.6 0c-3.928 2.726 -7.868 5.452 -11.766 8.18a0.586 0.586 0 0 0 0 1.104zm12.106 -8.058c2.564 1.4 5.136 2.75 7.716 4.076a121.686 121.686 0 0 1 -9.638 8.182q-4.418 -2.4 -8.8 -4.868a644.24 644.24 0 0 0 10.728 -7.39zm-5.094 15.244c-10.8 -5.884 -10.14 -5.916 -10.6 -5.564 -3.382 2.66 -6.626 5.454 -10.254 7.84a0.588 0.588 0 0 0 0 1l10.186 5.672c0.704 0.388 -0.176 0.134 10.742 -8.044a0.584 0.584 0 0 0 -0.074 -0.904zm-10.51 7.84 -9.026 -5.016c3.244 -2.2 6.244 -4.744 9.324 -7.172q4.418 2.496 8.862 4.936c-3.122 2.33 -6.216 4.688 -9.16 7.252z" fill="#000000" stroke-width="1"></path></svg>