<svg xmlns="http://www.w3.org/2000/svg" width="240" height="240" viewBox="0 0 240 240" fill="none">
  <path d="M26.8224 121.466C26.8224 146.927 36.9367 171.345 54.9402 189.349C72.9436 207.352 97.3616 217.466 122.822 217.466C148.283 217.466 172.701 207.352 190.705 189.349C208.708 171.345 218.822 146.927 218.822 121.466C218.822 96.0055 208.708 71.5876 190.705 53.5841C172.701 35.5806 148.283 25.4663 122.822 25.4663C97.3616 25.4663 72.9436 35.5806 54.9402 53.5841C36.9367 71.5876 26.8224 96.0055 26.8224 121.466Z" fill="#E8F4FA" stroke="#DAEDF7" stroke-width="4" stroke-miterlimit="10"/>
  <path d="M161.65 187.416L120.12 203.124L72.9552 146.011M161.65 187.416L192.739 115.322L176.63 66.1751M161.65 187.416L206.366 167.263M27.9864 92.9327L63.1536 183.862L72.9552 146.011M27.9864 92.9327L73.4328 54.2111M27.9864 92.9327L72.9552 146.011M73.4328 54.2111L118.476 29.3447L156.185 43.9847M73.4328 54.2111L156.185 43.9847M156.185 43.9847L176.63 66.1751M156.185 43.9847L129.254 134.172M176.63 66.1751L205.061 75.9359M73.9272 96.8183L120.12 87.7535" stroke="#45413C" stroke-width="4" stroke-linecap="round" stroke-linejoin="round"/>
  <path d="M206.366 167.263L129.254 134.172L206.366 167.263Z" fill="#FFE500"/>
  <path d="M206.366 167.263L129.254 134.172" stroke="#45413C" stroke-width="4" stroke-linecap="round" stroke-linejoin="round"/>
  <path d="M129.254 134.172L120.12 87.7537L156.185 43.9849" stroke="#45413C" stroke-width="4" stroke-linecap="round" stroke-linejoin="round"/>
  <path d="M120.12 87.7539L192.739 115.323L120.12 87.7539ZM206.366 167.264L192.739 115.323L206.366 167.264Z" fill="#FFE500"/>
  <path d="M120.12 87.7539L192.739 115.323L206.366 167.264" stroke="#45413C" stroke-width="4" stroke-linecap="round" stroke-linejoin="round"/>
  <path d="M161.65 187.416L129.254 134.172M129.194 133.783L120.12 203.124L63.1536 183.862" stroke="#45413C" stroke-width="4" stroke-linecap="round" stroke-linejoin="round"/>
  <path d="M129.194 133.783L72.9552 146.011L129.194 133.783ZM205.061 75.936L192.739 115.322L205.061 75.936Z" fill="#FFE500"/>
  <path d="M129.194 133.783L72.9552 146.011M205.061 75.936L192.739 115.322" stroke="#45413C" stroke-width="4" stroke-linecap="round" stroke-linejoin="round"/>
  <path d="M113.309 87.7536C113.309 89.56 114.026 91.2925 115.304 92.5698C116.581 93.8472 118.314 94.5648 120.12 94.5648C121.926 94.5648 123.659 93.8472 124.936 92.5698C126.214 91.2925 126.931 89.56 126.931 87.7536C126.931 85.9471 126.214 84.2147 124.936 82.9373C123.659 81.66 121.926 80.9424 120.12 80.9424C118.314 80.9424 116.581 81.66 115.304 82.9373C114.026 84.2147 113.309 85.9471 113.309 87.7536Z" fill="#FF6242" stroke="#45413C" stroke-width="4" stroke-linecap="round" stroke-linejoin="round"/>
  <path d="M129.254 134.172L176.63 66.1753L129.254 134.172Z" fill="white"/>
  <path d="M129.254 134.172L176.63 66.1753" stroke="#45413C" stroke-width="4" stroke-linecap="round" stroke-linejoin="round"/>
  <path d="M73.9272 96.8183L129.254 134.172L73.9272 96.8183ZM73.9272 96.8183L73.4328 54.2111L73.9272 96.8183ZM73.9272 96.8183L118.476 29.3447L73.9272 96.8183ZM73.9272 96.8183L27.9864 92.9327L73.9272 96.8183ZM73.9272 96.8183L72.9552 146.011L73.9272 96.8183Z" fill="#FFE500"/>
  <path d="M73.9272 96.8183L129.254 134.172M73.9272 96.8183L73.4328 54.2111M73.9272 96.8183L118.476 29.3447M73.9272 96.8183L27.9864 92.9327M73.9272 96.8183L72.9552 146.011" stroke="#45413C" stroke-width="4" stroke-linecap="round" stroke-linejoin="round"/>
  <path d="M169.819 66.1755C169.819 67.9819 170.537 69.7144 171.814 70.9917C173.092 72.2691 174.824 72.9867 176.63 72.9867C178.437 72.9867 180.169 72.2691 181.447 70.9917C182.724 69.7144 183.442 67.9819 183.442 66.1755C183.442 64.369 182.724 62.6366 181.447 61.3592C180.169 60.0819 178.437 59.3643 176.63 59.3643C174.824 59.3643 173.092 60.0819 171.814 61.3592C170.537 62.6366 169.819 64.369 169.819 66.1755Z" fill="#FFE500" stroke="#45413C" stroke-width="4" stroke-linecap="round" stroke-linejoin="round"/>
  <path d="M198.25 75.9362C198.25 77.7426 198.967 79.4751 200.245 80.7524C201.522 82.0298 203.254 82.7474 205.061 82.7474C206.867 82.7474 208.6 82.0298 209.877 80.7524C211.154 79.4751 211.872 77.7426 211.872 75.9362C211.872 74.1298 211.154 72.3973 209.877 71.12C208.6 69.8426 206.867 69.125 205.061 69.125C203.254 69.125 201.522 69.8426 200.245 71.12C198.967 72.3973 198.25 74.1298 198.25 75.9362Z" fill="#FF6242" stroke="#45413C" stroke-width="4" stroke-linecap="round" stroke-linejoin="round"/>
  <path d="M199.555 167.263C199.555 169.07 200.273 170.802 201.55 172.08C202.828 173.357 204.56 174.075 206.366 174.075C208.173 174.075 209.905 173.357 211.183 172.08C212.46 170.802 213.178 169.07 213.178 167.263C213.178 165.457 212.46 163.724 211.183 162.447C209.905 161.17 208.173 160.452 206.366 160.452C204.56 160.452 202.828 161.17 201.55 162.447C200.273 163.724 199.555 165.457 199.555 167.263Z" fill="#4ACFFF" stroke="#45413C" stroke-width="4" stroke-linecap="round" stroke-linejoin="round"/>
  <path d="M149.374 43.985C149.374 44.8795 149.55 45.7652 149.892 46.5916C150.234 47.4179 150.736 48.1688 151.369 48.8013C152.001 49.4338 152.752 49.9355 153.578 50.2778C154.405 50.6201 155.29 50.7962 156.185 50.7962C157.079 50.7962 157.965 50.6201 158.791 50.2778C159.618 49.9355 160.369 49.4338 161.001 48.8013C161.634 48.1688 162.135 47.4179 162.478 46.5916C162.82 45.7652 162.996 44.8795 162.996 43.985C162.996 42.1786 162.278 40.4461 161.001 39.1688C159.724 37.8914 157.991 37.1738 156.185 37.1738C154.378 37.1738 152.646 37.8914 151.369 39.1688C150.091 40.4461 149.374 42.1786 149.374 43.985Z" fill="#4ACFFF" stroke="#45413C" stroke-width="4" stroke-linecap="round" stroke-linejoin="round"/>
  <path d="M66.5952 54.2111C66.5952 56.0175 67.3128 57.75 68.5902 59.0273C69.8675 60.3047 71.6 61.0223 73.4064 61.0223C75.2128 61.0223 76.9453 60.3047 78.2226 59.0273C79.5 57.75 80.2176 56.0175 80.2176 54.2111C80.2176 52.4047 79.5 50.6722 78.2226 49.3949C76.9453 48.1175 75.2128 47.3999 73.4064 47.3999C71.6 47.3999 69.8675 48.1175 68.5902 49.3949C67.3128 50.6722 66.5952 52.4047 66.5952 54.2111Z" fill="#4ACFFF" stroke="#45413C" stroke-width="4" stroke-linecap="round" stroke-linejoin="round"/>
  <path d="M21.1752 93.216C21.1752 95.0224 21.8928 96.7549 23.1702 98.0322C24.4475 99.3096 26.18 100.027 27.9864 100.027C29.7928 100.027 31.5253 99.3096 32.8026 98.0322C34.08 96.7549 34.7976 95.0224 34.7976 93.216C34.7976 91.4095 34.08 89.6771 32.8026 88.3997C31.5253 87.1224 29.7928 86.4048 27.9864 86.4048C26.18 86.4048 24.4475 87.1224 23.1702 88.3997C21.8928 89.6771 21.1752 91.4095 21.1752 93.216Z" fill="#FFE500" stroke="#45413C" stroke-width="4" stroke-linecap="round" stroke-linejoin="round"/>
  <path d="M111.665 29.3449C111.665 31.1513 112.382 32.8838 113.66 34.1611C114.937 35.4385 116.67 36.1561 118.476 36.1561C120.282 36.1561 122.015 35.4385 123.292 34.1611C124.57 32.8838 125.287 31.1513 125.287 29.3449C125.287 27.5384 124.57 25.806 123.292 24.5286C122.015 23.2513 120.282 22.5337 118.476 22.5337C116.67 22.5337 114.937 23.2513 113.66 24.5286C112.382 25.806 111.665 27.5384 111.665 29.3449Z" fill="#FFE500" stroke="#45413C" stroke-width="4" stroke-linecap="round" stroke-linejoin="round"/>
  <path d="M113.309 202.821C113.309 204.628 114.026 206.36 115.304 207.638C116.581 208.915 118.314 209.633 120.12 209.633C121.926 209.633 123.659 208.915 124.936 207.638C126.214 206.36 126.931 204.628 126.931 202.821C126.931 201.015 126.214 199.283 124.936 198.005C123.659 196.728 121.926 196.01 120.12 196.01C118.314 196.01 116.581 196.728 115.304 198.005C114.026 199.283 113.309 201.015 113.309 202.821Z" fill="#FFE500" stroke="#45413C" stroke-width="4" stroke-linecap="round" stroke-linejoin="round"/>
  <path d="M56.3424 183.861C56.3424 185.668 57.06 187.4 58.3374 188.678C59.6147 189.955 61.3472 190.673 63.1536 190.673C64.96 190.673 66.6925 189.955 67.9698 188.678C69.2472 187.4 69.9648 185.668 69.9648 183.861C69.9648 182.055 69.2472 180.323 67.9698 179.045C66.6925 177.768 64.96 177.05 63.1536 177.05C61.3472 177.05 59.6147 177.768 58.3374 179.045C57.06 180.323 56.3424 182.055 56.3424 183.861Z" fill="#FF6242" stroke="#45413C" stroke-width="4" stroke-linecap="round" stroke-linejoin="round"/>
  <path d="M66.144 146.011C66.144 147.818 66.8616 149.55 68.139 150.828C69.4163 152.105 71.1488 152.823 72.9552 152.823C74.7616 152.823 76.4941 152.105 77.7714 150.828C79.0488 149.55 79.7664 147.818 79.7664 146.011C79.7664 144.205 79.0488 142.472 77.7714 141.195C76.4941 139.918 74.7616 139.2 72.9552 139.2C71.1488 139.2 69.4163 139.918 68.139 141.195C66.8616 142.472 66.144 144.205 66.144 146.011Z" fill="#4ACFFF" stroke="#45413C" stroke-width="4" stroke-linecap="round" stroke-linejoin="round"/>
  <path d="M68.376 91.8863C68.3606 92.6251 68.4929 93.3596 68.765 94.0467C69.0372 94.7338 69.4437 95.3597 69.9608 95.8877C70.4779 96.4156 71.0952 96.8351 71.7765 97.1215C72.4578 97.4078 73.1894 97.5553 73.9284 97.5553C74.6674 97.5553 75.399 97.4078 76.0803 97.1215C76.7616 96.8351 77.3789 96.4156 77.896 95.8877C78.4131 95.3597 78.8196 94.7338 79.0918 94.0467C79.3639 93.3596 79.4962 92.6251 79.4808 91.8863V89.1095C79.4962 88.3706 79.3639 87.6361 79.0918 86.949C78.8196 86.2619 78.4131 85.636 77.896 85.1081C77.3789 84.5801 76.7616 84.1606 76.0803 83.8743C75.399 83.5879 74.6674 83.4404 73.9284 83.4404C73.1894 83.4404 72.4578 83.5879 71.7765 83.8743C71.0952 84.1606 70.4779 84.5801 69.9608 85.1081C69.4437 85.636 69.0372 86.2619 68.765 86.949C68.4929 87.6361 68.3606 88.3706 68.376 89.1095V91.8863Z" fill="#E8F4FA"/>
  <path d="M56.6688 92.2872C56.6688 96.8644 58.4871 101.254 61.7237 104.491C64.9602 107.727 69.35 109.546 73.9272 109.546C78.5044 109.546 82.8942 107.727 86.1307 104.491C89.3673 101.254 91.1856 96.8644 91.1856 92.2872C91.1856 87.71 89.3673 83.3203 86.1307 80.0837C82.8942 76.8471 78.5044 75.0288 73.9272 75.0288C69.35 75.0288 64.9602 76.8471 61.7237 80.0837C58.4871 83.3203 56.6688 87.71 56.6688 92.2872Z" fill="white" stroke="#45413C" stroke-width="4" stroke-linecap="round" stroke-linejoin="round"/>
  <path d="M68.376 91.8863C68.3606 92.6251 68.4929 93.3596 68.765 94.0467C69.0372 94.7338 69.4437 95.3597 69.9608 95.8877C70.4779 96.4156 71.0952 96.8351 71.7765 97.1215C72.4578 97.4078 73.1894 97.5553 73.9284 97.5553C74.6674 97.5553 75.399 97.4078 76.0803 97.1215C76.7616 96.8351 77.3789 96.4156 77.896 95.8877C78.4131 95.3597 78.8196 94.7338 79.0918 94.0467C79.3639 93.3596 79.4962 92.6251 79.4808 91.8863V89.1095C79.4962 88.3706 79.3639 87.6361 79.0918 86.949C78.8196 86.2619 78.4131 85.636 77.896 85.1081C77.3789 84.5801 76.7616 84.1606 76.0803 83.8743C75.399 83.5879 74.6674 83.4404 73.9284 83.4404C73.1894 83.4404 72.4578 83.5879 71.7765 83.8743C71.0952 84.1606 70.4779 84.5801 69.9608 85.1081C69.4437 85.636 69.0372 86.2619 68.765 86.949C68.4929 87.6361 68.3606 88.3706 68.376 89.1095V91.8863Z" fill="#FFCEBF" stroke="#45413C" stroke-width="4" stroke-linecap="round" stroke-linejoin="round"/>
  <path d="M85.4664 105.12C82.2986 107.965 78.191 109.539 73.9332 109.539C69.6754 109.539 65.5678 107.965 62.4 105.12C63.3527 102.851 64.9543 100.914 67.0037 99.5518C69.0531 98.1896 71.4592 97.4629 73.92 97.4629C76.3808 97.4629 78.7869 98.1896 80.8363 99.5518C82.8857 100.914 84.4873 102.851 85.44 105.12" fill="#9CEB60"/>
  <path d="M85.4664 105.12C82.2986 107.965 78.191 109.539 73.9332 109.539C69.6754 109.539 65.5678 107.965 62.4 105.12C63.3527 102.851 64.9543 100.914 67.0037 99.5518C69.0531 98.1896 71.4592 97.4629 73.92 97.4629C76.3808 97.4629 78.7869 98.1896 80.8363 99.5518C82.8857 100.914 84.4873 102.851 85.44 105.12" stroke="#45413C" stroke-width="4" stroke-linecap="round" stroke-linejoin="round"/>
  <path d="M68.4216 88.3919C68.5669 87.2718 69.0503 86.2227 69.8074 85.3847C70.5646 84.5466 71.5593 83.9593 72.6589 83.7014C73.7585 83.4435 74.9106 83.5271 75.9614 83.941C77.0122 84.355 77.9118 85.0797 78.54 86.0183C77.2262 87.2927 75.5911 88.1866 73.8091 88.6046C72.0271 89.0227 70.1651 88.9491 68.4216 88.3919Z" fill="#A86C4D" stroke="#45413C" stroke-width="4" stroke-linecap="round" stroke-linejoin="round"/>
  <path d="M103.896 134.172C103.896 140.898 106.568 147.349 111.324 152.105C116.08 156.861 122.531 159.533 129.257 159.533C135.983 159.533 142.434 156.861 147.19 152.105C151.946 147.349 154.618 140.898 154.618 134.172C154.618 127.446 151.946 120.996 147.19 116.24C142.434 111.483 135.983 108.812 129.257 108.812C122.531 108.812 116.08 111.483 111.324 116.24C106.568 120.996 103.896 127.446 103.896 134.172Z" fill="white" stroke="#45413C" stroke-width="4" stroke-linecap="round" stroke-linejoin="round"/>
  <path d="M121.097 133.584C121.097 135.748 121.957 137.824 123.487 139.354C125.017 140.885 127.093 141.744 129.257 141.744C131.421 141.744 133.496 140.885 135.027 139.354C136.557 137.824 137.417 135.748 137.417 133.584V129.504C137.417 127.34 136.557 125.265 135.027 123.734C133.496 122.204 131.421 121.344 129.257 121.344C127.093 121.344 125.017 122.204 123.487 123.734C121.957 125.265 121.097 127.34 121.097 129.504V133.584Z" fill="#FFCEBF" stroke="#45413C" stroke-width="4" stroke-linecap="round" stroke-linejoin="round"/>
  <path d="M146.208 153.034C141.553 157.216 135.517 159.529 129.259 159.529C123.002 159.529 116.965 157.216 112.31 153.034C113.703 149.691 116.054 146.835 119.066 144.825C122.079 142.815 125.619 141.741 129.24 141.738C132.861 141.735 136.403 142.803 139.419 144.808C142.435 146.813 144.79 149.665 146.189 153.005" fill="#FF6242"/>
  <path d="M146.208 153.034C141.553 157.216 135.517 159.529 129.259 159.529C123.002 159.529 116.965 157.216 112.31 153.034C113.703 149.691 116.054 146.835 119.066 144.825C122.079 142.815 125.619 141.741 129.24 141.738C132.861 141.735 136.403 142.803 139.419 144.808C142.435 146.813 144.79 149.665 146.189 153.005" stroke="#45413C" stroke-width="4" stroke-linecap="round" stroke-linejoin="round"/>
  <path d="M121.164 128.451C121.376 126.803 122.087 125.259 123.2 124.026C124.314 122.792 125.777 121.928 127.395 121.549C129.013 121.17 130.708 121.294 132.254 121.904C133.799 122.514 135.122 123.582 136.044 124.964C134.112 126.838 131.707 128.152 129.087 128.766C126.466 129.381 123.728 129.272 121.164 128.451Z" fill="#A86C4D" stroke="#45413C" stroke-width="4" stroke-linecap="round" stroke-linejoin="round"/>
  <path d="M175.481 114.079C175.481 118.656 177.299 123.046 180.536 126.283C183.772 129.519 188.162 131.338 192.739 131.338C197.316 131.338 201.706 129.519 204.943 126.283C208.179 123.046 209.998 118.656 209.998 114.079C209.998 109.502 208.179 105.112 204.943 101.876C201.706 98.6391 197.316 96.8208 192.739 96.8208C188.162 96.8208 183.772 98.6391 180.536 101.876C177.299 105.112 175.481 109.502 175.481 114.079Z" fill="white" stroke="#45413C" stroke-width="4" stroke-linecap="round" stroke-linejoin="round"/>
  <path d="M187.186 113.679C187.186 115.151 187.771 116.564 188.812 117.606C189.854 118.647 191.266 119.232 192.739 119.232C194.212 119.232 195.625 118.647 196.666 117.606C197.708 116.564 198.293 115.151 198.293 113.679V110.902C198.293 109.429 197.708 108.016 196.666 106.975C195.625 105.933 194.212 105.348 192.739 105.348C191.266 105.348 189.854 105.933 188.812 106.975C187.771 108.016 187.186 109.429 187.186 110.902V113.679Z" fill="#FFCEBF" stroke="#45413C" stroke-width="4" stroke-linecap="round" stroke-linejoin="round"/>
  <path d="M204.276 126.914C201.108 129.76 197 131.335 192.742 131.335C188.483 131.335 184.375 129.76 181.207 126.914C182.156 124.64 183.755 122.696 185.806 121.328C187.856 119.96 190.265 119.23 192.729 119.228C195.194 119.225 197.604 119.952 199.656 121.317C201.709 122.681 203.312 124.622 204.264 126.895" fill="#FFAA54"/>
  <path d="M204.276 126.914C201.108 129.76 197 131.335 192.742 131.335C188.483 131.335 184.375 129.76 181.207 126.914C182.156 124.64 183.755 122.696 185.806 121.328C187.856 119.96 190.265 119.23 192.729 119.228C195.194 119.225 197.604 119.952 199.656 121.317C201.709 122.681 203.312 124.622 204.264 126.895" stroke="#45413C" stroke-width="4" stroke-linecap="round" stroke-linejoin="round"/>
  <path d="M187.231 110.184C187.377 109.064 187.861 108.015 188.618 107.178C189.376 106.34 190.371 105.753 191.47 105.495C192.57 105.237 193.722 105.32 194.773 105.734C195.824 106.148 196.723 106.872 197.352 107.811C196.037 109.084 194.402 109.978 192.62 110.396C190.837 110.814 188.975 110.741 187.231 110.184Z" fill="#A86C4D" stroke="#45413C" stroke-width="4" stroke-linecap="round" stroke-linejoin="round"/>
  <path d="M144.391 187.356C144.391 189.622 144.838 191.867 145.705 193.961C146.572 196.054 147.843 197.957 149.446 199.56C151.049 201.162 152.951 202.433 155.045 203.301C157.139 204.168 159.383 204.614 161.65 204.614C163.916 204.614 166.16 204.168 168.254 203.301C170.348 202.433 172.251 201.162 173.853 199.56C175.456 197.957 176.727 196.054 177.594 193.961C178.462 191.867 178.908 189.622 178.908 187.356C178.908 182.779 177.09 178.389 173.853 175.153C170.617 171.916 166.227 170.098 161.65 170.098C157.072 170.098 152.683 171.916 149.446 175.153C146.209 178.389 144.391 182.779 144.391 187.356Z" fill="white" stroke="#45413C" stroke-width="4" stroke-linecap="round" stroke-linejoin="round"/>
  <path d="M156.096 186.96C156.096 188.433 156.681 189.846 157.723 190.887C158.764 191.929 160.177 192.514 161.65 192.514C163.122 192.514 164.535 191.929 165.577 190.887C166.618 189.846 167.203 188.433 167.203 186.96V184.181C167.203 182.708 166.618 181.296 165.577 180.254C164.535 179.213 163.122 178.627 161.65 178.627C160.177 178.627 158.764 179.213 157.723 180.254C156.681 181.296 156.096 182.708 156.096 184.181V186.96Z" fill="#FFCEBF" stroke="#45413C" stroke-width="4" stroke-linecap="round" stroke-linejoin="round"/>
  <path d="M173.186 200.194C170.018 203.038 165.91 204.612 161.652 204.612C157.394 204.612 153.286 203.038 150.118 200.194C151.066 197.919 152.665 195.975 154.715 194.607C156.765 193.239 159.174 192.508 161.639 192.506C164.103 192.504 166.514 193.23 168.566 194.594C170.619 195.958 172.222 197.899 173.174 200.172" fill="#00B8F0"/>
  <path d="M173.186 200.194C170.018 203.038 165.91 204.612 161.652 204.612C157.394 204.612 153.286 203.038 150.118 200.194C151.066 197.919 152.665 195.975 154.715 194.607C156.765 193.239 159.174 192.508 161.639 192.506C164.103 192.504 166.514 193.23 168.566 194.594C170.619 195.958 172.222 197.899 173.174 200.172" stroke="#45413C" stroke-width="4" stroke-linecap="round" stroke-linejoin="round"/>
  <path d="M156.142 183.463C156.288 182.343 156.771 181.295 157.529 180.457C158.286 179.619 159.281 179.032 160.381 178.774C161.48 178.516 162.632 178.6 163.683 179.014C164.734 179.427 165.634 180.152 166.262 181.09C164.948 182.364 163.312 183.257 161.53 183.675C159.748 184.093 157.886 184.02 156.142 183.463Z" fill="#A86C4D" stroke="#45413C" stroke-width="4" stroke-linecap="round" stroke-linejoin="round"/>
</svg>