<svg xmlns="http://www.w3.org/2000/svg" viewBox="0 0 400 400" height="400" width="400"><defs></defs><path d="M89.694 115.128C126.4 111.672 140.622 143.962 143.142 180.6a131.894 131.894 0 0 1 0.296 13.65c-57.666 20.082 -96.876 0.484 -97.834 0.026 -0.502 -2.268 -0.928 -5.3 -1.2 -7.6 -1.674 -13.988 -1.02 -29.68 4.218 -42.76 1.778 -4.446 9.614 -25.826 41.072 -28.788z" fill="#dcbeff" stroke-width="1"></path><path d="M320.02 107.082a177.836 177.836 0 0 0 3.454 -18.824c-3.46 0.04 -7.32 -3.902 -6.122 -6.706a4.678 4.678 0 0 1 -4.728 -0.01c-0.912 -0.564 -0.072 -2 0.838 -1.434 2.856 1.75 7.154 -2.372 6.778 -7.052a6.868 6.868 0 0 0 -4 -5.488c-2.68 -1.146 -5.078 1.382 -6.152 3.522 -0.48 0.952 -1.914 0.112 -1.432 -0.84a9.816 9.816 0 0 1 1.846 -2.53c-0.348 -2.878 -1.544 -8.668 -5.506 -7.492 -5.22 1.556 -4.944 -7.052 -4.944 -7.052s-8.048 2.64 -12.838 0.338a24.876 24.876 0 0 0 -6.668 35.266 23.836 23.836 0 0 0 17.842 9.99 42 42 0 0 0 0.654 9.08 23.666 23.666 0 0 1 20.978 -0.768z" fill="#fcafb7" stroke-width="1"></path><path d="M335.226 62.358c-0.942 -9.674 -7.35 -16.286 -15.714 -20.546a46.888 46.888 0 0 0 -11.384 -4.054c-9.988 -2.152 -23.944 -1.272 -33.228 3.236 -1.566 0.768 -3.6 2.036 -3.378 4.064 0.164 1.638 2.57 2.016 3.84 2.046s2.712 0.032 4.166 0.022a5.2 5.2 0 0 1 5.2 3.94c0.22 1.042 1.52 2 2.482 2.448 4.79 2.312 12.838 -0.338 12.838 -0.338s-0.288 8.6 4.944 7.052c3.962 -1.176 5.158 4.626 5.506 7.492a8.976 8.976 0 0 1 1.168 -1.026c4.682 -3.382 10.63 2.09 10.222 7.528a9.104 9.104 0 0 1 -4.534 7.35c-1.578 3.706 5.568 9.324 9.09 5.334 5.824 -6.674 9.654 -15.59 8.782 -24.548z" fill="#7d4ab4" stroke-width="1"></path><path d="M311.676 66.694a10.74 10.74 0 0 0 -3.036 3.546c-0.48 0.952 0.952 1.8 1.434 0.84 1.074 -2.14 3.47 -4.678 6.152 -3.522a6.872 6.872 0 0 1 4 5.488c0.38 4.774 -3.986 8.78 -6.778 7.052 -0.912 -0.562 -1.74 0.87 -0.84 1.434a4.682 4.682 0 0 0 4.73 0.01 9.08 9.08 0 0 0 4.534 -7.35c0.426 -5.438 -5.522 -10.874 -10.196 -7.498z" fill="#f55555" stroke-width="1"></path><path d="m226.572 178.854 15.622 -0.38s-2.068 13.738 2.826 20.7L228.834 202z" fill="#fcafb7" stroke-width="1"></path><path d="M233.44 200.494v-17.506s-14.4 -7.616 -27.946 -1.974 -2.262 23.432 10.442 22.858 17.504 -3.378 17.504 -3.378z" fill="#dcbeff" stroke-width="1"></path><path d="M324.128 238.136c-0.768 1.142 -0.908 1.02 -1.922 1 -0.698 -0.022 -7.356 -0.2 -9.988 -0.282 0.078 0.2 0.23 3.13 0.216 2.928a0.826 0.826 0 0 1 -0.778 0.88h-0.056a0.834 0.834 0 0 1 -0.83 -0.778c-0.2 -3.102 -0.2 -2.844 -0.132 -3.07 -2 -0.05 -12.736 -0.348 -16.104 -0.45a0.836 0.836 0 0 1 -0.8 -0.6 40.15 40.15 0 0 1 -0.932 -4.4 75.748 75.748 0 0 1 -15.436 -7.812l25.356 139.92s27.098 3.8 38.102 -0.42l7.964 -131.524a94.6 94.6 0 0 1 -24.66 4.608zm-12.672 14.218 -0.338 -5.242a0.83 0.83 0 0 1 1.658 -0.102l0.338 5.242a0.83 0.83 0 0 1 -1.658 0.102zm0.676 10.478 -0.338 -5.242a0.83 0.83 0 0 1 1.658 -0.102l0.338 5.24a0.83 0.83 0 0 1 -1.658 0.104zm0.676 10.476 -0.338 -5.242a0.83 0.83 0 0 1 1.658 -0.1l0.338 5.24a0.83 0.83 0 0 1 -1.666 0.102zm0.664 10.474 -0.336 -5.242a0.83 0.83 0 0 1 1.656 -0.102l0.338 5.24a0.83 0.83 0 0 1 -1.658 0.104zm0.676 10.47 -0.338 -5.24a0.83 0.83 0 0 1 1.658 -0.102l0.338 5.242a0.83 0.83 0 0 1 -1.658 0.1zm0.676 10.478 -0.338 -5.24a0.83 0.83 0 0 1 1.658 -0.102l0.338 5.24a0.83 0.83 0 0 1 -1.658 0.102zm0.666 10.478 -0.338 -5.24a0.828 0.828 0 0 1 0.778 -0.882 0.848 0.848 0 0 1 0.88 0.778l0.338 5.242a0.83 0.83 0 0 1 -1.658 0.094zm0.676 10.472 -0.338 -5.242a0.83 0.83 0 0 1 1.658 -0.1l0.336 5.24a0.83 0.83 0 0 1 -1.656 0.102zm0.674 10.478 -0.338 -5.242a0.83 0.83 0 0 1 1.658 -0.102l0.338 5.242a0.83 0.83 0 0 1 -1.658 0.102zm0.676 10.476 -0.338 -5.24a0.832 0.832 0 0 1 1.66 -0.102l0.336 5.242a0.83 0.83 0 0 1 -1.658 0.1zm0.666 10.474 -0.338 -5.242a0.826 0.826 0 0 1 0.778 -0.88 0.848 0.848 0 0 1 0.88 0.778l0.338 5.24a0.83 0.83 0 0 1 -1.658 0.104zm0.518 8 -0.176 -2.754a0.832 0.832 0 0 1 1.66 -0.104l0.174 2.756a0.83 0.83 0 0 1 -1.658 0.092z" fill="#ffd35c" stroke-width="1"></path><path d="M99.984 22.444c-0.722 0.8 -1.884 -0.378 -1.178 -1.176 0.522 -0.584 1.054 -1.168 1.576 -1.752A12.8 12.8 0 0 0 95.438 16l-0.558 3.224a0.854 0.854 0 0 1 -1.024 0.584 0.866 0.866 0 0 1 -0.584 -1.024c0.2 -1.106 0.384 -2.222 0.58 -3.326a14.658 14.658 0 0 0 -9.962 0.664 0.854 0.854 0 0 1 0 1.168 0.836 0.836 0 0 1 -1.176 0c-0.102 -0.114 -0.216 -0.226 -0.318 -0.338a10.918 10.918 0 0 0 -4.218 5c0.2 0.132 0.42 0.266 0.614 0.4a0.83 0.83 0 1 1 -0.838 1.434c-0.102 -0.072 -0.216 -0.134 -0.318 -0.2a13.524 13.524 0 0 0 11.844 16.982v-4.99c-6.54 -0.872 -6.468 -11 0.246 -11.6a5.888 5.888 0 0 1 6.346 5.822 6.022 6.022 0 0 1 -4.924 5.764v5a13.334 13.334 0 0 0 11.948 -10.6c-0.512 0.2 -1.01 0.426 -1.52 0.63a0.834 0.834 0 0 1 -0.442 -1.6c0.718 -0.296 1.428 -0.6 2.146 -0.884a12.71 12.71 0 0 0 -1.884 -7.228c-0.46 0.518 -0.936 1.038 -1.412 1.562z" fill="#fee992" stroke-width="1"></path><path d="M89.05 88.774a11.082 11.082 0 0 0 7.074 -10.554 11.924 11.924 0 0 0 -5.436 -9.42 27.8 27.8 0 0 0 -3.538 2.478 0.146 0.146 0 0 1 0.038 0.012c6.93 1.886 6.162 12.086 -0.154 13.564a7.27 7.27 0 0 1 -8.634 -5.776 1.504 1.504 0 0 0 -0.184 0.054v-4.956a20.886 20.886 0 0 1 -2.736 -1.332 11.184 11.184 0 0 0 13.572 15.93z" fill="#dcbeff" stroke-width="1"></path><path d="M87.454 82.964c4.73 -2.13 3.636 -10.27 -1.86 -10.27 -4.26 4.26 -2.932 5.364 -3.586 5.552l-2 0.456a5.554 5.554 0 0 0 7.446 4.262z" fill="#dcbeff" stroke-width="1"></path><path d="M83.338 98.586a26.142 26.142 0 0 0 30.864 -13.8c-5.2 2.356 -9.932 -0.386 -12.438 -5.242 -0.49 -0.952 0.942 -1.782 1.434 -0.84 2.668 5.19 7.374 6.912 12.068 3.552A26.242 26.242 0 0 0 95.92 47.6c-1.97 -0.436 1.832 0.3 4.852 2.114 3.286 1.966 6.8 5.222 5.426 9.418a8.706 8.706 0 0 1 -5.662 5.57 43.834 43.834 0 0 0 -8.22 3.2 13.684 13.684 0 0 1 5.484 10.324 12.714 12.714 0 0 1 -10.102 12.662 12.87 12.87 0 0 1 -13.6 -18.908 13.654 13.654 0 0 1 -6.664 -10.942 26.314 26.314 0 0 0 15.904 37.548zm22.8 -28.918a2.262 2.262 0 1 1 -2.262 2.262 2.262 2.262 0 0 1 2.26 -2.262zm-17.302 159.698a5.178 5.178 0 0 0 -4.566 8.702 5.242 5.242 0 1 0 4.566 -8.702z" fill="#dcbeff" stroke-width="1"></path><path d="M312.434 241.774c-0.242 -3.724 -0.15 -2.528 -0.216 -2.928 -0.522 0 -1.038 -0.024 -1.56 -0.036a0.8 0.8 0 0 0 -0.042 0.318l0.174 2.752a0.824 0.824 0 1 0 1.644 -0.106zm6.064 94.282 -0.338 -5.242a0.83 0.83 0 0 0 -1.658 0.102l0.338 5.242a0.83 0.83 0 0 0 1.658 -0.102zm0.676 10.478 -0.336 -5.242a0.832 0.832 0 0 0 -1.66 0.102l0.338 5.24a0.83 0.83 0 0 0 1.658 -0.1zm-1.352 -20.956 -0.336 -5.24a0.846 0.846 0 0 0 -0.88 -0.778 0.824 0.824 0 0 0 -0.778 0.878l0.338 5.242a0.83 0.83 0 0 0 1.656 -0.102zm2.018 31.422 -0.338 -5.24a0.846 0.846 0 0 0 -0.88 -0.778 0.826 0.826 0 0 0 -0.778 0.88l0.338 5.242a0.83 0.83 0 0 0 1.658 -0.104zm-2.692 -41.894 -0.338 -5.242a0.846 0.846 0 0 0 -0.88 -0.778 0.826 0.826 0 0 0 -0.778 0.882l0.338 5.24a0.83 0.83 0 0 0 1.658 -0.102zm-1.348 -20.954 -0.338 -5.242a0.83 0.83 0 0 0 -1.658 0.102l0.338 5.24a0.83 0.83 0 0 0 1.658 -0.1zm-0.096 11.356a0.824 0.824 0 0 0 0.778 -0.88l-0.338 -5.24a0.83 0.83 0 0 0 -1.658 0.102l0.338 5.24a0.828 0.828 0 0 0 0.83 0.778 0.078 0.078 0 0 0 0.05 0zm4.48 56.732a0.832 0.832 0 0 0 -1.66 0.104l0.176 2.754a0.83 0.83 0 0 0 1.658 -0.102zM99.088 234.87a11.492 11.492 0 0 0 -10.38 -11.046 11.142 11.142 0 1 0 3.322 21.6 11.038 11.038 0 0 0 7.058 -10.554zM90 241.504c-6.312 1.48 -11.486 -6.2 -7.294 -11.364A7.042 7.042 0 1 1 90 241.504zm-2.506 6.212c0.01 1.302 -0.02 6.296 -0.02 7.484a25.942 25.942 0 0 0 4.29 1.31v-9.234a12.92 12.92 0 0 1 -4.27 0.44z" fill="#b26ee6" stroke-width="1"></path><path d="M100 204.732c-2.364 0.134 -4.738 0.2 -7.104 0.216a26.258 26.258 0 0 0 -7.088 49.526c0 -1.484 0 -6.132 0.02 -6.982a12.762 12.762 0 1 1 4.976 -25.03 13.36 13.36 0 0 1 9.94 12.4 12.834 12.834 0 0 1 -7.382 11.782c0.09 0.242 0.062 10.36 0.062 10.154A26.244 26.244 0 1 0 100 204.732zM74.084 71.98A12.76 12.76 0 0 1 82 65.92a2.752 2.752 0 0 1 0.286 -1.884 4.268 4.268 0 0 1 -1.894 -5.18 15.556 15.556 0 0 1 -2.2 0.092 3.016 3.016 0 1 1 0.072 -1.238 10.698 10.698 0 0 0 4.34 -0.666 4.33 4.33 0 0 0 2.856 -4.094 2.52 2.52 0 1 1 1.848 -4.498 7.058 7.058 0 0 1 0.85 -1.25 26.412 26.412 0 0 0 -20.762 13.83 13.694 13.694 0 0 0 6.688 10.948zm14.24 -21.804a2.534 2.534 0 0 1 -0.646 2 16.658 16.658 0 0 0 -0.4 2.784 2.6 2.6 0 0 1 3.562 0.062 6.226 6.226 0 0 1 4.38 0.112 3.78 3.78 0 0 0 -3.82 -2.848 0.616 0.616 0 0 1 -0.14 -1.2 5.322 5.322 0 0 1 5.476 4.954c2.894 2.438 2.516 7.96 -2.526 10.56 -0.706 0.368 -1.342 -0.706 -0.624 -1.074C97.822 63.338 98.2 59 95.96 57a4.86 4.86 0 0 0 -4.474 -0.89 2.6 2.6 0 0 1 -4.176 2.732 43.956 43.956 0 0 0 1.33 7.188 11.928 11.928 0 0 1 3.676 1.868 45.086 45.086 0 0 1 8.22 -3.2 8.706 8.706 0 0 0 5.664 -5.56c1.832 -5.6 -5.124 -10.156 -10.832 -11.628a25.738 25.738 0 0 0 -4.576 -0.426 7 7 0 0 0 -2.468 3.092zM80 78.702l2 -0.456c0.644 -0.216 -0.6 -1.358 3.586 -5.552A5.06 5.06 0 0 0 80 78.702z" fill="#b26ee6" stroke-width="1"></path><path d="M90.688 68.8a10.352 10.352 0 0 0 -3.956 -1.524 2.758 2.758 0 0 1 -3.89 0.124 11.308 11.308 0 0 0 -7.364 5.444 20.886 20.886 0 0 0 2.736 1.332v4.956a1.504 1.504 0 0 1 0.184 -0.054 6.8 6.8 0 0 1 8.752 -7.8 28.116 28.116 0 0 1 3.538 -2.478zm-8.936 -7.128a5.628 5.628 0 0 0 1.362 1.444 2.742 2.742 0 0 1 3.152 -0.052 32.542 32.542 0 0 1 -0.696 -6.684 0.248 0.248 0 0 1 -0.04 0.062 6.368 6.368 0 0 1 -3.42 2.108 3.172 3.172 0 0 0 -0.768 1.514 2.292 2.292 0 0 0 0.41 1.608zm6.5 -28.192a4.19 4.19 0 1 0 0.758 -7.688c-3.312 0.954 -3.582 6.058 -0.758 7.688zm57.602 343.692c-0.316 -0.216 -23 -11.642 -34.722 -14.896a15.766 15.766 0 0 0 -6.266 -0.8c-2.318 0.774 -3 4.288 -3.184 6.726 2 0.902 15.094 6.976 16.092 7.76a3.162 3.162 0 0 1 -0.89 5.456c7.71 0.42 20.6 0.768 28.05 -1.382a1.938 1.938 0 0 0 1.4 -0.93 1.492 1.492 0 0 0 -0.48 -1.934z" fill="#b26ee6" stroke-width="1"></path><path d="M117.2 379.086a1.512 1.512 0 0 0 -0.512 -1.914c-0.638 -0.44 -33.168 -16.772 -40.65 -15.786a2.828 2.828 0 0 0 -1.8 1.128c-1.8 2.16 -1.866 6.58 -1.73 9.376a9.712 9.712 0 0 0 1.966 6.132 8.294 8.294 0 0 0 5.62 2.906c9.562 0.702 26.46 1.746 35.664 -0.89a2.054 2.054 0 0 0 1.442 -0.952z" fill="#b26ee6" stroke-width="1"></path><path d="M230.328 201.62s-1.882 -12.038 -8.464 -12.038c0 0 -2.448 0.562 0 9.028 0 0 -3.2 -10.35 -7.156 -9.4s0.184 12.612 0.184 12.612 -6.4 -13.922 -9.224 -11.476 -0.184 16.564 5.64 19.01 20.904 -0.756 19.02 -7.736zm-7.37 -20.524c1.588 -0.308 4.504 -0.778 3.092 -2.928 -2.63 -4 -14.674 -1.354 -16.698 2.354 -1.872 3.42 9.78 1.328 13.606 0.574z" fill="#fcafb7" stroke-width="1"></path><path d="m313.114 252.252 -0.338 -5.242a0.83 0.83 0 0 0 -1.658 0.102l0.338 5.242a0.83 0.83 0 0 0 1.658 -0.102zm0.686 10.476 -0.338 -5.24a0.83 0.83 0 0 0 -1.658 0.102l0.338 5.242a0.83 0.83 0 0 0 1.658 -0.104zm1.33 20.95 -0.338 -5.24a0.83 0.83 0 0 0 -1.656 0.102l0.336 5.242a0.83 0.83 0 0 0 1.658 -0.104zm-0.664 -10.478 -0.338 -5.24a0.846 0.846 0 0 0 -0.88 -0.778 0.824 0.824 0 0 0 -0.778 0.878l0.338 5.242a0.83 0.83 0 0 0 1.658 -0.102z" fill="#b26ee6" stroke-width="1"></path><path d="M278.32 83.374c2.318 1.162 7.508 1.752 13.6 -0.47a36.26 36.26 0 0 0 6.224 -3.02c-1.776 6.768 -6.3 10.8 -13.184 10.984a0.83 0.83 0 0 0 0 1.658 14.86 14.86 0 0 0 11.034 -4.862 18.6 18.6 0 0 0 4.188 -9.51 0.834 0.834 0 0 0 -1.25 -0.718c-5.862 3.886 -12.984 6.786 -19.666 4.566a0.1 0.1 0 0 0 -0.04 0c-0.886 -0.618 -1.932 0.858 -0.906 1.372z" fill="#000000" stroke-width="1"></path><path d="M292.712 70.66a1.976 1.976 0 1 0 3.952 0 1.976 1.976 0 1 0 -3.952 0" fill="#000000" stroke-width="1"></path><path d="M293.778 61.58c2.638 -0.878 6.76 0.56 8.292 6.46a0.828 0.828 0 0 0 1.6 -0.44c-1.498 -5.8 -5.264 -8.098 -9.184 -7.8a7.4 7.4 0 0 0 -1.146 0.164 0.84 0.84 0 0 0 0.438 1.616zM90 241.504c6.4 -1.506 7 -11.702 0.148 -13.564a7.23 7.23 0 0 0 -7.442 2.2c-4.198 5.164 0.966 12.848 7.294 11.364zm-5.722 -3.436a5.178 5.178 0 0 1 4.566 -8.702c5.658 0.668 5.914 8.312 1.576 10.258a5.4 5.4 0 0 1 -6.15 -1.556zM93 149.1c-0.104 -10.532 -13.138 -13.31 -18.632 -6.368a10.42 10.42 0 0 0 -0.316 12.2 10.818 10.818 0 0 0 11.53 4.68A10.53 10.53 0 0 0 93 149.1zm-6.516 8.44a8.866 8.866 0 0 1 -10.166 -2.364 9 9 0 0 1 -1.432 -10.268 9.158 9.158 0 0 1 14.4 -1.516 9.482 9.482 0 0 1 -2.81 14.148zM79.74 73.486a7.054 7.054 0 0 0 -0.322 8.174 7.226 7.226 0 0 0 7.616 3.2 7.054 7.054 0 0 0 5.078 -7.034 6.708 6.708 0 0 0 -4.924 -6.53 0.126 0.126 0 0 1 -0.038 -0.012 7.244 7.244 0 0 0 -7.41 2.202zm6.136 -0.778c5.64 0.612 5.918 8.31 1.578 10.256A5.548 5.548 0 0 1 80 78.702a5.094 5.094 0 0 1 5.876 -5.994z" fill="#000000" stroke-width="1"></path><path d="M103.874 71.93a2.262 2.262 0 1 0 4.524 0 2.262 2.262 0 1 0 -4.524 0" fill="#000000" stroke-width="1"></path><path d="M79.06 98.76a27.918 27.918 0 1 0 12.11 -53.324v-9.898a6.026 6.026 0 0 0 4.924 -5.764 5.89 5.89 0 0 0 -6.348 -5.814c-6.73 0.6 -6.772 10.728 -0.246 11.6v9.888a28.4 28.4 0 0 0 -14.248 4.6A27.968 27.968 0 0 0 79.06 98.76zm9.2 -65.28c-2.826 -1.646 -2.538 -6.736 0.758 -7.688a4.19 4.19 0 1 1 -0.758 7.688zM67.414 61.032A26.43 26.43 0 0 1 88.176 47.2c-3.726 4.656 -2.836 12.6 -1.368 18.412a12.73 12.73 0 0 0 -12.57 19.2 13.012 13.012 0 0 0 13.43 6.06 12.706 12.706 0 0 0 10.104 -12.672 13.432 13.432 0 0 0 -9.162 -12.182 29.884 29.884 0 0 1 -0.962 -13.85 8.148 8.148 0 0 1 3.102 -5.088 26.2 26.2 0 0 1 24.476 35.168c-4.778 3.4 -9.44 1.56 -12.07 -3.552 -0.49 -0.952 -1.924 -0.112 -1.432 0.84 2.56 4.962 7.312 7.56 12.438 5.24a26.216 26.216 0 0 1 -43.866 5.252 26.502 26.502 0 0 1 -2.882 -28.996zm28.71 17.188a11.068 11.068 0 0 1 -7.074 10.554 11.256 11.256 0 0 1 -12.4 -3.424 11.116 11.116 0 0 1 6.2 -17.95 11.278 11.278 0 0 1 13.274 10.82zM146.98 375.944a289.988 289.988 0 0 0 -29.85 -13.462s0.02 -113.272 0 -114.5q-0.8 0.922 -1.658 1.762s-0.022 110.906 0 112.144a82.458 82.458 0 0 0 -4.546 -1.412c0 -0.84 0.266 -104.764 0.276 -107.4 -0.542 0.338 -1.094 0.666 -1.658 0.964 0 1.412 -0.276 104.784 -0.266 106.012a11.324 11.324 0 0 0 -4.478 -0.252c-3.15 0.6 -4.362 4.478 -4.658 7.658 -1.786 -0.8 -5.06 -2.214 -6.776 -2.888 0.086 -0.172 0.148 -117.57 0.02 -117.906a12.824 12.824 0 0 0 7.382 -11.784 13.332 13.332 0 0 0 -9.94 -12.4 12.76 12.76 0 1 0 -4.976 25.028c0 0.84 -0.308 112.78 -0.286 114.14a81.91 81.91 0 0 0 -2.314 -0.736c-4.8 -1.414 -8.828 -2.508 -11.036 1.77a15.764 15.764 0 0 0 -1.35 6.93 16.8 16.8 0 0 0 1.044 7.33 9.8 9.8 0 0 0 8.24 5.64 158.6 158.6 0 0 0 30.638 0.104c9.34 0.676 25.288 1.498 34.284 -0.964a5.914 5.914 0 0 0 1.658 -0.614 3.18 3.18 0 0 0 0.25 -5.164zm-67.364 -133.928a11.096 11.096 0 0 1 9.092 -18.2 11.534 11.534 0 0 1 10.38 11.046A11.074 11.074 0 0 1 92 245.424a11.224 11.224 0 0 1 -12.384 -3.408zm12.146 121.91c-1.504 -0.6 -3.018 -1.178 -4.554 -1.71 0 -1.014 0.306 -113.18 0.286 -114.48a12.058 12.058 0 0 0 4.27 -0.46s-0.032 115.144 -0.002 116.65zm-11.628 16.982a8.292 8.292 0 0 1 -5.62 -2.908 9.65 9.65 0 0 1 -1.966 -6.132c-0.154 -3.162 -0.06 -8.636 2.702 -10.2 2.63 -1.576 13.916 2.966 16.81 4.126 10.618 4.296 24.452 11.222 24.66 11.364a1.516 1.516 0 0 1 0.512 1.914 1.976 1.976 0 0 1 -1.4 0.932c-8.942 2.606 -26.522 1.638 -35.698 0.904zm66.232 -1.822a1.97 1.97 0 0 1 -1.4 0.932c-7.458 2.148 -20.312 1.8 -28.05 1.382a3.166 3.166 0 0 0 0.892 -5.456c-1.028 -0.8 -13.438 -6.566 -16.092 -7.76 0.164 -2.238 0.742 -5.4 2.702 -6.512 2.628 -1.576 13.924 2.97 16.8 4.128 10.58 4.266 24.4 11.17 24.662 11.352a1.572 1.572 0 0 1 0.486 1.934z" fill="#000000" stroke-width="1"></path><path d="M79.792 124.664a1.32 1.32 0 1 0 2.64 0 1.32 1.32 0 1 0 -2.64 0" fill="#000000" stroke-width="1"></path><path d="M90.142 124.848a1.32 1.32 0 1 0 2.64 0 1.32 1.32 0 1 0 -2.64 0" fill="#000000" stroke-width="1"></path><path d="M76.788 198.236a1.32 1.32 0 1 0 2.64 0 1.32 1.32 0 1 0 -2.64 0" fill="#000000" stroke-width="1"></path><path d="M87.322 198.426a1.32 1.32 0 1 0 2.64 0 1.32 1.32 0 1 0 -2.64 0" fill="#000000" stroke-width="1"></path><path d="M336.68 371.316c-15.784 -4.856 -36.904 0.542 -48.82 9.91a1.114 1.114 0 0 0 0.718 1.986c17.4 -0.266 30.444 -0.42 46.24 -0.092a6.03 6.03 0 0 0 1.862 -11.804zM77.974 23.786a0.834 0.834 0 0 0 1.136 -0.298 0.844 0.844 0 0 0 -0.296 -1.136A31.526 31.526 0 0 0 72.508 19a0.842 0.842 0 0 0 -1.024 0.584c-0.354 1.35 1.646 0.816 6.49 4.202zm4.76 -6.49a0.83 0.83 0 1 0 1.178 -1.168c-1.414 -1.504 -2.826 -3.02 -4.238 -4.514a0.838 0.838 0 0 0 -1.178 0 0.856 0.856 0 0 0 0 1.176c0.444 0.474 3.63 3.836 4.238 4.506zm12.146 1.934c0.184 -1.074 1.152 -6.532 1.438 -8.18a0.856 0.856 0 0 0 -0.584 -1.022 0.834 0.834 0 0 0 -1.022 0.582c-0.288 1.618 -1.244 7.074 -1.44 8.18a0.834 0.834 0 0 0 1.608 0.44zm5.104 3.214c0.47 -0.522 5.016 -5.578 6.828 -7.574 0.716 -0.788 -0.462 -1.966 -1.178 -1.178 -1.75 1.946 -6.306 7 -6.828 7.576 -0.706 0.798 0.46 1.974 1.178 1.176zm1.15 6.536a0.834 0.834 0 0 0 0.442 1.6c0.51 -0.2 6.914 -2.83 9.6 -3.936a0.834 0.834 0 0 0 -0.44 -1.6c-2.482 1.024 -8.886 3.636 -9.602 3.936zM95.98 386.242h-11.29a0.83 0.83 0 0 0 0 1.658h11.29a0.83 0.83 0 0 0 0 -1.658zm17.496 1.126h-7.904a0.83 0.83 0 0 0 0 1.658h7.904a0.83 0.83 0 0 0 0 -1.658zm31.058 -0.358c-7.504 -0.8 -15.048 -1.28 -22.6 -1.424a0.83 0.83 0 0 0 0 1.658c7.544 0.154 15.088 0.626 22.6 1.424 1.066 0.112 1.054 -1.546 0 -1.658zm-74.81 -8.088a33.362 33.362 0 0 0 -6.224 0.154 0.83 0.83 0 0 0 0 1.658 33.2 33.2 0 0 1 6.224 -0.154 0.83 0.83 0 0 0 0.828 -0.828 0.846 0.846 0 0 0 -0.828 -0.83zm217.062 6q-7.342 -0.15 -14.68 -0.318a0.83 0.83 0 0 0 0 1.658q7.338 0.152 14.68 0.318a0.83 0.83 0 0 0 0 -1.658zm-6 -6.778a130.968 130.968 0 0 0 -19.684 -1.75 0.83 0.83 0 0 0 0 1.658 126.056 126.056 0 0 1 19.244 1.69c1.054 0.174 1.494 -1.424 0.44 -1.598zm56.252 10.196q-11.01 -0.668 -22.02 -1.372c-1.064 -0.06 -1.064 1.6 0 1.658q11.01 0.694 22.02 1.372c1.064 0.062 1.064 -1.598 0 -1.658zm17.208 -8.568c-3.296 -0.126 -6.582 -0.246 -9.878 -0.368 -1.064 -0.04 -1.064 1.618 0 1.658l9.878 0.368c1.064 0.04 1.064 -1.618 0 -1.658zm-144.26 -198.616c0.014 -0.03 0.014 -0.05 0 0z" fill="#000000" stroke-width="1"></path><path d="M328.112 112.18c-8.324 -7.2 -19.486 -9.614 -29.084 -4.35 -17.66 9.71 -24.856 42.148 -28.048 62.096a240.2 240.2 0 0 0 -28.94 7.73c-4.514 0.112 -14.588 0.348 -15.11 0.368 -2.098 -4.142 -12.472 -3.216 -17.122 0.788 -4.766 1.028 -9.532 3.154 -10.916 7.832l-35.072 -0.226a8.764 8.764 0 0 0 -10.82 -1.638 35 35 0 0 1 -8.118 -3.326c-2.54 -41.636 -19.812 -74.168 -60.6 -67.266 -19.436 3.276 -33.286 14.672 -39.186 35 -4.172 14.38 -3.814 32.718 -1.014 45.78a0.676 0.676 0 0 0 0.4 0.584 47.06 47.06 0 0 0 4.6 2c28.688 11.146 64.47 9.06 95.378 -1.914 0.702 -0.254 0.632 -0.648 0.666 -2.8 0.298 0.166 3.368 1.88 3.696 1.936a8.84 8.84 0 0 0 16.378 1.74h35.76a18.432 18.432 0 0 0 3.66 4.08c1.294 4.828 3.736 9.31 8.624 10.138 6.882 1.186 18.772 -1.97 18.068 -8.312l5.52 -0.964a12.908 12.908 0 0 1 3.09 4.896 0.832 0.832 0 1 0 1.6 -0.442 14.846 14.846 0 0 0 -2.746 -4.8l3.082 -0.536c0.7 1.038 1.338 2.098 1.938 3.1a0.83 0.83 0 0 0 1.432 -0.84 71.146 71.146 0 0 0 -1.6 -2.566l1.542 -0.27c4.662 3.744 16.11 4.712 22.132 4.904 -0.126 2.308 -0.44 8.482 -0.44 11.916 0 0.2 0.064 0.27 0.216 0.47a72.974 72.974 0 0 0 25.746 16.104 37.142 37.142 0 0 0 0.93 4.4 0.842 0.842 0 0 0 0.8 0.6c0.452 0.012 0.902 0.022 1.362 0.042 -0.908 15.268 -0.966 15.32 -0.91 17.464 0.122 5.364 1.054 11.28 4.38 15.662 3.532 4.65 7.742 5.848 7.566 0.03 1.316 2.532 4.028 6.4 6.746 5.54 2.62 -0.834 1.936 -5.888 1.372 -8.58a10.814 10.814 0 0 0 1.842 2.018 3.578 3.578 0 0 0 4.924 0.286c2.556 -2.7 -0.674 -10.858 -2.18 -14.106 0.042 -0.158 1.2 -17.4 1.2 -17.618 2.366 0.054 2.426 0.372 3.286 -0.952a100.166 100.166 0 0 0 33.29 -7.76 0.852 0.852 0 0 0 0.6 -0.8c0.012 -31.902 -5.512 -96.288 -29.92 -117.438zM89.694 115.128C126.422 111.818 140.642 143.96 143.142 180.6c-17.32 -8.4 -42.098 -23.106 -42.742 -23.106a20.026 20.026 0 0 0 -15.534 -27.04 56.186 56.186 0 0 1 4.038 -14.148 5.376 5.376 0 0 1 0.79 -1.178zM45.6 194.28c-0.502 -2.268 -0.928 -5.3 -1.2 -7.6 -1.674 -13.988 -1.02 -29.68 4.218 -42.76 6.47 -16.13 19.416 -26.164 38.89 -28.57 -2.046 3.494 -3.58 10.986 -4.308 14.966a19.542 19.542 0 0 0 -1.67 39.044c0.012 4.2 0.554 33.136 0.574 33.556A107.622 107.622 0 0 1 45.6 194.28zm37 -26.534a17.902 17.902 0 1 1 0.964 -35.778 18.512 18.512 0 0 1 16.654 17.75 17.53 17.53 0 0 1 -17.618 18.028zm60.838 26.508c-22.2 7.732 -43.784 10.098 -59.648 8.784 -0.216 -6.86 -0.554 -30 -0.574 -33.634a18.252 18.252 0 0 0 11.444 -4.2c1.72 0.942 48.318 26.442 48.82 26.728 -0.01 0.762 -0.012 1.544 -0.042 2.322zM95.976 164.03a19.692 19.692 0 0 0 3.736 -5.046c6.828 3.938 34.03 19.03 43.562 23.528 0 0.216 0.2 2.768 0.226 7.524 -21.12 -11.556 -45.63 -25.02 -47.524 -26.006zm128.304 13.698c0.45 0.234 1.29 0.8 1.3 1.412 0.03 0.686 -1.558 0.898 -2.058 1 -2.6 0.54 -11.142 2.212 -13.514 1.032l-0.02 0.012v-0.032c1.15 -3.068 10.656 -5.386 14.292 -3.424zm-75.742 15.058c-1.126 -0.614 -2.252 -1.228 -3.38 -1.854a116.33 116.33 0 0 0 -0.174 -7.6 53.184 53.184 0 0 0 6.348 2.642 8.858 8.858 0 0 0 -2.794 6.812zm3.2 4.166a7.22 7.22 0 1 1 12.858 -4.514 7.264 7.264 0 0 1 -12.866 4.514zm14.148 -2.088a8.464 8.464 0 0 0 -0.85 -6.8l33.536 0.216a12.326 12.326 0 0 0 1.428 6.584zm55.964 13.8c-3.634 0.87 -9.34 1.296 -11.976 -1.36 -2.862 -2.88 -4.466 -8.728 -4.484 -12.756s1.362 -3.684 1.116 -3.684c2.478 0.618 6.63 9.03 7.698 11.352 0.388 0.85 1.832 0.246 1.514 -0.634a29.1 29.1 0 0 1 -1.852 -9.428c0.122 -2.124 1.078 -2.488 2.068 -2.028a9.152 9.152 0 0 1 3.49 4.514 29.366 29.366 0 0 1 1.668 4.188 0.83 0.83 0 0 0 1.6 -0.44c-0.568 -2 -1.718 -5.79 -0.736 -7.75 0.338 -0.686 4.448 -0.062 6.826 7.954a25.108 25.108 0 0 1 0.778 3.266c1.024 4.082 -4.686 6.09 -7.718 6.814zm10.658 -8.64a9.252 9.252 0 0 1 -1.512 0.564c-0.936 -4.964 -3.68 -11.374 -8.664 -11.814 -1.698 -0.148 -2.308 1.664 -2.366 3.37a8.712 8.712 0 0 0 -2.978 -3.318 2.97 2.97 0 0 0 -4.524 1.74 10.4 10.4 0 0 0 -0.082 4.638 36.36 36.36 0 0 0 -1.854 -2.784c-0.92 -1.24 -2.302 -3.184 -4.042 -3.2 -2.98 -0.016 -3 5.368 -2.48 8.542 -4.866 -5.2 -5.976 -12.8 1.948 -16.036 0.784 -0.32 1.574 -0.6 2.37 -0.836 -0.338 1.568 1.528 2.728 6.872 2.228a51.428 51.428 0 0 0 10.674 -2 50.304 50.304 0 0 1 6.75 2.4c-0.008 16.7 0.086 16.464 -0.12 16.514zm-5 -20.278v-0.082c4.258 -0.102 13.44 -0.328 13.768 -0.328a47.3 47.3 0 0 0 -0.37 6.024c-2.416 -1.76 -12.364 -5.302 -13.404 -5.606zm13.85 11.624c-1.748 -1.526 -5.044 -4.2 -7.082 -3.516V183.92a18.618 18.618 0 0 1 6.68 3.578 36.628 36.628 0 0 0 0.396 3.88zm-7.092 8.848v-0.776c0.318 0.2 0.63 0.4 0.93 0.612zm3.118 -0.546a14.56 14.56 0 0 0 -3.108 -2.124V194.32a11.944 11.944 0 0 1 6.52 4.764zm5.2 -0.91a14.274 14.274 0 0 0 -8.316 -6.118v-3.278a4.542 4.542 0 0 1 3.378 1.188 27.132 27.132 0 0 1 4.29 3.62 18.866 18.866 0 0 0 1.74 4.4zm3 -0.618a0.77 0.77 0 0 0 0.706 -1.2 30.732 30.732 0 0 0 -2.2 -2.824 44.354 44.354 0 0 1 -0.902 -4.366c0.188 0.228 0.372 0.46 0.55 0.7a0.864 0.864 0 0 0 1.136 0.296 0.834 0.834 0 0 0 0.296 -1.136 20.484 20.484 0 0 0 -2.316 -2.6 39.746 39.746 0 0 1 0.074 -7.898 240.822 240.822 0 0 1 27.8 -7.454c-1.72 11.21 -2.68 20.968 -3.348 31.572 -5.288 -0.162 -18.222 -1.19 -21.78 -5.082zm27.282 22.13c-1.546 -1.238 -2.958 -2.6 -4.4 -3.942 0 -0.92 0.124 -4.32 0.154 -5.098A80.312 80.312 0 0 0 291.668 226c0.358 2.612 0.8 5.276 0.83 5.476a74.92 74.92 0 0 1 -19.624 -11.194zm48.226 47.98c-0.102 1.28 -0.83 2.17 -2.182 1.618a10.026 10.026 0 0 1 -3.982 -4.76 31.4 31.4 0 0 1 -1.76 -3.84c-0.368 -0.982 -1.934 -0.572 -1.6 0.452 1.774 5.442 3.528 14.036 1.31 13.818 -3.11 -0.21 -6.642 -9.18 -7.618 -12.2 -0.326 -1.014 -1.924 -0.584 -1.6 0.44 0.734 2.33 2 7.172 1.526 9.336 -0.166 0.696 -0.234 1.078 -1.66 0.144 -5.232 -3.436 -6.708 -10.856 -6.888 -17.148 -0.076 -2.422 0.054 -3.07 0.912 -17.688 2.364 0.06 19.306 0.532 21.63 0.6 -0.41 5.742 -0.8 11.46 -1.2 17.182 -0.076 1.024 -0.074 0.67 0.388 1.72 1.13 2.558 2.974 7.49 2.732 10.334zm2.456 -32.226a15.54 15.54 0 0 1 -1.034 1.444c-1.162 -0.04 -26.424 -0.738 -27.292 -0.768a199.738 199.738 0 0 1 -3.868 -35.04 218.936 218.936 0 0 1 8.65 -68.302 0.83 0.83 0 0 0 -1.6 -0.44 226.18 226.18 0 0 0 -7 91.14 71.914 71.914 0 0 1 -22.674 -15.11c1.328 -27.232 7.024 -85.764 30.648 -99.452a22.772 22.772 0 0 1 22.912 0.522c27.54 15.79 33.258 82.438 34.016 114.214a84.232 84.232 0 0 1 -28.222 6.4c6.742 -17.672 4.624 -48.536 2.558 -67.236 -1.818 -16.428 -4.724 -32.642 -5.24 -34.816 -0.2 -1.012 -1.7 -0.624 -1.6 0.358 0.02 0.216 16.44 82.212 -0.246 107.094zm1.73 0.378a29.662 29.662 0 0 0 2.088 -4.062 90.162 90.162 0 0 0 28.95 -6.338c0 0.188 0.036 2.814 0.04 2.99a97.722 97.722 0 0 1 -31.07 7.418z" fill="#000000" stroke-width="1"></path><path d="M319.2 239.026c-0.41 5.742 -0.8 11.46 -1.2 17.182 -0.076 1.024 -0.074 0.67 0.388 1.72 1.122 2.558 2.966 7.49 2.724 10.334 -0.102 1.28 -0.83 2.17 -2.182 1.618a10.026 10.026 0 0 1 -3.982 -4.76 31.4 31.4 0 0 1 -1.76 -3.84c-0.368 -0.982 -1.934 -0.572 -1.6 0.452 1.774 5.442 3.528 14.036 1.31 13.818 -3.11 -0.21 -6.642 -9.18 -7.618 -12.2 -0.326 -1.014 -1.924 -0.584 -1.6 0.44 0.734 2.33 2 7.172 1.526 9.336 -0.166 0.696 -0.234 1.078 -1.66 0.144 -5.232 -3.436 -6.708 -10.856 -6.888 -17.148 -0.076 -2.422 0.054 -3.07 0.912 -17.688z" fill="#fcafb7" stroke-width="1"></path></svg>