<svg xmlns="http://www.w3.org/2000/svg" viewBox="0 0 400 400" height="400" width="400"><g fill="#000000"><path d="M385.7 131.54c-3 -6.9 -4.34 -8.46 -7.34 -15.4 -6 -13.58 -14.78 -27.46 -20.66 -41.08 -2 -4.36 -6.44 -12.96 -10.88 -12.48 -0.22 0 -79.38 -13.24 -79.64 -13.28v-16.22c0 -0.9 -0.3 -2 -1.2 -2.14 -19.7 -1.44 -19.46 -1.32 -21.86 -0.74 -4.68 0.82 -11.02 2.52 -11.42 2.46a0.98 0.98 0 0 0 -0.98 1.16c-0.2 0.62 0 9.28 0 9.6a58 58 0 0 0 -6.96 -1.02 6 6 0 0 0 -4.88 2c-9.74 9.14 -57.58 68.22 -62 73.82 -3.14 4 -3 6.92 -2.3 8.74a7.52 7.52 0 0 0 5.62 4.5c-0.2 3.46 -0.32 6.94 -0.38 10.4a3.88 3.88 0 0 0 -3.5 1.18A5.7 5.7 0 0 0 156 146a142.72 142.72 0 0 0 0 23.38 11.74 11.74 0 0 0 2.26 7.38c0.42 0.36 0.82 0.7 1.26 1.04 0 0.16 -0.44 12.68 -0.66 19.22a24.12 24.12 0 0 1 -7.52 1.04 19.08 19.08 0 0 1 -18 -14.72c-0.18 -0.88 -0.32 -1.78 -0.46 -2.7h0.42c3.1 0 2 -4.34 3.16 -5.86 0.78 -0.58 0.6 0 2 -0.92A9.7 9.7 0 0 0 142.38 170a4.14 4.14 0 0 0 -0.66 -5.2 4.46 4.46 0 0 0 -0.54 -6.24A9.78 9.78 0 0 0 134.54 156c-1.44 -7.74 -1.32 -7.56 -1.88 -8.38a2.4 2.4 0 0 0 -3.14 -0.18c-3.42 2.6 -1.22 9.54 -1.22 9.84 -1.88 -1.42 -2.14 -2.76 -3.52 -4.48a2.36 2.36 0 0 0 -3.76 -0.36 4 4 0 0 0 -0.7 3.2 13.32 13.32 0 0 0 4.68 8.72V168a7.18 7.18 0 0 0 1.64 4.2c0.98 1.06 1.26 1.34 1 2.32 -0.42 2.38 -0.96 2.7 -0.46 4a4 4 0 0 0 2.76 1.72 19.86 19.86 0 0 0 2.74 9.18 21.36 21.36 0 0 0 18 11.38 20.48 20.48 0 0 0 8.14 -1.12c-0.8 23.38 -1.58 47.58 -1.52 50.12a1.02 1.02 0 0 0 1.06 1c0.94 0.54 9.24 5.34 38.24 18.76a100.52 100.52 0 0 0 0.56 13.66c-3.04 0.72 -5.56 2.66 -5.8 4.26 -0.44 2.74 2.58 14.46 -14.56 29.26 -2 1.76 -1.48 3.74 0.2 4.56 6.92 3.38 15.78 0 18.56 -5.24a18 18 0 0 1 3.7 -4.98 8.34 8.34 0 0 0 0 1.4 2.9 2.9 0 0 0 2.4 2.2 3.08 3.08 0 0 0 2.96 -1.7 6.96 6.96 0 0 0 0.66 -3.44c0.36 -3.22 2 -5.72 0.64 -11.02 -1.54 -6.28 1.34 -9.7 0.3 -12a8.5 8.5 0 0 0 -6.3 -3.5 63.72 63.72 0 0 1 -0.64 -12.18c40.12 18.42 66.96 28 76.26 31.72a50.68 50.68 0 0 0 7.5 2.48c0.2 0 1.78 0.2 2.28 -0.6a42.8 42.8 0 0 0 7.8 -3.34c0.18 0 12.6 -5.86 21.48 -10a61.64 61.64 0 0 0 -6.4 22.2 87.8 87.8 0 0 0 0.4 18c-2.78 0.76 -5.3 2.44 -5.42 5.46 -0.16 3.74 0.22 14.3 -15 27.4 -2 1.74 -1.48 3.76 0.2 4.58a14.9 14.9 0 0 0 18.58 -5.26 17.04 17.04 0 0 1 3.68 -4.98 11.16 11.16 0 0 0 0 1.4 2.94 2.94 0 0 0 2.44 2.2 3.02 3.02 0 0 0 2.92 -1.7 6.76 6.76 0 0 0 0.66 -3.44c0.28 -2.54 0.86 -3.1 1.1 -5.88 0.24 -4 -0.7 -4.84 -1.02 -8.46 -0.16 -1.84 1.7 -7.22 1.18 -8.66s-3.3 -3 -6.56 -3.02a69.14 69.14 0 0 1 2.2 -30.58 102.4 102.4 0 0 1 4.26 -10.9c1.6 -0.76 42.58 -21.24 42.86 -21.38a89.06 89.06 0 0 1 -0.42 17.76 4.54 4.54 0 0 0 -2.96 1.34c-0.82 0.9 0 0.42 -1.26 5.56a63.64 63.64 0 0 1 -5.28 7.8c-2.48 2.38 0.12 4.34 2.22 2.66a6 6 0 0 0 1.9 -2.12 10 10 0 0 0 0.32 7.3c0.56 1.34 2 2 2.84 0.76s0.4 -4.36 0.64 -6c0.88 3.82 0.84 5.08 2.28 6.78a2 2 0 0 0 2.7 0.38 2.48 2.48 0 0 0 0.5 -1.74 18.6 18.6 0 0 0 -0.78 -5.14c1.68 5.7 4.7 5.16 4.56 2.44s-1.78 -5 -2.24 -7.62a22.66 22.66 0 0 1 0.8 -8.66 4.92 4.92 0 0 0 -3.38 -3.54A122.78 122.78 0 0 0 364 272c0 -1.72 -0.14 -3.44 -0.24 -5.16 5.84 -2.98 11.84 -6 17.5 -9.3a1.3 1.3 0 0 0 0.66 -1.44c0.16 -3.02 0.3 -11.54 0.32 -13.4 0 -3.28 3.38 -90.58 3.32 -93.36a29.4 29.4 0 0 0 3.68 -3.34c3.58 -4 -1.44 -9.36 -3.54 -14.46zM133.8 164.62a2.58 2.58 0 0 1 2.64 -1.88c0.84 0 1.26 0.52 1.66 1.22a4 4 0 0 0 1.12 1.1 7.7 7.7 0 0 0 -0.8 1.88c-1.42 2.18 -4.98 0.3 -4.62 -2.32zm23.66 -42.86c15.68 -19.1 14.34 -17.76 14.8 -17.76a8.56 8.56 0 0 0 6 -2.74 10.58 10.58 0 0 0 0 3.08 8.7 8.7 0 0 0 6.4 6.36l-7.06 8.92a30.78 30.78 0 0 1 -8.9 9c-5.98 3.86 -14.96 -1.2 -11.24 -6.86zm90.28 -90.42c0.78 0 10.8 0.92 12.84 1.08 -6.2 1.66 -9.26 2.32 -10.44 2.68 -0.46 -0.12 -9.64 -1.28 -12.78 -1.74 5.92 -1.24 8.64 -1.72 10.38 -2.02zm-41.38 201.56a6.2 6.2 0 0 1 0.34 -2.6 0.96 0.96 0 0 1 1.66 0 6.54 6.54 0 0 1 0.4 2.72v7.42a1.06 1.06 0 0 1 -2 0c-0.48 -1.2 -0.42 -0.96 -0.4 -7.54zm10.72 1.64a0.96 0.96 0 0 1 1.7 0c0.64 1.54 0.38 1.8 0.44 7.66a5.86 5.86 0 0 1 -0.24 2.78 1.1 1.1 0 0 1 -2 0 6.58 6.58 0 0 1 -0.36 -2.82c0.1 -6 -0.14 -6.16 0.46 -7.62zm162.6 -2.58c-0.32 7.68 -0.58 15.6 -0.36 23.38 -5.18 2.58 -10.16 5.28 -15.86 8.28 -0.38 -4.4 -0.9 -8.7 -1.44 -12.82a128.4 128.4 0 0 0 -5.46 -26.8l5.84 -2.24a1.26 1.26 0 0 0 0.78 -1.42c0.18 -3.26 2.14 -36.9 2 -38.74 1.2 -0.38 2.38 -0.78 3.52 -1.18a47.42 47.42 0 0 0 -0.14 4.98c0 1.32 2.2 1.32 2.34 0 0 -0.46 0 -4.72 -0.12 -5.76 1.08 -0.4 2.16 -0.82 3.18 -1.24a12.58 12.58 0 0 0 3.14 -1.42 3.54 3.54 0 0 0 1.28 -2.4c0.18 -1.02 0.56 -2 0.78 -3.12a1.34 1.34 0 0 0 -0.34 -1.58 1.22 1.22 0 0 0 -1.26 -0.18c-3.14 -0.48 -11.14 -1.88 -12 -2a2 2 0 0 0 -1.34 -2 9.44 9.44 0 0 0 -4.84 0.68c-20.86 5.04 -26.22 6 -38.86 9.74 -2.48 0.48 -27.46 9.06 -30 10 0.88 -16.62 1.22 -22.26 0.98 -30 13.84 -24.84 2 -6.4 28 -52.78 4.78 -1 38 -9.48 38.14 -9.54 4.4 9.12 24 50 25.7 53.46 -0.08 4.42 -1.34 30.74 -3.66 84.74zm-94 70c0 -34.44 2 -62.12 4.76 -112.8 11.76 -4.18 16.8 -6 25.42 -8.76 -0.42 4.74 -0.56 9.54 -0.7 14.22 0 2.24 -1.36 36.18 -1.42 38a22.18 22.18 0 0 0 0 6c0.66 2.28 5.1 0 40.18 -13.52a81.22 81.22 0 0 1 2.28 8 295.68 295.68 0 0 1 4.46 32c-36.66 19.08 -71.3 34.9 -74.94 36.78zM196.7 163.7c0.54 -0.3 1.88 0.16 2.88 0.58v1.24a9.4 9.4 0 0 1 -1.3 0c-1.86 -0.08 -2.06 -1.52 -1.58 -1.82zm26.12 28.64c0 -1.86 0.14 -19.82 0.34 -21.56a3.74 3.74 0 0 1 0.72 -2.88c0.76 -0.66 2.28 -0.34 3.34 -0.18 11 1.68 19.22 5.06 30.24 9.64a47.5 47.5 0 0 1 7.64 3.42 6.8 6.8 0 0 1 2.46 5.22 64.64 64.64 0 0 1 0 6.82c-0.14 2.94 -0.14 13.2 -0.38 16.16a6 6 0 0 1 -2.64 5.22 9.04 9.04 0 0 1 -6.2 0.14 211.78 211.78 0 0 1 -31.76 -12.56c-4.04 -2.12 -3.88 -6.36 -3.76 -9.44zM190.7 153.86a44 44 0 0 1 6.42 3.04A6.3 6.3 0 0 1 199.5 162c-2 -0.7 -4.14 -0.68 -4.98 1.36a3 3 0 0 0 0 2.58 2.78 2.78 0 0 0 2.18 1.42 11.58 11.58 0 0 0 2.76 0v0.96c0 7.38 -0.2 6.78 -0.22 11.12 0 1.28 0 2.48 -0.12 3.78a5.74 5.74 0 0 1 -2.42 5.02c-3.46 1.86 -8.66 -0.68 -12.26 -1.88a180.34 180.34 0 0 1 -22.6 -9.48c0.28 -11.74 0.54 -23.12 0.72 -32 9.72 1.26 18.96 5.38 28.14 8.98zm117.56 -74.62a8.56 8.56 0 0 0 4 8.72c-9.08 14.2 -12.18 18.16 -16.16 20a9.86 9.86 0 0 1 -10 -1.7c-4.26 -3.72 -1 -9.38 0 -10.98 2.98 -3.74 5.68 -7.64 8.58 -11.4 4.02 1.14 8.68 0.22 13.58 -4.64zM294.66 136a18.98 18.98 0 0 1 2.66 -7.6c3.06 -4.42 6.1 -9.02 8.82 -13.12a9.06 9.06 0 0 0 3.26 2c-3.86 7.12 -8 14.94 -12.7 23.9a6.2 6.2 0 0 1 -2.04 -5.18zm11.16 -34.76c2.82 -3.82 5.48 -8 8.34 -12.32a12 12 0 0 0 12.56 -2.34c-6.54 10.92 -10.98 18.94 -16.16 28.48 -4.86 -1.62 -7.64 -7.2 -4.74 -13.76zm-3.2 4a11.82 11.82 0 0 0 2 8.2c-8 12.22 -10.58 16 -13.3 19.26a10.42 10.42 0 0 1 -12.46 2.58 7.36 7.36 0 0 1 -4.86 -5.74 9.58 9.58 0 0 1 1.06 -5.16c0.26 -0.14 0.22 -0.12 12 -15.1a13.08 13.08 0 0 0 4.92 1.36c4.6 0.24 8.02 -2.32 10.64 -5.26zM263.66 132.2a17.22 17.22 0 0 0 8.62 -4.56 8.72 8.72 0 0 0 2 7.02 13.14 13.14 0 0 0 5.24 3.18c-3.04 4.5 -6 8.96 -9.08 13.28a21.84 21.84 0 0 1 -7.8 7.54 9.4 9.4 0 0 1 -10 -0.34 6.46 6.46 0 0 1 -1.54 -7.84c0.9 -1.96 0.14 -0.84 12.56 -18.28zm8 20.96c1.14 -1.5 1.42 -2 10.16 -14.68a11.64 11.64 0 0 0 6 -0.54 15.72 15.72 0 0 0 4.84 -3.48 8.48 8.48 0 0 0 2.86 8.68c-3.62 6.76 -7.24 13.42 -10.36 19.82a8.24 8.24 0 0 1 -2.9 2.54 10 10 0 0 1 -10.72 -1.58c-2.7 -2.58 -2.64 -6.14 0.2 -10.76zm-76.8 -23.28c2.56 -2.92 6.78 -9.3 9.72 -13.1A14.54 14.54 0 0 0 214.2 112a8.14 8.14 0 0 0 7.24 9.58c-2.28 3.14 -4.46 6.42 -6.84 9.56a30.36 30.36 0 0 1 -9.52 9.22c-6.14 3.34 -15.72 -1.02 -10.22 -10.48zM224 121.76a14.82 14.82 0 0 0 9.7 -4.8 8.2 8.2 0 0 0 6.84 9.64c-2.7 4 -5.56 8 -8.22 12 -4.2 6.44 -11.14 11.38 -17.66 7.2h-0.12c-2.68 -2.14 -2.62 -5.46 -1.26 -8.5 0.72 -1.78 9.48 -13.92 10.72 -15.54zm7.66 23.9a15.1 15.1 0 0 1 3.46 -6.86c1.62 -2.34 2 -2.66 8.16 -11.8a15.5 15.5 0 0 0 9.56 -4.16 8.14 8.14 0 0 0 8 9.3c-11.28 16 -12.82 18.84 -16.38 20.82 -6.04 2.8 -13.6 -0.96 -12.86 -7.3zm-28.78 -63.24a7.74 7.74 0 0 0 4 8.38s-6.36 8.14 -8.78 11.1c-3.36 4 -6.72 7.44 -11.84 7.02A6.84 6.84 0 0 1 180 104.44a7.72 7.72 0 0 1 1.72 -6.64 112.84 112.84 0 0 1 9.2 -10.98c4.36 1.04 8.7 -1.3 11.96 -4.4zm-7.06 25.1a7.72 7.72 0 0 0 6.54 9.1c-4.1 5.48 -8 12 -12.6 16 -5.3 4.56 -10.8 4 -14 0.84 -2.4 -2.78 -1.28 -6.34 0 -8.72 1.64 -1.88 1.82 -2.18 10.92 -13.74a14.46 14.46 0 0 0 9.14 -3.48zm168.66 72v-3.38l6 -1.64c0 0.74 -0.18 1.48 -0.2 2.94 -2.28 0.96 -4.08 1.56 -5.8 2.14zm-30.68 3.82a22.5 22.5 0 0 0 6.62 -1.2l3.82 -0.88v4c-1.8 0.52 -3.56 1.08 -5.3 1.72a10.46 10.46 0 0 1 -4.36 0.96c-1.12 -0.2 -0.58 -1.32 -0.78 -4.6zm12.2 -2.46 8.28 -2a28.18 28.18 0 0 0 0.16 3.66L346 184.76v-3.88zm10.18 -2.48 6.5 -1.68a24.68 24.68 0 0 0 0 3.44c-2 0.64 -4.2 1.28 -6.5 2 -0.08 -1.3 -0.08 -2.54 -0.04 -3.76zM364 174a69.7 69.7 0 0 0 -12.94 -2.32l4 -0.88c4.6 0.9 6.46 0.9 12.92 2.22 -4.36 1.2 -3.74 0.98 -3.98 0.98zm-17.38 -1.36c4.22 0.78 7.48 1.02 13.86 2.4l-4.84 1.24a95.16 95.16 0 0 0 -14.24 -2.5zm25.84 1.4c1.4 -0.38 2.8 -0.8 4.14 -1.22 -0.82 2.94 0.36 2.16 -4.3 4 0.12 -1.7 -0.04 -1.02 0.14 -2.82zm-35.86 0.76c5.7 0.88 8.26 0.86 15.32 2.42l-6.34 1.56c-0.38 -0.28 0.44 0 -10.24 -1.46l-6.14 -0.82c2.22 -0.62 0.98 -0.32 7.38 -1.72zm4.42 5.2c-9.52 2.44 -7.62 1.48 -19.26 -1.38l4 -1.12c4.98 1 10.12 1.84 15.26 2.5zm2.22 27.02a44.82 44.82 0 0 1 9.86 15.72c-3.2 1.26 -10.22 4.12 -10.58 4.28 0.02 -0.32 0.7 -19.74 0.72 -20.06zM371.8 172a5.14 5.14 0 0 0 -1.74 -0.5 29.5 29.5 0 0 1 -3.2 -0.6c-9.06 -1.84 -8 -0.34 -4.34 -1.84 0.64 0 2.8 0.64 11.76 2.18zm-53.38 7.64c2 0.66 4.14 1.22 6.2 1.78a54.3 54.3 0 0 0 7.7 2 13.44 13.44 0 0 0 0 4.94 2.7 2.7 0 0 0 2.6 1.64 21.48 21.48 0 0 0 7.42 -1.88c-0.8 8.8 -1.44 30.22 -1.76 39.76 -13.4 5.44 -16 6.26 -20 7.72a35.5 35.5 0 0 0 -4.38 1.52c0.24 -2.16 0 -3.76 0.24 -9.16 0 -0.28 1.32 -44.78 1.2 -48zm42.6 40.2c-1.8 0.62 -3.58 1.28 -5.36 2a40 40 0 0 0 -12.32 -17.38c0.22 -5.5 0.52 -11.16 0.36 -16.78 7.08 -2 10.14 -2.32 19.82 -5.32 -0.16 1.14 -2.16 30.88 -2.5 37.4zm-40 -118.56c3.88 -6.88 14.76 -25.86 20 -32.2C345.7 70.12 348 74 350 78c1.34 2.72 3.78 7.72 6.72 13.84 -1.02 0.28 -29.22 7.48 -35.7 9.36zm8.54 -20.36c-3.28 4 -7.08 7.42 -12.26 6.78a8.3 8.3 0 0 1 -7.08 -5 8.8 8.8 0 0 1 0.96 -6.82s10.84 -13.7 12 -15.12c9.7 1.52 17.46 2.68 20.88 3.12 -6.3 4.26 -8.06 9.26 -14.5 16.96zm-20.14 -6.26a20.22 20.22 0 0 1 -8.94 7.22c-3.36 1.06 -7.8 0.32 -9.64 -2.68l1.08 -1.58 -6.32 -1.62 -3.12 4.66 6.22 1.46 1.02 -1.5a8.82 8.82 0 0 0 2.7 2.32c-6 7.88 -11.02 16.48 -17.2 19.02l0.86 -1.26 -6 -1.54 -3.18 4.84 5.84 1.56c1.14 -1.66 0.6 -1 1.12 -1.16a19.48 19.48 0 0 0 8.24 -4.8 8.46 8.46 0 0 0 3.08 8.48c-4 5.04 -7.8 10.28 -12 15.14a18.78 18.78 0 0 1 -8.68 6.78 8 8 0 0 1 -2 0.3 8 8 0 0 1 -6.62 -2.3c-2.54 -2.82 -1.26 -6.48 -0.34 -8.32 0.72 -0.84 1.28 -1.56 2.34 -2.9a0.36 0.36 0 0 0 0.1 -0.22l6.12 1.8 4 -6 -5.74 -1.6 -3.06 4.6a0.5 0.5 0 1 1 -0.82 -0.56l2.88 -4.32 -6.48 -1.8 -2.88 4.2a0.5 0.5 0 0 1 -0.82 -0.56l2.68 -4 -6.34 -1.76 -4 5.6L256 116c-0.74 0.96 -1.36 1.72 -2 2.4a17.82 17.82 0 0 1 -8.74 6.42 8.16 8.16 0 0 1 -8.32 -2.26c-2.66 -3.06 -1 -7.02 0.18 -9.04 0.46 -0.54 1.88 -2.3 2 -2.5l3.48 1.02 4 -5.6 -6.42 -1.78 -4 5.48 0.86 0.26c-0.9 1.14 -1.88 2.32 -3.04 3.62a16.42 16.42 0 0 1 -8.56 5.72 8.12 8.12 0 0 1 -8.16 -2.58 7.5 7.5 0 0 1 0.32 -8.34c2.98 -4 3.66 -4.68 6.74 -8.58l-6.14 -1.72 -4 5.12 4 1.18a31.76 31.76 0 0 1 -8.88 8.86c-6.18 3.3 -14.9 -0.16 -10.56 -9.1 1.32 -1.48 1.32 -1.56 10.42 -13.04a10.88 10.88 0 0 0 5.26 0l-3.3 4 6.72 1.88 3.5 -4.4 -4 -1.1a0.5 0.5 0 0 1 0.26 -0.96L222 92l3.6 -4.52 -6.54 -1.72c-2.72 3.3 -1.68 2.14 -2.26 2.48 -6.56 4 -16 -0.26 -10.74 -9.28 0.2 -0.24 8.44 -10.56 10.26 -12.9 4.14 1.18 8.36 -0.24 12.62 -4.2a7.42 7.42 0 0 0 3.46 8 0.5 0.5 0 0 0 0.64 -0.14 4 4 0 0 1 0.46 -0.54l5.6 1.3L242.6 66l-6 -1.42 -3.2 3.88a6.84 6.84 0 0 1 -1.1 -0.82c-3.2 -2.96 -1.24 -7.32 -0.3 -9 2 -2.56 8 -10 8.84 -11.16l17.56 2.88 -8.4 10.58a0.52 0.52 0 0 0 0 0.48l-2.14 -0.44 -3.4 4.3 6.32 1.48 3.5 -4.42 -2.32 -0.5c0.2 -0.16 0.64 -0.86 8.82 -11.2l18.54 3.02 -9.32 11.48a0.52 0.52 0 0 0 0 0.56l-1.14 -0.24 -3.5 4.76 6 1.42 3.5 -4.9 -2.9 -0.6c9.7 -12.26 9.38 -11.66 9.5 -12.12l18.32 2.96c-0.18 0.2 -9.82 12.74 -10 12.96h-0.22l-3.46 5.2 6.28 1.48 3.6 -5.32 -4 -0.84c10.48 -13.62 10 -12.86 10 -13.06l18.52 2.94c-3.54 4.76 -7.26 9.66 -11.08 14.24zM250.26 37.2v3.7c-1.34 -0.36 -12.22 -2.3 -16.5 -2.62v-3.54c5.24 1.26 16.24 2.46 16.5 2.46zm14.94 -0.46c0 0.38 -2.76 0.36 -13 4 0 -1.44 0 -2.92 -0.14 -4.36 4.78 -0.68 12.9 -2.9 13.16 -2.98 -0.06 1.16 -0.04 2.26 -0.02 3.34zM210.2 58a7.5 7.5 0 0 0 4 7.32c-3.52 4.52 -7.16 9.34 -11.06 13.86a16.66 16.66 0 0 1 -7.88 5.64 6.68 6.68 0 0 1 -6.74 -1.26c0.12 -0.2 19.3 -22.84 21.68 -25.56zM179.78 97.44a13.66 13.66 0 0 1 -6 4.5l13.86 -16.92a6 6 0 0 0 1.7 1.22 127.38 127.38 0 0 0 -9.56 11.2zm-11.46 33.48 5.14 1.68c2 5.06 8.34 6.4 13.06 4.3l6 1.86c2.3 4.58 8.16 5.8 12.62 4l6.56 2a10.14 10.14 0 0 0 12.3 3.92l7.06 2.2a11.36 11.36 0 0 0 13.54 4.2l4.58 1.4c0 1.08 3.54 5.88 9.24 5.32a12.2 12.2 0 0 0 4.6 -1.08l5.34 1.62c0.9 2.92 6 6.66 11.3 6 4.84 -0.4 8 -4.52 10.12 -8.4 -0.12 1.88 -1.44 26.64 -1.48 27.46a88.8 88.8 0 0 1 -8.74 2.82 10.52 10.52 0 0 1 -5.72 -0.58 8.64 8.64 0 0 0 -3.44 -0.72 17.64 17.64 0 0 0 -0.9 -6.7 8.38 8.38 0 0 0 -4.88 -4.74c-4.8 -2.2 -10.12 -4.4 -16.72 -6.88a89.32 89.32 0 0 0 -22 -5.82A4 4 0 0 0 222 166a8 8 0 0 0 -1.34 4.58 8.94 8.94 0 0 0 -0.86 -1.2 7.54 7.54 0 0 0 -4.32 -1.74 55.68 55.68 0 0 1 -13.18 -4.46 16.78 16.78 0 0 0 -0.84 -4.94 7.86 7.86 0 0 0 -4.46 -4.48c-4.62 -2.16 -9.7 -4.24 -15.58 -6.34a89.34 89.34 0 0 0 -18.74 -5.28c0.1 -4.22 0.16 -7.76 0.18 -10.32a11.08 11.08 0 0 0 5.46 -0.9zM158 148c0 -2.96 1.1 -3.46 2.66 -3.4 0 0.86 -0.52 20 -0.88 30.68a9.48 9.48 0 0 1 -1.78 -6.5V148zm94.2 -101.2v-4c2.84 -0.8 1.88 -0.9 13 -3.8v10zm-18.44 -7.04c2.88 0.9 16.3 3.26 16.5 3.3s0 3.3 0 3.42l-16.58 -2.74a21.24 21.24 0 0 0 0.08 -3.98zM220.84 46a6.38 6.38 0 0 1 3.16 -2c4 0.84 9.48 2 14.54 2.98 -7.56 9.6 -10.46 13.84 -14.38 16.1 -7.2 4.2 -14.76 -1.62 -11.46 -8 -0.08 0.1 7.14 -8 8.14 -9.08zM161.82 179.28a18.38 18.38 0 0 0 2.92 1.36 220.6 220.6 0 0 0 23.8 9.48 17.08 17.08 0 0 0 6.52 1 6.94 6.94 0 0 0 5.14 -2.76 11.76 11.76 0 0 0 1.68 -6.56c0.16 -4.92 0.26 -10.3 0.34 -16.36 12.62 5.42 12.36 3.7 15.58 5.26 0.62 0.42 1.5 2.56 2.6 3.62a169.26 169.26 0 0 0 0.36 18.58 15.48 15.48 0 0 0 2.86 9.34 20.32 20.32 0 0 0 6.26 3.78 235.28 235.28 0 0 0 25.64 10.26 18.46 18.46 0 0 0 7.04 1.14 7.42 7.42 0 0 0 5.64 -3.04 12.34 12.34 0 0 0 1.68 -6.74c0.2 -5.56 0.4 -16.88 0.4 -16.88 2.44 0.28 4.72 1.84 7.56 1.84A32.92 32.92 0 0 0 288 190c-3.42 57.74 -5.18 84.18 -5 112.96 -5.36 -2.48 -22.2 -8.3 -45.24 -17.9 0.5 -19.68 0.8 -67.56 0.68 -72.82a0.66 0.66 0 0 0 -0.82 -0.62c-0.28 0 -22.74 -9.08 -22.96 -9.18s-1.28 65.64 -1.58 72l-2.74 -1.22c0 -0.2 1.74 -69.58 1.72 -72l-20 -8.14c-0.58 -0.24 -1.68 -0.96 -2.3 -0.74a0.58 0.58 0 0 0 -0.44 0.56c-0.24 9.5 -1.66 58.14 -2 69.66 -0.42 -0.2 -23.3 -11.32 -27.8 -13.4 1.08 -9.06 2.28 -69.66 2.3 -69.88zM201.46 290c0 -0.48 -0.78 -3.74 -1 -4.9a5.52 5.52 0 0 1 4 1.74c0.76 1.16 -0.24 2.26 -3 3.16zm-3.88 -4.66a48.38 48.38 0 0 0 1.16 5.04c-4.66 -0.18 -5.8 -1.26 -4.88 -3.1 0.5 -0.92 2.32 -1.58 3.72 -1.88zm114.46 48a6.92 6.92 0 0 1 3.52 1.16c1.08 0.78 0 2 -2.7 2.82 -0.36 -1.78 -0.56 -2.7 -0.86 -3.96zm-2 4.34c-3.8 -0.16 -5.42 -1.74 -4.3 -2.72a7.8 7.8 0 0 1 3.32 -1.36c0.36 1.38 0.68 2.74 1.08 4.1z" stroke-width="1"></path><path d="M321.46 209.28a61.72 61.72 0 0 0 9.2 13.18 0.76 0.76 0 0 0 1.16 -0.96 84.48 84.48 0 0 1 -9.24 -13.08 0.74 0.74 0 0 0 -0.98 -0.28 0.72 0.72 0 0 0 -0.14 1.14zm13.24 -3.16a0.74 0.74 0 0 0 1.34 -0.36c0 -0.62 -0.32 -0.7 -8.56 -13.18 -0.34 -0.54 -1.42 0 -1.08 0.6a86.78 86.78 0 0 0 8.3 12.94zM179.44 166.68a2.92 2.92 0 0 0 5.1 0 6.4 6.4 0 0 0 0.52 -3.46c0 -1.74 -0.22 -5.76 -1.4 -7.4a2 2 0 0 0 -3.34 0 18.62 18.62 0 0 0 -1.4 7.4 6.4 6.4 0 0 0 0.52 3.46zm63.9 22.46a4.44 4.44 0 0 0 1.18 -2.82v-7.68a3.28 3.28 0 0 0 -3.24 -3.16 3.32 3.32 0 0 0 -3.28 3.26v-0.1c0 1.48 -0.2 2.96 -0.2 4.44v3.16a4.46 4.46 0 0 0 1.16 2.9 3.1 3.1 0 0 0 4.38 0zm-33.74 -1.92a5.68 5.68 0 0 0 5.58 -2.4 2.8 2.8 0 0 0 0.6 -2.3 0.94 0.94 0 0 0 -1.6 -0.4 5.14 5.14 0 0 0 -0.84 1.34 3.54 3.54 0 0 1 -3.28 1.58 3.72 3.72 0 0 1 -2.88 -4c0 -1.2 -1.88 -1.46 -2 -0.22a5.46 5.46 0 0 0 4.42 6.4zm-132.3 13.88c0.12 -0.32 0.76 -2.68 0.78 -2.9a0.58 0.58 0 0 0 -0.32 -0.54h-0.24a10.3 10.3 0 0 0 -2.42 -0.32 0.68 0.68 0 0 0 -0.8 0.42c-0.12 0.22 -0.9 2.72 -0.94 2.96a0.56 0.56 0 0 0 0.4 0.58c2.24 -0.02 3.16 0.54 3.54 -0.2zm0.18 -2.98c-0.24 1.1 -0.7 2.28 -0.8 2.72a16.64 16.64 0 0 1 -2.68 -0.24c0 -0.44 0.66 -2.34 0.78 -2.78a10.2 10.2 0 0 1 2.7 0.3z" stroke-width="1"></path><path d="M74.62 200c0.14 0.66 0.86 0.32 0.74 -0.2s-0.86 -0.34 -0.74 0.2z" stroke-width="1"></path><path d="M82.96 177.38a26 26 0 0 0 -17.66 -16.18c-0.64 -0.24 -2.2 -0.52 -2.52 -0.98a8.16 8.16 0 0 1 0 -2.48 8.98 8.98 0 0 0 4 -0.74 5.44 5.44 0 0 0 3.5 -0.78 6.72 6.72 0 0 0 0.64 -3.56 15.46 15.46 0 0 0 0.82 -6.22 4.3 4.3 0 0 0 1.32 -5.1c0 -0.16 -0.42 -0.26 -0.54 -0.26h-0.88a22.28 22.28 0 0 0 0 -12.64c-2 -7.44 -13.88 -9.4 -20.66 -6.92a12.54 12.54 0 0 0 -6 4.88 21.66 21.66 0 0 0 -4.38 7.16 20.34 20.34 0 0 0 -0.12 9.44 57.3 57.3 0 0 0 3.58 10.32l4.18 0.68c0 0.22 -0.62 5.42 -0.64 5.64 -15.64 3.12 -26.54 16.74 -23.86 42a16.46 16.46 0 0 0 7.52 12.98 15.22 15.22 0 0 0 -0.94 2C28 220 26.94 225.14 26 229.3c-2 8.48 -2.38 14.46 -3.36 28.84 -1.54 22.5 -2.32 32.44 -11.7 70.64A29.4 29.4 0 0 0 9.6 340a15.32 15.32 0 0 0 6.4 10.3c-2.86 5.28 -6 8.18 -6 9.3 -0.22 1.9 2 2.76 3.82 2.82a7.08 7.08 0 0 0 5.32 -1.38 5.78 5.78 0 0 0 1.14 -1.58 2.7 2.7 0 0 0 3 0c1 -0.72 0.42 -1.56 0.84 -2.9a24 24 0 0 0 1.28 -5.48 16.66 16.66 0 0 0 8.8 -12.58c2.12 -9.14 2.28 -18.54 3.66 -27.74 2 -13.66 7.12 -29.54 12.7 -51.26 2.48 20 1.36 40.46 1.36 60.42a34 34 0 0 0 1.24 11.44 14 14 0 0 0 5.88 6.92 8.52 8.52 0 0 0 -0.52 5.24c1.6 4.48 0.72 5.52 2.56 5.78 0.42 0 1.46 0.3 2 0a1.36 1.36 0 0 0 0.46 -1.36 12.54 12.54 0 0 1 0.12 -1.4 8.34 8.34 0 0 1 3.18 2 5.76 5.76 0 0 0 3.54 1.22 41.8 41.8 0 0 0 5.32 -0.22 2.64 2.64 0 0 0 2.9 -1.84c0.64 -3.44 -4 -3.66 -5.46 -4.68a12 12 0 0 1 -3.68 -5.4c2.96 -3.2 4 -8.78 4.22 -10.92a72.5 72.5 0 0 0 -0.14 -13.66c-2.4 -29.92 7.26 -67.04 3.66 -89.4a25.76 25.76 0 0 0 -2.64 -8.86c1.84 0 2.52 0 3.22 -0.5 3.4 1.58 9.2 -1.18 11.32 -7.74a29.24 29.24 0 0 0 -0.56 -16.78 93.22 93.22 0 0 0 -5.58 -12.38zM71.82 145v-2.96l0.64 -0.16a3.86 3.86 0 0 1 -0.64 3.12zm-5.2 -2.26h0.52a0.82 0.82 0 0 0 0.82 0.8 0.8 0.8 0 0 0 0.78 -0.8c0 -0.22 -0.28 0 1.06 -0.3 0 1.18 0.14 2.34 0.16 3.52a3.62 3.62 0 0 1 -3.34 -3.22zm-6.92 0.64a0.78 0.78 0 0 0 1.52 -0.18c0.64 0 1.26 -0.18 1.9 -0.3a4.2 4.2 0 0 1 -0.46 2.24 3.18 3.18 0 0 1 -6.14 -1.14c0 -0.52 -0.1 -0.38 0.16 -0.46a10.76 10.76 0 0 0 3.02 -0.16zM76 177.6a30.82 30.82 0 0 0 -5.28 -12.22 27.86 27.86 0 0 1 4.38 3.24 30.6 30.6 0 0 1 5.3 7.78c3.58 7.28 7.74 15.36 7.54 24.34a17.08 17.08 0 0 1 -2.16 8.2 6.68 6.68 0 0 1 -6.86 3.44c0.74 -2 1.38 -4.18 2 -6.26a6 6 0 0 0 3.52 -3.06 5.42 5.42 0 0 0 -1.1 -5.4c0.44 -0.32 0.44 -0.6 0.26 -1.08s-1.5 -0.76 -2.4 -0.9a2 2 0 0 0 -3.6 -1.48 6.88 6.88 0 0 0 -0.44 1.02c-1.26 -0.12 -2.3 -0.16 -2.98 -0.16a1.64 1.64 0 0 0 -1.62 0.72 69.08 69.08 0 0 0 -2.76 8.56 4 4 0 0 0 -1.18 0.24c1.08 -3.8 2.62 -8.94 2.8 -9.5 0.38 -1.16 1.3 -1.16 2.52 -1.02 0.72 0 1.46 0.1 2.28 0.18a2.44 2.44 0 0 1 1.74 -1.52A24 24 0 0 0 76 177.6zm0.92 168.8c0.48 1.02 -0.42 1.1 -2 1.22 -6.82 0.44 -5.68 -0.24 -8 -1.8a6.48 6.48 0 0 0 -3.34 -1.5 0.88 0.88 0 0 0 -0.88 0.88 7.04 7.04 0 0 1 -0.14 2.44 8.68 8.68 0 0 1 -1.08 -0.18 46.28 46.28 0 0 1 -1.54 -5.66 19.86 19.86 0 0 1 0.5 -2.82 7.66 7.66 0 0 0 8 -0.22 14.94 14.94 0 0 0 2.14 3.5 8.68 8.68 0 0 0 3 2.52c0.78 0.5 2.8 0.74 3.24 1.62zM36.56 222c-1.76 -0.68 -4.52 -2.36 -4.62 -4.78a9.82 9.82 0 0 1 0.86 -1.78 15.12 15.12 0 0 0 4.8 1.2c2.84 0.26 5.68 0.48 8.5 0.48a74 74 0 0 0 17.26 -2 7.26 7.26 0 0 1 5.12 0 15.7 15.7 0 0 0 4.34 0 29.24 29.24 0 0 0 1.1 3.38c-2.32 6.04 -18.42 12.62 -37.36 3.5zM42 163.4c5.4 0.82 8.36 8.78 9.06 14.24a38.46 38.46 0 0 1 0.26 6.52c-1.46 -0.36 -2.9 -0.8 -4.34 -1.3v-2.24a0.78 0.78 0 0 0 -0.52 -0.82 0.74 0.74 0 0 0 -0.94 0.78c-0.42 3.32 -0.54 6.74 -0.98 10 -1.36 10.36 -2 9.76 -1.6 10.5a0.9 0.9 0 0 0 0.78 0.46c5.24 0.12 9.76 2.38 14.78 4 0.3 0.12 4.4 1.46 4.72 1.48s1.7 0.72 2.36 0.44c1.84 -0.42 2 -1.26 3.44 -1.72 -0.18 0.34 -0.2 1.4 0.24 1.72s5.46 -1.06 5.86 -0.16 -1.24 1.24 -2.86 1.26a0.58 0.58 0 1 0 0 1.14c2.7 0 3.4 -0.6 3.52 0.16 0.16 1.14 -2.92 1.32 -3.18 1.36 -0.8 0 -0.86 0.96 0 1.06 0.48 0 2.32 -0.82 2.46 0s-1.74 0.64 -2.16 0.78a15.74 15.74 0 0 1 -5.72 -0.18 3.08 3.08 0 0 0 -2.52 0 84 84 0 0 1 -22.72 2c-3.88 -0.22 -8.3 -0.48 -11.18 -3.02a15.48 15.48 0 0 1 -4.9 -9.38c-1.88 -12 0.18 -23.28 5.62 -30.8A27.42 27.42 0 0 1 42 163.4zm36.16 31.84c0.28 -0.64 0.5 -0.92 1.02 -0.88s0.76 0.52 0.8 1.1zm4.6 4a4.2 4.2 0 0 1 0.14 3.26 3.02 3.02 0 0 1 -1.54 1.66c0.12 -0.36 1.08 -3.64 1.4 -4.82zm-7.2 12.22a7.04 7.04 0 0 0 0.82 -0.72c0.62 -0.74 0.54 -1.78 -0.44 -2h-0.12a2 2 0 0 0 0.54 -0.84 1.3 1.3 0 0 0 -0.44 -1.34c-1.32 -1.26 -4 -0.26 -5.36 -0.54a7.7 7.7 0 0 0 0.28 -1.14c2.28 -7.82 2.6 -8.28 3.1 -8.42a39.28 39.28 0 0 1 8.2 0.84 17.48 17.48 0 0 1 -0.74 2.42c-0.94 3.14 -2.22 7.3 -3.6 11.52 -0.24 0.72 -0.42 2.12 -1.1 2.16h-1.12a1.32 1.32 0 0 0 -0.02 -1.84zm-53.06 144.64a13.84 13.84 0 0 1 -0.18 1.62c0 0.32 -0.68 0.36 -1.08 0.26l0.2 -1.56c0 -0.72 -0.44 -1.04 -1 -0.48a12.3 12.3 0 0 0 -1.84 2.92 4 4 0 0 1 -3.48 1.68c-2.7 0 -3.28 -0.5 -3.4 -0.72s0.12 -0.66 0.64 -1.24a42.94 42.94 0 0 0 5.18 -7.46 9.1 9.1 0 0 0 6.14 0.58c-0.14 1.5 -0.58 1.62 -1.18 4.4zM49.66 141.12c1.86 0 2.1 2 2.26 3.26a34.7 34.7 0 0 0 1.62 6.34 1.4 1.4 0 0 0 0.22 0.46 0.4 0.4 0 0 0 0.46 0 27.24 27.24 0 0 1 0.18 -9.36 44.14 44.14 0 0 0 1.34 -9.82c2.72 3.18 6.98 2.44 11.6 6.36 -0.92 0.32 -0.52 1.1 0 1.12s0.76 0 1.24 0a15.12 15.12 0 0 1 1.18 1.36 4.92 4.92 0 0 0 0 0.56l-1.02 0.12a0.8 0.8 0 1 0 -1.58 0v0.18c-1.02 0 -1.1 0 -1.4 0.36h-0.24c0 -0.18 -0.16 -0.34 -0.22 -0.52s-0.74 -0.14 -0.64 0.22 0 0.16 0 0.24a2.52 2.52 0 0 0 -0.86 0.26 0.34 0.34 0 0 0 -0.28 0 21.8 21.8 0 0 1 -2.38 0.12 2.96 2.96 0 0 0 0 -0.42c0 -1.46 -1.52 -0.86 -1.56 -0.32a4.12 4.12 0 0 0 0 0.86l-2.98 0.12c-0.64 0 -1.54 0.18 -1.28 0.82a5.52 5.52 0 0 0 1.2 3.56c2.32 2.8 7.4 0.92 7.38 -3.24a0.32 0.32 0 0 0 0.2 -0.28 1.34 1.34 0 0 1 0.96 -0.32 20.28 20.28 0 0 0 2 3.4c0 0.24 0.76 0.68 -1.12 0.88 -0.68 0 -1.64 0.16 -1.4 0.8a0.4 0.4 0 0 0 0.34 0.28 6 6 0 0 0 1.44 -0.14 2.68 2.68 0 0 0 1.12 -0.32 1.36 1.36 0 0 0 0.78 -1c0 -0.5 -0.24 -0.48 0.16 -0.3a3.32 3.32 0 0 0 1.5 0.36 10.44 10.44 0 0 1 -1.6 6.88A7.22 7.22 0 0 1 62 156a0.88 0.88 0 0 0 -0.86 0.84 31.46 31.46 0 0 0 0 4.12 0.92 0.92 0 0 0 0.58 0.76c1.32 0.52 2.68 0.98 4 1.42A16.68 16.68 0 0 1 72 170.92a0.82 0.82 0 0 0 -0.68 1.2 48.82 48.82 0 0 1 4.48 10 16.48 16.48 0 0 1 -8.44 2.98 14.18 14.18 0 0 0 -1.8 -5.56c-0.4 -0.96 -1.8 0 -1.18 0.68a20.96 20.96 0 0 1 1.62 5.14 44.2 44.2 0 0 1 -13.04 -0.82 30 30 0 0 0 -2.42 -14.84c-1.18 -2.82 -3.5 -6.2 -6.4 -7.14a28.22 28.22 0 0 1 4 -1.08 0.92 0.92 0 0 0 1.1 -1.18c0.2 -0.88 0.42 -5.64 0.44 -6.26a63.74 63.74 0 0 0 0.52 -6.8c-2.2 -1.02 -2.96 -5.82 -0.54 -6.12z" stroke-width="1"></path><path d="M59.06 140.44c0.84 0.24 1.1 -0.34 2.46 -0.34 0.82 0 0.52 -1.22 0 -1.22a4.5 4.5 0 0 0 -2 0.2c-0.88 0.36 -1.18 1.12 -0.46 1.36zM63.78 152a2.48 2.48 0 0 0 2.56 1.5c1.42 -0.48 1.08 -2.7 0 -1.68a1.5 1.5 0 0 1 -0.72 0.34 1.74 1.74 0 0 1 -1.06 -0.54 1.1 1.1 0 0 1 -0.14 -0.62 8.98 8.98 0 0 0 2.74 -0.22 0.32 0.32 0 0 0 0.22 -0.28c0 -0.4 0 -0.64 -0.24 -0.7s-0.1 -0.28 -0.2 -0.34a0.52 0.52 0 0 0 -0.82 0.22l-0.2 -0.18a0.74 0.74 0 0 0 -0.68 0l-0.34 0.16a3.76 3.76 0 0 1 -0.68 0 0.76 0.76 0 0 0 -0.68 0.44 2.46 2.46 0 0 0 0.24 1.9zm-0.24 66c0.78 -0.76 -0.52 -2.16 -1.38 -0.82a3.58 3.58 0 0 0 -0.42 2.46c0.2 0.52 0.72 1.16 1.26 1.16a0.72 0.72 0 0 0 0.62 -1.08 1.36 1.36 0 0 1 -0.08 -1.72zm19.16 -170.82c-15.64 6.62 -21.66 23.66 -14.18 38 4.24 8.12 12.62 13.58 25.58 16.72l-1.78 13.6a1.06 1.06 0 0 0 2 0.52A50.14 50.14 0 0 1 100 106.4a17.12 17.12 0 0 1 8.8 -5.3c6.44 -1.64 12.46 -3.3 18 -7.02a22.38 22.38 0 0 0 10.46 -20.28C136.52 47.24 106 36.64 82.7 47.18zm52 32a20.9 20.9 0 0 1 -10 13.64C113.26 100 104.62 97.28 98.42 105a44.2 44.2 0 0 0 -3.2 4.7l1.14 -8.7a1.08 1.08 0 0 0 -0.82 -1c-8.12 -2 -18.18 -5.12 -23.8 -13.28a25.4 25.4 0 0 1 -2.52 -24.24c5.48 -12.62 20 -17.28 31.78 -17.44 24.16 -0.72 36.38 17.14 33.72 34.18z" stroke-width="1"></path><path d="M88.5 62.48a6.14 6.14 0 0 0 -6.12 0C78.52 65.02 78 70.18 80 74.34a4.54 4.54 0 0 0 0.84 1.36c-0.28 0.2 -0.24 0.36 -0.12 0.44 0 1.52 -0.32 3.08 -0.22 4.86a0.94 0.94 0 0 0 1.26 0.92c0.2 0 4 0.34 4.9 0.34a1.1 1.1 0 0 0 0.94 0 0.5 0.5 0 0 0 0 -0.72 20.98 20.98 0 0 0 0.4 -5.6 0.56 0.56 0 0 0 0.32 -0.24 17.58 17.58 0 0 0 2.66 -7.44 6.28 6.28 0 0 0 -2.48 -5.78zm-1.34 16.54a33.58 33.58 0 0 0 -5.42 0v-0.84c1.64 0 4.7 0.18 5.42 0zm-5.44 -1.72v-1.16h5.46v0.96a21.42 21.42 0 0 0 -5.46 0.2zm1.56 -2.8c-0.34 -1.08 -0.74 -2.4 0.22 -3.14s2.3 0.42 1.5 2.36a2.72 2.72 0 0 0 -0.42 1.38h-0.96c-0.32 -0.5 -0.26 -0.36 -0.34 -0.6zm4.24 0.34 -2 0.18a2 2 0 0 0 0.48 -0.86 3.2 3.2 0 0 0 -0.62 -3.62A2.18 2.18 0 0 0 82 72a4.64 4.64 0 0 0 0.6 2.92c0 0.32 0.44 0.14 -0.98 0.32a14.74 14.74 0 0 1 -1.7 -6c0 -4.22 3.68 -7.8 7.54 -6A4.86 4.86 0 0 1 89.74 68c-0.26 3.02 -1.12 3.48 -2.22 6.84zm-5.82 6.18v-1.34a43 43 0 0 0 5.4 0.38v1.06c-0.24 -0.04 -5.1 -0.1 -5.4 -0.1zm19.2 -17.02a0.5 0.5 0 0 0 0 0.24S100 77.12 100 77.32v2a5.5 5.5 0 0 0 0 2.14 0.44 0.44 0 0 0 0.74 0.26 73.58 73.58 0 0 0 8.74 0.52 1.86 1.86 0 0 0 0.88 0h0.22a0.68 0.68 0 0 0 0.44 0c2.16 0.36 1.42 0.46 8.92 0.46a1.88 1.88 0 0 0 1.1 -0.32c1.18 0.56 3.46 1.28 4.74 1.72h0.28a0.76 0.76 0 0 0 0.72 0 0.66 0.66 0 0 0 0.24 -0.38 8 8 0 0 0 0.14 -2.56 75.74 75.74 0 0 1 0.2 -8c0.22 -1.74 0.26 -3.46 0.4 -5.2a11.68 11.68 0 0 0 0 -5.06 0.56 0.56 0 0 0 -0.72 -0.7c-0.64 0.18 -5.1 2.18 -5.88 2.58 -0.36 -0.24 -0.84 -0.18 -2.26 -0.18a54.56 54.56 0 0 0 -6.62 -0.42 0.66 0.66 0 0 0 -0.64 -0.42c-6.54 0 -6.46 -0.56 -10.44 -0.32a0.4 0.4 0 0 0 -0.3 0.56zm24.92 14.98a24.66 24.66 0 0 0 0 4l-3.54 -1.1a1.36 1.36 0 0 1 -0.44 -0.12l-0.5 -0.12v-8.18a60 60 0 0 0 0 -7.58l5.6 -2.14c-0.04 5.2 -1.06 6.6 -1.12 15.2zM120.3 66h0.4a48.2 48.2 0 0 0 -0.48 7.2c0 2.74 -0.14 5.44 -0.14 8.16 0 0.3 0.16 0.1 -0.4 0.2a71.08 71.08 0 0 0 -8 0.1c0 -0.82 0 -0.4 0.78 -16.56a70.2 70.2 0 0 0 7.84 0.9zm-10 15h-4.56a45.62 45.62 0 0 0 -4.68 0 10.52 10.52 0 0 0 0.22 -3.26c0 -2 0.24 -5.5 0.36 -13.18a16 16 0 0 0 4.44 0.7c1.5 0.14 3.12 0.22 4.8 0.26 -0.14 2.74 -0.58 12.48 -0.68 15.5z" stroke-width="1"></path><path d="M108.12 74c0 0.52 0.12 0.92 0.64 0.92s0.68 -0.52 0.58 -0.98a2 2 0 0 0 -0.1 -0.76 10.16 10.16 0 0 1 0 -1.56 0.54 0.54 0 0 0 -1.02 -0.28c-0.22 0.2 -0.1 0.88 -0.1 2.66zm16.92 0.48a13.06 13.06 0 0 0 0 -2 0.48 0.48 0 0 0 -0.74 -0.18 0.2 0.2 0 0 0 -0.16 0.14 4.76 4.76 0 0 0 -0.32 2 7.68 7.68 0 0 0 0 0.96c0 0.3 0 1 0.58 1.06s0.66 -1.18 0.64 -1.98zm-48.08 -7.82a16.86 16.86 0 0 0 -1.56 -0.8c-1.02 -0.44 -1.26 -0.6 -1.58 -0.48a0.5 0.5 0 0 0 -0.28 0.62c0.14 0.36 0.56 0.46 2.26 1.14l0.84 0.26a0.4 0.4 0 0 0 0.32 -0.74zm3.38 -5.32c-0.78 -1.5 -0.58 -1.08 -1 -1.88 -0.2 -0.38 -0.52 -0.72 -0.9 -0.5s-0.2 0.58 -0.14 0.76a12.64 12.64 0 0 0 1.14 2.1c0.42 0.46 1.02 -0.26 0.9 -0.48zm7.94 -1.82a8.52 8.52 0 0 1 0.98 -2.3 2.58 2.58 0 0 0 0.4 -0.92c0 -0.6 -0.84 -0.72 -1.3 0.36a6.28 6.28 0 0 0 -0.74 2.86 0.34 0.34 0 0 0 0.66 0zM96 63.38c-0.42 0 -0.4 0 -2.42 1.08 -0.66 0.32 -0.16 1 0.44 0.64l2 -0.76c0.48 0 0.84 -0.9 -0.02 -0.96zm-21.14 135a2.34 2.34 0 0 0 0 0.44 0.18 0.18 0 0 0 0.18 0.18h0.64c0.1 0 0 -0.46 0 -0.56a0.18 0.18 0 0 0 -0.2 -0.2c-0.22 -0.08 -0.62 -0.24 -0.62 0.14zm1.96 0.68c0.12 0 0.16 -0.12 0.16 -0.24a4.48 4.48 0 0 0 0 -0.52h-0.3c-0.12 0 -0.36 -0.12 -0.46 0a1.5 1.5 0 0 0 0 0.58c-0.06 0.28 0.02 0.16 0.6 0.18zm-1.04 1.14c0 0.4 0.26 0.22 0.62 0.22s0.16 0 0.18 -0.14 0 -0.64 0 -0.66 -0.54 0 -0.7 0a0.48 0.48 0 0 0 -0.1 0.58zm205.66 -132.06 -5.46 -1.16 -3.52 4.9 5.54 1.3 3.44 -5.04zm1.06 0.22 -3.46 5.06 6.12 1.44 3.46 -5.2 -6.12 -1.3zm-21.24 -4.52 -5.98 -1.26 -3.52 4.44 5.9 1.38 3.6 -4.56zm1.8 19.46 -6.2 -1.48 -3.6 4.9 6.22 1.56 3.58 -4.98zm0.2 -13.58 3.48 -4.72 -4.38 -0.92 -3.62 4.58 4.52 1.06zm-5.76 11.24 6.18 1.46 3.16 -4.42 -6.12 -1.44 -3.22 4.4zm0.74 9.08 -6.26 -1.58 -3.04 4.12 6.3 1.64 3 -4.18zm7.02 1.78 -5.98 -1.52 -3 4.2 6.06 1.58 2.92 -4.26zm-15.36 -3.9 -5.34 -1.34 -3.18 4.02 5.48 1.44 3.04 -4.12zm4.84 -6.6 -5.08 -1.2 -3.74 4.74 5.24 1.32 3.58 -4.86zm-4.38 -2.06 5.02 1.2 3.22 -4.4 -4.82 -1.12 -3.42 4.32zm-15.84 9.56 5.8 1.5 3.18 -4.02 -5.82 -1.48 -3.16 4zm4.52 -5.72 5.82 1.48 3.74 -4.7 -5.9 -1.4 -3.66 4.62zm39.86 2.94 6.16 1.46 3.04 -4.48 -6.2 -1.46 -3 4.48zm-8.14 12.24 5.92 1.54 2.96 -4.36 -6 -1.52 -2.88 4.34zm-7.76 11.62 5.74 1.58 3.42 -5 -5.84 -1.56 -3.32 4.98zm6.96 -24.96 -5.86 -1.38 -3.58 4.98 5.94 1.52 3.5 -5.12zm4.86 7.22 6.02 1.54 3.6 -5.32 -6.12 -1.46 -3.5 5.24zm-36.5 -20.86 -6.18 -1.46 -3.52 4.26 6.3 1.5 3.4 -4.3zm-9.02 11.4 -6.44 -1.62 -3.18 3.86 6.5 1.7 3.12 -3.94zm4.94 -6.24 -6.34 -1.5 -3.64 4.42 6.4 1.6 3.58 -4.52zm-28 24.76 6.82 2.02 4.04 -5.1 -6.76 -1.88 -4.1 4.96zm69.02 -22.26 6.18 1.46 3.12 -4.68 -6.12 -1.44 -3.18 4.66zm5.6 2.34 -6.22 -1.46 -3.04 4.46 6.26 1.5 3 -4.5zm-52.36 13.52 -6.2 -1.66 -3.48 4.42 6.14 1.7 3.54 -4.46zM250 67.64l-6.32 -1.48 -3.6 4.52 6.32 1.5 3.6 -4.54zm27.28 19.04 -6.28 -1.5 -3.5 5.14 6.3 1.58 3.48 -5.22zm-17.82 15.36 6.42 1.72 3.26 -4.88 -6.38 -1.66 -3.3 4.82zm6.82 -9.96 -2.92 4.26 6.36 1.66 2.9 -4.32 -6.34 -1.6zm-7.42 10.84 -3.32 4.88 6.46 1.8 3.3 -4.96 -6.44 -1.72zm-12.18 -42.18 -6 -1.28 -3.42 4.16 6.02 1.42 3.4 -4.3zm15.06 36.22 -6.1 -1.6 -3.4 4.76 6.2 1.66 3.3 -4.82zm-36.42 3.46 -4.12 5.22 5.8 1.72c0 -0.26 -0.22 0 4 -5.34zm26.3 0.56 -3.42 4.78 6.32 1.76 3.32 -4.86 -6.22 -1.68zm-23.7 6.64 6.16 1.82 4 -5.46 -5.96 -1.66 -4.2 5.3zm16.3 -8.6 -3.44 4.68 6.4 1.78 3.4 -4.76 -6.36 -1.7zm-4.58 -7.84 -5.8 -1.5 -3.62 4.56 5.78 1.54 3.64 -4.6zm3.74 -13.58 5.9 1.4 3.42 -4.32 -5.9 -1.4 -3.42 4.32zm-11.66 3.66 6.24 1.58 3.66 -4.62 -6.3 -1.5 -3.6 4.54zm10.6 -3.9 3.4 -4.32 -6.32 -1.5 -3.4 4.32 6.32 1.5zm11.06 -3.54 3.6 -4.54 -5.9 -1.4 -3.6 4.54 5.9 1.4zm20.82 4.9 3.18 -4.66 -5.54 -1.3 -3.32 4.62 5.68 1.34zm-16.14 -9.2 -3.6 4.54 4.78 1.14 3.38 -4.6 -4.56 -1.08zm3.3 6.18 6.12 1.42 3.3 -4.6 -6.04 -1.42 -3.38 4.6zm-34.12 11.22 6.22 1.62 3.14 -3.98 -6.24 -1.58 -3.12 3.94zm9.14 10 -3.6 4.54 5.94 1.66 3.42 -4.66 -5.76 -1.54zM226 99.58l5.74 1.6 3.6 -4.54 -5.78 -1.54 -3.56 4.48zm20.22 -6.68 -5.52 -1.44 -3.64 4.6 5.72 1.54 3.44 -4.7zm8.4 2.2 -6.3 -1.66 -3.46 4.7 6.36 1.7 3.4 -4.74zm18.98 -15.5 -5.7 -1.34 -3.16 4.42 5.82 1.38 3.04 -4.46zm-40.82 9.8 -6.22 -1.62 -3.58 4.52 6.2 1.66 3.6 -4.56z" stroke-width="1"></path></g></svg>