<svg xmlns="http://www.w3.org/2000/svg" viewBox="0 0 400 400" height="400" width="400"><defs></defs><path d="M387.2 141.578a442.958 442.958 0 0 0 -10.376 -59.816c-2.886 -11.776 -5.81 -23.572 -9.816 -35.028 -2.908 -8.318 -8.768 -31.876 -20.162 -28.688 -4.034 1.13 -8.514 4.984 -12.112 7.092l-165.08 96.65c0.032 0.01 0.066 0.012 0.1 0.022a5.942 5.942 0 0 1 3.076 2.71 21.112 21.112 0 0 1 2.238 5.304 29.2 29.2 0 0 1 1.286 5.71 6.164 6.164 0 0 1 -2.112 5.12c-1.318 1.118 -2.816 1.42 -6.766 2.646a19.358 19.358 0 0 1 -5 9.436c0.258 3.876 0.54 7.75 0.692 11.632 0.22 0.146 0.44 0.306 0.66 0.476a0.78 0.78 0 0 1 1.3 -0.4c0.382 0.372 0.74 0.768 1.096 1.162a49.4 49.4 0 0 1 4.386 5.672c1.79 1.524 7.938 6.568 9.2 7.586 1.114 -1.082 2.366 -2.284 3.704 -3.55 1.8 -1.866 3.54 -3.782 5.368 -5.6a47.894 47.894 0 0 1 13.654 -10 0.814 0.814 0 0 1 0.946 0.122c0.122 0.112 0.238 0.226 0.356 0.342 0.228 0.222 0.444 0.458 0.668 0.684 1.356 -1.256 11.478 -10.376 17.916 -8.89 6.91 1.6 -3.278 7.8 -3.278 7.8s3.278 0.62 2.746 5.316a8.056 8.056 0 0 1 2.936 5.138c0.218 2.66 -7.162 7.134 -9.27 8.356a2.66 2.66 0 0 1 0.18 1.224 3.778 3.778 0 0 1 -0.888 1.478c-0.16 0.2 -12.248 13.876 -12.462 14.106a135.3 135.3 0 0 0 19.834 11.08c2.032 0.894 4.584 1.414 5.826 3.422a4.6 4.6 0 0 1 0.6 1.524l0.118 -0.346s16.942 0.132 18.04 2.79 -7.4 4.386 -7.4 4.386 7.108 0.266 7.4 3.056 -8.2 2.258 -8.2 2.258 6.246 2.526 5.45 4.652 -15.284 0.664 -19.8 -3.854l0.078 -0.226a12.132 12.132 0 0 1 -2.682 2.212 9.896 9.896 0 0 1 -4.506 1.5 10.66 10.66 0 0 1 -1.102 0q7.246 7.428 14.46 14.894c11.776 12.262 39.91 42.684 42.4 45.446 0 0 50.436 58.298 54.032 62.536 5.112 6.026 11.748 13.91 18.334 4.658q4.122 -5.8 7.8 -11.788l9.11 -16.432c28.2 -56.48 31.466 -123.526 25.022 -185.58zm-150.848 -25.6a5.544 5.544 0 0 1 -5.41 -4.536 5.348 5.348 0 0 1 2.114 -5.272 5.896 5.896 0 0 1 8.148 1.986 4.568 4.568 0 0 1 0.582 2.33 5.714 5.714 0 0 1 -5.426 5.484zM250.4 142.4a5.05 5.05 0 0 1 -3.144 2.344 5.05 5.05 0 0 1 -6.054 -3.554 5.034 5.034 0 1 1 9.2 1.21zm57.91 42.556a5.546 5.546 0 0 1 -5.412 -4.536 5.35 5.35 0 0 1 2.102 -5.28 5.894 5.894 0 0 1 8.146 1.984 4.562 4.562 0 0 1 0.584 2.332 5.716 5.716 0 0 1 -5.428 5.492zm36.968 70.122a4.076 4.076 0 0 1 -3.658 -5.8 4.164 4.164 0 0 1 7.254 0 3.382 3.382 0 0 1 0.432 1.728 4.236 4.236 0 0 1 -4.036 4.064z" fill="#aceac7" stroke-width="1"></path><path d="M303.146 123.714c-1.576 -2.6 -4.96 -2.846 -7.642 -2.282 -4.566 0.962 -4.12 2.508 -2.838 -0.718 2.454 -6.162 -3.28 -9.146 -10.916 4.2q-0.97 1.704 -1.84 3.466c-0.964 -0.514 -1.954 -0.916 -2.642 -1.212a42.584 42.584 0 0 0 -4.88 -1.738 6.286 6.286 0 0 0 -3.266 -5.492 6.422 6.422 0 0 0 -6.672 1.112 5.424 5.424 0 0 0 -4.032 -2.19c-3.32 -0.374 -6.826 3.15 -8.8 5.812a0.768 0.768 0 0 0 -0.094 0.2c-5.4 2.222 -10.6 6.766 -12 12.354a9.466 9.466 0 0 0 -0.284 1.936 10.33 10.33 0 0 0 2.128 6.656 13.642 13.642 0 0 0 6.506 4.338 32.56 32.56 0 0 0 17.88 0.712 25.246 25.246 0 0 0 11.492 -6.63 31.492 31.492 0 0 0 4.582 -5.77c0.546 -0.874 1.168 -1.844 1.722 -2.85 3.246 1.674 10.914 5.222 14.216 3.616 1.722 -0.84 2.136 -2.554 0.116 -4.338 -2.928 -2.6 -4 -1.302 -0.704 -2.7 3.906 -1.642 10.156 -4.864 7.968 -8.482zM246.4 144a3.8 3.8 0 1 1 3.8 -3.8 3.8 3.8 0 0 1 -3.8 3.8zm17.18 -20.422c-9.458 -1.346 -12.132 1.224 -11.106 0.152a13.388 13.388 0 0 1 3.584 -2.842 3.8 3.8 0 0 1 5.278 1.462c0.914 2.714 3.2 -2.968 7 -1.056a4.552 4.552 0 0 1 2.362 3.086 4.714 4.714 0 0 1 0.102 0.62 66.4 66.4 0 0 0 -7.222 -1.422zm38.336 2.172c-0.926 2.626 -8.29 5.542 -10.978 6.412 -0.574 0.184 -0.842 1.136 -0.186 1.426a12.34 12.34 0 0 1 4.868 3.388s0.088 0.292 0.072 0.184a0.886 0.886 0 0 1 0 0.128l-0.024 0.07c-1.514 2.27 -9.252 -1.152 -11.742 -2.326a104.532 104.532 0 0 1 -1.652 -0.8 11.042 11.042 0 0 0 0.522 -1.382c5.238 -0.164 6.434 1.234 6.778 -0.034a0.786 0.786 0 0 0 -0.544 -0.96 25.83 25.83 0 0 0 -5.5 -0.6 26.178 26.178 0 0 1 3.56 -2.22 0.786 0.786 0 0 0 0.282 -1.068 0.8 0.8 0 0 0 -1.07 -0.28c-5.548 2.864 -2.824 3.148 -5.056 1.514 7.566 -15.574 14.4 -15.07 7.86 -5.016a0.786 0.786 0 0 0 1.068 1.068 19.28 19.28 0 0 1 4.32 -1.944c2.274 -0.71 5.252 -1.15 7.04 0.826a1.858 1.858 0 0 1 0.472 0.84 1.272 1.272 0 0 1 -0.092 0.774z" fill="#f55555" stroke-width="1"></path><path d="m236.15 216.762 -0.002 -0.02 0.004 0.052 -0.002 -0.032zm-0.002 -0.02 0.004 -0.032 -0.004 0.032z" fill="#000000" stroke-width="1"></path><path d="M101.736 211.016c-20.274 -43.968 -18.98 -41.568 -19.632 -41.496l-27.466 3.012a0.82 0.82 0 0 0 -0.752 0.574l-4.724 14.23c-14.546 43.834 -7.49 21.126 -9.25 27.868 0 0.024 -0.016 0.048 -0.024 0.074a0.652 0.652 0 0 0 0.176 0.724l0.04 0.04c0.024 0.018 0.044 0.038 0.07 0.054a0.72 0.72 0 0 0 0.466 0.17c5.114 0.02 10.232 -0.068 15.344 -0.2q4.6 -0.114 9.216 -0.3c0.016 11.288 0.656 31.076 2.684 42.626 0.174 0.988 1.678 0.568 1.506 -0.416 -1.884 -10.728 -2.464 -28 -2.6 -38.92 -0.014 -1.12 -0.026 -2.24 -0.026 -3.36a420.76 420.76 0 0 0 5.028 -0.234c0.174 2.886 0.296 5.774 0.4 8.66a304.448 304.448 0 0 1 -0.442 34.062c-0.084 1 1.478 1 1.562 0 0.638 -7.6 0.758 -15.262 0.69 -22.896 -0.06 -6.974 -0.31 -14.172 -0.65 -19.922a191.68 191.68 0 0 0 27.922 -3.2 0.8 0.8 0 0 0 0.462 -1.15zm-29.316 2.848c-8.812 0.49 -17.64 0.734 -26.466 0.818q-2.116 0.022 -4.23 0.018c10.418 -31.446 13.51 -40.6 13.536 -40.674l26.372 -2.892 6.2 13.432 10.226 22.172c1.92 4.16 1.526 3.29 1.866 4.11a117 117 0 0 1 -12.128 1.82c-5.116 0.544 -10.246 0.91 -15.376 1.196z" fill="#7d4ab4" stroke-width="1"></path><path d="M111.944 259.6a0.8 0.8 0 0 0 -0.782 -0.782c-12.72 -0.222 -85.284 0 -85.318 0a0.8 0.8 0 0 0 -0.78 0.782v7.086a0.8 0.8 0 0 0 0.78 0.78c1.908 -0.02 5.818 -0.05 5.868 -0.05 0.028 6.736 0.1 16.724 0.214 27.236 0.2 18.734 0.728 56.062 2.026 74.652 0.046 0.672 0.096 1.342 0.15 2.014a0.8 0.8 0 0 0 0.78 0.78h73.076a0.788 0.788 0 0 0 0.782 -0.78c-0.984 -12.432 -1.494 -34.656 -1.736 -47.14 -0.174 -8.866 -0.552 -53.732 -0.644 -56.778 8.088 0.118 4.79 1.282 5.584 -7.8zm-4.916 109.704c0.028 0.412 0.06 0.822 0.092 1.234H37.86c-0.73 0 -1.506 -0.064 -2.254 -0.04 -1.342 -17.712 -1.878 -55.274 -2.086 -72.918 0 -0.584 0 -1.17 -0.016 -1.756 10.672 0.072 71.2 0.012 71.516 0q0.142 12.524 0.36 25.052c0.24 13.17 0.734 35.218 1.648 48.434zm-2.2 -94.624q0.064 9.8 0.172 19.586c-10.17 0.148 -23.772 0.16 -33.936 0.146 -34.274 -0.036 -35.334 -0.214 -37.574 -0.166 -0.286 -25.878 -0.086 -22.908 -0.2 -26.84 4.346 -0.034 58.882 -0.178 71.506 -0.024q0.004 3.654 0.032 7.304zm-13.534 -8.976c-7.35 -0.036 -64.158 0.148 -64.668 0.154v-5.478c6.068 -0.056 83.272 -0.016 83.756 0v5.528a1557.324 1557.324 0 0 0 -19.088 -0.198z" fill="#b26ee6" stroke-width="1"></path><path d="M73.322 275.832a4.498 4.498 0 0 0 -5.516 -0.076 6 6 0 0 0 -2.318 5.844 4.6 4.6 0 0 0 4.04 3.872 5.332 5.332 0 0 0 5.23 -3.842 5.4 5.4 0 0 0 -1.436 -5.798zm-3.136 8.082a2.93 2.93 0 0 1 -3.07 -2.2 4.4 4.4 0 0 1 1.146 -4.306 3.072 3.072 0 0 1 3.748 -0.6 3.772 3.772 0 0 1 1.242 4.416 3.9 3.9 0 0 1 -3.066 2.69zM97 323.026a4.49 4.49 0 0 0 -5.258 1.664 5.96 5.96 0 0 0 -0.4 6.2 4.646 4.646 0 0 0 4.99 2.494 5.308 5.308 0 0 0 3.856 -5.288 5.44 5.44 0 0 0 -3.188 -5.07zm-0.51 8.694a2.934 2.934 0 0 1 -3.506 -1.134 4.4 4.4 0 0 1 -0.29 -4.486 3.078 3.078 0 0 1 3.34 -1.752 3.76 3.76 0 0 1 2.6 3.758 3.89 3.89 0 0 1 -2.148 3.614z" fill="#b26ee6" stroke-width="1"></path><path d="M144.858 260.122a7.928 7.928 0 0 0 2.828 -1.288c4.25 -2.826 6.466 -7.986 7.552 -13.02 0.212 -0.978 -1.292 -1.4 -1.506 -0.414 -1.09 5.048 -4.2 12.322 -9.288 13.216 -0.988 0.184 -0.57 1.684 0.414 1.506z" fill="#6dd3a8" stroke-width="1"></path><path d="M191.906 325.7c-0.454 -24.108 -3.362 -62.506 -5.496 -85.964l-0.046 -0.508c-0.092 -1 -1.656 -1 -1.562 0 0.9 9.8 9.152 102.842 3.838 111.294 -0.2 0.172 -0.136 0.134 -0.156 0.152a25.852 25.852 0 0 1 -14.966 0.83 7.876 7.876 0 0 1 -1.4 -0.508c-2.526 -1.252 -8.482 -62.566 -8.8 -65.716 -0.026 -0.266 -0.054 -0.532 -0.078 -0.8 1.336 -7.18 4.672 -25.34 5.016 -27.238 0.178 -0.982 -1.326 -1.4 -1.506 -0.416q-2.48 13.65 -5.026 27.288a0.488 0.488 0 0 0 -0.024 0.124c-2.824 15.142 -7.15 38.218 -10.29 53.284 -2.134 10.242 -2.084 19.706 -13.112 16.878a8.246 8.246 0 0 1 -6.09 -4.4c-4.186 -10.548 1.094 -90.142 1.904 -101.386q0.2 -2.838 0.416 -5.676c0.076 -1 -1.486 -1 -1.562 0 -0.8 10.486 -7.272 99.43 -1.6 108.868a8 8 0 0 0 3.432 2.942c4.054 2 9.958 2.664 13.4 -0.882 2.35 -2.424 2.644 -5.724 5.554 -19.986 1.6 -7.852 7.2 -37.182 8.472 -43.98 6.768 67 7.662 62.2 10.942 63.12 6.6 1.826 15.222 -0.094 16.482 -1.306 2.846 -2.714 2.332 -22.002 2.258 -26.014zm-20.142 25.124 16.72 -0.154z" fill="#6dd3a8" stroke-width="1"></path><path d="M152.164 369.866a25.962 25.962 0 0 0 -7.976 -7.516 12.828 12.828 0 0 0 -11.428 -0.736c-6.554 2.8 -11.724 14.212 -8.974 14.212h30.7a0.788 0.788 0 0 0 0.672 -1.174 32.622 32.622 0 0 0 -2.994 -4.786zm60.656 4.504a94.576 94.576 0 0 0 -20.302 -11.622 25.264 25.264 0 0 0 -9.748 -2.078c-7.336 0.19 -11.81 6.334 -12.834 12.626 -0.146 0.904 -0.102 1.94 0.848 2.376l0.052 0.012c0.542 0.246 16.114 0.142 15.914 0.142h25.676a0.788 0.788 0 0 0 0.394 -1.456zM240.046 144.5c-0.44 0.55 -0.908 1.08 -1.39 1.6 -3.83 4.1 -3.246 1.928 -0.744 -1.702 0.504 -0.728 0.984 -1.382 1.468 -1.98a0.788 0.788 0 0 0 -0.76 -1.306 6.334 6.334 0 0 1 -3.912 -1.306 6.718 6.718 0 0 1 -3.148 -3.46c-0.184 -0.724 -0.102 -1.622 0.988 -1.226a10.262 10.262 0 0 1 3.116 2.266 28.416 28.416 0 0 1 2 2.058c0.662 0.76 1.762 -0.348 1.106 -1.104a28.636 28.636 0 0 0 -2.118 -2.178 9.962 9.962 0 0 0 -3.972 -2.636A2.214 2.214 0 0 0 229.938 136a6.858 6.858 0 0 0 3.296 4.688 10.648 10.648 0 0 0 4.014 1.916 15.956 15.956 0 0 0 -2.726 4.76c-0.328 1.046 -0.17 2.58 1.238 2.6 1.22 0.024 2.374 -1.15 3.178 -1.93a26.322 26.322 0 0 0 2.214 -2.436c0.622 -0.77 -0.476 -1.884 -1.106 -1.098zm30.154 -8.798c-3.546 -0.322 -3.106 0.382 -1.8 -1.066 3.8 -4.214 0.02 -7.056 -4.064 -5.536a18.184 18.184 0 0 0 -5.4 3.476A30.952 30.952 0 0 0 256 135.466c-0.664 0.75 0.438 1.86 1.102 1.104a25.11 25.11 0 0 1 6.338 -5.332 4.692 4.692 0 0 1 4.378 -0.69 1.352 1.352 0 0 1 0.588 0.528c0.632 1.22 -2.476 3.886 -3.61 4.686 -0.58 0.4 -0.446 1.506 0.4 1.454 1.2 -0.072 2.4 -0.082 3.6 -0.04a16.8 16.8 0 0 1 2.65 0.256 4.976 4.976 0 0 1 1.032 0.29c-0.024 -0.012 0.132 0.082 0.234 0.138a0.288 0.288 0 0 1 -0.04 0.024c-0.152 0.08 -0.212 0.11 -0.256 0.13a9.444 9.444 0 0 1 -2.178 0.492 65.8 65.8 0 0 1 -9.278 0.276 0.8 0.8 0 0 0 -0.55 1.334c2.8 3.412 2.676 4.4 2.538 4.144a7.62 7.62 0 0 1 -3.676 -2.8 1 1 0 0 1 -0.118 -0.154c-0.582 -0.8 -1.938 -0.028 -1.348 0.788 1.228 1.702 3.916 4.256 5.922 3.706 2.2 -0.6 0.12 -3.634 -1.176 -5.416a49.154 49.154 0 0 0 8.268 -0.4c1.172 -0.172 3.496 -0.494 3.528 -2.082 0.036 -1.864 -2.844 -2.082 -4.148 -2.2zm-7.104 8.8zm9.714 -6.732 -0.012 0.014 0.012 -0.014 -0.012 0.014 0.012 -0.014c0.038 -0.126 0.02 -0.048 0 0 0.034 -0.016 0.076 -0.028 0.004 0z" fill="#000000" stroke-width="1"></path><path d="M327.824 288.128a20.416 20.416 0 0 1 3.712 -6.944 32.964 32.964 0 0 0 5.87 -19.842 23.864 23.864 0 0 0 -9.442 -18.036 4.184 4.184 0 0 0 -2.416 -0.976c-1.712 0.038 -2.8 1.872 -3.2 3.534 -1.472 5.91 1.092 12.152 2.116 17.498a52.082 52.082 0 0 0 -4.096 -6.244c-5.49 -7.6 -3.908 -8.342 -5.4 -11.56 -1.898 -4.066 -6.698 -3.8 -8.05 3.18 -1.462 7.54 2.774 14.046 4.162 21 2.22 11.094 -5.168 10.102 -7.342 15.768 -2.2 5.726 4.882 10.882 2 16.276 -1.788 3.35 -5.582 5.654 -4.386 10.6a18.84 18.84 0 0 0 3.55 6.956 14.55 14.55 0 0 0 -1.896 3.24q6.588 7.692 13.144 15.422a35.774 35.774 0 0 1 7.424 -16.956c3.736 -4.584 8.88 -8.95 8.938 -14.862 0.056 -6.308 -5.926 -11.872 -4.688 -18.054zm-11.36 18.6a12.974 12.974 0 0 1 -3.986 5.694c-1.924 -8.54 2.2 -11.6 0.764 -16.044 -0.928 -2.878 -4.438 -6.552 0.688 -11.664a19.822 19.822 0 0 1 2.42 -2c-4.82 7.334 2.226 17.124 0.114 24.016zm5.218 -28.818c-0.06 0.058 -0.128 0.108 -0.19 0.164 1.784 -3.4 -0.038 -7 -1.68 -10.124l-4.082 -7.8c-0.466 -0.89 -1.814 -0.102 -1.348 0.788 4.428 8.456 7.768 13.13 5.624 16.714 -1.756 2.932 -9.8 5.286 -10.348 12.212 -0.276 3.554 2.704 6.124 2.348 9.29 -0.288 2.572 -2.876 6.774 -0.834 14.4a60.906 60.906 0 0 0 -5.238 4.562c-8.256 -11.184 1.814 -11.73 2.082 -18.87 0.14 -3.8 -2.574 -6.882 -3.086 -10.536 -1.038 -7.428 10.944 -5.658 7.416 -20.44 -1.084 -4.542 -3.182 -8.8 -3.92 -13.43 -0.8 -4.984 0.8 -11.582 3.694 -10.152s0.762 4.026 5.262 10.866c3.478 5.29 7.2 8.554 7.514 15.108a11.582 11.582 0 0 1 -3.214 7.25zm-20.2 -32.052a18.37 18.37 0 0 0 -2.61 -22.51c-3.132 -3 -8.732 -4.532 -11.524 -1.212a8.366 8.366 0 0 0 -0.818 7.714 41.132 41.132 0 0 1 2.288 7.738 10.45 10.45 0 0 1 -4.278 9.274 26.664 26.664 0 0 1 -3.096 1.754 16.712 16.712 0 0 0 -3.918 -5.636c-6.776 -7.116 -4.752 -8.132 -4.216 -15.128 1.084 -14.236 -13.224 -16.53 -15.078 -7.268 -0.822 4.112 1.118 7.772 2.6 11.478 5.6 13.978 -7.8 9.128 -5.096 19.576 0.718 2.768 5.612 10.014 1.032 12.522 -0.882 0.484 -0.094 1.832 0.788 1.35 3.27 -1.8 3.024 -6.074 1.828 -9.05 -1.236 -3.082 -4.236 -7.738 -1.022 -10.64 1.372 -1.238 3.052 -1.924 4.094 -3.53 3.442 -5.298 -1.218 -12.278 -2.422 -16.554 -2.766 -9.8 7.098 -12.224 10.654 -5.04 3.012 6.082 -1.338 12.092 1.28 17.728 2 4.296 6.84 6.714 8.122 10.956 -5.862 3.616 -3.35 9.55 -1.756 15.922a28.448 28.448 0 0 1 -0.976 16.89c-1.128 -1.812 -2.524 -3.502 -3.6 -5.33 -3.982 -6.776 1.254 -12.586 -2.8 -18.936 -1.512 -2.382 -5.156 -5.6 -4.37 -8.864 0.856 -3.51 6.508 -5.916 0.162 -24.682 -0.322 -0.946 -1.83 -0.54 -1.506 0.414 8.9 26.314 -6.96 19.43 3.07 32.14 5.67 7.18 0.236 12.128 3.244 19.074 1.232 2.844 3.57 5.18 5 7.916a11.5 11.5 0 0 1 -2.708 3.542 8.298 8.298 0 0 1 -0.976 0.706q7.238 8.042 14.352 16.2a30.91 30.91 0 0 1 1.696 -10.356c2.788 -6.14 10.696 -9.774 11.066 -16.508 0.364 -6.618 -7.052 -11.768 -6.682 -18.386 0.318 -5.274 5.308 -8.836 8.176 -13.264z" fill="#6dd3a8" stroke-width="1"></path><path d="M381.338 265.26c-2.422 -12.836 -13.736 -16.28 -11.11 -25.39 0.884 -3.076 2.87 -5.76 3.38 -8.958 0.89 -5.6 -4.7 -14.914 -8.8 -16.82 -5.67 -2.634 -11.724 2.084 -6.982 9.554 1.586 2.498 4.1 5.07 3.334 8.286 -1.016 4.256 -6.418 7.376 -7.082 12.17 -0.654 4.75 3.84 7.954 6.29 10.728a17.026 17.026 0 0 1 2.076 18.498 35.164 35.164 0 0 0 -0.556 -1.742 7.41 7.41 0 0 0 -2.4 -3.788c-2.582 -1.812 -6.318 -0.04 -8.094 2.568 -2.558 3.764 -2.552 8.714 -1.732 13.2 1.366 7.476 5.018 15.22 -0.154 24.894a12.296 12.296 0 0 1 -1.656 -5.666c-0.124 -3.266 1.16 -12 -4.702 -14.484 -5.2 -2.212 -9.148 4.106 -9.374 10.37 -0.314 8.662 7.322 16.576 2.656 24.3 -0.938 1.554 -2.15 2.918 -3.102 4.464 -6.228 10.092 9.848 18.508 3.478 26.132a4.2 4.2 0 0 1 -1.706 1.246c-0.93 0.356 -0.526 1.866 0.414 1.506a7.294 7.294 0 0 0 4.224 -7.356c-0.252 -5.958 -6.126 -10.492 -6.374 -16.176 -0.174 -3.91 2.832 -6.226 4.614 -9.366 3.2 -5.652 0.504 -11.768 -1.35 -17.46 -3.862 -11.85 2.554 -19.088 6.904 -15.634 4.616 3.662 1.764 10.572 3.232 15.8A16.454 16.454 0 0 0 348.6 310c-1.17 1.818 -2.632 3.574 -3.744 5.428 -0.85 -5.112 -3.84 -9.53 -2.898 -14.32 0.2 -0.982 -1.312 -1.4 -1.506 -0.416 -1.666 8.472 7.086 15.052 0.718 24.534 -4.884 7.27 -0.762 7.498 1.8 12.518a10.77 10.77 0 0 1 0.388 10.138 0.782 0.782 0 0 0 1.348 0.788 11.45 11.45 0 0 0 0.688 -9.104c-2.416 -7.692 -7.472 -6.626 -3.47 -12.682a29.33 29.33 0 0 0 1.862 -3.086c1.8 4.716 7.558 9.676 9.278 19.774q4.938 -8.046 9.11 -16.432a19.466 19.466 0 0 1 -5.4 -10.682c-0.352 -4.322 1.692 -8.42 3.296 -12.45q0.744 -1.872 1.364 -3.8c5.372 -0.764 10.6 -3.17 12.08 -8.32 0.952 -3.314 -0.574 -7.024 0.94 -10.2 1.264 -2.642 3.854 -4.352 5.492 -6.734a12.68 12.68 0 0 0 1.392 -9.694zm-2.634 8.758c-2.374 3.582 -6.4 5.048 -6.474 11.06 -0.044 3.532 1.982 11.222 -9.934 13.424 -0.12 0.022 -0.24 0.036 -0.36 0.058a50.976 50.976 0 0 0 2.064 -13.698 11.644 11.644 0 0 0 6.54 -11.854c-0.302 -3.622 0.69 -3.464 1.654 -5.964a14.268 14.268 0 0 0 -1.584 -11.574c-4.18 -7.8 -9.19 -10.564 -5.538 -16.788 4.356 -7.414 0.578 -6.446 0.542 -5.33a9.566 9.566 0 0 1 -1.8 4.382c-2.152 3.632 -2.422 5.76 0.294 10.382 2.818 4.8 7.678 10 7.12 16.216 -0.252 2.778 -1.552 3.752 -2.09 5.496 -0.6 1.914 0.106 3.928 -0.146 5.882a10.2 10.2 0 0 1 -5.016 7.4 39.818 39.818 0 0 0 -0.962 -7.6 18.8 18.8 0 0 0 2.668 -12.052c-0.93 -7.952 -5.292 -10.442 -8.19 -13.918 -4.344 -5.2 -0.302 -8.754 2.6 -12.486 5.452 -7.024 1.68 -9.816 -1.142 -14.546 -1.716 -2.888 -2.066 -6.132 1 -7.242a6.54 6.54 0 0 1 7.112 2.654 25.11 25.11 0 0 1 2.478 3.786c1.74 3.07 3.212 6.148 2.4 9.588 -0.968 4.088 -4.426 7.902 -3.484 13a18.346 18.346 0 0 0 3.948 7.552 49.378 49.378 0 0 1 5.324 7.6c2.172 4.302 3.672 10.514 0.976 14.572z" fill="#6dd3a8" stroke-width="1"></path><path d="M375.36 184.104a13.8 13.8 0 0 1 -1.382 -1.838 9.542 9.542 0 0 1 -1.012 -2.632 14.062 14.062 0 0 1 0.486 -7.624 0.786 0.786 0 0 0 -0.96 -0.96 20.8 20.8 0 0 0 -5.862 3.116c-1.028 0.714 -2.034 1.466 -3 2.264l-0.268 -0.092a2.948 2.948 0 0 0 -1.436 -3.068 2.86 2.86 0 0 0 -0.954 -0.344 0.4 0.4 0 0 0 -0.106 0c-0.084 -0.2 0.268 -1.656 -0.956 -2.11 -1.418 -0.524 -2.984 1.02 -4.326 2.464 -0.118 -0.282 -0.032 -2.238 -1.876 -2.214 -1.94 0.024 -2.862 2.67 -3.44 4.142 -0.012 0.026 0 0.048 -0.014 0.072a32.582 32.582 0 0 0 -11.234 4.12c-0.258 -0.622 -0.948 -2.108 -1.584 -1.824 -0.8 0.356 1.106 2.72 1.106 2.72s-1.516 1.552 -0.452 1.908c0.676 0.224 1.652 -0.472 2.282 -1.014a17.762 17.762 0 0 0 15.55 4.4l3.772 4.2 1.95 -4.774 -2.624 -0.444a24.304 24.304 0 0 0 5.878 -3.746 113.632 113.632 0 0 0 6.814 4.142 20.764 20.764 0 0 0 2.4 1.18c0.524 0.2 1.234 0.424 1.69 -0.052 0.61 -0.646 -0.002 -1.466 -0.442 -1.992zm-0.294 0.722h0.022zM352 175.056a9 9 0 0 1 1.076 -1.98c1.4 -1.82 0.276 1.726 2.354 1.8 1.564 0.06 2.674 -2.4 3.834 -2.6l0.046 -0.012a1.822 1.822 0 0 1 0 0.4c-0.02 2.714 2.564 1.014 2.534 3.222a27.34 27.34 0 0 0 -9.844 -0.83zm15.096 5.306c-0.324 -0.2 -0.642 -0.416 -0.964 -0.622 0.49 -0.458 0.984 -0.942 1.48 -1.46a16.642 16.642 0 0 0 -2.312 -1.2q1.036 -0.816 2.12 -1.572a24.828 24.828 0 0 1 4.098 -2.442 16.7 16.7 0 0 0 -0.384 4.584 12.21 12.21 0 0 0 1.328 5.094 9.4 9.4 0 0 0 0.84 1.29c-0.2 -0.106 -0.4 -0.2 -0.6 -0.314 -1.914 -1.042 -3.766 -2.196 -5.606 -3.358z" fill="#ff8684" stroke-width="1"></path><path d="M344.252 178.108a0.842 0.842 0 1 0 0.624 1.014 0.842 0.842 0 0 0 -0.624 -1.014zm7.652 2.136c-0.6 -0.4 0.022 0.042 1 -1.522 2.226 -3.52 -6 -3.476 -5.43 -1.462 0.264 0.97 1.17 0.414 2.138 0.236 1.616 -0.306 3.462 0.102 -0.184 2.126 -1.95 1.084 2.1 1.532 2.076 2.692v0.022c-0.936 3.526 3.948 0.288 0.4 -2.092z" fill="#000000" stroke-width="1"></path><path d="M177.134 181.178c0.532 -0.4 1.05 -0.82 1.558 -1.248 -0.356 -0.284 -4.2 -3.4 -5.754 -4.684a33.696 33.696 0 0 1 2.674 7q0.778 -0.504 1.522 -1.068z" fill="#ffd35c" stroke-width="1"></path><path d="M226.522 210.384a9.57 9.57 0 0 0 -4.056 -2.14q-2.118 -0.9 -4.19 -1.908c-2.932 -1.42 -5.8 -2.978 -8.6 -4.62s-5.6 -3.382 -8.332 -5.178a89.35 89.35 0 0 1 -3.4 3.4 58.38 58.38 0 0 1 -4.344 3.692 44.292 44.292 0 0 1 -24.704 9.658 37.242 37.242 0 0 1 -15.768 -2.964c-6 -2.424 -12.216 -6.374 -15.25 -12.046a10.056 10.056 0 0 1 -1.06 -2.6c-0.184 -0.868 1.144 -1.56 1.544 -0.254 2.286 7.378 11.362 12.306 18.748 14.684 12.764 4.112 28.372 1.05 43.446 -15.022l0.532 -0.574q2.214 -2.386 4.332 -4.86c1.528 -1.8 2.958 -3.698 4.584 -5.4 1.558 -1.63 4.312 -4.302 4.132 -4.986 -0.07 -0.28 -0.144 -0.558 -0.226 -0.836a33.124 33.124 0 0 0 -3.112 -6.972l-2.244 -3.4a53.456 53.456 0 0 0 -5.75 -6.714 53.314 53.314 0 0 0 -15.068 11.8c-5.044 5.248 -9.978 10.964 -16.8 13.124 -0.642 4.31 2.538 5.708 1.1 6.552a0.812 0.812 0 0 1 -1.068 -0.28c-2.268 -3.124 -1.24 -5.966 -1.966 -4.546a9.698 9.698 0 0 0 -1.108 4.44 0.782 0.782 0 0 1 -1.562 0 11.326 11.326 0 0 1 1.414 -5.434 18.242 18.242 0 0 1 -17.222 -7.572 17.15 17.15 0 0 1 -2.574 -4.826c-0.304 -0.962 1.2 -1.37 1.506 -0.416a18.216 18.216 0 0 0 3.02 5.23A16.586 16.586 0 0 0 173.2 183.642q0.524 -0.262 1.038 -0.552a30.214 30.214 0 0 0 -2.01 -5.756 44.012 44.012 0 0 0 -2.77 -5.038c-0.536 -0.84 -1.102 -1.664 -1.696 -2.464a36.86 36.86 0 0 0 -3.718 -4.294 0.624 0.624 0 0 1 -0.054 -0.08 0.676 0.676 0 0 1 -0.144 -0.614 11.34 11.34 0 0 0 -0.66 -0.476c0.122 3 0.422 4.97 -2.154 6.462a11.4 11.4 0 0 1 -5.34 1.29 12.576 12.576 0 0 1 -6.4 -1.448 8.318 8.318 0 0 1 -2.872 -2.8 14.2 14.2 0 0 1 -1.17 -2.226 18.084 18.084 0 0 0 -5.742 6.764c-5.728 11.698 -14.074 34.846 -13.2 69.2a23.102 23.102 0 0 0 12.094 -1.062c5.448 -2.4 4.65 4.252 8.638 5.05s7.84 -6.114 11.428 -3.6a16.97 16.97 0 0 0 11.162 3.654c4.254 -0.2 4.524 -5.248 6.648 -4.716s6.908 0.93 9.698 -2.524c2.04 -2.526 -0.158 -17.166 -1.488 -24.868l-0.368 -2.082c3.872 2.454 7.8 4.816 11.826 7.016a87.978 87.978 0 0 0 13.748 6.356c3.982 1.352 7.49 2.22 10.94 0.258a12.542 12.542 0 0 0 5.4 -6.824 22.292 22.292 0 0 0 1 -3.858 4.904 4.904 0 0 0 -0.512 -4.026z" fill="#ffd35c" stroke-width="1"></path><path d="M156.76 170.49a6.924 6.924 0 0 0 4.312 -1.658 3.388 3.388 0 0 0 0.614 -2.558c-0.014 -0.56 -0.086 -2.388 -0.102 -2.742l-0.228 -0.096a14.696 14.696 0 0 0 -2.644 -0.774A17.374 17.374 0 0 0 146.58 164.8a13.032 13.032 0 0 0 1.298 2.462 9.308 9.308 0 0 0 8.882 3.228z" fill="#ffd35c" stroke-width="1"></path><path d="M239.4 218.232s8.506 -1.728 7.4 -4.386 -18.04 -2.79 -18.04 -2.79l-0.118 0.346a11.368 11.368 0 0 1 -0.34 4.552 17.37 17.37 0 0 1 -3.982 8.164l-0.078 0.226c4.518 4.518 19 5.98 19.8 3.854s-5.45 -4.652 -5.45 -4.652 8.506 0.534 8.2 -2.258 -7.392 -3.056 -7.392 -3.056zm-17.494 -53.158c0.532 -4.696 -2.746 -5.316 -2.746 -5.316s10.188 -6.2 3.278 -7.8c-6.438 -1.486 -16.56 7.634 -17.916 8.89a54.764 54.764 0 0 1 5.43 6.488 41.786 41.786 0 0 1 3.614 5.982 31.782 31.782 0 0 1 1.4 3.306c0.2 0.574 0.388 1.158 0.55 1.748l0.058 0.2c2.11 -1.222 9.488 -5.696 9.27 -8.356a8.046 8.046 0 0 0 -2.938 -5.142zm-59.72 -20.15c-2.534 0.782 -19.884 5.612 -23.4 5.102 -4.024 -0.582 -7.2 -6.242 -7.258 -11.182a4.344 4.344 0 0 0 -5 0.044c-1.782 1.524 -1.582 4.682 0.444 7.052a5.308 5.308 0 0 0 6.526 1.8 18.626 18.626 0 0 0 9.842 9.266c0 0.102 0.012 0.2 0.022 0.304 0.088 0.922 0.2 1.842 0.356 2.752a24.84 24.84 0 0 0 1.536 5.584 14.216 14.216 0 0 0 1.17 2.226 8.336 8.336 0 0 0 2.872 2.8 12.556 12.556 0 0 0 6.4 1.448 11.374 11.374 0 0 0 5.34 -1.29c2.6 -1.504 2.264 -3.508 2.154 -6.462 -0.152 -3.882 -0.434 -7.756 -0.692 -11.632a19.374 19.374 0 0 0 5 -9.436c-0.766 0.232 -4.298 1.31 -5.312 1.624zm-3.864 4.948a1.586 1.586 0 0 1 2.3 -0.222c1.736 1.84 -1.282 6.43 -2.988 4.05a2.158 2.158 0 0 1 -0.338 -1.234 3.84 3.84 0 0 1 1.026 -2.594zm3.262 13.634v0.026c0.016 0.354 0.088 2.182 0.102 2.742a3.4 3.4 0 0 1 -0.614 2.558 6.924 6.924 0 0 1 -4.312 1.658 9.304 9.304 0 0 1 -8.882 -3.236 13.032 13.032 0 0 1 -1.298 -2.454 23.934 23.934 0 0 1 -1.274 -4.64c-0.158 -0.86 -0.278 -1.73 -0.37 -2.6a17.354 17.354 0 0 0 4.8 0.68 17.542 17.542 0 0 0 11.064 -3.974c0.072 -0.06 0.148 -0.114 0.22 -0.174 0.202 3.136 0.418 6.274 0.564 9.414zM140.126 129.8c1.49 -1.94 3.47 -2.282 5.778 -3.034 4.4 -1.432 8.972 -2.81 13.498 -3.9a16.8 16.8 0 0 0 -8.638 -2.304 19.164 19.164 0 0 0 -19.118 16.6 7.554 7.554 0 0 1 1.022 -2.918 11.732 11.732 0 0 1 7.458 -4.444z" fill="#a76c6c" stroke-width="1"></path><path d="M174.266 132.908a34.71 34.71 0 0 0 -1.63 -5.334 9.18 9.18 0 0 0 -2.484 -3.82c-3.124 -2.422 -23.786 4.26 -26.724 5.52A4.522 4.522 0 0 0 140.4 133.8a8.534 8.534 0 0 0 0.468 2 28.8 28.8 0 0 0 3.046 8.048 4.444 4.444 0 0 0 2.788 2.126 13.698 13.698 0 0 0 3.44 0.112c5.39 -0.4 13.028 -3.062 21.266 -5.648A4.762 4.762 0 0 0 174.358 138a7.43 7.43 0 0 0 -0.092 -5.092zM170 126.32c-1.894 0.318 -3.778 0.68 -5.66 1.066 -1.222 0.252 -2.442 0.504 -3.658 0.782a125.82 125.82 0 0 0 -16.464 4.79c-0.94 0.362 -1.342 -1.148 -0.416 -1.506a145.784 145.784 0 0 1 25.782 -6.638c0.982 -0.164 1.402 1.34 0.416 1.506z" fill="#dcbeff" stroke-width="1"></path><path d="M176.354 135.534a29.046 29.046 0 0 0 -1.286 -5.71 21.112 21.112 0 0 0 -2.238 -5.304 5.942 5.942 0 0 0 -3.076 -2.71c-0.032 -0.01 -0.068 -0.012 -0.1 -0.022 -4.532 -1.242 -19.228 3.5 -23.75 4.972 -2.306 0.75 -4.29 1.096 -5.778 3.034a11.732 11.732 0 0 0 -7.458 4.452 7.576 7.576 0 0 0 -1.022 2.918 10.548 10.548 0 0 0 -0.122 1.68c0.052 4.938 3.234 10.6 7.258 11.182 3.502 0.51 21.018 -4.366 23.4 -5.102 1.016 -0.314 4.546 -1.4 5.29 -1.624 3.94 -1.224 5.46 -1.54 6.766 -2.646a6.164 6.164 0 0 0 2.116 -5.12zm-8.6 6.044c-6.4 1.982 -12.756 4.144 -17.616 4.512a13.6 13.6 0 0 1 -3.44 -0.112 4.444 4.444 0 0 1 -2.788 -2.126 28.8 28.8 0 0 1 -3.04 -8.052 8.534 8.534 0 0 1 -0.468 -2 4.654 4.654 0 0 1 0.546 -2.422 4.71 4.71 0 0 1 2.48 -2.098c3.418 -1.464 23.588 -7.952 26.724 -5.52a9.2 9.2 0 0 1 2.484 3.82 34.71 34.71 0 0 1 1.63 5.334A7.43 7.43 0 0 1 174.358 138a4.762 4.762 0 0 1 -2.948 2.452c-1.21 0.372 -2.432 0.748 -3.65 1.126z" fill="#7d4ab4" stroke-width="1"></path><path d="M228.062 209.878c-1.244 -2 -3.8 -2.53 -5.826 -3.422a135.3 135.3 0 0 1 -19.834 -11.08c0.188 -0.2 12.3 -13.902 12.462 -14.106a3.8 3.8 0 0 0 0.888 -1.478 2.66 2.66 0 0 0 -0.18 -1.224c-0.02 -0.064 -0.04 -0.128 -0.058 -0.2 -0.16 -0.6 -0.346 -1.174 -0.55 -1.748a31.782 31.782 0 0 0 -1.4 -3.306 41.6 41.6 0 0 0 -3.614 -5.982 54.572 54.572 0 0 0 -5.43 -6.488c-0.224 -0.226 -0.44 -0.462 -0.668 -0.684 -0.116 -0.114 -0.234 -0.23 -0.356 -0.342a0.814 0.814 0 0 0 -0.946 -0.122 47.866 47.866 0 0 0 -13.654 10c-1.828 1.816 -3.576 3.732 -5.368 5.6 -1.186 1.234 -3.704 3.55 -3.704 3.55a714.334 714.334 0 0 1 -9.2 -7.586 49.22 49.22 0 0 0 -4.392 -5.66c-0.356 -0.4 -0.714 -0.79 -1.096 -1.162a0.78 0.78 0 0 0 -1.3 0.4 0.676 0.676 0 0 0 0.144 0.614 0.936 0.936 0 0 0 0.054 0.08 36.696 36.696 0 0 1 3.718 4.294c0.6 0.8 1.16 1.624 1.696 2.464a44.012 44.012 0 0 1 2.77 5.038 30.214 30.214 0 0 1 2.01 5.756c-0.342 0.2 -0.688 0.378 -1.038 0.552A16.6 16.6 0 0 1 152.464 179.4a18.24 18.24 0 0 1 -3.02 -5.23c-0.302 -0.954 -1.81 -0.546 -1.506 0.416a17.178 17.178 0 0 0 2.574 4.826 18.244 18.244 0 0 0 17.222 7.572 11.326 11.326 0 0 0 -1.414 5.434 0.782 0.782 0 0 0 1.562 0 9.698 9.698 0 0 1 1.108 -4.44c0.092 -0.182 0.2 -0.356 0.306 -0.532a8.866 8.866 0 0 0 1.66 5.078c0.436 0.6 1.268 0.318 1.068 0.28 1.432 -0.84 -1.742 -2.242 -1.1 -6.552 6.8 -2.148 11.69 -7.8 16.8 -13.124a53.322 53.322 0 0 1 15.068 -11.8 53.836 53.836 0 0 1 5.75 6.714 35.058 35.058 0 0 1 5.356 10.382c0.08 0.278 0.156 0.556 0.226 0.836 0.176 0.706 -2.176 2.94 -4.132 4.986 -1.626 1.704 -3.056 3.612 -4.584 5.4q-2.116 2.476 -4.332 4.86c-0.178 0.2 -0.354 0.384 -0.532 0.574 -15.322 16.246 -30.832 19.086 -43.446 15.022a40.144 40.144 0 0 1 -11.846 -5.872c-2.896 -2.168 -6.328 -5.966 -6.942 -8.972 -0.2 -0.984 -1.71 -0.568 -1.504 0.414a10.056 10.056 0 0 0 1.06 2.6c3.03 5.672 9.258 9.62 15.25 12.046a37.242 37.242 0 0 0 15.768 2.964 44.318 44.318 0 0 0 24.716 -9.658c1.506 -1.16 2.96 -2.4 4.344 -3.692a83.854 83.854 0 0 0 3.4 -3.4c2.734 1.8 5.506 3.53 8.332 5.178s5.676 3.2 8.6 4.62q2.072 1 4.19 1.908a9.548 9.548 0 0 1 4.056 2.14 4.904 4.904 0 0 1 0.498 4.046 22.292 22.292 0 0 1 -1 3.858 12.542 12.542 0 0 1 -5.4 6.824c-3.474 1.976 -6.904 1.112 -10.94 -0.258a88.062 88.062 0 0 1 -13.748 -6.356 213.714 213.714 0 0 1 -11.826 -7.016c0.06 0.326 0.306 1.72 0.368 2.082 0.022 0.012 0.042 0.028 0.064 0.042a155.356 155.356 0 0 0 19.68 10.762 44.018 44.018 0 0 0 9.2 3.134 17.724 17.724 0 0 0 2.6 0.33c0.366 0.014 0.734 0.02 1.102 0a9.888 9.888 0 0 0 4.506 -1.5 12.132 12.132 0 0 0 2.682 -2.212 17.38 17.38 0 0 0 3.982 -8.164 11.336 11.336 0 0 0 0.34 -4.552 4.6 4.6 0 0 0 -0.568 -1.52zm-50.928 -28.7q-0.744 0.56 -1.522 1.07a33.696 33.696 0 0 0 -2.674 -7c1.552 1.29 5.4 4.4 5.754 4.684 -0.508 0.426 -1.026 0.844 -1.558 1.246zM143.356 157.314c0 -0.102 -0.014 -0.2 -0.022 -0.304a18.626 18.626 0 0 1 -9.842 -9.266 5.306 5.306 0 0 1 -6.526 -1.8c-2.026 -2.37 -2.226 -5.528 -0.444 -7.052a4.344 4.344 0 0 1 5 -0.044 10.548 10.548 0 0 1 0.122 -1.68 19.162 19.162 0 0 1 19.118 -16.6A16.8 16.8 0 0 1 159.4 122.86q1.27 -0.306 2.55 -0.564c0 -3.974 -1.292 -10.316 -9.2 -11.68a15.4 15.4 0 0 0 -16.478 6.882 8.03 8.03 0 0 0 -10.032 0.444c-5.384 4.2 -0.732 10.586 -7.112 15.504s-11.828 16.478 -3.588 21.8c0 0 0.664 8.506 8.372 7.84s5.98 -4.6 10.63 -2.236c3.212 1.626 6.858 -1.45 8.814 -3.536zm105.094 -21.89a5.032 5.032 0 1 0 -1.2 9.312 5.034 5.034 0 0 0 1.2 -9.312zm-1.042 7.626a3.524 3.524 0 0 1 -2.636 0.022 5.014 5.014 0 0 0 0.848 -6.648 3.462 3.462 0 0 1 1.788 6.626zm-89.086 6.822a3.83 3.83 0 0 0 -1.026 2.6 2.162 2.162 0 0 0 0.338 1.234c1.67 2.33 4.754 -2.178 2.988 -4.05a1.588 1.588 0 0 0 -2.3 0.216z" fill="#000000" stroke-width="1"></path><path d="M367.026 101.234c-1.178 -2.634 -6 -1.328 -6 -1.328s3.786 -3.21 1.632 -3.758c-1.8 -0.462 -5.444 3.238 -6.572 4.446a20.214 20.214 0 0 0 -3.752 -2.94 2.658 2.658 0 0 0 -0.6 -2.49c-1.236 -1.362 -3.46 -0.212 -3.46 -0.212s0.2 -1.166 -1.474 -1.838c-1.332 -0.532 -3.378 0.694 -4.172 1.228a9.694 9.694 0 0 0 -8.254 4.554c-0.548 -1.074 -1.868 -3.376 -2.68 -2.338 -0.894 1.144 0.882 3.48 2.2 4.158a5.16 5.16 0 0 0 0 0.634c-0.852 0.646 -2.278 1.83 -2.064 2.41s1.644 -0.2 2.472 -0.712a6.854 6.854 0 0 0 2.374 2.782 16.068 16.068 0 0 0 8.362 2.854 14.112 14.112 0 0 0 10.832 -5c1.384 1.306 4.42 3.95 5.938 3.6 2 -0.452 -1.288 -3.258 -1.288 -3.258s7.68 -0.16 6.506 -2.792zm-18.082 1.258c-2.326 1.152 1.6 3.212 -0.4 3.612 -1.38 0.276 -3.234 -2.028 -4.248 -3.476a1.024 1.024 0 0 1 0.506 -1.556 42.416 42.416 0 0 1 5.868 -1.746c1 0 0.6 2.016 -1.726 3.166z" fill="#f55555" stroke-width="1"></path><path d="M326.334 55.68a9.628 9.628 0 0 0 -13.31 -3.24 8.738 8.738 0 0 0 -3.452 8.61 9.054 9.054 0 0 0 8.836 7.4 9.336 9.336 0 0 0 8.88 -8.97 7.47 7.47 0 0 0 -0.954 -3.8zm-3.334 5.368a0.782 0.782 0 0 1 -1.506 -0.416 5.51 5.51 0 0 0 -1.988 -5.47 0.8 0.8 0 0 1 -0.28 -1.068 0.786 0.786 0 0 1 1.068 -0.28 7.096 7.096 0 0 1 2.706 7.234zM291.708 77a4.362 4.362 0 0 0 -1.726 4.302 4.526 4.526 0 0 0 4.418 3.708 4.666 4.666 0 0 0 4.438 -4.486 3.738 3.738 0 0 0 -0.476 -1.906 4.814 4.814 0 0 0 -6.654 -1.618zm5.288 4.516a0.776 0.776 0 0 1 -1.508 -0.372c-0.034 -1.63 -1.036 -1.74 -0.346 -2.49 0.818 -0.882 2.222 0.83 1.858 2.87zm3.44 21.634a3.878 3.878 0 0 0 -1.536 3.83 3.954 3.954 0 1 0 7.456 -2.388 4.282 4.282 0 0 0 -5.92 -1.442zm5.578 4.148a0.778 0.778 0 0 1 -0.96 0.544c-1.036 -0.234 -0.104 -1.2 -0.828 -1.774l0.136 0.104c-1.26 -0.76 0.8 -2.762 1.65 -0.174a2.2 2.2 0 0 1 0.002 1.3zm11.338 120.024a4.162 4.162 0 0 0 -7.252 0 4.074 4.074 0 0 0 3.656 5.8 4.236 4.236 0 0 0 4.028 -4.07 3.4 3.4 0 0 0 -0.432 -1.73zm-1.478 2.036a0.782 0.782 0 0 1 -1.562 0c0.15 -1.526 -1.446 -1.522 -0.902 -2.552 0.626 -1.206 2.664 0.612 2.464 2.552zm-73.408 -48.862a5.348 5.348 0 0 0 -2.112 5.27 5.542 5.542 0 0 0 5.4 4.536 5.716 5.716 0 0 0 5.436 -5.49 4.572 4.572 0 0 0 -0.584 -2.332 5.894 5.894 0 0 0 -8.14 -1.984zm6.634 5.2a0.782 0.782 0 0 1 -1.506 -0.416c0.896 -2.554 -2.09 -2.682 -1.4 -3.964a0.8 0.8 0 0 1 1.066 -0.28 3.966 3.966 0 0 1 1.84 4.656z" fill="#b26ee6" stroke-width="1"></path><path d="M247.54 183.56a0.282 0.282 0 0 0 -0.026 -0.056 0.582 0.582 0 0 0 0.026 0.056zm-0.322 -0.56 0.026 0.032zm0.322 0.56c0 0.022 0.01 0.018 0.01 0.018zm-0.322 -0.56z" fill="#b26ee6" stroke-width="1"></path><path d="M238.448 366.834a52.484 52.484 0 0 1 -12.924 -0.584c-0.982 -0.17 -1.4 1.336 -0.416 1.506a54 54 0 0 0 13.34 0.64c0.994 -0.078 1.004 -1.64 0 -1.562zm11.752 6.792a12.8 12.8 0 0 0 -7.6 -0.558c-0.978 0.226 -0.564 1.732 0.416 1.508a11.364 11.364 0 0 1 6.778 0.556 0.788 0.788 0 0 0 0.96 -0.544 0.8 0.8 0 0 0 -0.554 -0.962zm24.126 -3.648h-11.962a0.782 0.782 0 0 0 0 1.562h11.962a0.782 0.782 0 0 0 0 -1.562zm-253.962 -1.59c1 0.058 1 -1.502 0 -1.56a61.35 61.35 0 0 0 -9.584 0.186 0.8 0.8 0 0 0 -0.78 0.786 0.8 0.8 0 0 0 0.78 0.782 61.108 61.108 0 0 1 9.584 -0.194zm3.8 5.198a18.6 18.6 0 0 0 -6.186 -0.388 0.8 0.8 0 0 0 -0.78 0.778 0.786 0.786 0 0 0 0.78 0.782 17.446 17.446 0 0 1 5.772 0.332 0.78 0.78 0 1 0 0.414 -1.504zM338.472 99.038a1.112 1.112 0 1 0 1.112 1.112 1.112 1.112 0 0 0 -1.112 -1.112z" fill="#000000" stroke-width="1"></path></svg>