<svg xmlns="http://www.w3.org/2000/svg" width="20" height="20" viewBox="0 0 20 20" fill="none">
	<path opacity="0.4" d="M15 15.7165H14.3667C13.7 15.7165 13.0667 15.9748 12.6 16.4414L11.175 17.8498C10.525 18.4914 9.46668 18.4914 8.81668 17.8498L7.39166 16.4414C6.925 15.9748 6.28333 15.7165 5.625 15.7165H5C3.61667 15.7165 2.5 14.6081 2.5 13.2415V4.14978C2.5 2.78311 3.61667 1.6748 5 1.6748H15C16.3833 1.6748 17.5 2.78311 17.5 4.14978V13.2415C17.5 14.5998 16.3833 15.7165 15 15.7165Z" fill="#F7B27A" />
	<path d="M10 8.67481C11.0724 8.67481 11.9417 7.80554 11.9417 6.73318C11.9417 5.66083 11.0724 4.7915 10 4.7915C8.92768 4.7915 8.05835 5.66083 8.05835 6.73318C8.05835 7.80554 8.92768 8.67481 10 8.67481Z" fill="#36BFFA" />
	<path d="M12.2333 12.5497C12.9083 12.5497 13.3 11.7997 12.925 11.2413C12.3583 10.3997 11.2583 9.83301 10 9.83301C8.74166 9.83301 7.64166 10.3997 7.07499 11.2413C6.69999 11.7997 7.09167 12.5497 7.76667 12.5497H12.2333Z" fill="#36BFFA" />
</svg>
