<svg xmlns="http://www.w3.org/2000/svg" width="20" height="20" viewBox="0 0 20 20" fill="none">
	<path d="M17.5583 4.35817C16.2167 4.22484 14.875 4.12484 13.525 4.04984V4.0415L13.3417 2.95817C13.2167 2.1915 13.0333 1.0415 11.0833 1.0415H8.89999C6.95832 1.0415 6.77499 2.1415 6.64165 2.94984L6.46666 4.0165C5.69166 4.0665 4.91666 4.1165 4.14166 4.1915L2.44166 4.35817C2.09166 4.3915 1.84166 4.69984 1.87499 5.0415C1.90832 5.38317 2.20832 5.63317 2.55832 5.59984L4.25832 5.43317C8.62499 4.99984 13.025 5.1665 17.4417 5.60817C17.4667 5.60817 17.4833 5.60817 17.5083 5.60817C17.825 5.60817 18.1 5.3665 18.1333 5.0415C18.1583 4.69984 17.9083 4.3915 17.5583 4.35817Z" fill="#36BFFA" />
	<path opacity="0.3991" d="M16.025 6.7835C15.825 6.57516 15.55 6.4585 15.2667 6.4585H4.73335C4.45002 6.4585 4.16668 6.57516 3.97502 6.7835C3.78335 6.99183 3.67501 7.27516 3.69168 7.56683L4.20835 16.1168C4.30002 17.3835 4.41668 18.9668 7.32502 18.9668H12.675C15.5833 18.9668 15.7 17.3918 15.7917 16.1168L16.3083 7.57516C16.325 7.27516 16.2167 6.99183 16.025 6.7835Z" fill="#F7B27A" />
	<path fill-rule="evenodd" clip-rule="evenodd" d="M7.98334 14.1665C7.98334 13.8213 8.26316 13.5415 8.60834 13.5415H11.3833C11.7285 13.5415 12.0083 13.8213 12.0083 14.1665C12.0083 14.5117 11.7285 14.7915 11.3833 14.7915H8.60834C8.26316 14.7915 7.98334 14.5117 7.98334 14.1665Z" fill="#36BFFA" />
	<path fill-rule="evenodd" clip-rule="evenodd" d="M7.29169 10.8335C7.29169 10.4883 7.57151 10.2085 7.91669 10.2085H12.0834C12.4285 10.2085 12.7084 10.4883 12.7084 10.8335C12.7084 11.1787 12.4285 11.4585 12.0834 11.4585H7.91669C7.57151 11.4585 7.29169 11.1787 7.29169 10.8335Z" fill="#36BFFA" />
</svg>
