<svg width="75" height="72" viewBox="0 0 75 72" fill="none" xmlns="http://www.w3.org/2000/svg">
	<g id="Group">
		<g id="&#226;&#128;&#148;&#195;&#142;&#195;&#147;&#195;&#136;_1">
			<g id="Group_2">
				<path id="Vector" d="M32.3714 67.7773C30.8813 66.9861 29.2306 67.119 27.571 67.3983C27.5086 67.3119 27.4461 67.2188 27.4104 67.119C26.9732 65.8291 27.223 64.2133 27.4104 62.89C27.7138 60.7356 28.4454 58.5878 29.0076 56.4667C29.07 56.2206 28.6685 56.0943 28.4722 56.2938C27.0713 57.7899 26.3129 59.6451 25.8489 61.4803C24.9477 59.3392 23.6807 57.2313 23.0651 55.1368C22.9937 54.9041 22.494 54.9506 22.5029 55.19C22.5743 57.1516 23.77 59.0533 24.4213 60.9351C25.0816 62.8368 25.4742 65.1442 25.0013 67.1656C23.0472 68.0633 19.6923 67.6643 17.5062 68.1963C17.1047 68.296 16.7746 68.675 16.8638 68.9875C17.417 70.9757 19.4157 70.9757 21.5214 70.5369C21.3787 70.8959 21.4768 71.2417 21.9765 71.5609C23.9038 72.7777 25.1708 71.1818 26.304 69.9717C27.3033 71.009 28.8737 72.3588 30.5244 71.4079C31.5148 70.8361 31.3988 70.1844 30.801 69.5993C31.5148 69.5062 32.1394 69.2868 32.5142 68.8479C32.7997 68.5154 32.8622 68.0367 32.3714 67.7773Z" fill="#6B50B8" />
				<path id="Vector_2" d="M40.7677 67.7773C42.3202 66.9861 44.0245 67.119 45.7555 67.3983C45.8269 67.3119 45.8804 67.2188 45.9161 67.119C46.3711 65.8291 46.1035 64.2133 45.9161 62.89C45.6038 60.7356 44.8364 58.5878 44.2654 56.4667C44.194 56.2206 44.6223 56.0943 44.8186 56.2938C46.273 57.7899 47.0671 59.6451 47.54 61.4803C48.468 59.3392 49.7885 57.2313 50.431 55.1368C50.5023 54.9041 51.0198 54.9506 51.0109 55.19C50.9395 57.1516 49.6904 59.0533 49.0122 60.9351C48.3252 62.8368 47.9148 65.1442 48.4144 67.1656C50.4488 68.0633 53.9286 67.6643 56.1861 68.1963C56.5965 68.296 56.9445 68.675 56.8553 68.9875C56.2753 70.9757 54.2142 70.9757 52.0192 70.5369C52.1709 70.8959 52.0727 71.2417 51.5463 71.5609C49.5387 72.7777 48.2271 71.1818 47.0582 69.9717C46.0232 71.009 44.3903 72.3588 42.6772 71.4079C41.651 70.8361 41.767 70.1844 42.3916 69.5993C41.651 69.5062 41.0086 69.2868 40.6071 68.8479C40.3126 68.5154 40.2502 68.0367 40.7588 67.7773H40.7677Z" fill="#6B50B8" />
				<g id="Group_3">
					<g id="Vector_3" style="mix-blend-mode:multiply">
						<path d="M38.8671 27.7746C34.8787 27.6349 31.7914 25.1081 31.9788 22.1358C31.9966 21.8699 32.0502 21.6039 32.1483 21.2847C32.8621 18.6848 35.9762 16.8762 39.5452 16.9958C43.5337 17.1355 46.6209 19.6623 46.4424 22.6346C46.2551 25.6068 42.8645 27.9076 38.876 27.7746H38.8671Z" fill="#F0D907" />
					</g>
					<path id="Vector_4" d="M38.8671 27.7746C34.8787 27.6349 31.7914 25.1081 31.9788 22.1358C31.9966 21.8699 32.0502 21.6039 32.1483 21.2847C32.8621 18.6848 35.9762 16.8762 39.5452 16.9958C43.5337 17.1355 46.6209 19.6623 46.4424 22.6346C46.2551 25.6068 42.8645 27.9076 38.876 27.7746H38.8671Z" fill="#F0D907" />
					<g id="Group_4">
						<g id="Group_5">
							<path id="Vector_5" d="M33.2281 22.1756C33.0764 24.6359 35.6283 26.7172 38.9208 26.8302C42.2222 26.9433 45.015 25.0416 45.1756 22.5879C45.3272 20.1276 42.7843 18.0464 39.4829 17.9267C36.1815 17.8136 33.3887 19.7154 33.2281 22.169V22.1756Z" fill="white" />
							<path id="Vector_6" d="M33.5226 21.0454C33.5672 23.386 36.0209 25.3276 39.1974 25.434C41.9634 25.5271 44.3547 24.1972 45.1577 22.3221C45.1577 22.4152 45.1845 22.5016 45.1756 22.5881C45.0239 25.0484 42.2222 26.9435 38.9208 26.8304C35.6194 26.7174 33.0764 24.6295 33.2281 22.1758C33.2549 21.7835 33.3709 21.4045 33.5226 21.0454Z" fill="#E8E8E8" />
						</g>
						<g id="Group_6">
							<path id="Vector_7" d="M34.6289 21.0849C34.5575 22.3084 35.8245 23.3524 37.4663 23.4056C39.108 23.4654 40.5089 22.5145 40.5803 21.2911C40.6606 20.0676 39.3846 19.0236 37.7429 18.9704C36.1011 18.9172 34.7002 19.8614 34.6289 21.0849Z" fill="black" />
							<path id="Vector_8" d="M37.6448 20.5996C37.6091 21.0917 38.1177 21.5039 38.778 21.5239C39.4383 21.5438 39.9915 21.1715 40.0272 20.6794C40.054 20.1874 39.5454 19.7751 38.894 19.7551C38.2337 19.7352 37.6805 20.1142 37.6538 20.5996H37.6448Z" fill="white" />
						</g>
					</g>
				</g>
				<path id="Vector_9" d="M58.5952 40.0691C57.7832 53.1419 47.2366 56.8124 34.5397 56.3669C21.8427 55.928 11.8047 51.5394 12.6256 38.4733C13.4465 25.4005 24.8051 8.59739 37.502 9.03625C50.199 9.47512 59.4161 26.9964 58.5952 40.0691Z" fill="#6B50B8" />
				<g id="Group_7">
					<path id="Vector_10" d="M25.2243 6.82186C24.2606 6.82186 23.8412 7.15433 23.6806 7.90571C22.9222 7.10778 22.3065 5.85769 22.6545 4.88022C20.3079 5.33239 19.9777 6.73542 20.5845 8.01875C20.4239 7.86582 20.2722 7.71288 20.1919 7.59319C19.5316 6.57583 19.2104 4.23523 19.7903 2.92529C18.5769 3.51709 18.0594 4.0557 17.6221 4.66079C17.1582 5.31244 16.828 5.97738 16.7477 6.71547C16.7299 6.9083 16.7477 7.10113 16.7656 7.30062C15.7395 6.68887 14.8293 5.66486 14.1155 3.88946C12.1347 4.71399 11.403 6.85511 11.287 8.32463C9.46682 7.5001 8.51209 5.35233 8.29795 4.41476C7.17369 5.09966 6.22789 6.62902 6.51342 8.23819C5.33562 7.80597 4.35413 6.78861 3.06926 5.41883C1.5078 7.69293 2.8462 9.94044 3.72954 10.3394C2.64098 10.4724 1.51672 9.86065 0.00878906 9.04942C1.24904 12.8396 3.5154 15.8584 9.75235 14.4687C13.5891 13.6109 18.0058 11.6028 26.3931 15.6191C26.3931 15.6191 29.5874 15.2999 29.9533 12.4606C27.9189 10.6785 25.028 11.0775 25.2243 6.81521V6.82186Z" fill="#FF2377" />
					<path id="Vector_11" d="M49.815 7.67319C50.7786 7.74634 51.1534 8.09876 51.2158 8.85679C52.0724 8.11206 52.8398 6.90851 52.6167 5.91774C54.9009 6.52949 55.0526 7.94582 54.2852 9.18926C54.4726 9.04297 54.6332 8.90999 54.7314 8.7903C55.5166 7.81948 56.1322 5.51213 55.7129 4.16895C56.8461 4.84054 57.3011 5.41904 57.6491 6.05073C58.0328 6.72897 58.2737 7.41387 58.2648 8.1586C58.2648 8.35144 58.2201 8.54427 58.1666 8.74375C59.2641 8.20515 60.2991 7.25428 61.236 5.53208C63.1098 6.4896 63.5648 8.67061 63.5024 10.1401C65.4207 9.44859 66.6342 7.37397 66.9644 6.45635C67.9994 7.21438 68.7489 8.8036 68.2671 10.3862C69.4895 10.0404 70.5959 9.08952 72.0503 7.81948C73.3173 10.1933 71.7112 12.3344 70.7833 12.6736C71.854 12.8863 73.0496 12.3477 74.6557 11.6496C72.9515 15.34 70.3193 18.1859 64.2786 16.3706C60.5668 15.2535 56.4178 12.9462 47.5576 16.364C47.5576 16.364 44.4078 15.8254 44.3989 12.9728C46.6474 11.3437 49.4759 11.9355 49.8061 7.67984L49.815 7.67319Z" fill="#FF2377" />
				</g>
				<g id="Group_8">
					<path id="Vector_12" d="M41.4816 6.93517C41.776 5.77152 41.5619 4.35519 40.6875 3.34448C40.7856 4.11581 40.3216 4.93369 39.3848 5.34595C39.59 4.54137 38.2337 0.990578 36.5206 -0.00683594C36.8329 1.16346 36.2172 1.92815 35.9941 3.00535C35.8514 2.71943 35.5659 1.76191 35.5034 1.41614C34.5576 2.28722 33.1389 4.32194 33.6564 5.55209C33.4333 5.06003 33.0318 4.44828 32.5232 4.08256C31.4257 6.06409 31.9968 7.83284 34.968 8.67732C34.3881 9.06963 33.0318 8.8901 32.2555 8.76376C33.7456 9.76117 36.2618 9.78112 38.1445 9.64813C39.813 9.52844 41.1425 8.25175 41.4816 6.92187V6.93517Z" fill="#FF2377" />
					<path id="Vector_13" d="M40.9286 11.7293C40.9286 11.7293 36.4316 9.34877 32.1755 11.0643C30.1232 11.8889 31.9613 12.6735 32.4075 12.5006C36.1817 11.0244 40.9286 11.7293 40.9286 11.7293Z" fill="#242424" />
					<g id="Group_9">
						<path id="Vector_14" d="M35.0574 26.9831C29.8465 26.2982 26.3578 22.5879 27.2768 18.7046C27.3571 18.3522 27.4909 17.9997 27.6872 17.5941C29.213 14.2761 33.719 12.2945 38.3855 12.9063C43.3465 13.5579 46.7907 17.0023 46.2107 20.7526C46.2107 20.9122 46.1929 21.0452 46.1572 21.1782C45.2381 25.0614 40.2593 27.6614 35.0484 26.9765L35.0574 26.9831Z" fill="#315400" />
						<g id="Group_10">
							<g id="Group_11">
								<path id="Vector_15" d="M29.2934 18.9705C28.5707 22.0292 31.3099 24.9417 35.4143 25.4803C39.5099 26.0189 43.4269 23.9775 44.1496 20.9187C44.8724 17.86 42.1331 14.9476 38.0376 14.409C33.9332 13.8704 30.0251 15.9117 29.3023 18.9638L29.2934 18.9705Z" fill="white" />
								<path id="Vector_16" d="M29.9091 17.5874C29.454 20.5198 32.104 23.2394 36.0568 23.7581C39.5009 24.2102 42.7756 22.8338 44.1853 20.5796C44.1675 20.6927 44.1853 20.8057 44.1496 20.9188C43.4269 23.9775 39.5188 26.0189 35.4144 25.4803C31.3099 24.9417 28.5707 22.0292 29.2934 18.9705C29.4094 18.4784 29.6325 18.0263 29.9091 17.5874Z" fill="#E8E8E8" />
							</g>
							<g id="Group_12">
								<path id="Vector_17" d="M31.2831 17.7669C30.9262 19.2963 32.2824 20.7459 34.3257 21.0185C36.369 21.2845 38.323 20.2671 38.6799 18.7444C39.0369 17.2217 37.6806 15.7721 35.6284 15.4995C33.5851 15.2335 31.64 16.2442 31.2741 17.7736L31.2831 17.7669Z" fill="black" />
								<path id="Vector_18" d="M35.1555 17.5277C35.0128 18.1328 35.5571 18.718 36.3779 18.8244C37.1899 18.9307 37.9662 18.5251 38.1179 17.92C38.2606 17.3149 37.7163 16.7298 36.9044 16.6234C36.0835 16.517 35.3072 16.9226 35.1645 17.5277H35.1555Z" fill="white" />
							</g>
						</g>
					</g>
					<g id="Group_13">
						<path id="Vector_19" d="M51.3858 25.8928C49.8333 25.0084 48.0844 26.2652 48.0844 26.2652C44.8187 28.2799 40.8838 29.4236 36.5296 29.4236V29.3904C35.9675 29.3771 35.3964 29.3571 34.8343 29.3106C29.9 28.8983 25.8224 27.1096 22.8244 24.39C22.8244 24.39 21.4324 22.9072 19.6836 23.5522C18.0686 24.1506 16.4447 36.2991 31.1224 38.6331V38.6597C31.515 38.7328 31.9166 38.806 32.327 38.8592C32.8713 38.9323 33.4423 38.9855 33.9955 39.0188C51.1449 40.0893 52.8848 26.7506 51.3769 25.8861L51.3858 25.8928Z" fill="#599100" />
						<path id="Vector_20" d="M34.9679 30.341C29.3467 30.0019 24.457 28.0869 21.1735 25.3008C20.9861 25.8194 20.8434 26.3514 20.7809 26.9033C20.2009 32.296 26.2059 37.057 34.1917 37.5357C42.1775 38.0145 49.1193 34.0315 49.6993 28.6321C49.7617 28.0802 49.735 27.535 49.6636 27.003C45.8268 29.3636 40.5982 30.6802 34.9679 30.341Z" fill="#315400" />
						<g id="Group_14">
							<path id="Vector_21" d="M41.66 32.6223C39.4115 35.6677 29.9178 34.5972 29.9178 34.5972C29.9178 34.5972 29.7393 35.8539 29.6055 36.7383C31.0242 37.1572 32.5589 37.4431 34.1917 37.5362C39.3669 37.8421 44.087 36.2728 46.9422 33.6662C45.7823 31.9706 43.4713 30.1686 41.66 32.6223Z" fill="white" />
							<path id="Vector_22" d="M27.4374 35.9469C26.5897 33.8058 27.8389 30.3747 26.3577 31.3056C25.4744 31.8642 24.6 32.9081 23.9575 33.7859C24.939 34.617 26.1079 35.3551 27.4374 35.9469Z" fill="white" />
						</g>
						<g id="Group_15">
							<path id="Vector_23" d="M45.8535 28.8119C46.3353 29.2773 46.8618 29.8758 47.1116 30.5075C47.5934 31.7177 48.7802 28.8185 48.6106 27.5884C47.7451 28.0538 46.8261 28.4595 45.8535 28.8119Z" fill="white" />
							<path id="Vector_24" d="M26.5718 28.4794C25.742 28.1469 24.9568 27.7746 24.2073 27.3623C23.8326 28.0671 23.3508 29.1709 23.3418 30.1285C23.3329 31.5581 24.7695 29.264 26.5718 28.4794Z" fill="white" />
						</g>
					</g>
				</g>
				<g id="Group_16">
					<path id="Vector_25" d="M65.7512 36.1262C67.0539 36.339 66.2063 36.4121 68.9009 36.9242C68.4816 34.6899 67.6161 32.8547 66.4918 31.3187C66.6435 31.3586 66.7952 31.3985 66.9558 31.4251C66.929 31.0394 66.7059 30.6404 66.2598 30.4144C66.7595 30.6537 67.2681 30.9131 67.7321 31.2189C66.929 29.6364 65.7245 27.3689 62.6194 26.1986C61.2274 25.6733 55.9363 23.7849 54.7496 22.9271C55.1957 23.4325 55.0976 24.1041 55.508 24.6161C55.508 24.6161 54.357 24.2503 53.8662 24.2237C53.9644 24.9419 55.6686 26.6508 56.543 26.8237C55.5526 26.9101 55.4634 26.4978 53.1703 26.4181C54.1339 27.2226 55.6329 28.752 56.6858 29.4967C55.5526 29.4302 54.1964 29.4901 53.197 29.9157C54.4373 31.1259 55.9184 31.8506 56.9624 32.9212C56.6055 32.8082 55.0173 32.9478 54.6247 32.8414C55.3028 35.3283 56.8642 35.7406 57.4888 38.3538C57.0338 37.762 55.7043 37.2367 54.6782 36.8976C55.6686 38.4868 55.5169 41.1997 54.928 43.3342C53.9108 43.0549 52.7777 42.7358 52.1709 42.0442C52.4921 43.9792 52.2601 45.3224 50.9128 47.0313C50.5916 46.0206 50.5648 44.7505 49.6815 43.8928C50.5559 45.6881 47.6204 50.2762 45.0685 50.4823C44.8365 49.8839 44.7205 49.2123 44.2744 48.667C43.3286 49.1325 42.704 50.0568 42.2846 50.8148C41.7492 50.2895 41.3299 49.6445 41.1603 49.0062C40.5804 50.2895 40.7677 51.3933 39.3847 52.5836C37.0381 49.8041 37.6627 53.3017 36.3421 54.6781C35.6283 50.6153 32.3894 50.4624 32.8176 46.9116C31.7112 47.018 30.5245 48.1351 30.123 48.9197C29.6769 48.1351 29.9535 45.8144 29.2397 45.2426C28.4009 45.9009 27.8834 45.6017 26.9376 46.619C26.4469 45.6881 26.3309 44.0656 26.3398 43.0549C25.046 43.0549 24.3233 43.8595 24.1002 44.7439C23.2525 42.9419 22.164 40.2622 23.4132 38.5267C21.0397 38.653 19.853 39.943 18.3362 41.0468C17.1762 39.3711 17.9346 37.9748 19.8084 36.5451C18.8358 35.7406 17.8454 35.1355 15.8735 34.8096C16.5159 34.3708 17.3547 33.3734 18.47 33.0409C17.8365 31.4517 16.9888 30.155 15.6683 29.3372C16.6052 29.5034 17.3904 29.4103 18.1755 29.7827C18.2915 28.2732 17.0602 27.349 17.5688 26.4314C17.7651 26.95 17.9614 27.0498 18.2737 27.1428C18.3005 26.3649 18.4165 25.6667 18.3629 24.8953C18.2648 23.499 17.8633 22.9604 18.1131 22.2954C15.8557 23.3593 14.0354 24.4897 13.0985 25.2877C11.1177 26.9833 7.19174 29.3106 4.91646 30.8532C6.67423 31.0195 6.95083 30.7069 5.96934 31.5714C4.63094 32.755 3.40853 33.9253 3.06055 35.5544C5.50536 34.8828 8.27139 33.8854 7.2542 36.4587C6.17456 39.1983 2.35566 44.8237 5.96041 47.3505C6.04072 46.7321 6.45116 46.0671 7.33451 45.9474C7.73603 48.1683 8.42307 50.9012 10.6448 52.5902C10.4664 50.5754 11.9564 50.8148 12.8219 52.3375C14.0087 54.4321 14.9634 59.366 18.9697 59.6918C17.8989 58.7276 18.6841 58.6079 19.6924 59.1731C20.4865 59.6186 21.004 60.6493 21.4769 61.281C21.4948 61.281 21.5126 61.2677 21.5305 61.2611C22.387 62.4513 23.3507 63.4421 23.9931 63.7745C23.8414 63.5019 23.8325 63.2093 23.8861 62.9101C24.1716 63.0697 24.4482 63.2293 24.7069 63.3955C24.7872 63.4487 24.8854 63.5019 24.9835 63.5618C25.5278 63.9674 26.09 64.373 26.6699 64.7055C26.7235 64.6124 26.7681 64.5126 26.8127 64.4129C28.0351 64.9515 29.3021 65.5167 29.659 66.0819C30.239 65.51 30.5156 64.7853 30.9439 64.1137C31.1937 64.4461 31.4525 64.7919 31.6488 64.9515C32.0681 65.2906 32.55 65.6497 33.0764 65.9688C34.4594 67.3187 36.3778 68.7616 37.2076 69.5595C37.2879 69.7923 37.3771 70.0183 37.502 70.2378C38.2337 69.2271 41.0533 66.687 41.9812 64.9249C42.2846 64.6988 42.5701 64.4661 42.8289 64.24C43.3107 64.8916 43.6498 65.6098 44.2654 66.1617C44.7205 65.1842 47.5133 64.0671 48.5751 63.2027C49.0212 62.837 49.5744 62.4846 50.0652 62.0989C50.1276 62.9899 50.0206 63.8743 49.6547 64.7188C51.4482 63.6947 52.8669 61.9127 52.9472 60.1772C53.0453 60.6892 53.3309 61.3209 53.429 61.7664C54.2321 60.7358 55.2939 59.6186 55.5348 58.3819C55.6061 58.0294 55.6151 57.677 55.5883 57.3379C56.3289 57.032 56.7572 57.2315 55.9095 58.076C56.2486 58.0294 56.5698 57.9496 56.8642 57.8499C56.9981 58.2422 57.0784 58.6345 57.0962 59.0268C57.4531 58.3087 58.3989 57.7701 58.8718 57.0586C59.2555 56.4801 59.5678 55.8817 59.7373 55.2566C60.6653 53.5743 61.049 51.5462 61.6022 50.3626C62.3428 48.7934 63.9042 48.4676 63.9488 50.4823C66.1171 48.6604 66.5275 45.8942 66.6881 43.6534C67.6517 43.7199 68.1603 44.3582 68.3209 44.97C71.8722 42.2304 67.2413 38.786 65.7601 36.1262H65.7512Z" fill="#FF2377" />
					<path id="Vector_26" d="M67.7412 31.2188C67.7758 31.2447 67.7758 31.2512 67.7412 31.2188V31.2188Z" fill="#FF2377" />
				</g>
				<path id="Vector_27" d="M59.7817 38.9789C59.4516 40.0162 59.0858 41.233 58.4969 42.3102C58.3273 42.922 58.024 43.5071 57.6492 44.0657C57.1941 44.7572 56.2662 45.2892 55.9182 45.9807C55.9093 45.5951 55.8201 45.216 55.6951 44.837C55.4096 44.9368 55.0973 45.0099 54.7672 45.0565C55.5881 44.2319 55.1776 44.0391 54.4549 44.3383C54.4817 44.6708 54.4727 45.0099 54.4103 45.3557C54.1694 46.5659 53.1433 47.6497 52.3581 48.6538C52.2688 48.2216 51.9922 47.6032 51.8941 47.1045C51.8138 48.7934 50.4397 50.5223 48.6908 51.5263C49.0477 50.7085 49.1548 49.8374 49.0924 48.973C48.6195 49.3453 48.0752 49.6911 47.638 50.0435C46.6029 50.888 43.8815 51.9785 43.4354 52.9294C42.8376 52.3908 42.5074 51.6926 42.0345 51.0609C41.7847 51.2803 41.5081 51.5064 41.2136 51.7258C40.3035 53.448 37.5643 55.915 36.8505 56.8991C36.7345 56.6796 36.6452 56.4602 36.5649 56.2341C35.7619 55.4628 33.8881 54.0598 32.5408 52.7432C32.0322 52.4307 31.5593 52.0782 31.1578 51.7524C30.9704 51.5928 30.7206 51.2537 30.4797 50.9345C30.0692 51.5862 29.8015 52.291 29.2305 52.8496C28.8825 52.2977 27.6423 51.7458 26.4555 51.2205C26.4109 51.3136 26.3663 51.4133 26.3128 51.5064C25.7507 51.1806 25.2064 50.7883 24.671 50.3893C24.5729 50.3361 24.4836 50.2829 24.4033 50.2297C24.1535 50.0701 23.8769 49.9172 23.6003 49.7576C23.5468 50.0502 23.5557 50.3361 23.7074 50.6021C23.0828 50.2762 22.137 49.3187 21.3072 48.1551C21.2893 48.1551 21.2715 48.1684 21.2536 48.175C20.7896 47.5633 20.29 46.5592 19.5137 46.127C18.5322 45.5751 17.7649 45.6881 18.8088 46.6324C14.9096 46.3132 13.9727 41.5057 12.8217 39.4643C12.5629 39.0121 12.2596 38.6796 11.9473 38.4868C10.8944 40.8673 8.19084 45.1695 11.0372 47.1643C11.0996 46.6523 11.4387 46.1004 12.1793 46.0007C12.5094 47.8492 13.0894 50.1167 14.9275 51.5263C14.7758 49.8507 16.016 50.0502 16.7298 51.3136C17.7113 53.0557 18.5144 57.1518 21.8425 57.4244C20.9503 56.6198 21.6105 56.5201 22.4493 56.9922C23.1095 57.3645 23.5378 58.2157 23.9304 58.741C23.9483 58.741 23.9661 58.7277 23.975 58.721C24.6799 59.7118 25.4919 60.5363 26.0273 60.8089C25.9023 60.5829 25.8934 60.3435 25.938 60.0908C26.17 60.2238 26.4109 60.3568 26.6162 60.4964C26.6875 60.543 26.7589 60.5829 26.8481 60.6294C27.3032 60.9685 27.7672 61.301 28.249 61.5803C28.2936 61.5005 28.3293 61.4207 28.3739 61.3342C29.3911 61.7798 30.444 62.2519 30.7384 62.724C31.2203 62.2452 31.4522 61.6468 31.8002 61.0882C32.0144 61.3608 32.2196 61.6534 32.3802 61.7864C32.7282 62.0723 33.1297 62.3649 33.5669 62.6309C34.7179 63.7546 36.3151 64.9515 36.9932 65.6098C37.0646 65.8027 37.136 65.9888 37.2341 66.175C37.8409 65.3306 40.1875 63.2293 40.9549 61.7598C41.2047 61.5736 41.4456 61.3808 41.6598 61.188C42.0613 61.7266 42.3379 62.325 42.8554 62.7838C43.2302 61.9726 45.559 61.0417 46.4423 60.3235C46.8171 60.0177 47.2721 59.7251 47.6826 59.4059C47.7361 60.144 47.6469 60.8821 47.3435 61.5869C48.8336 60.7358 50.0114 59.2596 50.0739 57.8167C50.1542 58.2423 50.3951 58.7676 50.4754 59.1399C51.1446 58.2822 52.019 57.3579 52.2242 56.3272C52.2867 56.0347 52.2867 55.7421 52.2688 55.4562C52.8845 55.2035 53.2325 55.3697 52.5365 56.0679C52.822 56.028 53.0808 55.9615 53.3306 55.8817C53.4377 56.2075 53.5091 56.5334 53.518 56.8592C53.8125 56.2674 54.6066 55.8152 54.9902 55.2234C55.3025 54.7447 55.5702 54.246 55.713 53.7273C56.4803 52.3243 56.8015 50.642 57.2655 49.6645C57.8812 48.3612 59.175 48.0886 59.2196 49.7642C61.022 48.2482 61.361 45.9475 61.4949 44.0923C62.289 44.1455 62.7173 44.6774 62.8511 45.1828C65.3138 43.2811 63.0385 40.9737 61.5127 38.9789H59.7996H59.7817Z" fill="#FF3381" />
				<path id="Vector_28" d="M20.1026 54.9438C20.1026 54.9438 20.0673 54.9901 20.1026 54.9901C20.138 54.9901 20.138 54.9438 20.1026 54.9438Z" fill="#6B50B8" />
				<path id="Vector_29" d="M22.9312 55.1636C22.9312 55.1636 22.8959 55.2098 22.9312 55.2098C22.9666 55.2098 22.9666 55.1636 22.9312 55.1636Z" fill="#6B50B8" />
				<path id="Vector_30" d="M7.6289 47.962C8.12857 45.7611 9.93095 44.3182 11.537 42.5361C13.4911 40.375 15.1239 38.2539 15.2221 35.6207C15.2221 35.4545 14.9366 35.3946 14.8116 35.5276C14.8027 35.5409 14.7938 35.5476 14.7849 35.5609C14.6689 35.1818 14.08 34.8893 13.6339 35.2417C13.5982 35.2683 13.5714 35.3015 13.5446 35.3281C13.4822 35.2616 13.4197 35.2018 13.3394 35.1419C13.3126 35.122 13.2591 35.122 13.2323 35.1419C13.0985 35.2417 12.9736 35.3547 12.8487 35.4744C12.8219 35.388 12.7951 35.3015 12.7684 35.2217C12.5899 34.6898 11.6798 34.743 11.5192 35.2417C11.5192 35.2417 11.5013 35.2483 11.4924 35.255C11.4478 35.2683 11.4121 35.2882 11.3764 35.3215C11.3764 35.3215 11.3675 35.3348 11.3586 35.3414C10.9838 35.5941 10.6805 36.0263 10.4128 36.4918C9.97556 37.1434 9.60081 37.8616 9.26175 38.5797C7.95904 40.4216 6.32619 42.1305 5.08594 43.999C3.93491 45.7345 3.67616 47.6362 3.72969 49.5313C3.74754 50.0633 3.88138 50.8346 4.14013 51.6192C3.93491 52.6166 3.25679 53.521 2.76604 54.5317C2.07007 55.9746 4.12229 58.1822 6.08528 58.4016C6.65633 58.4681 7.29876 58.1423 7.09354 57.6569C6.88832 57.1848 6.55818 56.7526 6.16558 56.347C5.37146 55.5224 5.11271 54.8043 5.27331 54.0862C5.93359 54.9772 6.04066 56.0211 7.42368 56.5531C8.33379 56.8989 9.20821 56.3536 9.12791 55.6554C9.07437 55.2232 8.88699 54.8176 8.64608 54.4319C9.29744 54.5117 10.0648 54.0396 9.77926 53.4678C9.27959 52.4837 8.53009 51.6458 7.32553 51.2003C7.2363 50.1098 7.38799 48.9993 7.61998 47.9687L7.6289 47.962Z" fill="#6B50B8" />
				<path id="Vector_31" d="M68.2582 47.6096C67.6246 45.4087 65.3494 43.9657 63.315 42.1837C60.8434 40.0226 58.7823 37.9015 58.6484 35.2683C58.6484 35.102 59.0053 35.0422 59.1659 35.1685C59.1749 35.1818 59.1927 35.1951 59.2016 35.2018C59.3444 34.8228 60.0939 34.5302 60.656 34.8826C60.7007 34.9092 60.7274 34.9425 60.7631 34.9691C60.8345 34.9026 60.9148 34.8361 61.0219 34.7762C61.0576 34.7563 61.1289 34.7563 61.1646 34.7762C61.3342 34.876 61.4948 34.989 61.6464 35.1087C61.6821 35.0222 61.7178 34.9358 61.7446 34.856C61.9677 34.3241 63.1187 34.3773 63.3239 34.876C63.3328 34.876 63.3418 34.8826 63.3596 34.8893C63.4131 34.9026 63.4667 34.9225 63.5024 34.9558C63.5024 34.9558 63.5202 34.9691 63.5202 34.9757C63.9931 35.2284 64.3857 35.6606 64.7158 36.1261C65.2691 36.7711 65.742 37.4958 66.1792 38.214C67.8299 40.0559 69.891 41.7648 71.4614 43.6333C72.9247 45.3688 73.2459 47.2705 73.1745 49.1656C73.1567 49.6975 72.9872 50.4689 72.6481 51.2535C72.9069 52.2509 73.7634 53.1552 74.3791 54.166C75.2535 55.6089 72.6749 57.8165 70.1855 58.0359C69.4627 58.1024 68.6508 57.7766 68.9095 57.2912C69.1683 56.8124 69.5876 56.3869 70.0784 55.9812C71.0777 55.1567 71.4079 54.4386 71.2026 53.7204C70.3639 54.6115 70.239 55.6554 68.4812 56.1874C67.3302 56.5398 66.2327 55.9879 66.3309 55.2897C66.3933 54.8575 66.6342 54.4585 66.9376 54.0662C66.1167 54.146 65.1441 53.6739 65.51 53.102C66.1435 52.1179 67.0893 51.2801 68.6151 50.8346C68.7311 49.7441 68.5437 48.6336 68.2403 47.603L68.2582 47.6096Z" fill="#6B50B8" />
				<path id="Vector_32" d="M11.6887 34.0115C9.75251 35.3215 9.3153 37.1368 8.37842 38.839C8.68179 38.4268 8.89593 37.8482 9.44022 37.5756C9.52052 37.6089 9.64544 37.6554 9.71682 37.702C9.0387 38.44 9.24392 39.7034 9.3153 40.5546C9.89527 39.8298 10.8143 38.9454 12.001 38.7592C11.6263 39.4175 11.3051 40.0093 11.2872 40.8205C11.2783 41.419 11.421 43.7463 12.4293 43.9059C12.4739 43.068 12.349 41.4589 13.7142 41.153C13.7945 41.7714 14.5886 42.9018 15.2132 43.2675C15.0437 42.2435 14.8295 41.173 15.0793 40.1024C15.2578 39.3577 15.9092 38.061 15.115 37.416C15.5879 37.7086 15.7753 38.1275 16.3553 38.3204C17.2029 37.4892 16.3017 35.7204 15.5522 35.0555C15.1329 34.6831 14.5797 34.4836 14.8563 33.9982C15.1329 33.5128 17.426 32.0101 15.115 32.3292C13.8748 32.5021 12.5988 33.3931 11.6977 34.0049L11.6887 34.0115Z" fill="#FF2377" />
				<path id="Vector_33" d="M65.0107 37.2497C64.7876 35.574 63.8686 34.2708 61.4327 33.6524C60.3798 33.3864 58.7648 33.6723 57.5156 34.2508C57.9082 34.8426 58.0956 35.5275 58.2205 36.1858C58.4079 37.1367 58.622 38.0875 58.7023 39.045C58.8808 39.4507 59.0146 39.8629 59.2288 40.2552C59.3626 40.5013 60.4244 41.5452 60.362 41.7248C60.6118 41.0066 60.8081 40.2419 61.0579 39.5238C61.3881 39.8895 61.8164 40.355 62.2982 40.6143C62.9228 39.1381 62.9138 37.8415 61.2453 36.7377C62.1554 37.1234 63.4938 38.4067 63.708 39.1049C63.8596 38.4067 64.1006 37.4425 63.7793 36.8374C64.1006 37.0835 64.5288 37.2231 65.0017 37.263L65.0107 37.2497Z" fill="#FF2377" />
				<path id="Vector_34" d="M23.3504 19.6421C23.0292 19.6421 22.7348 19.7684 22.6901 20.0278C22.6545 20.2472 22.8864 20.5198 23.2077 20.5198C23.5289 20.5198 23.8233 20.3935 23.8679 20.1341C23.9036 19.9147 23.6716 19.6421 23.3504 19.6421Z" fill="#FF2377" />
				<path id="Vector_35" d="M25.4918 22.2422C25.233 22.2422 25.2152 22.5414 25.474 22.5414C25.7327 22.5414 25.7506 22.2422 25.4918 22.2422Z" fill="#FF2377" />
				<path id="Vector_36" d="M25.4117 23.7516C25.4117 23.6718 25.3404 23.5986 25.2244 23.5986C25.1797 23.5986 25.1262 23.5986 25.0816 23.5986C24.7961 23.5986 24.6622 23.8713 24.8585 24.0175C25.0638 24.1705 25.4207 24.0574 25.4117 23.838C25.4117 23.8114 25.4117 23.7782 25.4117 23.7516Z" fill="#FF2377" />
				<path id="Vector_37" d="M28.2672 24.8555C27.5177 24.8555 27.366 25.7332 28.1244 25.7332C28.8829 25.7332 29.0256 24.8555 28.2672 24.8555Z" fill="#FF2377" />
				<path id="Vector_38" d="M30.6404 26.4844C29.534 26.4844 29.5697 27.7611 30.6672 27.7611C31.7646 27.7611 31.7379 26.4844 30.6404 26.4844Z" fill="#FF2377" />
				<path id="Vector_39" d="M33.6921 28.0738C33.6831 28.0405 33.6028 28.0405 33.585 28.0738C33.5761 28.1004 33.5671 28.1336 33.5493 28.1602C33.5047 28.2799 33.7545 28.2666 33.7188 28.1735C33.7099 28.1403 33.6921 28.107 33.6831 28.0738H33.6921Z" fill="#FF2377" />
				<path id="Vector_40" d="M33.5133 28.4862C33.4866 28.2135 33.4598 27.9342 33.433 27.6616C33.3349 27.6749 33.2456 27.7015 33.1653 27.7481C33.1653 27.7481 33.1653 27.7547 33.1475 27.7614C33.1207 27.7614 33.085 27.788 33.0315 27.8412C32.9423 27.9276 32.8977 28.034 32.9155 28.1404C32.9333 28.2335 33.0047 28.3332 33.1118 28.3997C33.201 28.4662 33.3081 28.5128 33.4419 28.5128C33.3884 28.5128 33.3527 28.4995 33.317 28.4795C33.3795 28.4928 33.4509 28.4928 33.5133 28.4795V28.4862Z" fill="#FF2377" />
				<path id="Vector_41" d="M35.7085 28.3398C35.3159 28.3398 35.3159 28.7987 35.7085 28.7987C36.1011 28.7987 36.1011 28.3398 35.7085 28.3398Z" fill="#FF2377" />
				<path id="Vector_42" d="M37.8858 27.5815C37.3416 27.5815 37.3951 28.2132 37.9394 28.2132C38.4837 28.2132 38.4301 27.5815 37.8858 27.5815Z" fill="#FF2377" />
				<path id="Vector_43" d="M40.5265 27.6216C39.554 27.6216 39.5004 28.752 40.4819 28.752C41.4634 28.752 41.508 27.6216 40.5265 27.6216Z" fill="#FF2377" />
				<path id="Vector_44" d="M42.8913 26.1318C42.1775 26.1318 42.3292 26.9564 43.043 26.9564C43.7568 26.9564 43.6051 26.1318 42.8913 26.1318Z" fill="#FF2377" />
				<path id="Vector_45" d="M44.3189 27.0166C43.6319 27.0166 43.7657 27.8079 44.4528 27.8079C45.1398 27.8079 45.006 27.0166 44.3189 27.0166Z" fill="#FF2377" />
				<path id="Vector_46" d="M46.5852 25.2544C46.1301 25.2544 45.7554 25.5403 45.7554 25.8728C45.7554 26.2119 46.1301 26.4912 46.5852 26.4912C47.0402 26.4912 47.415 26.2053 47.415 25.8728C47.415 25.5337 47.0313 25.261 46.5852 25.261V25.2544Z" fill="#FF2377" />
				<path id="Vector_47" d="M48.7978 22.1426C48.5301 22.1426 48.5123 22.4551 48.78 22.4551C49.0476 22.4551 49.0655 22.1426 48.7978 22.1426Z" fill="#FF2377" />
				<path id="Vector_48" d="M50.4755 24.0176C50.1097 24.0176 50.1007 24.4431 50.4755 24.4431C50.8502 24.4431 50.8502 24.0176 50.4755 24.0176Z" fill="#FF2377" />
				<path id="Vector_49" d="M47.9949 24.1506C47.9949 24.1506 47.9949 24.1373 47.9949 24.1307C48.093 23.8913 47.7808 23.612 47.4328 23.6453C46.9509 23.6852 46.8706 24.0974 47.1651 24.3235C47.3703 24.4831 47.6915 24.4033 47.87 24.277L47.8878 24.2637C47.8967 24.257 47.8968 24.2437 47.9146 24.2371C47.9414 24.2105 47.9681 24.1839 47.9771 24.1573L47.9949 24.1506Z" fill="#FF2377" />
				<path id="Vector_50" d="M47.897 20.1807C47.7364 20.1807 47.7096 20.3668 47.8791 20.3668C48.0486 20.3668 48.0665 20.1807 47.897 20.1807Z" fill="#FF2377" />
				<path id="Vector_51" d="M50.2078 21.1914C49.7974 21.1914 49.8063 21.6702 50.2078 21.6702C50.6093 21.6702 50.6093 21.1914 50.2078 21.1914Z" fill="#FF2377" />
				<path id="Vector_52" d="M51.8944 21.637C51.8231 21.1849 51.3145 20.9521 50.7523 20.9521C50.1902 20.9521 49.7798 21.4176 49.8333 21.8033C49.9047 22.2554 50.4133 22.4882 50.9754 22.4882C51.5375 22.4882 51.948 22.0227 51.8944 21.637Z" fill="#FF2377" />
				<path id="Vector_53" d="M22.8599 21.9692C22.2978 21.9692 22.3603 22.6209 22.9224 22.6209C23.4845 22.6209 23.4221 21.9692 22.8599 21.9692Z" fill="#FF2377" />
				<path id="Vector_54" d="M22.9045 21.3911C22.4495 21.3911 22.0747 21.677 22.0747 22.0162C22.0747 22.3553 22.4584 22.6346 22.9134 22.6346C23.3685 22.6346 23.7432 22.3486 23.7432 22.0095C23.7432 21.6704 23.3596 21.3911 22.9045 21.3911Z" fill="#FF2377" />
				<path id="Vector_55" d="M25.7418 19.5293C25.5634 19.5293 25.4206 19.7088 25.5723 19.8086L25.6169 19.8352C25.6615 19.895 25.7865 19.9216 25.84 19.8485C25.8578 19.8352 25.8668 19.8285 25.8846 19.8152C26.0274 19.7155 25.9381 19.5293 25.7418 19.5293Z" fill="#FF2377" />
				<path id="Vector_56" d="M24.4571 23.3925C24.2786 23.2728 24.0555 23.2927 23.8325 23.306C23.1543 23.3526 23.19 24.1439 23.8592 24.1904C23.9038 24.1904 23.9574 24.1971 24.002 24.1971C24.2697 24.1971 24.5374 24.1173 24.6355 23.9111C24.6355 23.9111 24.6355 23.9111 24.6355 23.9045C24.7337 23.7117 24.6534 23.5255 24.4481 23.3925H24.4571Z" fill="#FF2377" />
				<path id="Vector_57" d="M27.1607 25.3206C27.1875 25.3938 27.1875 25.4071 27.1607 25.3605C27.1607 25.3605 27.1607 25.3472 27.1607 25.3406C27.0715 25.0347 26.4737 25.0946 26.3844 25.3672C26.3844 25.3805 26.3755 25.4004 26.3666 25.4137C26.2952 25.6598 26.7057 25.9124 27.0001 25.7395L27.1518 25.6465C27.2767 25.5733 27.2767 25.3938 27.1518 25.3206H27.1607Z" fill="#FF2377" />
				<path id="Vector_58" d="M26.8751 22.3951C26.8038 22.3353 26.7056 22.3087 26.6075 22.2954C25.9918 22.189 25.965 22.9936 26.6432 22.8739C26.7413 22.8539 26.8127 22.8273 26.8841 22.7741C27.0179 22.6677 27.009 22.5015 26.8841 22.4018L26.8751 22.3951Z" fill="#FF2377" />
				<path id="Vector_59" d="M45.3718 25.2276C45.3718 25.2276 45.354 25.2076 45.354 25.1943C45.2291 25.0081 44.8454 25.0347 44.7205 25.2076C44.7115 25.2209 44.7026 25.2342 44.6937 25.2475C44.5509 25.447 44.7651 25.693 45.0684 25.6797C45.3897 25.6664 45.5146 25.4204 45.3807 25.2276H45.3718Z" fill="#FF2377" />
				<path id="Vector_60" d="M42.9182 27.7809C42.8825 27.5814 42.5166 27.6413 42.481 27.8142C42.481 27.8408 42.481 27.8674 42.481 27.894C42.4988 28.1067 42.9092 28.1267 42.9271 27.9073C42.9271 27.8674 42.9271 27.8275 42.9271 27.7809H42.9182Z" fill="#FF2377" />
				<path id="Vector_61" d="M34.9768 27.2891C34.0935 27.2891 33.9953 28.3131 34.8787 28.3131C35.762 28.3131 35.8602 27.2891 34.9768 27.2891Z" fill="#FF2377" />
				<path id="Vector_62" d="M33.1654 27.5884C32.7996 27.5884 32.4695 27.7613 32.4427 28.0538C32.4159 28.3132 32.6925 28.5924 33.0673 28.5924C33.442 28.5924 33.7633 28.4196 33.79 28.127C33.8168 27.8677 33.5313 27.5884 33.1654 27.5884Z" fill="#FF2377" />
				<path id="Vector_63" d="M24.6978 21.2183C24.6978 21.2183 24.6625 21.2645 24.6978 21.2645C24.7332 21.2645 24.7244 21.2183 24.6978 21.2183Z" fill="#FF2377" />
				<path id="Vector_64" d="M24.6891 20.9785C24.243 20.9785 24.2608 21.4972 24.7069 21.4972C25.1531 21.4972 25.1352 20.9785 24.6891 20.9785Z" fill="#FF2377" />
				<path id="Vector_65" d="M46.987 21.7369C46.987 21.7369 46.9602 21.7303 46.9513 21.7236C46.1661 21.451 45.8806 22.5083 46.6568 22.5149C46.6925 22.5149 46.7193 22.5149 46.755 22.5149C46.7639 22.5149 46.7817 22.5149 46.7907 22.5149H46.8353C47.0762 22.5149 47.2636 22.3886 47.2725 22.2157C47.3439 22.0362 47.2546 21.83 46.987 21.7303V21.7369Z" fill="#FF2377" />
				<path id="Vector_66" d="M49.726 24.5563C49.6725 24.2238 48.9587 24.144 48.8962 24.5097C48.8962 24.523 48.8962 24.5363 48.8962 24.5496C48.8159 25.0284 49.8064 25.035 49.735 24.5895C49.735 24.5762 49.735 24.5629 49.735 24.5496L49.726 24.5563Z" fill="#FF2377" />
				<path id="Vector_67" d="M38.4301 28.5725C38.4122 28.5326 38.4033 28.5193 38.3944 28.526C38.3944 28.5127 38.3944 28.4994 38.3765 28.4927C38.3765 28.4927 38.3855 28.4927 38.3944 28.4927C38.2784 28.3398 38.0107 28.3797 37.9304 28.526C37.9126 28.5526 37.9036 28.5792 37.8947 28.6058C37.7966 28.9516 38.5372 28.9516 38.4479 28.6058C38.4479 28.5925 38.4479 28.5792 38.439 28.5592L38.4301 28.5725Z" fill="#FF2377" />
				<path id="Vector_68" d="M41.535 26.684C41.535 26.684 41.4457 26.6308 41.3922 26.6175C41.187 26.5511 40.9461 26.6043 40.8925 26.7771C40.839 26.95 41.071 27.1628 41.3208 27.083C41.419 27.0631 41.4993 27.0232 41.5707 26.97C41.7045 26.8968 41.651 26.7505 41.535 26.684Z" fill="#FF2377" />
				<path id="Vector_69" d="M26.1078 17.5942C25.8044 17.5942 25.5903 17.8602 25.626 18.0597C25.6706 18.3057 25.9472 18.4188 26.2505 18.4188C26.5539 18.4188 26.7681 18.1528 26.7324 17.9533C26.6878 17.7073 26.4112 17.5942 26.1078 17.5942Z" fill="#FF2377" />
				<path id="Vector_70" d="M47.7185 18.4717C47.3349 18.4717 46.9958 18.6645 46.969 18.9637C46.9512 19.2364 47.2456 19.5156 47.6293 19.5156C48.013 19.5156 48.352 19.3228 48.3699 19.0236C48.3877 18.751 48.0933 18.4717 47.7096 18.4717H47.7185Z" fill="#FF2377" />
				<path id="Vector_71" d="M47.4596 21.0383C47.4239 21.0782 47.3971 21.1248 47.3793 21.1713C47.2901 21.4107 47.6291 21.5836 47.9057 21.5237C47.9771 21.5104 48.0307 21.4838 48.0931 21.4506C48.6552 21.1846 47.87 20.5596 47.4596 21.0317V21.0383Z" fill="#FF2377" />
				<path id="Vector_72" d="M49.3246 20.6064C48.9588 20.6064 48.9499 21.032 49.3246 21.032C49.6994 21.032 49.6994 20.6064 49.3246 20.6064Z" fill="#FF2377" />
				<path id="Vector_73" d="M45.8178 24.0642C45.8178 23.9911 45.7375 23.9512 45.6572 23.9512C45.6483 23.9512 45.6394 23.9512 45.6215 23.9512C45.5144 23.9512 45.3984 24.0044 45.3984 24.0975C45.3984 24.1839 45.4877 24.257 45.5947 24.257C45.6304 24.257 45.6572 24.257 45.675 24.2504C45.6661 24.2703 45.675 24.2637 45.7375 24.2238C45.7821 24.1972 45.8089 24.1573 45.8089 24.1108C45.8089 24.0975 45.8089 24.0842 45.8089 24.0709L45.8178 24.0642Z" fill="#FF2377" />
				<path id="Vector_74" d="M28.1599 26.4845C28.1599 26.4845 28.1153 26.4845 28.0974 26.4912C27.8565 26.5244 27.7762 26.7638 27.8922 26.8968C27.9547 26.9766 28.0796 27.0165 28.1956 27.0231C28.1956 27.0231 28.1956 27.0231 28.1956 27.0298C28.7845 27.1162 28.8023 26.3914 28.1688 26.4779L28.1599 26.4845Z" fill="#FF2377" />
				<path id="Vector_75" d="M30.0337 26.0454C29.7928 26.0454 29.766 26.3247 30.0158 26.3247C30.2657 26.3247 30.2835 26.0454 30.0337 26.0454Z" fill="#FF2377" />
				<path id="Vector_76" d="M26.741 23.9111C26.741 23.9111 26.7588 23.9377 26.7678 23.9576C26.7856 23.9842 26.8302 23.9842 26.8391 23.9576L26.8659 23.9111C26.9194 23.8247 26.6875 23.818 26.741 23.9111Z" fill="#FF2377" />
				<path id="Vector_77" d="M26.8753 23.645C26.4381 23.645 26.4559 24.1437 26.8931 24.1437C27.3303 24.1437 27.3125 23.645 26.8753 23.645Z" fill="#FF2377" />
				<path id="Vector_78" d="M25.0014 24.915C24.707 24.915 24.6892 25.2542 24.9836 25.2542C25.278 25.2542 25.2959 24.915 25.0014 24.915Z" fill="#FF2377" />
				<path id="Vector_79" d="M25.0189 18.5984C25.0189 18.5984 25.0011 18.5984 24.9832 18.5918C24.6442 18.512 24.662 18.9508 24.9654 18.8843H24.9922C25.1617 18.8378 25.2063 18.645 25.01 18.6051L25.0189 18.5984Z" fill="#FF2377" />
				<path id="Vector_80" d="M26.295 21.0255C26.295 21.0255 26.2682 21.0255 26.2593 21.0255C25.7061 20.9789 25.6972 21.5973 26.1879 21.5574C26.1968 21.5574 26.2147 21.5574 26.2236 21.5574C26.5984 21.5242 26.7233 21.0653 26.295 21.0321V21.0255Z" fill="#FF2377" />
				<path id="Vector_81" d="M48.807 22.7539C48.2895 22.7539 48.3341 23.3524 48.8516 23.3524C49.3691 23.3524 49.3245 22.7539 48.807 22.7539Z" fill="#FF2377" />
				<path id="Vector_82" d="M47.9863 25.3208C47.4866 25.3208 47.5223 25.8927 48.022 25.8927C48.5217 25.8927 48.486 25.3208 47.9863 25.3208Z" fill="#FF2377" />
				<path id="Vector_83" d="M8.28906 42.3501C8.28906 42.3501 8.20875 42.3301 8.16414 42.3235C7.91431 42.2703 7.71801 42.4764 7.834 42.636C7.91431 42.7491 8.05707 42.7756 8.20875 42.7823C8.31583 42.7889 8.43182 42.7158 8.4229 42.636C8.4229 42.636 8.4229 42.6227 8.4229 42.6161C8.49428 42.523 8.45859 42.39 8.28906 42.3501Z" fill="#FF2377" />
				<path id="Vector_84" d="M7.28105 43.5669C6.85276 43.5669 6.86168 44.0656 7.29889 44.0656C7.73611 44.0656 7.71826 43.5669 7.28105 43.5669Z" fill="#FF2377" />
				<path id="Vector_85" d="M7.39682 42.3364C7.03991 42.3497 6.93284 42.6622 7.14698 42.8418C7.14698 42.8484 7.16483 42.8551 7.17375 42.8617C7.31651 42.9615 7.52174 42.9548 7.65558 42.8617C7.67342 42.8551 7.68234 42.8418 7.69127 42.8351C7.92326 42.6489 7.72696 42.3364 7.3879 42.3497L7.39682 42.3364Z" fill="#FF2377" />
				<path id="Vector_86" d="M5.54992 44.4978C5.54992 44.4978 5.58561 44.5377 5.60346 44.5576C5.64807 44.6042 5.7373 44.5975 5.78191 44.5576C5.79976 44.531 5.82653 44.5111 5.84437 44.4845C6.08528 44.2252 5.27332 44.2052 5.54992 44.4978Z" fill="#FF2377" />
				<path id="Vector_87" d="M5.49623 46.1271C5.49623 46.1271 5.407 46.1138 5.37131 46.1071C4.95195 46.0406 4.95195 46.546 5.36239 46.4795C5.39808 46.4795 5.44269 46.4662 5.48731 46.4595C5.70145 46.4263 5.73714 46.167 5.50515 46.1271H5.49623Z" fill="#FF2377" />
				<path id="Vector_88" d="M7.04904 44.438C6.6386 44.438 6.28169 44.6707 6.26385 44.9832C6.25493 45.2825 6.58506 45.5684 6.99551 45.5684C7.40595 45.5684 7.76286 45.3357 7.7807 45.0231C7.78963 44.7239 7.45949 44.438 7.04904 44.438Z" fill="#FF2377" />
				<path id="Vector_89" d="M5.13042 46.2666C4.55045 46.2666 4.62183 46.9315 5.20181 46.9315C5.78178 46.9315 5.70148 46.2666 5.13042 46.2666Z" fill="#FF2377" />
				<path id="Vector_90" d="M5.2913 48.5073C4.86301 48.5073 4.87194 49.006 5.30915 49.006C5.74636 49.006 5.72851 48.5073 5.2913 48.5073Z" fill="#FF2377" />
				<path id="Vector_91" d="M66.2776 41.1665C66.2776 41.1665 66.2776 41.233 66.2776 41.2662C66.3043 41.6785 67.0895 41.6186 67.1074 41.2263V41.1266C67.1431 40.7276 66.2419 40.7542 66.2687 41.1665H66.2776Z" fill="#FF2377" />
				<path id="Vector_92" d="M67.4287 42.2104C66.9022 42.2104 66.5007 42.6161 66.5364 42.9818C66.581 43.394 67.045 43.6467 67.5714 43.6467C68.0979 43.6467 68.4994 43.2411 68.4637 42.8754C68.428 42.4631 67.9551 42.2104 67.4287 42.2104Z" fill="#FF2377" />
				<path id="Vector_93" d="M71.283 44.5708C70.9618 44.5708 70.6763 44.6905 70.6317 44.9498C70.596 45.1626 70.8191 45.4352 71.1403 45.4352C71.4615 45.4352 71.747 45.3155 71.7916 45.0562C71.8273 44.8434 71.6042 44.5708 71.283 44.5708Z" fill="#FF2377" />
				<path id="Vector_94" d="M67.6782 44.4578C67.5354 44.4046 67.4194 44.4245 67.2677 44.4511C66.9198 44.5176 66.9555 44.8966 67.2856 44.9631C67.3034 44.9631 67.3213 44.9631 67.3391 44.9631C67.4908 45.0296 67.6871 44.9964 67.7942 44.8767C67.8031 44.8634 67.8209 44.8501 67.8299 44.8368C67.928 44.7104 67.8566 44.5243 67.6782 44.4578Z" fill="#FF2377" />
				<path id="Vector_95" d="M69.6323 45.9209C69.3379 45.9209 69.32 46.2667 69.6145 46.2667C69.9089 46.2667 69.9268 45.9209 69.6323 45.9209Z" fill="#FF2377" />
				<path id="Vector_96" d="M72.0057 46.5658C72.0057 46.5658 71.9165 46.5658 71.8718 46.5658C71.7291 46.5658 71.5685 46.6589 71.5863 46.7786C71.622 46.9714 71.8451 47.0778 72.086 46.998C72.086 46.998 72.0949 46.998 72.1038 46.9913C72.3804 46.9315 72.3537 46.5525 72.0146 46.5658H72.0057Z" fill="#FF2377" />
				<path id="Vector_97" d="M70.8101 48.1285C70.9083 47.663 69.9268 47.6697 70.016 48.0819C70.016 48.0952 70.016 48.1152 70.0249 48.1285C70.0874 48.4077 70.6227 48.5075 70.7655 48.2482C70.7833 48.2216 70.7923 48.2016 70.8012 48.175V48.1218L70.8101 48.1285Z" fill="#FF2377" />
				<path id="Vector_98" d="M69.2312 42.0439C68.9367 42.0439 68.7315 42.2966 68.7672 42.4895C68.8029 42.7222 69.0706 42.8352 69.365 42.8352C69.6595 42.8352 69.8647 42.5825 69.829 42.3897C69.7933 42.1503 69.5256 42.0439 69.2312 42.0439Z" fill="#FF2377" />
				<path id="Vector_99" d="M69.8556 42.8154C69.4095 42.8154 69.4273 43.3341 69.8734 43.3341C70.3196 43.3341 70.3017 42.8154 69.8556 42.8154Z" fill="#FF2377" />
				<path id="Vector_100" d="M69.6501 43.5337C69.0791 43.5337 69.1505 44.1986 69.7215 44.1986C70.2926 44.1986 70.2212 43.5337 69.6501 43.5337Z" fill="#FF2377" />
			</g>
		</g>
	</g>
</svg>
