<svg xmlns="http://www.w3.org/2000/svg" width="20" height="20" viewBox="0 0 20 20" fill="none">
	<path opacity="0.4" d="M16.1167 12.0748L15.2833 10.6915C15.1083 10.3832 14.95 9.79984 14.95 9.45817V7.34984C14.95 4.63317 12.7417 2.4165 10.0167 2.4165C7.29166 2.4165 5.08333 4.63317 5.08333 7.34984V9.45817C5.08333 9.79984 4.92499 10.3832 4.74999 10.6832L3.90833 12.0748C3.57499 12.6332 3.49999 13.2498 3.70833 13.8165C3.90833 14.3748 4.38333 14.8082 4.99999 15.0165C6.61666 15.5665 8.31666 15.8332 10.0167 15.8332C11.7167 15.8332 13.4167 15.5665 15.0333 15.0248C15.6167 14.8332 16.0667 14.3915 16.2833 13.8165C16.5 13.2415 16.4417 12.6082 16.1167 12.0748Z" fill="#F7B27A" />
	<path d="M11.875 2.7665C11.3 2.5415 10.675 2.4165 10.0167 2.4165C9.36669 2.4165 8.74169 2.53317 8.16669 2.7665C8.52502 2.0915 9.23335 1.6665 10.0167 1.6665C10.8084 1.6665 11.5084 2.0915 11.875 2.7665Z" fill="#36BFFA" />
	<path d="M12.3584 16.6748C12.0084 17.6415 11.0834 18.3332 10 18.3332C9.34169 18.3332 8.69169 18.0665 8.23336 17.5915C7.96669 17.3415 7.76669 17.0082 7.65002 16.6665C7.75836 16.6832 7.86669 16.6915 7.98336 16.7082C8.17502 16.7332 8.37502 16.7582 8.57502 16.7748C9.05002 16.8165 9.53336 16.8415 10.0167 16.8415C10.4917 16.8415 10.9667 16.8165 11.4334 16.7748C11.6084 16.7582 11.7834 16.7498 11.95 16.7248C12.0834 16.7082 12.2167 16.6915 12.3584 16.6748Z" fill="#36BFFA" />
</svg>
