<svg xmlns="http://www.w3.org/2000/svg" width="103" height="103" viewBox="0 0 103 103" fill="none">
  <path d="M80.4688 93.3438H25.75C23.0833 93.3438 20.9219 91.1824 20.9219 88.5156V14.4844C20.9219 11.8176 23.0833 9.65625 25.75 9.65625H80.4688C83.1355 9.65625 85.2969 11.8176 85.2969 14.4844V88.5156C85.2969 91.1824 83.1355 93.3438 80.4688 93.3438Z" fill="#C94000"/>
  <g filter="url(#filter0_i_187_8803)">
    <path d="M22 88.5C22 86.567 23.567 85 25.5 85H84V89C84 90.6569 82.6569 92 81 92H25.5C23.567 92 22 90.433 22 88.5Z" fill="white"/>
  </g>
  <path d="M80.4688 83.6875H20.9219V14.4844C20.9219 11.8176 23.0833 9.65625 25.75 9.65625H80.4688C83.1355 9.65625 85.2969 11.8176 85.2969 14.4844V78.8594C85.2969 81.5261 83.1355 83.6875 80.4688 83.6875Z" fill="#EC520B"/>
  <path d="M80.4688 83.6875H20.9219V14.4844C20.9219 11.8176 23.0833 9.65625 25.75 9.65625H80.4688C83.1355 9.65625 85.2969 11.8176 85.2969 14.4844V78.8594C85.2969 81.5261 83.1355 83.6875 80.4688 83.6875Z" fill="#EC520B"/>
  <path d="M30.5781 83.6875H25.75C23.0833 83.6875 20.9219 85.8489 20.9219 88.5156V14.4844C20.9219 11.8176 23.0833 9.65625 25.75 9.65625H30.5781V83.6875Z" fill="#EC520B"/>
  <rect opacity="0.2" x="24" y="13" width="58" height="68" rx="3" fill="white"/>
  <path d="M50.7713 69.0702C49.9991 68.5207 49.1437 68.613 48.2836 68.807C48.2512 68.7469 48.2189 68.6823 48.2004 68.613C47.9738 67.7172 48.1033 66.5952 48.2004 65.6763C48.3576 64.1803 48.7368 62.6888 49.0281 61.2158C49.0604 61.045 48.8524 60.9573 48.7506 61.0958C48.0247 62.1347 47.6316 63.423 47.3912 64.6974C46.9241 63.2106 46.2675 61.7469 45.9485 60.2924C45.9115 60.1307 45.6525 60.1631 45.6572 60.3293C45.6942 61.6914 46.3138 63.012 46.6513 64.3188C46.9935 65.6394 47.197 67.2416 46.9519 68.6453C45.9392 69.2687 44.2006 68.9917 43.0677 69.3611C42.8596 69.4303 42.6885 69.6935 42.7348 69.9105C43.0215 71.2912 44.0573 71.2912 45.1485 70.9864C45.0745 71.2357 45.1254 71.4759 45.3843 71.6975C46.3831 72.5425 47.0397 71.4343 47.627 70.5939C48.1449 71.3142 48.9587 72.2516 49.8141 71.5913C50.3274 71.1942 50.2673 70.7417 49.9575 70.3353C50.3274 70.2707 50.6511 70.1183 50.8453 69.8136C50.9933 69.5827 51.0256 69.2502 50.7713 69.0702Z" fill="#6B50B8"/>
  <path d="M55.1225 69.0702C55.927 68.5207 56.8102 68.613 57.7073 68.807C57.7443 68.7469 57.772 68.6823 57.7905 68.613C58.0264 67.7172 57.8876 66.5952 57.7905 65.6763C57.6287 64.1803 57.231 62.6888 56.9351 61.2158C56.8981 61.045 57.12 60.9573 57.2218 61.0958C57.9755 62.1347 58.387 63.423 58.6321 64.6974C59.113 63.2106 59.7973 61.7469 60.1303 60.2924C60.1673 60.1307 60.4355 60.1631 60.4308 60.3293C60.3938 61.6914 59.7465 63.012 59.3951 64.3188C59.039 65.6394 58.8263 67.2416 59.0852 68.6453C60.1395 69.2687 61.9429 68.9917 63.1128 69.3611C63.3255 69.4303 63.5058 69.6935 63.4596 69.9105C63.159 71.2912 62.0909 71.2912 60.9534 70.9864C61.032 71.2357 60.9811 71.4759 60.7083 71.6975C59.6679 72.5425 58.9881 71.4343 58.3824 70.5939C57.846 71.3142 56.9998 72.2516 56.112 71.5913C55.5802 71.1942 55.6404 70.7417 55.964 70.3353C55.5802 70.2707 55.2473 70.1183 55.0392 69.8136C54.8866 69.5827 54.8543 69.2502 55.1178 69.0702H55.1225Z" fill="#6B50B8"/>
  <g style="mix-blend-mode:multiply">
    <path d="M54.1378 41.292C52.0708 41.1951 50.4709 39.4404 50.568 37.3764C50.5773 37.1917 50.605 37.007 50.6559 36.7854C51.0258 34.98 52.6396 33.724 54.4892 33.8071C56.5561 33.9041 58.156 35.6587 58.0636 37.7227C57.9665 39.7867 56.2093 41.3844 54.1424 41.292H54.1378Z" fill="#F0D907"/>
  </g>
  <path d="M54.1378 41.292C52.0708 41.1951 50.4709 39.4404 50.568 37.3764C50.5773 37.1917 50.605 37.007 50.6559 36.7854C51.0258 34.98 52.6396 33.724 54.4892 33.8071C56.5561 33.9041 58.156 35.6587 58.0636 37.7227C57.9665 39.7867 56.2093 41.3844 54.1424 41.292H54.1378Z" fill="#F0D907"/>
  <path d="M51.2154 37.4046C51.1368 39.113 52.4592 40.5583 54.1655 40.6368C55.8764 40.7153 57.3237 39.3947 57.4069 37.6909C57.4855 35.9824 56.1677 34.5371 54.4568 34.454C52.7459 34.3755 51.2986 35.6961 51.2154 37.4V37.4046Z" fill="white"/>
  <path d="M51.368 36.6196C51.3911 38.245 52.6627 39.5933 54.3088 39.6672C55.7423 39.7318 56.9815 38.8083 57.3977 37.5062C57.3977 37.5708 57.4116 37.6309 57.4069 37.6909C57.3283 39.3993 55.8764 40.7153 54.1655 40.6368C52.4546 40.5583 51.1368 39.1084 51.2154 37.4046C51.2292 37.1322 51.2894 36.869 51.368 36.6196Z" fill="#E8E8E8"/>
  <path d="M51.9414 36.6476C51.9044 37.4972 52.561 38.2221 53.4119 38.2591C54.2627 38.3006 54.9887 37.6403 55.0256 36.7907C55.0673 35.9411 54.406 35.2162 53.5552 35.1792C52.7044 35.1423 51.9784 35.798 51.9414 36.6476Z" fill="black"/>
  <path d="M53.5045 36.3106C53.486 36.6523 53.7495 36.9385 54.0917 36.9524C54.4339 36.9663 54.7206 36.7077 54.7391 36.366C54.7529 36.0243 54.4894 35.738 54.1518 35.7242C53.8096 35.7103 53.523 35.9735 53.5091 36.3106H53.5045Z" fill="white"/>
  <path d="M64.3613 49.8295C63.9405 58.9074 58.4749 61.4562 51.895 61.1469C45.315 60.8421 40.113 57.7946 40.5384 48.7213C40.9638 39.6433 46.8502 27.975 53.4301 28.2798C60.0101 28.5845 64.7867 40.7515 64.3613 49.8295Z" fill="#6B50B8"/>
  <path d="M47.0675 26.742C46.5681 26.742 46.3507 26.9728 46.2675 27.4946C45.8745 26.9405 45.5554 26.0724 45.7357 25.3937C44.5196 25.7077 44.3485 26.6819 44.663 27.5731C44.5797 27.4669 44.5011 27.3607 44.4595 27.2776C44.1173 26.5711 43.9509 24.9458 44.2514 24.0361C43.6226 24.4471 43.3544 24.8211 43.1278 25.2413C42.8874 25.6938 42.7163 26.1555 42.6746 26.6681C42.6654 26.802 42.6746 26.9359 42.6839 27.0744C42.1521 26.6496 41.6805 25.9385 41.3106 24.7057C40.284 25.2782 39.9049 26.7651 39.8448 27.7855C38.9015 27.2129 38.4067 25.7215 38.2957 25.0704C37.7131 25.546 37.2229 26.6081 37.3709 27.7255C36.7605 27.4254 36.2519 26.7189 35.586 25.7677C34.7768 27.3469 35.4704 28.9076 35.9282 29.1846C35.3641 29.277 34.7815 28.8521 34 28.2888C34.6427 30.9208 35.8172 33.0171 39.0494 32.052C41.0377 31.4564 43.3266 30.0619 47.6732 32.8509C47.6732 32.8509 49.3286 32.6292 49.5182 30.6576C48.4639 29.4201 46.9657 29.6971 47.0675 26.7373V26.742Z" fill="#FF2377"/>
  <path d="M59.8113 27.3333C60.3107 27.3841 60.5049 27.6288 60.5373 28.1552C60.9812 27.6381 61.3788 26.8023 61.2632 26.1143C62.447 26.5391 62.5256 27.5226 62.1279 28.3861C62.225 28.2845 62.3083 28.1922 62.3591 28.109C62.766 27.4349 63.0851 25.8326 62.8678 24.8999C63.455 25.3663 63.6908 25.768 63.8712 26.2066C64.07 26.6776 64.1949 27.1532 64.1902 27.6704C64.1902 27.8043 64.1671 27.9382 64.1394 28.0767C64.7081 27.7027 65.2445 27.0424 65.73 25.8465C66.7011 26.5114 66.9369 28.0259 66.9045 29.0464C67.8987 28.5662 68.5276 27.1255 68.6986 26.4883C69.235 27.0147 69.6234 28.1183 69.3737 29.2172C70.0072 28.9771 70.5806 28.3168 71.3343 27.4349C71.9909 29.0833 71.1586 30.5701 70.6777 30.8056C71.2326 30.9534 71.8522 30.5794 72.6845 30.0945C71.8014 32.6572 70.4373 34.6335 67.3068 33.3729C65.3832 32.5972 63.2331 30.995 58.6414 33.3683C58.6414 33.3683 57.0091 32.9943 57.0045 31.0134C58.1698 29.8821 59.6356 30.2931 59.8067 27.3379L59.8113 27.3333Z" fill="#FF2377"/>
  <path d="M55.4923 26.8206C55.6449 26.0126 55.5339 25.0291 55.0808 24.3272C55.1316 24.8628 54.8912 25.4308 54.4057 25.7171C54.512 25.1583 53.8092 22.6926 52.9213 22C53.0832 22.8127 52.7641 23.3437 52.6485 24.0917C52.5745 23.8932 52.4266 23.2282 52.3942 22.9881C51.9041 23.593 51.1688 25.006 51.437 25.8602C51.3214 25.5185 51.1134 25.0937 50.8498 24.8397C50.281 26.2157 50.577 27.444 52.1168 28.0304C51.8162 28.3028 51.1134 28.1782 50.7111 28.0904C51.4833 28.7831 52.7872 28.7969 53.7629 28.7046C54.6276 28.6214 55.3166 27.7349 55.4923 26.8114V26.8206Z" fill="#FF2377"/>
  <path d="M55.2058 30.1492C55.2058 30.1492 52.8753 28.4961 50.6697 29.6874C49.6061 30.26 50.5587 30.8048 50.7899 30.6848C52.7458 29.6597 55.2058 30.1492 55.2058 30.1492Z" fill="#242424"/>
  <path d="M52.163 40.7424C49.4625 40.2668 47.6545 37.6903 48.1308 34.9937C48.1724 34.749 48.2418 34.5043 48.3435 34.2226C49.1342 31.9185 51.4694 30.5425 53.8877 30.9673C56.4587 31.4198 58.2435 33.8116 57.943 36.4159C57.943 36.5267 57.9337 36.6191 57.9152 36.7114C57.439 39.408 54.8588 41.2134 52.1583 40.7378L52.163 40.7424Z" fill="#315400"/>
  <path d="M49.1759 35.1791C48.8014 37.3031 50.2209 39.3256 52.348 39.6996C54.4704 40.0736 56.5003 38.6561 56.8749 36.532C57.2494 34.408 55.8299 32.3855 53.7074 32.0115C51.5804 31.6375 49.5551 33.0551 49.1805 35.1745L49.1759 35.1791Z" fill="white"/>
  <path d="M49.495 34.2183C49.2591 36.2546 50.6325 38.1431 52.6809 38.5033C54.4658 38.8173 56.1628 37.8614 56.8934 36.2961C56.8841 36.3746 56.8934 36.4531 56.8749 36.5316C56.5003 38.6556 54.475 40.0732 52.348 39.6992C50.2209 39.3252 48.8014 37.3027 49.1759 35.1787C49.236 34.837 49.3516 34.523 49.495 34.2183Z" fill="#E8E8E8"/>
  <path d="M50.207 34.3433C50.0221 35.4053 50.7249 36.4119 51.7838 36.6012C52.8427 36.7859 53.8554 36.0795 54.0403 35.0221C54.2253 33.9647 53.5224 32.9581 52.4589 32.7687C51.4 32.584 50.392 33.2859 50.2024 34.3479L50.207 34.3433Z" fill="black"/>
  <path d="M52.2137 34.1773C52.1397 34.5975 52.4218 35.0039 52.8472 35.0777C53.268 35.1516 53.6702 34.87 53.7489 34.4498C53.8228 34.0296 53.5408 33.6232 53.12 33.5494C52.6946 33.4755 52.2923 33.7572 52.2183 34.1773H52.2137Z" fill="white"/>
  <path d="M60.6249 39.9848C59.8204 39.3707 58.9141 40.2434 58.9141 40.2434C57.2217 41.6425 55.1825 42.4367 52.926 42.4367V42.4136C52.6346 42.4043 52.3387 42.3905 52.0474 42.3582C49.4903 42.0719 47.3771 40.8298 45.8235 38.9413C45.8235 38.9413 45.1021 37.9116 44.1958 38.3595C43.3589 38.775 42.5173 47.2111 50.1238 48.8319V48.8503C50.3273 48.9011 50.5353 48.9519 50.748 48.9888C51.0301 49.0396 51.326 49.0766 51.6127 49.0997C60.5001 49.8431 61.4018 40.5805 60.6203 39.9802L60.6249 39.9848Z" fill="#599100"/>
  <path d="M52.1169 43.0738C49.2037 42.8383 46.6698 41.5084 44.9681 39.5737C44.871 39.9339 44.7971 40.3033 44.7647 40.6865C44.4641 44.4313 47.5761 47.7374 51.7146 48.0699C55.8531 48.4023 59.4506 45.6365 59.7511 41.8871C59.7835 41.5038 59.7696 41.1252 59.7326 40.7558C57.7443 42.395 55.0346 43.3093 52.1169 43.0738Z" fill="#315400"/>
  <path d="M55.5849 44.6571C54.4197 46.7719 49.4997 46.0285 49.4997 46.0285C49.4997 46.0285 49.4073 46.9012 49.3379 47.5153C50.0731 47.8062 50.8684 48.0048 51.7146 48.0694C54.3966 48.2818 56.8427 47.1921 58.3223 45.3821C57.7212 44.2046 56.5236 42.9533 55.5849 44.6571Z" fill="white"/>
  <path d="M48.2143 46.9661C47.775 45.4793 48.4223 43.0966 47.6547 43.7431C47.197 44.131 46.7438 44.8559 46.4109 45.4654C46.9195 46.0426 47.5253 46.5551 48.2143 46.9661Z" fill="white"/>
  <path d="M57.7582 42.0122C58.0079 42.3354 58.2807 42.751 58.4102 43.1897C58.6599 44.03 59.2749 42.0168 59.187 41.1626C58.7385 41.4858 58.2622 41.7675 57.7582 42.0122Z" fill="white"/>
  <path d="M47.7656 41.7806C47.3356 41.5497 46.9286 41.2912 46.5402 41.0049C46.346 41.4943 46.0963 42.2608 46.0917 42.9257C46.0871 43.9185 46.8315 42.3255 47.7656 41.7806Z" fill="white"/>
  <path d="M68.0697 47.0911C68.7448 47.2389 68.3056 47.2897 69.702 47.6452C69.4847 46.0938 69.0361 44.8193 68.4535 43.7527C68.5321 43.7804 68.6107 43.8081 68.694 43.8266C68.6801 43.5588 68.5645 43.2817 68.3333 43.1247C68.5922 43.291 68.8558 43.471 69.0963 43.6835C68.6801 42.5845 68.0559 41.0099 66.4467 40.1973C65.7254 39.8325 62.9833 38.5211 62.3683 37.9255C62.5995 38.2764 62.5487 38.7428 62.7614 39.0983C62.7614 39.0983 62.1649 38.8444 61.9105 38.8259C61.9614 39.3246 62.8446 40.5113 63.2977 40.6313C62.7845 40.6913 62.7382 40.4051 61.5499 40.3496C62.0493 40.9084 62.8261 41.9704 63.3717 42.4875C62.7845 42.4414 62.0816 42.4829 61.5637 42.7784C62.2065 43.6188 62.9741 44.1221 63.5151 44.8655C63.3301 44.787 62.507 44.884 62.3036 44.8101C62.655 46.537 63.4642 46.8233 63.7879 48.638C63.5521 48.227 62.8631 47.8623 62.3313 47.6268C62.8446 48.7303 62.766 50.6143 62.4608 52.0965C61.9337 51.9025 61.3464 51.6809 61.032 51.2007C61.1984 52.5444 61.0782 53.4771 60.38 54.6638C60.2135 53.9619 60.1997 53.08 59.7419 52.4843C60.195 53.7311 58.6737 56.9171 57.3513 57.0602C57.231 56.6447 57.1709 56.1783 56.9397 55.7997C56.4496 56.1229 56.1259 56.7647 55.9086 57.2911C55.6311 56.9263 55.4138 56.4784 55.326 56.0352C55.0254 56.9263 55.1225 57.6928 54.4058 58.5194C53.1897 56.5893 53.5133 59.018 52.829 59.9739C52.4591 57.1526 50.7805 57.0464 51.0025 54.5807C50.4291 54.6545 49.8141 55.4303 49.606 55.9751C49.3748 55.4303 49.5182 53.8188 49.1483 53.4217C48.7136 53.8788 48.4454 53.671 47.9553 54.3775C47.701 53.7311 47.6408 52.6044 47.6455 51.9025C46.975 51.9025 46.6004 52.4612 46.4848 53.0754C46.0456 51.824 45.4814 49.9632 46.1288 48.758C44.8988 48.8458 44.2838 49.7416 43.4977 50.5081C42.8966 49.3445 43.2896 48.3748 44.2607 47.382C43.7567 46.8233 43.2434 46.4031 42.2215 46.1769C42.5544 45.8721 42.9891 45.1795 43.5671 44.9486C43.2388 43.8451 42.7995 42.9447 42.1151 42.3767C42.6007 42.4921 43.0076 42.4275 43.4145 42.6861C43.4746 41.6379 42.8365 40.9961 43.1001 40.3589C43.2018 40.719 43.3035 40.7883 43.4654 40.8529C43.4792 40.3127 43.5393 39.8279 43.5116 39.2922C43.4607 38.3226 43.2527 37.9486 43.3821 37.4868C42.2123 38.2256 41.269 39.0106 40.7834 39.5647C39.7569 40.7421 37.7223 42.3582 36.5432 43.4295C37.4541 43.5449 37.5975 43.3279 37.0888 43.9282C36.3952 44.7501 35.7618 45.5628 35.5814 46.694C36.8484 46.2277 38.2818 45.5351 37.7547 47.322C37.1952 49.2244 35.2161 53.1308 37.0842 54.8854C37.1258 54.456 37.3385 53.9942 37.7963 53.9111C38.0044 55.4534 38.3605 57.3511 39.5118 58.524C39.4194 57.1249 40.1916 57.2911 40.6401 58.3485C41.2551 59.803 41.7499 63.2292 43.826 63.4554C43.2712 62.7859 43.6781 62.7028 44.2006 63.0953C44.6121 63.4046 44.8803 64.1203 45.1254 64.559C45.1346 64.559 45.1439 64.5498 45.1531 64.5451C45.597 65.3717 46.0964 66.0597 46.4294 66.2906C46.3507 66.1012 46.3461 65.8981 46.3739 65.6903C46.5218 65.8011 46.6652 65.9119 46.7993 66.0274C46.8409 66.0643 46.8918 66.1012 46.9426 66.1428C47.2247 66.4245 47.516 66.7061 47.8166 66.937C47.8443 66.8723 47.8674 66.8031 47.8905 66.7338C48.524 67.1078 49.1806 67.5003 49.3656 67.8928C49.6662 67.4957 49.8095 66.9924 50.0315 66.526C50.1609 66.7569 50.295 66.997 50.3968 67.1078C50.6141 67.3433 50.8638 67.5927 51.1366 67.8143C51.8533 68.7517 52.8475 69.7536 53.2775 70.3077C53.3191 70.4694 53.3654 70.6263 53.4301 70.7787C53.8093 70.0769 55.2705 68.313 55.7514 67.0894C55.9086 66.9324 56.0565 66.7708 56.1906 66.6138C56.4403 67.0663 56.6161 67.565 56.9351 67.9482C57.1709 67.2694 58.6182 66.4937 59.1685 65.8934C59.3997 65.6395 59.6864 65.3948 59.9407 65.1269C59.9731 65.7457 59.9176 66.3598 59.728 66.9462C60.6574 66.2351 61.3927 64.9977 61.4343 63.7925C61.4851 64.148 61.6331 64.5867 61.684 64.8961C62.1001 64.1804 62.6504 63.4046 62.7752 62.5458C62.8122 62.3011 62.8169 62.0563 62.803 61.8208C63.1868 61.6084 63.4087 61.747 62.9694 62.3334C63.1452 62.3011 63.3116 62.2457 63.4642 62.1764C63.5336 62.4488 63.5752 62.7212 63.5844 62.9937C63.7694 62.495 64.2595 62.121 64.5046 61.6269C64.7034 61.2252 64.8653 60.8096 64.9531 60.3756C65.434 59.2074 65.6329 57.799 65.9196 56.9771C66.3034 55.8874 67.1126 55.6611 67.1357 57.0602C68.2593 55.7951 68.472 53.8742 68.5552 52.3181C69.0546 52.3643 69.3182 52.8076 69.4014 53.2324C71.2418 51.33 68.8419 48.9381 68.0744 47.0911H68.0697Z" fill="#FF2377"/>
  <path d="M69.101 43.6831C69.1189 43.7011 69.1189 43.7057 69.101 43.6831V43.6831Z" fill="#FF2377"/>
  <path d="M64.9764 49.0722C64.8053 49.7925 64.6158 50.6375 64.3106 51.3855C64.2227 51.8103 64.0655 52.2167 63.8713 52.6045C63.6355 53.0847 63.1546 53.4541 62.9742 53.9343C62.9696 53.6665 62.9234 53.4033 62.8586 53.1401C62.7107 53.2094 62.5488 53.2602 62.3777 53.2925C62.8031 52.72 62.5904 52.586 62.2159 52.7938C62.2298 53.0247 62.2251 53.2602 62.1928 53.5003C62.0679 54.3407 61.5362 55.0933 61.1293 55.7906C61.083 55.4904 60.9397 55.061 60.8888 54.7147C60.8472 55.8875 60.1351 57.0881 59.2288 57.7853C59.4137 57.2174 59.4692 56.6125 59.4369 56.0122C59.1918 56.2708 58.9097 56.5109 58.6832 56.7556C58.1468 57.342 56.7364 58.0993 56.5052 58.7596C56.1954 58.3856 56.0243 57.9007 55.7793 57.4621C55.6498 57.6145 55.5065 57.7715 55.3539 57.9238C54.8822 59.1198 53.4626 60.8328 53.0927 61.5162C53.0326 61.3638 52.9864 61.2115 52.9448 61.0545C52.5286 60.5188 51.5576 59.5446 50.8593 58.6303C50.5958 58.4133 50.3507 58.1686 50.1426 57.9423C50.0455 57.8315 49.916 57.596 49.7912 57.3744C49.5785 57.8269 49.4398 58.3163 49.1438 58.7042C48.9635 58.3209 48.3207 57.9377 47.7057 57.5729C47.6826 57.6376 47.6595 57.7068 47.6318 57.7715C47.3405 57.5452 47.0584 57.2728 46.7809 56.9957C46.7301 56.9588 46.6838 56.9218 46.6422 56.8849C46.5128 56.7741 46.3694 56.6679 46.2261 56.5571C46.1983 56.7602 46.2029 56.9588 46.2816 57.1435C45.9579 56.9172 45.4677 56.2523 45.0377 55.4443C45.0284 55.4443 45.0192 55.4535 45.0099 55.4581C44.7695 55.0333 44.5106 54.3361 44.1083 54.0359C43.5996 53.6527 43.202 53.7312 43.743 54.3869C41.7223 54.1652 41.2368 50.8268 40.6403 49.4092C40.5062 49.0952 40.3489 48.8644 40.1871 48.7305C39.6415 50.3835 38.2404 53.371 39.7155 54.7563C39.7478 54.4007 39.9235 54.0175 40.3073 53.9482C40.4784 55.2319 40.779 56.8064 41.7315 57.7853C41.6529 56.6217 42.2957 56.7602 42.6656 57.6376C43.1742 58.8473 43.5904 61.6917 45.3151 61.881C44.8527 61.3223 45.1949 61.253 45.6296 61.5809C45.9717 61.8394 46.1937 62.4305 46.3972 62.7953C46.4064 62.7953 46.4156 62.786 46.4203 62.7814C46.7856 63.4694 47.2064 64.042 47.4838 64.2313C47.4191 64.0743 47.4144 63.9081 47.4376 63.7326C47.5578 63.825 47.6826 63.9173 47.789 64.0143C47.826 64.0466 47.863 64.0743 47.9092 64.1066C48.145 64.3421 48.3855 64.573 48.6352 64.7669C48.6583 64.7115 48.6768 64.6561 48.6999 64.5961C49.227 64.9054 49.7727 65.2333 49.9253 65.5611C50.175 65.2287 50.2952 64.8131 50.4755 64.4252C50.5865 64.6145 50.6929 64.8177 50.7761 64.9101C50.9564 65.1086 51.1645 65.3118 51.3911 65.4965C51.9876 66.2768 52.8153 67.108 53.1667 67.5651C53.2037 67.699 53.2407 67.8283 53.2916 67.9576C53.606 67.3712 54.8221 65.912 55.2198 64.8916C55.3492 64.7623 55.4741 64.6284 55.5851 64.4945C55.7931 64.8685 55.9365 65.2841 56.2047 65.6027C56.3989 65.0393 57.6058 64.3929 58.0635 63.8942C58.2577 63.6818 58.4936 63.4786 58.7063 63.257C58.734 63.7695 58.6878 64.2821 58.5306 64.7715C59.3028 64.1805 59.9131 63.1554 59.9455 62.1534C59.9871 62.4489 60.112 62.8137 60.1536 63.0723C60.5004 62.4767 60.9535 61.8348 61.0599 61.1191C61.0923 60.916 61.0923 60.7128 61.083 60.5142C61.4021 60.3388 61.5824 60.4542 61.2217 60.939C61.3697 60.9113 61.5038 60.8652 61.6333 60.8097C61.6888 61.036 61.7258 61.2623 61.7304 61.4885C61.883 61.0776 62.2945 60.7636 62.4933 60.3526C62.6552 60.0202 62.7939 59.6739 62.8679 59.3137C63.2655 58.3394 63.432 57.1712 63.6725 56.4924C63.9915 55.5874 64.662 55.3981 64.6851 56.5617C65.6192 55.5089 65.7949 53.9113 65.8642 52.623C66.2758 52.6599 66.4977 53.0293 66.5671 53.3803C67.8433 52.0597 66.6642 50.4574 65.8735 49.0722H64.9857H64.9764Z" fill="#FF3381"/>
  <path d="M44.4133 60.1587C44.4133 60.1587 44.395 60.1908 44.4133 60.1908C44.4316 60.1908 44.4316 60.1587 44.4133 60.1587Z" fill="#6B50B8"/>
  <path d="M45.879 60.311C45.879 60.311 45.8607 60.3431 45.879 60.3431C45.8973 60.3431 45.8973 60.311 45.879 60.311Z" fill="#6B50B8"/>
  <path d="M37.9488 55.3105C38.2078 53.7821 39.1418 52.7802 39.9742 51.5427C40.9868 50.042 41.833 48.569 41.8839 46.7405C41.8839 46.6251 41.7359 46.5835 41.6712 46.6759C41.6666 46.6851 41.6619 46.6897 41.6573 46.699C41.5972 46.4358 41.292 46.2326 41.0608 46.4773C41.0423 46.4958 41.0284 46.5189 41.0146 46.5373C40.9822 46.4912 40.9498 46.4496 40.9082 46.4081C40.8943 46.3942 40.8666 46.3942 40.8527 46.4081C40.7834 46.4773 40.7186 46.5558 40.6539 46.6389C40.64 46.5789 40.6262 46.5189 40.6123 46.4635C40.5198 46.0941 40.0482 46.131 39.9649 46.4773C39.9649 46.4773 39.9557 46.4819 39.951 46.4865C39.9279 46.4958 39.9094 46.5096 39.8909 46.5327C39.8909 46.5327 39.8863 46.542 39.8817 46.5466C39.6875 46.722 39.5303 47.0222 39.3915 47.3454C39.165 47.7979 38.9708 48.2966 38.795 48.7953C38.1199 50.0743 37.2737 51.261 36.631 52.5585C36.0345 53.7637 35.9004 55.0843 35.9282 56.4002C35.9374 56.7696 36.0068 57.3053 36.1409 57.8501C36.0345 58.5427 35.6831 59.1707 35.4288 59.8726C35.0681 60.8746 36.1316 62.4076 37.1489 62.5599C37.4448 62.6061 37.7778 62.3799 37.6714 62.0428C37.5651 61.7149 37.394 61.4148 37.1905 61.1331C36.779 60.5606 36.6449 60.0619 36.7281 59.5632C37.0703 60.1819 37.1258 60.9069 37.8425 61.2763C38.3141 61.5164 38.7673 61.1378 38.7257 60.6529C38.6979 60.3528 38.6008 60.0711 38.476 59.8033C38.8135 59.8587 39.2112 59.5309 39.0632 59.1338C38.8043 58.4504 38.4159 57.8686 37.7916 57.5592C37.7454 56.802 37.824 56.0308 37.9442 55.3151L37.9488 55.3105Z" fill="#6B50B8"/>
  <path d="M69.3691 55.0654C69.0408 53.537 67.8617 52.535 66.8074 51.2975C65.5265 49.7968 64.4584 48.3239 64.389 46.4954C64.389 46.3799 64.574 46.3384 64.6572 46.4261C64.6619 46.4353 64.6711 46.4446 64.6757 46.4492C64.7497 46.186 65.1381 45.9828 65.4294 46.2275C65.4526 46.246 65.4664 46.2691 65.4849 46.2876C65.5219 46.2414 65.5635 46.1952 65.619 46.1537C65.6375 46.1398 65.6745 46.1398 65.693 46.1537C65.7809 46.2229 65.8641 46.3014 65.9427 46.3845C65.9612 46.3245 65.9797 46.2645 65.9936 46.2091C66.1092 45.8397 66.7057 45.8766 66.812 46.2229C66.8166 46.2229 66.8213 46.2275 66.8305 46.2322C66.8583 46.2414 66.886 46.2552 66.9045 46.2783C66.9045 46.2783 66.9137 46.2876 66.9137 46.2922C67.1588 46.4676 67.3623 46.7678 67.5334 47.091C67.8201 47.5389 68.0651 48.0422 68.2917 48.5409C69.1471 49.8199 70.2153 51.0066 71.0291 52.3041C71.7875 53.5093 71.9539 54.8299 71.9169 56.1458C71.9077 56.5152 71.8198 57.0509 71.6441 57.5957C71.7782 58.2884 72.2221 58.9163 72.5412 59.6182C72.9943 60.6202 71.658 62.1532 70.3679 62.3055C69.9933 62.3517 69.5726 62.1255 69.7067 61.7884C69.8407 61.4559 70.0581 61.1604 70.3124 60.8787C70.8303 60.3062 71.0014 59.8075 70.895 59.3088C70.4604 59.9275 70.3956 60.6525 69.4847 61.0219C68.8882 61.2666 68.3194 60.8834 68.3703 60.3985C68.4027 60.0984 68.5275 59.8213 68.6847 59.5489C68.2593 59.6043 67.7553 59.2765 67.9449 58.8794C68.2732 58.196 68.7634 57.6142 69.5541 57.3048C69.6142 56.5476 69.5171 55.7764 69.3598 55.0607L69.3691 55.0654Z" fill="#6B50B8"/>
  <path d="M40.0529 45.6227C39.0495 46.5323 38.8229 47.7929 38.3374 48.9749C38.4946 48.6886 38.6056 48.2869 38.8877 48.0976C38.9293 48.1207 38.994 48.153 39.031 48.1853C38.6796 48.6979 38.7859 49.5752 38.8229 50.1662C39.1235 49.6629 39.5998 49.0488 40.2148 48.9195C40.0205 49.3766 39.8541 49.7876 39.8448 50.3509C39.8402 50.7665 39.9142 52.3826 40.4367 52.4934C40.4598 51.9116 40.3951 50.7942 41.1026 50.5818C41.1442 51.0112 41.5557 51.7962 41.8794 52.0502C41.7915 51.3391 41.6806 50.5957 41.81 49.8522C41.9025 49.3351 42.2401 48.4347 41.8285 47.9868C42.0736 48.19 42.1707 48.4809 42.4713 48.6148C42.9106 48.0376 42.4435 46.8093 42.0551 46.3476C41.8378 46.089 41.5511 45.9505 41.6944 45.6134C41.8378 45.2763 43.0262 44.2328 41.8285 44.4544C41.1858 44.5745 40.5246 45.1932 40.0575 45.618L40.0529 45.6227Z" fill="#FF2377"/>
  <path d="M67.6859 47.8713C67.5703 46.7077 67.0941 45.8027 65.8317 45.3732C65.2861 45.1885 64.4491 45.3871 63.8018 45.7888C64.0052 46.1998 64.1023 46.6754 64.1671 47.1325C64.2642 47.7928 64.3751 48.4531 64.4168 49.118C64.5092 49.3997 64.5786 49.6859 64.6896 49.9584C64.7589 50.1292 65.3092 50.8542 65.2768 50.9788C65.4063 50.4801 65.508 49.9491 65.6375 49.4504C65.8086 49.7044 66.0305 50.0276 66.2802 50.2077C66.6039 49.1826 66.5993 48.2822 65.7346 47.5157C66.2062 47.7835 66.8998 48.6747 67.0108 49.1596C67.0894 48.6747 67.2143 48.0052 67.0478 47.585C67.2143 47.7558 67.4362 47.8528 67.6813 47.8805L67.6859 47.8713Z" fill="#FF2377"/>
  <path d="M46.0965 35.644C45.93 35.644 45.7774 35.7318 45.7543 35.9119C45.7358 36.0642 45.856 36.2535 46.0225 36.2535C46.189 36.2535 46.3416 36.1658 46.3647 35.9857C46.3832 35.8334 46.263 35.644 46.0965 35.644Z" fill="#FF2377"/>
  <path d="M47.2063 37.4497C47.0722 37.4497 47.0629 37.6575 47.197 37.6575C47.3311 37.6575 47.3404 37.4497 47.2063 37.4497Z" fill="#FF2377"/>
  <path d="M47.1645 38.4983C47.1645 38.4429 47.1276 38.3921 47.0674 38.3921C47.0443 38.3921 47.0166 38.3921 46.9935 38.3921C46.8455 38.3921 46.7761 38.5814 46.8779 38.683C46.9842 38.7892 47.1692 38.7107 47.1645 38.5583C47.1645 38.5398 47.1645 38.5168 47.1645 38.4983Z" fill="#FF2377"/>
  <path d="M48.6442 39.2646C48.2558 39.2646 48.1772 39.8742 48.5702 39.8742C48.9633 39.8742 49.0373 39.2646 48.6442 39.2646Z" fill="#FF2377"/>
  <path d="M49.8742 40.3955C49.3008 40.3955 49.3193 41.2821 49.8881 41.2821C50.4568 41.2821 50.443 40.3955 49.8742 40.3955Z" fill="#FF2377"/>
  <path d="M51.4557 41.4997C51.451 41.4767 51.4094 41.4767 51.4002 41.4997C51.3956 41.5182 51.3909 41.5413 51.3817 41.5598C51.3586 41.6429 51.488 41.6336 51.4695 41.569C51.4649 41.5459 51.4557 41.5228 51.451 41.4997H51.4557Z" fill="#FF2377"/>
  <path d="M51.3632 41.7855C51.3493 41.5961 51.3355 41.4022 51.3216 41.2129C51.2707 41.2221 51.2245 41.2406 51.1829 41.2729C51.1829 41.2729 51.1829 41.2775 51.1736 41.2822C51.1598 41.2822 51.1413 41.3006 51.1135 41.3376C51.0673 41.3976 51.0442 41.4715 51.0534 41.5453C51.0626 41.61 51.0996 41.6793 51.1551 41.7254C51.2014 41.7716 51.2569 41.8039 51.3262 41.8039C51.2985 41.8039 51.28 41.7947 51.2615 41.7808C51.2938 41.7901 51.3308 41.7901 51.3632 41.7808V41.7855Z" fill="#FF2377"/>
  <path d="M52.5007 41.6841C52.2973 41.6841 52.2973 42.0027 52.5007 42.0027C52.7042 42.0027 52.7042 41.6841 52.5007 41.6841Z" fill="#FF2377"/>
  <path d="M53.629 41.1577C53.3469 41.1577 53.3747 41.5964 53.6567 41.5964C53.9388 41.5964 53.911 41.1577 53.629 41.1577Z" fill="#FF2377"/>
  <path d="M54.9977 41.1851C54.4937 41.1851 54.466 41.97 54.9746 41.97C55.4833 41.97 55.5064 41.1851 54.9977 41.1851Z" fill="#FF2377"/>
  <path d="M56.2232 40.1514C55.8533 40.1514 55.9319 40.7239 56.3018 40.7239C56.6717 40.7239 56.5931 40.1514 56.2232 40.1514Z" fill="#FF2377"/>
  <path d="M56.9629 40.7656C56.6069 40.7656 56.6762 41.3151 57.0323 41.3151C57.3883 41.3151 57.319 40.7656 56.9629 40.7656Z" fill="#FF2377"/>
  <path d="M58.1373 39.542C57.9015 39.542 57.7073 39.7405 57.7073 39.9714C57.7073 40.2069 57.9015 40.4008 58.1373 40.4008C58.3731 40.4008 58.5673 40.2023 58.5673 39.9714C58.5673 39.7359 58.3685 39.5466 58.1373 39.5466V39.542Z" fill="#FF2377"/>
  <path d="M59.2841 37.3813C59.1454 37.3813 59.1361 37.5984 59.2748 37.5984C59.4135 37.5984 59.4228 37.3813 59.2841 37.3813Z" fill="#FF2377"/>
  <path d="M60.1536 38.6831C59.964 38.6831 59.9594 38.9786 60.1536 38.9786C60.3478 38.9786 60.3478 38.6831 60.1536 38.6831Z" fill="#FF2377"/>
  <path d="M58.868 38.7757C58.868 38.7757 58.868 38.7664 58.868 38.7618C58.9189 38.5956 58.757 38.4016 58.5767 38.4247C58.327 38.4524 58.2854 38.7387 58.438 38.8957C58.5443 39.0065 58.7108 38.9511 58.8033 38.8634L58.8125 38.8542C58.8171 38.8495 58.8171 38.8403 58.8264 38.8357C58.8403 38.8172 58.8541 38.7987 58.8588 38.7803L58.868 38.7757Z" fill="#FF2377"/>
  <path d="M58.8171 36.0186C58.7339 36.0186 58.72 36.1478 58.8079 36.1478C58.8957 36.1478 58.905 36.0186 58.8171 36.0186Z" fill="#FF2377"/>
  <path d="M60.0149 36.7202C59.8022 36.7202 59.8068 37.0527 60.0149 37.0527C60.2229 37.0527 60.2229 36.7202 60.0149 36.7202Z" fill="#FF2377"/>
  <path d="M60.8887 37.0293C60.8517 36.7153 60.5881 36.5537 60.2968 36.5537C60.0055 36.5537 59.7928 36.8769 59.8205 37.1447C59.8575 37.4587 60.1211 37.6203 60.4124 37.6203C60.7037 37.6203 60.9164 37.2971 60.8887 37.0293Z" fill="#FF2377"/>
  <path d="M45.8421 37.2607C45.5508 37.2607 45.5832 37.7133 45.8745 37.7133C46.1658 37.7133 46.1334 37.2607 45.8421 37.2607Z" fill="#FF2377"/>
  <path d="M45.8653 36.8594C45.6295 36.8594 45.4353 37.0579 45.4353 37.2934C45.4353 37.5289 45.6341 37.7228 45.87 37.7228C46.1058 37.7228 46.3 37.5243 46.3 37.2888C46.3 37.0533 46.1012 36.8594 45.8653 36.8594Z" fill="#FF2377"/>
  <path d="M47.3358 35.5664C47.2433 35.5664 47.1693 35.6911 47.2479 35.7603L47.271 35.7788C47.2941 35.8204 47.3589 35.8388 47.3866 35.788C47.3959 35.7788 47.4005 35.7742 47.4097 35.765C47.4837 35.6957 47.4375 35.5664 47.3358 35.5664Z" fill="#FF2377"/>
  <path d="M46.6698 38.2482C46.5773 38.1651 46.4617 38.179 46.3461 38.1882C45.9947 38.2205 46.0132 38.77 46.36 38.8023C46.3831 38.8023 46.4108 38.8069 46.434 38.8069C46.5727 38.8069 46.7114 38.7515 46.7623 38.6084C46.7623 38.6084 46.7623 38.6084 46.7623 38.6038C46.8131 38.4699 46.7715 38.3406 46.6652 38.2482H46.6698Z" fill="#FF2377"/>
  <path d="M48.0708 39.5884C48.0847 39.6391 48.0847 39.6484 48.0708 39.6161C48.0708 39.6161 48.0708 39.6068 48.0708 39.6022C48.0246 39.3898 47.7148 39.4314 47.6685 39.6207C47.6685 39.6299 47.6639 39.6438 47.6593 39.653C47.6223 39.8238 47.835 39.9993 47.9876 39.8793L48.0662 39.8146C48.1309 39.7638 48.1309 39.6391 48.0662 39.5884H48.0708Z" fill="#FF2377"/>
  <path d="M47.9229 37.5565C47.8859 37.5149 47.835 37.4965 47.7842 37.4872C47.4651 37.4133 47.4512 37.9721 47.8027 37.8889C47.8535 37.8751 47.8905 37.8566 47.9275 37.8197C47.9969 37.7458 47.9923 37.6304 47.9275 37.5611L47.9229 37.5565Z" fill="#FF2377"/>
  <path d="M57.5084 39.5234C57.5084 39.5234 57.4992 39.5095 57.4992 39.5003C57.4344 39.371 57.2356 39.3895 57.1709 39.5095C57.1662 39.5188 57.1616 39.528 57.157 39.5372C57.083 39.6758 57.194 39.8466 57.3512 39.8374C57.5177 39.8281 57.5824 39.6573 57.513 39.5234H57.5084Z" fill="#FF2377"/>
  <path d="M56.237 41.2964C56.2185 41.1579 56.0289 41.1994 56.0104 41.3195C56.0104 41.3379 56.0104 41.3564 56.0104 41.3749C56.0196 41.5226 56.2323 41.5365 56.2416 41.3841C56.2416 41.3564 56.2416 41.3287 56.2416 41.2964H56.237Z" fill="#FF2377"/>
  <path d="M52.1215 40.9546C51.6638 40.9546 51.6129 41.6657 52.0707 41.6657C52.5284 41.6657 52.5793 40.9546 52.1215 40.9546Z" fill="#FF2377"/>
  <path d="M51.183 41.1626C50.9934 41.1626 50.8223 41.2827 50.8084 41.4858C50.7946 41.6659 50.9379 41.8598 51.1321 41.8598C51.3263 41.8598 51.4928 41.7398 51.5066 41.5366C51.5205 41.3565 51.3726 41.1626 51.183 41.1626Z" fill="#FF2377"/>
  <path d="M46.7946 36.7393C46.7946 36.7393 46.7763 36.7713 46.7946 36.7713C46.813 36.7713 46.8084 36.7393 46.7946 36.7393Z" fill="#FF2377"/>
  <path d="M46.7902 36.5728C46.559 36.5728 46.5682 36.9329 46.7994 36.9329C47.0306 36.9329 47.0214 36.5728 46.7902 36.5728Z" fill="#FF2377"/>
  <path d="M58.3455 37.0985C58.3455 37.0985 58.3316 37.0939 58.327 37.0893C57.9201 36.9 57.7721 37.6342 58.1744 37.6388C58.1929 37.6388 58.2068 37.6388 58.2253 37.6388C58.2299 37.6388 58.2391 37.6388 58.2438 37.6388H58.2669C58.3917 37.6388 58.4888 37.551 58.4935 37.431C58.5305 37.3063 58.4842 37.1632 58.3455 37.0939V37.0985Z" fill="#FF2377"/>
  <path d="M59.7651 39.0569C59.7373 38.826 59.3674 38.7706 59.335 39.0245C59.335 39.0338 59.335 39.043 59.335 39.0523C59.2934 39.3847 59.8067 39.3893 59.7697 39.08C59.7697 39.0707 59.7697 39.0615 59.7697 39.0523L59.7651 39.0569Z" fill="#FF2377"/>
  <path d="M53.9111 41.8461C53.9019 41.8184 53.8973 41.8091 53.8926 41.8138C53.8926 41.8045 53.8926 41.7953 53.8834 41.7907C53.8834 41.7907 53.888 41.7907 53.8926 41.7907C53.8325 41.6845 53.6938 41.7122 53.6522 41.8138C53.6429 41.8322 53.6383 41.8507 53.6337 41.8692C53.5828 42.1093 53.9666 42.1093 53.9204 41.8692C53.9204 41.8599 53.9204 41.8507 53.9157 41.8368L53.9111 41.8461Z" fill="#FF2377"/>
  <path d="M55.5202 40.5342C55.5202 40.5342 55.4739 40.4972 55.4462 40.488C55.3398 40.4418 55.215 40.4788 55.1873 40.5988C55.1595 40.7189 55.2797 40.8666 55.4092 40.8112C55.4601 40.7974 55.5017 40.7697 55.5387 40.7327C55.608 40.6819 55.5803 40.5803 55.5202 40.5342Z" fill="#FF2377"/>
  <path d="M47.5254 34.2227C47.3682 34.2227 47.2572 34.4074 47.2757 34.5459C47.2988 34.7167 47.4422 34.7952 47.5994 34.7952C47.7566 34.7952 47.8676 34.6105 47.8491 34.472C47.826 34.3012 47.6826 34.2227 47.5254 34.2227Z" fill="#FF2377"/>
  <path d="M58.7245 34.832C58.5257 34.832 58.35 34.9659 58.3361 35.1737C58.3268 35.363 58.4794 35.557 58.6783 35.557C58.8771 35.557 59.0528 35.4231 59.0621 35.2153C59.0713 35.026 58.9187 34.832 58.7199 34.832H58.7245Z" fill="#FF2377"/>
  <path d="M58.5905 36.6143C58.572 36.642 58.5582 36.6743 58.5489 36.7067C58.5027 36.8729 58.6784 36.993 58.8217 36.9514C58.8587 36.9422 58.8865 36.9237 58.9188 36.9006C59.2102 36.7159 58.8032 36.2819 58.5905 36.6097V36.6143Z" fill="#FF2377"/>
  <path d="M59.557 36.314C59.3674 36.314 59.3628 36.6095 59.557 36.6095C59.7512 36.6095 59.7512 36.314 59.557 36.314Z" fill="#FF2377"/>
  <path d="M57.7398 38.7157C57.7398 38.6649 57.6982 38.6372 57.6566 38.6372C57.6519 38.6372 57.6473 38.6372 57.6381 38.6372C57.5826 38.6372 57.5225 38.6741 57.5225 38.7388C57.5225 38.7988 57.5687 38.8496 57.6242 38.8496C57.6427 38.8496 57.6566 38.8496 57.6658 38.845C57.6612 38.8588 57.6658 38.8542 57.6982 38.8265C57.7213 38.8081 57.7352 38.7803 57.7352 38.748C57.7352 38.7388 57.7352 38.7296 57.7352 38.7203L57.7398 38.7157Z" fill="#FF2377"/>
  <path d="M48.5887 40.3963C48.5887 40.3963 48.5656 40.3963 48.5563 40.4009C48.4315 40.424 48.3899 40.5903 48.45 40.6826C48.4824 40.738 48.5471 40.7657 48.6072 40.7703C48.6072 40.7703 48.6072 40.7703 48.6072 40.775C48.9124 40.835 48.9216 40.3317 48.5933 40.3917L48.5887 40.3963Z" fill="#FF2377"/>
  <path d="M49.5598 40.0908C49.4349 40.0908 49.4211 40.2848 49.5505 40.2848C49.68 40.2848 49.6893 40.0908 49.5598 40.0908Z" fill="#FF2377"/>
  <path d="M47.8536 38.6088C47.8536 38.6088 47.8628 38.6272 47.8674 38.6411C47.8767 38.6596 47.8998 38.6596 47.9044 38.6411L47.9183 38.6088C47.946 38.5488 47.8258 38.5441 47.8536 38.6088Z" fill="#FF2377"/>
  <path d="M47.9231 38.4243C47.6965 38.4243 47.7057 38.7706 47.9323 38.7706C48.1589 38.7706 48.1496 38.4243 47.9231 38.4243Z" fill="#FF2377"/>
  <path d="M46.9518 39.3062C46.7992 39.3062 46.79 39.5416 46.9426 39.5416C47.0952 39.5416 47.1044 39.3062 46.9518 39.3062Z" fill="#FF2377"/>
  <path d="M46.9612 34.9196C46.9612 34.9196 46.952 34.9196 46.9427 34.915C46.767 34.8596 46.7762 35.1643 46.9335 35.1181H46.9473C47.0352 35.0858 47.0583 34.9519 46.9566 34.9242L46.9612 34.9196Z" fill="#FF2377"/>
  <path d="M47.6224 36.6053C47.6224 36.6053 47.6085 36.6053 47.6039 36.6053C47.3172 36.5729 47.3126 37.0024 47.5669 36.9746C47.5715 36.9746 47.5808 36.9746 47.5854 36.9746C47.7796 36.9516 47.8443 36.633 47.6224 36.6099V36.6053Z" fill="#FF2377"/>
  <path d="M59.2888 37.8052C59.0206 37.8052 59.0438 38.2207 59.312 38.2207C59.5801 38.2207 59.557 37.8052 59.2888 37.8052Z" fill="#FF2377"/>
  <path d="M58.8634 39.5884C58.6045 39.5884 58.623 39.9855 58.8819 39.9855C59.1409 39.9855 59.1224 39.5884 58.8634 39.5884Z" fill="#FF2377"/>
  <path d="M38.2911 51.4131C38.2911 51.4131 38.2495 51.3992 38.2264 51.3946C38.0969 51.3577 37.9952 51.5008 38.0553 51.6116C38.0969 51.6901 38.1709 51.7086 38.2495 51.7132C38.305 51.7178 38.3651 51.667 38.3605 51.6116C38.3605 51.6116 38.3605 51.6024 38.3605 51.5978C38.3975 51.5331 38.379 51.4408 38.2911 51.4131Z" fill="#FF2377"/>
  <path d="M37.7686 52.2588C37.5466 52.2588 37.5513 52.6051 37.7778 52.6051C38.0044 52.6051 37.9952 52.2588 37.7686 52.2588Z" fill="#FF2377"/>
  <path d="M37.8287 51.4043C37.6438 51.4135 37.5883 51.6306 37.6993 51.7552C37.6993 51.7598 37.7085 51.7645 37.7131 51.7691C37.7871 51.8383 37.8935 51.8337 37.9628 51.7691C37.9721 51.7645 37.9767 51.7552 37.9813 51.7506C38.1016 51.6213 37.9998 51.4043 37.8241 51.4135L37.8287 51.4043Z" fill="#FF2377"/>
  <path d="M36.8716 52.9042C36.8716 52.9042 36.8901 52.9319 36.8993 52.9458C36.9225 52.9781 36.9687 52.9735 36.9918 52.9458C37.0011 52.9273 37.0149 52.9134 37.0242 52.895C37.149 52.7149 36.7283 52.701 36.8716 52.9042Z" fill="#FF2377"/>
  <path d="M36.8439 54.0361C36.8439 54.0361 36.7977 54.0269 36.7792 54.0223C36.5619 53.9761 36.5619 54.327 36.7746 54.2808C36.7931 54.2808 36.8162 54.2716 36.8393 54.267C36.9503 54.2439 36.9688 54.0638 36.8485 54.0361H36.8439Z" fill="#FF2377"/>
  <path d="M37.6483 52.8633C37.4356 52.8633 37.2507 53.0249 37.2414 53.2419C37.2368 53.4497 37.4079 53.6482 37.6206 53.6482C37.8333 53.6482 38.0183 53.4866 38.0275 53.2696C38.0321 53.0618 37.861 52.8633 37.6483 52.8633Z" fill="#FF2377"/>
  <path d="M36.6543 54.1328C36.3537 54.1328 36.3907 54.5946 36.6913 54.5946C36.9919 54.5946 36.9502 54.1328 36.6543 54.1328Z" fill="#FF2377"/>
  <path d="M36.7373 55.689C36.5154 55.689 36.52 56.0353 36.7466 56.0353C36.9732 56.0353 36.9639 55.689 36.7373 55.689Z" fill="#FF2377"/>
  <path d="M68.3426 50.5917C68.3426 50.5917 68.3426 50.6378 68.3426 50.6609C68.3564 50.9472 68.7634 50.9057 68.7726 50.6332V50.564C68.7911 50.2869 68.3241 50.3054 68.3379 50.5917H68.3426Z" fill="#FF2377"/>
  <path d="M68.939 51.3164C68.6662 51.3164 68.4581 51.5981 68.4766 51.852C68.4997 52.1383 68.7402 52.3138 69.013 52.3138C69.2858 52.3138 69.4939 52.0321 69.4754 51.7782C69.4569 51.4919 69.2118 51.3164 68.939 51.3164Z" fill="#FF2377"/>
  <path d="M70.9367 52.9556C70.7702 52.9556 70.6222 53.0387 70.5991 53.2188C70.5806 53.3665 70.6962 53.5558 70.8627 53.5558C71.0291 53.5558 71.1771 53.4727 71.2002 53.2926C71.2187 53.1449 71.1031 52.9556 70.9367 52.9556Z" fill="#FF2377"/>
  <path d="M69.0685 52.8767C68.9945 52.8398 68.9344 52.8537 68.8558 52.8721C68.6754 52.9183 68.6939 53.1815 68.865 53.2277C68.8743 53.2277 68.8835 53.2277 68.8928 53.2277C68.9714 53.2738 69.0731 53.2508 69.1286 53.1676C69.1332 53.1584 69.1424 53.1492 69.1471 53.1399C69.1979 53.0522 69.1609 52.9229 69.0685 52.8767Z" fill="#FF2377"/>
  <path d="M70.0811 53.8926C69.9285 53.8926 69.9192 54.1327 70.0718 54.1327C70.2244 54.1327 70.2337 53.8926 70.0811 53.8926Z" fill="#FF2377"/>
  <path d="M71.3112 54.3401C71.3112 54.3401 71.2649 54.3401 71.2418 54.3401C71.1678 54.3401 71.0846 54.4047 71.0938 54.4878C71.1123 54.6217 71.2279 54.6956 71.3528 54.6402C71.3528 54.6402 71.3574 54.6402 71.362 54.6356C71.5054 54.594 71.4915 54.3308 71.3158 54.3401H71.3112Z" fill="#FF2377"/>
  <path d="M70.6916 55.426C70.7425 55.1028 70.2338 55.1074 70.2801 55.3937C70.2801 55.4029 70.2801 55.4168 70.2847 55.426C70.3171 55.6199 70.5945 55.6892 70.6685 55.5091C70.6777 55.4906 70.6824 55.4768 70.687 55.4583V55.4214L70.6916 55.426Z" fill="#FF2377"/>
  <path d="M69.8732 51.2007C69.7206 51.2007 69.6142 51.3761 69.6327 51.5101C69.6512 51.6717 69.7899 51.7502 69.9425 51.7502C70.0951 51.7502 70.2015 51.5747 70.183 51.4408C70.1645 51.2746 70.0257 51.2007 69.8732 51.2007Z" fill="#FF2377"/>
  <path d="M70.1968 51.7368C69.9656 51.7368 69.9748 52.097 70.206 52.097C70.4373 52.097 70.428 51.7368 70.1968 51.7368Z" fill="#FF2377"/>
  <path d="M70.0906 52.2349C69.7946 52.2349 69.8316 52.6966 70.1275 52.6966C70.4235 52.6966 70.3865 52.2349 70.0906 52.2349Z" fill="#FF2377"/>
  <defs>
    <filter id="filter0_i_187_8803" x="22" y="85" width="64" height="9" filterUnits="userSpaceOnUse" color-interpolation-filters="sRGB">
      <feFlood flood-opacity="0" result="BackgroundImageFix"/>
      <feBlend mode="normal" in="SourceGraphic" in2="BackgroundImageFix" result="shape"/>
      <feColorMatrix in="SourceAlpha" type="matrix" values="0 0 0 0 0 0 0 0 0 0 0 0 0 0 0 0 0 0 127 0" result="hardAlpha"/>
      <feOffset dx="2" dy="2"/>
      <feGaussianBlur stdDeviation="1"/>
      <feComposite in2="hardAlpha" operator="arithmetic" k2="-1" k3="1"/>
      <feColorMatrix type="matrix" values="0 0 0 0 0 0 0 0 0 0 0 0 0 0 0 0 0 0 0.24 0"/>
      <feBlend mode="normal" in2="shape" result="effect1_innerShadow_187_8803"/>
    </filter>
  </defs>
</svg>