<svg viewBox="0 0 100 100" xmlns="http://www.w3.org/2000/svg" height="100" width="100"><path d="M10 50a40 40 0 1 0 80 0 40 40 0 1 0 -80 0Z" fill="#daedf7" stroke="#daedf7" stroke-width="1"></path><path d="M24.04 77.274a26.46 1.654 0 1 0 52.92 0 26.46 1.654 0 1 0 -52.92 0Z" fill="#45413c" opacity=".15" stroke-width="1"></path><path d="M29 21.322a4.411 4.411 0 0 0 -4.41 4.41V73.8a2.646 2.646 0 0 0 2.646 2.646h47.078A2.646 2.646 0 0 0 76.96 73.8V25.732a4.41 4.41 0 0 0 -4.41 -4.41Z" fill="#daedf7" stroke="#45413c" stroke-linecap="round" stroke-linejoin="round" stroke-width="1"></path><path d="M76.96 29.591H24.591v-3.859A4.411 4.411 0 0 1 29 21.322h43.55a4.41 4.41 0 0 1 4.41 4.41Z" fill="#daedf7" stroke-width="1"></path><path d="M76.96 25.732a4.41 4.41 0 0 0 -4.41 -4.41H29a4.411 4.411 0 0 0 -4.41 4.41v3.528h0.067a5.274 5.274 0 0 1 5.225 -4.63h41.786a5.274 5.274 0 0 1 5.225 4.63h0.067Z" fill="#ffffff" stroke-width="1"></path><path d="M76.96 29.591H24.591v-3.859A4.411 4.411 0 0 1 29 21.322h43.55a4.41 4.41 0 0 1 4.41 4.41Z" fill="none" stroke="#45413c" stroke-linecap="round" stroke-linejoin="round" stroke-width="1"></path><path d="m57.115 24.189 6.615 0 0 2.646 -6.615 0Z" fill="#00dba8" stroke="#45413c" stroke-linecap="round" stroke-linejoin="round" stroke-width="1"></path><path d="M66.376 25.291a1.323 1.323 0 1 0 2.646 0 1.323 1.323 0 1 0 -2.646 0Z" fill="#00dba8" stroke="#45413c" stroke-linecap="round" stroke-linejoin="round" stroke-width="1"></path><path d="m29.552 23.968 0 2.646" fill="none" stroke="#45413c" stroke-linecap="round" stroke-linejoin="round" stroke-width="1"></path><path d="m32.309 23.968 0 2.646" fill="none" stroke="#45413c" stroke-linecap="round" stroke-linejoin="round" stroke-width="1"></path><path d="m35.065 23.968 0 2.646" fill="none" stroke="#45413c" stroke-linecap="round" stroke-linejoin="round" stroke-width="1"></path><path d="m37.821 23.968 0 2.646" fill="none" stroke="#45413c" stroke-linecap="round" stroke-linejoin="round" stroke-width="1"></path><path d="m28.45 32.899 44.661 0 0 39.69 -44.661 0Z" fill="#00b8f0" stroke-width="1"></path><path d="M55.537 32.9H32.318a3.868 3.868 0 0 0 -3.868 3.868v23.217Z" fill="#4acfff" stroke-width="1"></path><path d="m28.45 32.899 44.661 0 0 39.69 -44.661 0Z" fill="none" stroke="#45413c" stroke-linecap="round" stroke-linejoin="round" stroke-width="1"></path><path d="m28.45 40.065 44.661 0" fill="none" stroke="#45413c" stroke-linecap="round" stroke-linejoin="round" stroke-width="1"></path><path d="m49.949 41.167 2.726 3.067a0.823 0.823 0 0 0 1.163 0l2.726 -3.067Z" fill="#87898c" stroke="#45413c" stroke-linecap="round" stroke-linejoin="round" stroke-width="1"></path><path d="M55.241 37.639a1.985 1.985 0 0 0 -3.969 0v0.772h3.969Z" fill="#87898c" stroke="#45413c" stroke-linecap="round" stroke-linejoin="round" stroke-width="1"></path><path d="M56.564 41.167h-6.615v-1.653a1.1 1.1 0 0 1 1.1 -1.1h4.41a1.1 1.1 0 0 1 1.1 1.1Z" fill="#daedf7" stroke="#45413c" stroke-linecap="round" stroke-linejoin="round" stroke-width="1"></path><path d="M53.367 44.475v0.331a0.992 0.992 0 0 0 0.992 0.992 1.654 1.654 0 0 1 1.654 1.654" fill="none" stroke="#45413c" stroke-linecap="round" stroke-linejoin="round" stroke-width="1"></path><path d="M69.243 72.589a2.743 2.743 0 0 0 -2.643 -2.757H34.955a2.742 2.742 0 0 0 -2.646 2.757Z" fill="#adc4d9" stroke="#45413c" stroke-linecap="round" stroke-linejoin="round" stroke-width="1"></path><path d="M33.936 66.508a4.592 4.592 0 0 0 4.294 3.324h25.628a3.912 3.912 0 0 0 3.731 -4.07 5.354 5.354 0 0 0 -2.7 -4.906c-0.245 -3.413 -2.538 -6.089 -5.334 -6.089a4.379 4.379 0 0 0 -0.564 0.037 8.79 8.79 0 0 0 -7.473 -4.818 8.537 8.537 0 0 0 -6.941 3.974 3.228 3.228 0 0 0 -1.861 -0.627 4.027 4.027 0 0 0 -3.635 3.358c-3.082 0.127 -5.55 3.279 -5.55 7.159a8.728 8.728 0 0 0 0.405 2.658Z" fill="#ff87af" stroke-width="1"></path><path d="M39.078 59.448a4.027 4.027 0 0 1 3.635 -3.358 3.235 3.235 0 0 1 1.861 0.627 8.536 8.536 0 0 1 6.942 -3.973 8.788 8.788 0 0 1 7.472 4.818 4.207 4.207 0 0 1 0.564 -0.038c2.8 0 5.089 2.676 5.334 6.089a4.973 4.973 0 0 1 2.514 3.364 4.372 4.372 0 0 0 0.188 -1.215 5.354 5.354 0 0 0 -2.7 -4.906c-0.245 -3.413 -2.538 -6.089 -5.334 -6.089a4.379 4.379 0 0 0 -0.564 0.037 8.79 8.79 0 0 0 -7.472 -4.818 8.537 8.537 0 0 0 -6.942 3.974 3.228 3.228 0 0 0 -1.861 -0.627 4.027 4.027 0 0 0 -3.635 3.358c-3.082 0.127 -5.55 3.279 -5.55 7.159a8.929 8.929 0 0 0 0.107 1.381c0.501 -3.224 2.733 -5.671 5.441 -5.783Z" fill="#ffb0ca" stroke-width="1"></path><path d="M48.591 69.832c0.967 -1.973 1.257 -3.937 4.455 -5.026" fill="none" stroke="#45413c" stroke-linecap="round" stroke-linejoin="round" stroke-width="1"></path><path d="M42.438 69.832a4.72 4.72 0 0 0 1.423 -3.592" fill="none" stroke="#45413c" stroke-linecap="round" stroke-linejoin="round" stroke-width="1"></path><path d="M41.948 65.284a3.735 3.735 0 0 0 2.679 0.956c1.594 0 2.678 -1.713 3.444 -3.824a5.474 5.474 0 0 1 2.3 -2.869" fill="none" stroke="#45413c" stroke-linecap="round" stroke-linejoin="round" stroke-width="1"></path><path d="M58.988 54.8s-3.215 0.082 -5.559 3.787" fill="none" stroke="#45413c" stroke-linecap="round" stroke-linejoin="round" stroke-width="1"></path><path d="M55.63 69.825a5.053 5.053 0 0 1 0.86 -5.5" fill="none" stroke="#45413c" stroke-linecap="round" stroke-linejoin="round" stroke-width="1"></path><path d="M64.886 60.856a4.544 4.544 0 0 0 -5.334 0.6" fill="none" stroke="#45413c" stroke-linecap="round" stroke-linejoin="round" stroke-width="1"></path><path d="M56.108 60.5a3.906 3.906 0 0 0 0.382 3.825 3.142 3.142 0 0 0 3.828 1.434c2.264 -0.837 3.061 0 3.061 0" fill="none" stroke="#45413c" stroke-linecap="round" stroke-linejoin="round" stroke-width="1"></path><path d="M39.078 56.691a3.386 3.386 0 0 1 2.487 0.466" fill="none" stroke="#45413c" stroke-linecap="round" stroke-linejoin="round" stroke-width="1"></path><path d="M44.574 53.96c2.157 1.225 2.253 4.87 0.435 6.543 -2.671 2.459 -4.879 -0.836 -6.889 2.391" fill="none" stroke="#45413c" stroke-linecap="round" stroke-linejoin="round" stroke-width="1"></path><path d="M53.046 61.938a5.957 5.957 0 0 0 0 -3.825 3.367 3.367 0 0 0 -3.827 -2.39" fill="none" stroke="#45413c" stroke-linecap="round" stroke-linejoin="round" stroke-width="1"></path><path d="M33.936 66.508a4.592 4.592 0 0 0 4.294 3.324h25.628a3.912 3.912 0 0 0 3.731 -4.07 5.354 5.354 0 0 0 -2.7 -4.906c-0.245 -3.413 -2.538 -6.089 -5.334 -6.089a4.379 4.379 0 0 0 -0.564 0.037 8.79 8.79 0 0 0 -7.473 -4.818 8.537 8.537 0 0 0 -6.941 3.974 3.228 3.228 0 0 0 -1.861 -0.627 4.027 4.027 0 0 0 -3.635 3.358c-3.082 0.127 -5.55 3.279 -5.55 7.159a8.728 8.728 0 0 0 0.405 2.658Z" fill="none" stroke="#45413c" stroke-linejoin="round" stroke-width="1"></path></svg>