<svg xmlns="http://www.w3.org/2000/svg" viewBox="0 0 400 400" height="400" width="400"><defs></defs><path d="M267.964 314.246c-35.954 0 -65.474 4.15 -68.702 9.45a0.836 0.836 0 0 1 0.342 0.186 0.82 0.82 0 0 1 0.346 0.432c6.684 10.072 66 9.784 78.016 9.66 58.316 -0.6 57.4 -9.8 58.712 -10.258 -3.164 -5.316 -32.712 -9.47 -68.714 -9.47z" fill="#ffd35c" stroke-width="1"></path><path d="m350.478 349.526 -12.626 -25.38a0.91 0.91 0 0 0 -1.174 -0.43c-1.148 0.4 -0.8 9.666 -58.712 10.258 -12.138 0.124 -71.33 0.414 -78.016 -9.66a0.812 0.812 0 0 0 -0.346 -0.432 0.848 0.848 0 0 0 -0.342 -0.186 1.112 1.112 0 0 0 -1.284 0.684c-0.238 0.6 -16.878 42.7 -17 43 -0.268 0.676 0.4 1.232 0.982 1.29 15.346 1.538 44.974 3.12 74.39 3a641.752 641.752 0 0 0 94.098 -6.734q2.938 -0.454 5.864 -0.948a1.03 1.03 0 0 0 0.6 -1.496q-3.21 -6.492 -6.434 -12.966zm-43.114 18.2c-15.37 1.136 -30.778 1.72 -46.188 1.874 -29.498 0.296 -59.184 -1.086 -77.752 -2.884 1.4 -3.52 14.66 -37.092 15.836 -40.064 9.656 9.2 57.944 9.362 71.27 9.4 15.6 0.042 42.476 -0.472 57.528 -4.888 12.786 -3.76 4.346 -13.4 24.754 27.634l1.71 3.438c-15.62 2.564 -31.37 4.32 -47.158 5.484z" fill="#000000" stroke-width="1"></path><path d="M96.496 101.21s-8.898 -12.02 -13.4 -10.056 5.2 10.056 5.2 10.056 -4.506 -0.8 -5.2 3.352c-0.49 2.936 -2.484 7.682 0.19 10.142 1.47 1.354 3.2 2.65 4.766 3.928a10.18 10.18 0 0 0 5.908 2.922c4.154 0 11.784 -7.744 2.536 -20.344z" fill="#a76c6c" stroke-width="1"></path><path d="M254.346 258.41a1.02 1.02 0 0 0 -2.038 0v2.674c-15.26 15.268 -13.86 13.706 -13.93 14.358 -0.02 0.2 0 5.2 0 5.4 -15.502 15.508 -14.85 14.474 -14.85 15.664 0 3.28 -0.096 3.416 0.316 3.772a3.436 3.436 0 0 0 -1.06 4.57 3.4 3.4 0 1 0 2.742 -5.114c0.058 -0.366 0.042 -3.018 0.04 -3.2 15.972 -15.972 14.708 -14.632 14.814 -15a43.726 43.726 0 0 0 0.036 -5.672l13.38 -13.378c0.7 -0.706 0.55 -0.92 0.55 -4.074zm-28.688 43.2a1.552 1.552 0 1 1 -1.552 1.552 1.552 1.552 0 0 1 1.552 -1.562zm16.884 -8.1a3.386 3.386 0 0 0 1.988 -5.37c0.296 -0.228 3.36 -3.244 4.46 -4.418 0.524 -0.562 0.418 -0.616 0.418 -5.95v-2.504c12.03 -12.03 11.488 -11.234 11.572 -12a45.732 45.732 0 0 0 0 -4.856 1.018 1.018 0 0 0 -2.036 0v4.442c-12.14 12.14 -11.504 11.328 -11.574 12 -0.04 0.412 0 -0.342 0 7.6 -4.528 4.528 -4.298 4.25 -4.4 4.528a3.4 3.4 0 0 0 -4.042 4.934 3.454 3.454 0 0 0 3.614 1.594zm-1.8 -2.522s-0.508 -0.242 -0.146 -1.338c1.182 -2.102 3.702 0.27 2.124 1.544a1.57 1.57 0 0 1 -1.978 -0.206zm80.692 9.868a4.918 4.918 0 0 0 -4.098 0.358c-6.388 -6.388 -4.76 -5.508 -7.846 -5.508h-8.264l-7.684 -7.684v-7.33c0 -2.048 1.892 0.358 -18.514 -20.05v-2.232a1.02 1.02 0 0 0 -2.038 0c0 3.816 -0.784 2.294 3.442 6.518 0 10.95 -0.02 9.2 0 10.08s0.304 0.934 4.366 5c0.228 0.23 0.264 -0.058 -0.122 0.412a3.39 3.39 0 1 0 1.856 -1.092c0.052 -0.59 0 -0.466 -4.062 -4.53v-7.826l13.034 13.028c0 9 -0.144 8.62 0.302 9.166 0.232 0.286 -0.8 -0.8 7.44 7.442 1.436 1.432 0.912 1.136 4.332 1.136h7.4l4.834 4.832a4.918 4.918 0 1 0 5.616 -1.72zm0.638 6.376a2.896 2.896 0 1 1 -0.092 -3.6 2.894 2.894 0 0 1 0.092 3.6zm-38.774 -26.11a1.552 1.552 0 1 1 -1.552 1.552 1.55 1.55 0 0 1 1.552 -1.552z" fill="#b26ee6" stroke-width="1"></path><path d="M289.734 311.8c-0.908 -0.344 -0.654 0.836 -0.654 -5.896 0 -6.032 0.052 -5.438 0 -5.944 -0.07 -0.674 0.6 0.2 -12.622 -13.046 0 -3.644 0.074 -3.708 -0.3 -4.168 -0.166 -0.2 -7.686 -7.8 -8.102 -7.918 0 -0.27 0.012 -16.042 0 -16.312a1.02 1.02 0 1 0 -2.038 -0.108v4.37l-6.292 6.29c-2.454 2.458 -1.938 1.046 -1.938 6.894 0 5.2 -0.026 4.8 0.076 5.068a4.6 4.6 0 0 0 -3 6.824c0.268 0.442 1.256 -0.77 -8.504 9 -1.368 1.366 -1.586 1.466 -1.588 1.972a3.35 3.35 0 0 0 -3.936 0.872 3.386 3.386 0 1 0 5.23 0.148c0.412 -0.118 10.728 -10.544 10.526 -10.344a4.764 4.764 0 0 0 3.13 0.508 4.6 4.6 0 0 0 0.646 -8.82c-0.896 -0.344 -0.536 0.06 -0.536 -0.522v-8.816l6.2 -6.2v23.566c-0.31 0.118 -8.372 8.248 -8.17 8.046 -1.462 1.462 -1.664 1.412 -1.664 2.55v11a3.4 3.4 0 1 0 2.038 0v-11.034l7.8 -7.8c0 13.644 -0.018 19.844 -0.03 22.62l2.06 0.262c0.16 -4.294 0 -14.042 0 -37.34l6.364 6.366c0 14.6 -0.054 17.726 0.078 18.066a4.926 4.926 0 1 0 1.96 -1.16c0 -12.2 -0.062 -11.06 0.144 -10.856 6.48 6.4 6.84 6.84 10.442 10.44v11.248a4.918 4.918 0 1 0 2.69 0.172zm-31.92 -28.654 -1.024 3.94 0.978 0.762m3.582 -2 -1.536 -2.704 0.022 0.014a2.776 2.776 0 1 1 -0.022 -0.014zm17.022 19.652a2.892 2.892 0 1 1 -1.4 1.2 2.776 2.776 0 0 1 -0.136 -3.9zm13.536 15.376a2.894 2.894 0 1 1 -0.094 -3.6 2.886 2.886 0 0 1 -1.442 0.902zm-46.98 -17.692a1.552 1.552 0 1 1 -1.552 1.552 1.55 1.55 0 0 1 0.024 -4.25zm13.788 12.032a1.552 1.552 0 1 1 -1.552 1.552 1.55 1.55 0 0 1 0.016 -4.25zm-34.104 -11.296 0.032 0.024 -0.032 -0.024z" fill="#b26ee6" stroke-width="1"></path><path d="M90.374 316.868c-0.4 -20.744 -4.734 -79.884 -6.436 -99.558a1.05 1.05 0 0 1 -1.102 -0.976l-0.612 -8.186a51.262 51.262 0 0 1 -17.674 1.43c0.344 7.774 4.138 93.442 4.648 105.02 0.242 5.484 0.958 4.692 -3.084 5.984 1.032 5.474 1.548 16.152 5.904 18.712 5.736 3.368 14.138 1.26 16.824 -4.8 2.378 -5.344 1.64 -11.938 1.532 -17.626zm-56.258 8.022c-0.248 4.532 -0.506 22.756 11.174 24.728 11.862 2 16.78 -22.6 17.73 -28.106a92.094 92.094 0 0 1 -15.18 3 84.08 84.08 0 0 1 -13.724 0.378z" fill="#7d4ab4" stroke-width="1"></path><path d="m63.968 119.358 -1.8 11.8c13.042 -8.018 16.282 -4.42 9.312 3.104 0 0 4.4 -2.774 7.916 -1.56s-4 7.628 -4 7.628 7.524 -1.906 7.696 1.214c0.146 2.65 -11.422 10.168 -14.924 12.382 0.654 0.69 1.634 1.4 1.078 2.178a124.484 124.484 0 0 1 -11.764 13.728v8.124l33.908 -8.322 12.552 -55.832z" fill="#6dd3a8" stroke-width="1"></path><path d="M66.156 104.586c1.4 -2.162 1.368 -7.74 1.25 -10.296 14.71 -8.614 5.914 -29.82 -1 -44.97 -3.762 -8.248 -19.558 -1.552 -27 3.224a6.622 6.622 0 0 0 -3.026 5.536 80.922 80.922 0 0 0 1.574 16.506 7.822 7.822 0 0 0 -4.172 -0.426c-5.968 1.052 -5.894 8.268 -0.044 10.936a7.308 7.308 0 0 0 6.906 -0.216c2.274 6.984 3.344 9.964 6.882 11.144a22.534 22.534 0 0 0 0.8 7.696 4.06 4.06 0 0 0 2.946 2.48c3.254 0.95 13.06 1.2 14.884 -1.614zm-13.144 -0.076c-2.76 -0.5 -3.546 -0.8 -3.46 -7.944a27.588 27.588 0 0 0 15.838 -1.262c0.154 7.6 -1.168 8.6 -1.118 8.4 -0.2 0.044 -1.082 0.928 -5.964 1.09a25.092 25.092 0 0 1 -5.296 -0.284zM75.4 140.338s7.524 -6.414 4 -7.628 -7.916 1.56 -7.916 1.56c7.516 -8.112 3.126 -11.818 -12.984 -0.71 0.2 7.558 4.48 14.892 9.676 20.374 3.502 -2.216 15.07 -9.732 14.924 -12.382 -0.184 -3.12 -7.7 -1.214 -7.7 -1.214z" fill="#a76c6c" stroke-width="1"></path><path d="M251.502 250.44h3.236v5.896h-3.236zm13.046 0h3.236v5.896h-3.236zm-6.524 0h3.236v5.896h-3.236zm14.158 0h3.236v5.896h-3.236zm49.694 -122.32c-2.184 -19.264 -14.884 -36.768 -31.534 -47.706 -40.122 -26.372 -99.624 -18.278 -117.48 17.89 -9.708 19.662 2.444 39.038 22.57 43.614 2.702 7.928 12.152 17.296 27.31 20.294 7.664 1.514 8.46 0.574 17.178 -0.856 3.25 5.17 19.644 30.676 27.224 31.386 2.942 0.278 2.056 -3.8 -0.34 -9.2 6.658 0.116 21 -0.222 27.024 -3.136 5.326 -2.574 7.338 -11.46 7.748 -17.294a20.904 20.904 0 0 0 13.828 -9.218 36.088 36.088 0 0 0 6.472 -25.774zm-23.314 41.038c-2.242 9.2 -5.286 10.4 -14.56 11.534a176.692 176.692 0 0 1 -18.108 0.872 231.218 231.218 0 0 0 -12.698 -22c12.886 -1.388 34.83 -2.752 46.368 3.23a37.264 37.264 0 0 1 -1.002 6.364zm21.53 -34.67c-0.618 15.736 -12.34 26.968 -19.236 26.642a38.226 38.226 0 0 0 -11.88 -3.634c-15.8 -2.638 -36.72 -0.356 -52.62 2.414 -5.766 1 -6.464 1.6 -12.692 0.4 -14.698 -2.8 -23.76 -11.428 -26.4 -19.34 0.908 0.028 0.964 -0.704 1.342 -1.644 3.944 -9.678 14.612 -17.446 30.702 -17.066 3.858 0.094 2.62 0.6 2.62 -0.882a2.572 2.572 0 0 1 0.2 -1 39.472 39.472 0 0 0 -24.2 5.156c-7.034 4.48 -11.62 12.26 -11.674 14.49a33.252 33.252 0 0 1 -18.176 -10.574c-16.256 -18.886 -0.296 -42.412 21.24 -53.904C196.768 87.488 196.7 102.918 204.8 112a2.6 2.6 0 0 1 1.374 -1.51c-7.73 -8.826 -7.262 -24.87 -4.46 -36.166 20.426 -9.882 45.224 -9.342 66.516 -2.252 -8.222 4.852 -14.268 14.65 -14.058 28.616a2.582 2.582 0 0 1 2.036 0.016c-0.188 -14.302 6.446 -23.76 14.478 -27.644 0.6 -0.288 14.4 4.89 25.906 14.548 -8.036 2.632 -14.2 8.426 -14.286 17.036a2.578 2.578 0 0 1 2.068 0.03 14.26 14.26 0 0 1 6.016 -11.6 1.106 1.106 0 0 0 0.104 1.666 39.31 39.31 0 0 1 10.7 13.138c5.854 12.276 0.4 31.478 -13.59 34.622a2.468 2.468 0 0 1 0.144 2.054c9.446 -1.856 15.464 -10.722 17.2 -19.732 1.842 -9.6 -0.136 -18.054 -8.06 -26.85a36.932 36.932 0 0 0 -5.36 -5 0.8 0.8 0 0 0 -0.844 -0.11 23.974 23.974 0 0 1 7.73 -3.666c15.486 13.904 22.212 31.718 21.678 45.292z" fill="#dcbeff" stroke-width="1"></path><path d="M236.782 120.1a23.048 23.048 0 0 1 5.936 -3.822c7.068 -3.178 15.112 -2.2 22.044 0.852 1.286 0.566 2.54 1.2 3.772 1.876 1.15 0.632 2.18 -1.128 1.028 -1.76 -6.836 -3.752 -14.68 -6.038 -22.48 -4.48a25.3 25.3 0 0 0 -11.978 6.088 2.588 2.588 0 0 1 1.678 1.246zm57.344 -0.8a0.962 0.962 0 0 0 0.05 -0.158 2.6 2.6 0 0 1 -1.662 -1.042 0.884 0.884 0 0 0 -0.146 0.172A27.274 27.274 0 0 1 278.2 130.4a47.6 47.6 0 0 1 -16.72 2.96 67.138 67.138 0 0 1 -6.712 -0.258c-7.948 -0.698 -3.48 -1.57 -9.24 1.4a46.972 46.972 0 0 1 -13.418 4.418 50.682 50.682 0 0 1 -10.554 0.686c-1.2 -0.046 -2.4 -0.132 -3.6 -0.272a20.766 20.766 0 0 1 -1.354 -0.2 2.538 2.538 0 0 1 0.162 0.874 2.568 2.568 0 0 1 -0.284 1.16 41.698 41.698 0 0 0 6.122 0.496 52.084 52.084 0 0 0 16.496 -2.35 47.684 47.684 0 0 0 10.574 -4.836 58.87 58.87 0 0 0 11.502 0.924 44.88 44.88 0 0 0 22.66 -5.498 28.294 28.294 0 0 0 10.292 -10.604z" fill="#dcbeff" stroke-width="1"></path><path d="M207.25 110.26a2.6 2.6 0 1 0 2.6 2.6 2.6 2.6 0 0 0 -2.6 -2.6zm6.92 27.14a2.6 2.6 0 1 0 2.318 3.762 2.6 2.6 0 0 0 -2.318 -3.762zm41.006 -31.698a2.6 2.6 0 0 0 0 -5.2 2.566 2.566 0 0 0 -1 0.2 2.6 2.6 0 0 0 1 5zm28.136 3.954a2.6 2.6 0 1 0 -2.6 -2.6 2.6 2.6 0 0 0 2.6 2.6zm-48.208 9.198a2.554 2.554 0 0 0 -0.57 -0.068 2.6 2.6 0 0 0 -2.4 1.6 2.564 2.564 0 0 0 -0.2 1 2.6 2.6 0 1 0 3.174 -2.534zm59.516 -4.874a2.6 2.6 0 0 0 -2.6 2.6 2.614 2.614 0 0 0 2.158 2.558 2.494 2.494 0 0 0 0.444 0.044 2.6 2.6 0 1 0 0 -5.2zm-9.314 27.118a2.6 2.6 0 1 0 2.446 3.466 2.6 2.6 0 0 0 -2.446 -3.466z" fill="#b26ee6" stroke-width="1"></path><path d="M323.644 267.126q-4.296 9.564 -8.6 19.128c-0.534 1.186 1.222 2.222 1.758 1.026q4.296 -9.56 8.59 -19.126c0.544 -1.186 -1.212 -2.224 -1.748 -1.028zm26.916 0.974 -15.2 25.416a1.02 1.02 0 0 0 1.76 1.028l15.2 -25.416a1.02 1.02 0 0 0 -1.76 -1.028zm2.24 17.27q-7.074 11.15 -14.156 22.296c-0.704 1.11 1.058 2.132 1.76 1.028l14.156 -22.296c0.712 -1.11 -1.05 -2.134 -1.76 -1.028zm-173.218 -10.416c-0.702 -1.104 -2.464 -0.082 -1.76 1.028l18.4 29c0.702 1.104 2.464 0.084 1.76 -1.028q-9.202 -14.496 -18.4 -29zm6.736 -26.616q-2.8 -4.932 -5.758 -9.758c-0.684 -1.118 -2.446 -0.094 -1.758 1.026a323.214 323.214 0 0 1 18.448 34.626q2.332 5.108 4.482 10.294c0.496 1.2 2.468 0.67 1.966 -0.542a325.184 325.184 0 0 0 -17.38 -35.646zm19.562 14.474a1.018 1.018 0 0 0 -1.758 1.026 135.258 135.258 0 0 1 9 17.6 1.054 1.054 0 0 0 1.252 0.712 1.026 1.026 0 0 0 0.712 -1.254 138.18 138.18 0 0 0 -9.206 -18.084z" fill="#ffd35c" stroke-width="1"></path><path d="M33.782 74.16a7.822 7.822 0 0 1 4.172 0.426 80.922 80.922 0 0 1 -1.574 -16.506 6.622 6.622 0 0 1 3.02 -5.536c7.4 -4.74 23.216 -11.534 27 -3.224 1.254 2.744 3.048 6.56 4.704 10.85 7.456 -8.444 9.964 -17.494 7.164 -19.734 -5.474 -4.378 -11.104 0.44 -11.104 0.44 2.446 -14.746 -15.526 -16.912 -19.116 -4.272 0 0 -1.972 -5.912 -12.482 -3.174s-5.86 14.892 -5.86 14.892c-8.37 -2.772 -11.306 12.744 4.076 25.838zm48.114 293.612c-14.934 -8.686 -36.032 -12.446 -42.158 -13.4a1.584 1.584 0 0 0 -1.824 1.5c-0.222 5.088 -0.06 10.642 0.036 13.116a1.576 1.576 0 0 0 1.354 1.504c14.474 2 33.326 0.908 41.922 0.224a1.584 1.584 0 0 0 0.67 -2.944zm43.704 -9.942c-14.932 -8.69 -36.032 -12.444 -42.16 -13.4a1.586 1.586 0 0 0 -1.824 1.5c-0.222 5.09 -0.058 10.644 0.038 13.116a1.578 1.578 0 0 0 1.352 1.506c14.476 2 33.328 0.906 41.924 0.222a1.584 1.584 0 0 0 0.67 -2.944zM68.7 303.34c-0.728 -16.422 -5.322 -120.234 -5.6 -126.754l-2.016 0.494c6.302 142.88 6.2 140.714 6.218 140.954 -21.476 7.322 -42.6 5.752 -55.304 0.072 0.114 -21.67 9.494 -112.556 11.776 -134.188 14.468 8.174 36.412 -15.142 45.476 -27.8 0.556 -0.77 -0.422 -1.488 -1.078 -2.178 -7.224 -7.622 -9.978 -15.958 -9.668 -21.05a1.024 1.024 0 0 0 -1.502 -0.902v-14.454l3.47 -4.828c0.768 -1.066 -1 -2.084 -1.76 -1.028l-4.634 6.444c-5.69 -2.632 -11.246 -9.382 -14.628 -14.63A20.85 20.85 0 0 1 46.6 99.8c1.24 -0.4 0.71 -2.376 -0.54 -1.964 -2.518 0.828 -10.02 4 -8.818 6 0.4 0.674 0.832 1.344 1.27 2 -22.162 11.086 -31.882 64.256 -16.664 76.75 -0.34 3.212 -14.252 135.648 -11.4 137.048 12.142 5.964 35.246 8.154 58.188 0.102 1.054 -0.368 0.804 0.324 0.064 -16.396zM46.012 119.168a56.02 56.02 0 0 0 -0.476 -4.8 28 28 0 0 0 8.6 6.012 0.846 0.846 0 0 0 0.818 -0.152v12.316c0 0.8 -0.878 -0.312 -9.738 6.11a106.338 106.338 0 0 0 0.796 -19.486zM17.416 169.846c-3.936 -19.15 4.94 -53.8 22.26 -62.308a51.846 51.846 0 0 0 3.298 4.14c1.87 8.036 1.09 20.544 -0.026 28.662a195.05 195.05 0 0 0 -20.762 18.87c-0.9 0.954 0.538 2.4 1.44 1.442 7.254 -7.68 22.894 -22.346 32.846 -26.318 0.382 6.316 3.566 14.148 10.566 21.352 -16.804 22.754 -43.91 41.958 -49.622 14.16z" fill="#000000" stroke-width="1"></path><path d="M55.298 213.572a352.06 352.06 0 0 0 -0.4 -9.038 1.038 1.038 0 0 0 -1.29 -0.982c-29.388 5.54 -27.71 4.966 -27.688 5.986 -0.05 0.308 -1.812 35.77 -1.904 38.222a9.654 9.654 0 0 0 4.2 8.32c3.02 2.074 6.652 1.652 10.106 1.326 14.852 -1.4 15.494 -5.228 16.564 -16.45a253.6 253.6 0 0 0 0.412 -27.384zm-27.412 -3.088c11.442 -2.162 23.232 -4.4 25.038 -4.734q0.2 3.6 0.326 7.218l-25.716 4.676q0.178 -3.578 0.352 -7.16zm25.282 26.018c-0.19 3.416 -0.738 13.31 -3.302 15.534 -3.304 2.886 -13.85 3.846 -17.036 3.6a7.51 7.51 0 0 1 -6.5 -5.388c-0.47 -1.64 -0.4 0.17 1.102 -30.52 37.2 -6.762 22.182 -4.042 25.876 -4.706 0.186 6.978 0.248 14.53 -0.14 21.48zM106.8 306.8c-1.526 -21.246 -11.2 -101.986 -13.562 -121.03a5.858 5.858 0 0 0 4.23 -1.558c7.222 -7.14 7.94 -45.27 7.5 -54.63a1.024 1.024 0 1 0 -2.038 -0.16c0.16 8.94 -0.146 51.478 -7.972 54.086 -4.18 1.306 -10.99 -2.218 -13.258 -10.23a1.02 1.02 0 0 0 -1.964 0.54c0.056 0.2 -0.33 -3.628 3.11 42.522 0.096 1.298 2.136 1.308 2.038 0L82.1 179.028a13.886 13.886 0 0 0 9.078 6.548c1.516 12.4 13.756 113.16 13.8 125.638 -3.04 0.216 -10.636 0.528 -13.076 -1.31 -1.072 -0.8 -3.834 2.034 2.8 3.104a50.738 50.738 0 0 0 11.276 0.182 1.05 1.05 0 0 0 1.018 -1.018 36 36 0 0 0 -0.196 -5.372zm52 48.664a71.768 71.768 0 0 0 -19 -0.4c-1.288 0.146 -1.304 2.184 0 2.036a69.882 69.882 0 0 1 18.466 0.334c1.274 0.19 1.828 -1.772 0.534 -1.97zm230.158 -2.308q-10.4 -0.492 -20.82 -0.174c-1.308 0.038 -1.314 2.076 0 2.038q10.41 -0.318 20.82 0.174c1.31 0.062 1.306 -1.976 0 -2.038zm-14.06 9.692a34.378 34.378 0 0 0 -9.624 0.564 1.02 1.02 0 0 0 0.542 1.966 32.466 32.466 0 0 1 9.082 -0.492 1.03 1.03 0 0 0 1.018 -1.02 1.04 1.04 0 0 0 -1.018 -1.018zM74.784 116.912c-0.444 0.244 -0.344 0.4 -1.462 6.914a1.034 1.034 0 0 0 1.252 1.254c24.14 -4.502 22.882 -4.056 23.02 -4.872l0.888 -5.234a1.036 1.036 0 0 0 -1.252 -1.252l-4.6 0.638q0.172 -0.948 0.34 -1.898c0.102 -0.568 -0.264 -1.382 -0.982 -1.288 -9.518 1.236 -9.918 1 -9.918 2.174v2.478c-7.65 1.062 -7.07 0.946 -7.286 1.086zm1.482 1.76 7.094 -0.986a1.018 1.018 0 0 0 0.748 -0.982v-2.47l6.638 -0.862 -0.342 1.91a1.036 1.036 0 0 0 1.252 1.252l4.614 -0.64 -0.538 3.174c-3.074 0.574 -17.06 3.184 -20.182 3.764l0.716 -4.16zm-8.182 -58.794z" fill="#000000" stroke-width="1"></path><path d="M70.368 62.4a5.674 5.674 0 0 0 -5.642 6.268 15.64 15.64 0 0 0 -9.438 2.732 5.674 5.674 0 0 0 -10.718 1.248 112.012 112.012 0 0 0 -11.294 -1.902 6.488 6.488 0 0 0 -4.262 0.658 5.674 5.674 0 0 0 -2.362 3.622c-0.232 1.282 1.732 1.832 1.964 0.542 0.718 -4 4.262 -3.344 15.932 -0.85a5.664 5.664 0 0 0 11.238 -1.302 14.256 14.256 0 0 1 9.588 -2.638 5.674 5.674 0 1 0 5 -8.368z" fill="#ffd35c" stroke-width="1"></path><path d="M64.246 83.52c-4.068 2.4 -6.738 1.622 -8.758 -0.64a4.22 4.22 0 0 1 -0.2 -0.294 1.018 1.018 0 0 0 -1.758 1.028c1.828 3.094 6.278 4.882 11.746 1.666a1.02 1.02 0 0 0 -1.03 -1.76zm-14.95 -19.12a4.126 4.126 0 0 1 0.836 -0.028c1.18 0.136 1.52 -1.862 0 -2.038 -3.508 -0.4 -8.878 4.64 -6.756 5.758 1.452 0.768 1.554 -1.878 4.742 -3.348 0.846 -0.396 1.746 -0.344 1.178 -0.344zm19.688 -3.652c0.4 0.47 0.626 1.112 0.4 0.562a1.018 1.018 0 0 0 1.964 -0.54 8.4 8.4 0 0 0 -7.382 -4.34 1.02 1.02 0 0 0 0 2.038 7.038 7.038 0 0 1 5.018 2.28zm-29.312 17.688 -6.022 -1.534a1.02 1.02 0 0 0 -0.542 1.966l6.022 1.532a1.018 1.018 0 0 0 0.542 -1.964zm11.112 -6.052a1.93 1.93 0 0 0 0 3.858 1.93 1.93 0 0 0 0 -3.858zm19.51 -6.16a1.93 1.93 0 0 0 0 3.86 1.93 1.93 0 0 0 0 -3.86z" fill="#000000" stroke-width="1"></path><path d="M289.666 186.25v-3.722a1.018 1.018 0 0 0 -2.036 0V186.6l-6.368 6.366a1.896 1.896 0 0 0 -0.762 1.2 12.488 12.488 0 0 0 0 1.254v9.26h2.038v-10.11l6.456 -6.458a4.11 4.11 0 0 0 0.454 -0.478 2.27 2.27 0 0 0 0.218 -1.384zm-16.666 18.422h2.038v-10.142l4.588 -4.6c0.536 -0.538 1.434 -1.156 1.48 -1.972s0.028 -1.632 0.014 -2.45a3.064 3.064 0 1 0 -2.05 0V187.6l-2.616 2.618a43.148 43.148 0 0 0 -3.144 3.142c-0.614 0.758 -0.31 2.356 -0.31 3.254zm-28.246 0h2.046v-16a2 2 0 0 0 -0.4 -1.584c-1.75 -1.894 -3.66 -3.662 -5.484 -5.486l-4.978 -4.978 6.476 -6.476a5.698 5.698 0 1 0 6.58 -8.666 5.716 5.716 0 0 0 -6.312 1.688 5.846 5.846 0 0 0 -1.178 5l-7.728 7.728a1.036 1.036 0 0 0 0 1.442l10.978 10.976zm-0.858 -39.714a3.668 3.668 0 1 1 0.264 4.166 3.702 3.702 0 0 1 -0.264 -4.166z" fill="#b26ee6" stroke-width="1"></path><path d="M253.134 214.586h20.652s2.62 0 2.62 2.62v20.652s0 2.62 -2.62 2.62h-20.652s-2.62 0 -2.62 -2.62v-20.652s0 -2.62 2.62 -2.62" fill="#dcbeff" stroke-width="1"></path><path d="M284.288 209c0 -1.678 0.276 -2.304 -0.952 -2.304 -55.2 0 -35.454 -0.102 -39.856 0 -1.256 0.028 -0.848 0.762 -0.848 6.052 0 37.886 -0.232 35.484 0.564 35.6 0.2 0.03 40.984 -0.032 40.54 0 0.84 -0.048 0.552 2.128 0.552 -39.348zm-7.888 28.858a2.62 2.62 0 0 1 -2.62 2.62h-20.646a2.62 2.62 0 0 1 -2.62 -2.62V217.2a2.62 2.62 0 0 1 2.62 -2.62h20.652a2.62 2.62 0 0 1 2.62 2.62z" fill="#b26ee6" stroke-width="1"></path><path d="M241.64 249.872c1 0.744 0.332 0.526 21.312 0.526h20.784a2.734 2.734 0 0 0 2.588 -2.954c0 -50.466 0.07 -38.166 0 -40.112 -0.104 -2.962 -2.966 -2.666 -4.57 -2.666H243.48a2.7 2.7 0 0 0 -2.886 2.6c-0.104 2.374 0 -8.812 0 32.862 0.006 7.976 -0.276 8.756 1.046 9.744zm1 -42.482c0.086 -0.968 -2.238 -0.686 34.478 -0.686 7.214 0 7.084 -0.2 7.178 0.636 0.024 0.2 0 -2.558 0 21.462 0 20.4 0.238 19.5 -0.552 19.558 -43.756 0 -40.336 0.03 -40.54 0 -0.692 -0.106 -0.564 -0.364 -0.564 -3.812a17065.52 17065.52 0 0 1 -0.008 -37.148z" fill="#000000" stroke-width="1"></path></svg>