<svg viewBox="0 0 100 100" xmlns="http://www.w3.org/2000/svg" height="100" width="100"><path d="M8 48.25a40 40 0 1 0 80 0 40 40 0 1 0 -80 0Z" fill="#b8ecff" stroke="#daedf7" stroke-linecap="round" stroke-linejoin="round" stroke-width="1"></path><path d="M37.025 85.523A40.249 40.249 0 0 0 72.5 78.646V64.75h-26Z" fill="#bdbec0" stroke-width="1"></path><path d="m37 85.571 9.5 -20.821H12.939A40.077 40.077 0 0 0 37 85.571Z" fill="#c8ffa1" stroke-width="1"></path><path d="m72.5 79.849 0 -15.099 -26 0 -9.956 21.826" fill="none" stroke="#45413c" stroke-linecap="round" stroke-linejoin="round" stroke-width="1"></path><path d="m11.564 64.75 34.936 0 -9.956 21.826" fill="none" stroke="#45413c" stroke-linecap="round" stroke-linejoin="round" stroke-width="1"></path><path d="m30 67.75 5.5 0" fill="none" stroke="#9ceb60" stroke-linecap="round" stroke-linejoin="round" stroke-width="1"></path><path d="m18.5 70.75 5.5 0" fill="none" stroke="#9ceb60" stroke-linecap="round" stroke-linejoin="round" stroke-width="1"></path><path d="m32.5 73.25 5.5 0" fill="none" stroke="#9ceb60" stroke-linecap="round" stroke-linejoin="round" stroke-width="1"></path><path d="m23.5 76.25 5.5 0" fill="none" stroke="#9ceb60" stroke-linecap="round" stroke-linejoin="round" stroke-width="1"></path><path d="M33.958 64.75h-20v-41.5a1 1 0 0 1 1 -1h18a1 1 0 0 1 1 1Z" fill="#ffe3cf" stroke-width="1"></path><path d="M33.958 57.357a4.747 4.747 0 0 0 -3.513 -0.746 6.453 6.453 0 0 0 -11.378 1.753 3.752 3.752 0 0 0 -0.828 -0.091 3.868 3.868 0 0 0 -3.864 3.863 13.573 13.573 0 0 1 -0.417 2.614h20Z" fill="#f0c2a1" stroke-width="1"></path><path d="M33.958 23.25a1 1 0 0 0 -1 -1h-18a1 1 0 0 0 -1 1v2.333a0.833 0.833 0 0 1 0.834 -0.833h18.333a0.833 0.833 0 0 1 0.833 0.833Z" fill="#fff2d9" stroke-width="1"></path><path d="M33.958 64.75h-20v-41.5a1 1 0 0 1 1 -1h18a1 1 0 0 1 1 1Z" fill="none" stroke="#45413c" stroke-linecap="round" stroke-linejoin="round" stroke-width="1"></path><path d="M43.542 64.75h-9.584V38.917h8.584a1 1 0 0 1 1 1Z" fill="#f8f8f8" stroke-width="1"></path><path d="M43.542 39.917a1 1 0 0 0 -1 -1h-8.584V41h8.75a0.833 0.833 0 0 1 0.834 0.833Z" fill="#ffffff" stroke-width="1"></path><path d="M33.958 38.917h2.083V64.75h-2.083z" fill="#e0e0e0" stroke-width="1"></path><path d="M39.526 62.136a3.867 3.867 0 0 0 -3.863 -3.863 3.733 3.733 0 0 0 -0.651 0.057 4.663 4.663 0 0 0 -1.054 -0.973v7.393h4.621a4 4 0 0 0 0.947 -2.614Z" fill="#e0e0e0" stroke-width="1"></path><path d="M43.542 64.75h-9.584V38.917h8.584a1 1 0 0 1 1 1Z" fill="none" stroke="#45413c" stroke-linecap="round" stroke-linejoin="round" stroke-width="1"></path><path d="M28.125 26h3.333v5h-3.333z" fill="#4acfff" stroke-width="1"></path><path d="m28.125 31 0 -5 3.333 0 -3.333 5z" fill="#b8ecff" stroke-width="1"></path><path d="M28.125 26h3.333v5h-3.333z" fill="none" stroke="#45413c" stroke-linecap="round" stroke-linejoin="round" stroke-width="1"></path><path d="M22.292 26h3.333v5h-3.333z" fill="#4acfff" stroke-width="1"></path><path d="m22.292 31 0 -5 3.333 0 -3.333 5z" fill="#b8ecff" stroke-width="1"></path><path d="M22.292 26h3.333v5h-3.333z" fill="none" stroke="#45413c" stroke-linecap="round" stroke-linejoin="round" stroke-width="1"></path><path d="M16.458 26h3.333v5h-3.333z" fill="#4acfff" stroke-width="1"></path><path d="m16.458 31 0 -5 3.334 0 -3.334 5z" fill="#b8ecff" stroke-width="1"></path><path d="M16.458 26h3.333v5h-3.333z" fill="none" stroke="#45413c" stroke-linecap="round" stroke-linejoin="round" stroke-width="1"></path><path d="M28.125 33.5h3.333v5h-3.333z" fill="#4acfff" stroke-width="1"></path><path d="m28.125 38.5 0 -5 3.333 0 -3.333 5z" fill="#b8ecff" stroke-width="1"></path><path d="M28.125 33.5h3.333v5h-3.333z" fill="none" stroke="#45413c" stroke-linecap="round" stroke-linejoin="round" stroke-width="1"></path><path d="M22.292 33.5h3.333v5h-3.333z" fill="#4acfff" stroke-width="1"></path><path d="m22.292 38.5 0 -5 3.333 0 -3.333 5z" fill="#b8ecff" stroke-width="1"></path><path d="M22.292 33.5h3.333v5h-3.333z" fill="none" stroke="#45413c" stroke-linecap="round" stroke-linejoin="round" stroke-width="1"></path><path d="M16.458 33.5h3.333v5h-3.333z" fill="#4acfff" stroke-width="1"></path><path d="m16.458 38.5 0 -5 3.334 0 -3.334 5z" fill="#b8ecff" stroke-width="1"></path><path d="M16.458 33.5h3.333v5h-3.333z" fill="none" stroke="#45413c" stroke-linecap="round" stroke-linejoin="round" stroke-width="1"></path><path d="M28.125 41h3.333v5h-3.333z" fill="#4acfff" stroke-width="1"></path><path d="m28.125 46 0 -5 3.333 0 -3.333 5z" fill="#b8ecff" stroke-width="1"></path><path d="M28.125 41h3.333v5h-3.333z" fill="none" stroke="#45413c" stroke-linecap="round" stroke-linejoin="round" stroke-width="1"></path><path d="M22.292 41h3.333v5h-3.333z" fill="#4acfff" stroke-width="1"></path><path d="m22.292 46 0 -5 3.333 0 -3.333 5z" fill="#b8ecff" stroke-width="1"></path><path d="M22.292 41h3.333v5h-3.333z" fill="none" stroke="#45413c" stroke-linecap="round" stroke-linejoin="round" stroke-width="1"></path><path d="M16.458 41h3.333v5h-3.333z" fill="#4acfff" stroke-width="1"></path><path d="m16.458 46 0 -5 3.334 0 -3.334 5z" fill="#b8ecff" stroke-width="1"></path><path d="M16.458 41h3.333v5h-3.333z" fill="none" stroke="#45413c" stroke-linecap="round" stroke-linejoin="round" stroke-width="1"></path><path d="M28.125 48.5h3.333v5h-3.333z" fill="#4acfff" stroke-width="1"></path><path d="m28.125 53.5 0 -5 3.333 0 -3.333 5z" fill="#b8ecff" stroke-width="1"></path><path d="M28.125 48.5h3.333v5h-3.333z" fill="none" stroke="#45413c" stroke-linecap="round" stroke-linejoin="round" stroke-width="1"></path><path d="M22.292 48.5h3.333v5h-3.333z" fill="#4acfff" stroke-width="1"></path><path d="m22.292 53.5 0 -5 3.333 0 -3.333 5z" fill="#b8ecff" stroke-width="1"></path><path d="M22.292 48.5h3.333v5h-3.333z" fill="none" stroke="#45413c" stroke-linecap="round" stroke-linejoin="round" stroke-width="1"></path><path d="M16.458 48.5h3.333v5h-3.333z" fill="#4acfff" stroke-width="1"></path><path d="m16.458 53.5 0 -5 3.334 0 -3.334 5z" fill="#b8ecff" stroke-width="1"></path><path d="M16.458 48.5h3.333v5h-3.333z" fill="none" stroke="#45413c" stroke-linecap="round" stroke-linejoin="round" stroke-width="1"></path><path d="M38.277 62.136a2.614 2.614 0 0 0 -2.614 -2.613 2.578 2.578 0 0 0 -1.192 0.3 3.458 3.458 0 0 0 -4.591 -1.731A5.2 5.2 0 0 0 20 60.216a2.61 2.61 0 1 0 -1.76 4.534h17.423a2.5 2.5 0 0 0 2.614 -2.614Z" fill="#9ceb60" stroke-width="1"></path><path d="M18.239 61.606A2.592 2.592 0 0 1 20 62.3a5.2 5.2 0 0 1 9.881 -2.123 3.459 3.459 0 0 1 4.591 1.73 2.588 2.588 0 0 1 3.6 1.3 2.886 2.886 0 0 0 0.2 -1.073 2.614 2.614 0 0 0 -2.614 -2.613 2.578 2.578 0 0 0 -1.192 0.3 3.458 3.458 0 0 0 -4.591 -1.731A5.2 5.2 0 0 0 20 60.216a2.609 2.609 0 0 0 -4.158 2.962 2.616 2.616 0 0 1 2.397 -1.572Z" fill="#c8ffa1" stroke-width="1"></path><path d="M38.277 62.136a2.614 2.614 0 0 0 -2.614 -2.613 2.578 2.578 0 0 0 -1.192 0.3 3.458 3.458 0 0 0 -4.591 -1.731A5.2 5.2 0 0 0 20 60.216a2.61 2.61 0 1 0 -1.76 4.534h17.423a2.5 2.5 0 0 0 2.614 -2.614Z" fill="none" stroke="#45413c" stroke-linecap="round" stroke-linejoin="round" stroke-width="1"></path><path d="M33.958 43.083h7.083v5h-7.083z" fill="#4acfff" stroke-width="1"></path><path d="m36.042 43.083 0 5 5 -5 -5 0z" fill="#b8ecff" stroke-width="1"></path><path d="M33.958 43.083h2.083v5h-2.083z" fill="#4acfff" stroke-width="1"></path><path d="M33.958 43.083h7.083v5h-7.083z" fill="none" stroke="#45413c" stroke-linecap="round" stroke-linejoin="round" stroke-width="1"></path><path d="M33.958 51h7.083v5h-7.083z" fill="#4acfff" stroke-width="1"></path><path d="m36.042 51 0 5 5 -5 -5 0z" fill="#b8ecff" stroke-width="1"></path><path d="M33.958 51h2.083v5h-2.083z" fill="#4acfff" stroke-width="1"></path><path d="M33.958 51h7.083v5h-7.083z" fill="none" stroke="#45413c" stroke-linecap="round" stroke-linejoin="round" stroke-width="1"></path><path d="M89 67.75H53v-41a1 1 0 0 1 1 -1h34a1 1 0 0 1 1 1Z" fill="#009fd9" stroke-width="1"></path><path d="m75.945 69.569 4.952 -27.924 -9.445 -3.286 -16.356 30.355 20.849 0.855z" fill="#fff48c" stroke-width="1"></path><path d="M80.118 28.669a7.5 7.5 0 0 0 -9.548 4.618s0.123 2.69 6.262 4.826 7.905 0.1 7.905 0.1a7.5 7.5 0 0 0 -4.619 -9.544Z" fill="#4acfff" stroke-width="1"></path><path d="M72.767 34.581a7.5 7.5 0 0 1 9.548 -4.618q0.1 0.033 0.192 0.069a7.505 7.505 0 0 0 -11.937 3.255s0.055 1.178 1.87 2.594a7.523 7.523 0 0 1 0.327 -1.3Z" fill="#e5f8ff" stroke-width="1"></path><path d="M80.118 28.669a7.5 7.5 0 0 0 -9.548 4.618s0.123 2.69 6.262 4.826 7.905 0.1 7.905 0.1a7.5 7.5 0 0 0 -4.619 -9.544Z" fill="none" stroke="#45413c" stroke-linecap="round" stroke-linejoin="round" stroke-width="1"></path><path d="M90.749 43.734a1 1 0 0 0 -0.36 -0.817l-5.652 -4.7s-1.766 2.032 -7.905 -0.1 -6.262 -4.826 -6.262 -4.826l-7.348 0.176a1 1 0 0 0 -0.931 1.3c0.691 2.207 3.193 6.815 12.24 9.963s13.87 1.09 15.781 -0.212a1 1 0 0 0 0.437 -0.784Z" fill="#ff6242" stroke-width="1"></path><path d="M84.737 38.217s-1.766 2.032 -7.905 -0.1 -6.262 -4.826 -6.262 -4.826l-1.941 0.046c0.639 2.59 3.541 5.276 7.546 6.669s7.946 1.089 10.055 -0.544Z" fill="#ff6242" stroke-width="1"></path><path d="M90.749 43.734a1 1 0 0 0 -0.36 -0.817l-5.652 -4.7s-1.766 2.032 -7.905 -0.1 -6.262 -4.826 -6.262 -4.826l-7.348 0.176a1 1 0 0 0 -0.931 1.3c0.691 2.207 3.193 6.815 12.24 9.963s13.87 1.09 15.781 -0.212a1 1 0 0 0 0.437 -0.784Z" fill="none" stroke="#45413c" stroke-linecap="round" stroke-linejoin="round" stroke-width="1"></path><path d="M75.017 41.891a0.5 0.5 0 1 0 1 0 0.5 0.5 0 1 0 -1 0Z" fill="#fff48c" stroke="#fff48c" stroke-width="1"></path><path d="M69.987 39.611a0.5 0.5 0 1 0 1 0 0.5 0.5 0 1 0 -1 0Z" fill="#fff48c" stroke="#fff48c" stroke-width="1"></path><path d="M66.394 36.243a0.5 0.5 0 1 0 1 0 0.5 0.5 0 1 0 -1 0Z" fill="#fff48c" stroke="#fff48c" stroke-width="1"></path><path d="M80.376 43.226a0.5 0.5 0 1 0 1 0 0.5 0.5 0 1 0 -1 0Z" fill="#fff48c" stroke="#fff48c" stroke-width="1"></path><path d="M85.283 42.816a0.5 0.5 0 1 0 1 0 0.5 0.5 0 1 0 -1 0Z" fill="#fff48c" stroke="#fff48c" stroke-width="1"></path><path d="M77.5 55.75H89v12H77.5z" fill="#daedf7" stroke-width="1"></path><path d="M77.5 55.75H89v1.5H77.5z" fill="#daedf7" stroke-width="1"></path><path d="M77.5 55.75H89v12H77.5z" fill="none" stroke="#45413c" stroke-linecap="round" stroke-linejoin="round" stroke-width="1"></path><path d="M89 55.75H76.8a1 1 0 0 1 -0.848 -1.53l1.25 -2a1 1 0 0 1 0.848 -0.47H89Z" fill="#adc4d9" stroke-width="1"></path><path d="m77.206 52.22 -0.644 1.03H89v-1.5H78.054a1 1 0 0 0 -0.848 0.47Z" fill="#adc4d9" stroke-width="1"></path><path d="M89 55.75H76.8a1 1 0 0 1 -0.848 -1.53l1.25 -2a1 1 0 0 1 0.848 -0.47H89Z" fill="none" stroke="#45413c" stroke-linecap="round" stroke-linejoin="round" stroke-width="1"></path><path d="M74.5 67.75v-2a1 1 0 0 1 1 -1h2v3Z" fill="#daedf7" stroke="#45413c" stroke-linecap="round" stroke-linejoin="round" stroke-width="1"></path><path d="M81 62.75h2.5v3H81z" fill="#4acfff" stroke-width="1"></path><path d="m81 65.75 0 -3 2.5 0 -2.5 3z" fill="#4acfff" stroke-width="1"></path><path d="M81 62.75h2.5v3H81z" fill="none" stroke="#45413c" stroke-linecap="round" stroke-linejoin="round" stroke-width="1"></path><path d="M83.5 62.75H86v3h-2.5z" fill="#4acfff" stroke-width="1"></path><path d="m83.5 65.75 0 -3 2.5 0 -2.5 3z" fill="#4acfff" stroke-width="1"></path><path d="M83.5 62.75H86v3h-2.5z" fill="none" stroke="#45413c" stroke-linecap="round" stroke-linejoin="round" stroke-width="1"></path><path d="M81 57.75h2.5v3H81z" fill="#4acfff" stroke-width="1"></path><path d="m81 60.75 0 -3 2.5 0 -2.5 3z" fill="#4acfff" stroke-width="1"></path><path d="M81 57.75h2.5v3H81z" fill="none" stroke="#45413c" stroke-linecap="round" stroke-linejoin="round" stroke-width="1"></path><path d="M83.5 57.75H86v3h-2.5z" fill="#4acfff" stroke-width="1"></path><path d="m83.5 60.75 0 -3 2.5 0 -2.5 3z" fill="#4acfff" stroke-width="1"></path><path d="M83.5 57.75H86v3h-2.5z" fill="none" stroke="#45413c" stroke-linecap="round" stroke-linejoin="round" stroke-width="1"></path><path d="M89 77.75a1 1 0 0 1 -1 1H54a1 1 0 0 1 -1 -1v-10h36Z" fill="#c8ffa1" stroke="#45413c" stroke-linecap="round" stroke-linejoin="round" stroke-width="1"></path><path d="M67.5 67.75H62v-17h4.5a1 1 0 0 1 1 1Z" fill="#daedf7" stroke-width="1"></path><path d="M66.5 65.9a3.363 3.363 0 0 0 -3.555 -3.34 3.952 3.952 0 0 0 -0.945 -0.728v5.918h3.977a3.41 3.41 0 0 0 0.523 -1.85Z" fill="#8ca4b8" stroke-width="1"></path><path d="M66.5 50.75H62v2.5h4.5a1 1 0 0 1 1 1v-2.5a1 1 0 0 0 -1 -1Z" fill="#daedf7" stroke-width="1"></path><path d="M62 50.75h1.5v17H62z" fill="#8ca4b8" stroke-width="1"></path><path d="M67.5 67.75H62v-17h4.5a1 1 0 0 1 1 1Z" fill="none" stroke="#45413c" stroke-linecap="round" stroke-linejoin="round" stroke-width="1"></path><path d="m74.5 67.75 -7 0 -3 11 13 0 -3 -11z" fill="#bdbec0" stroke="#45413c" stroke-linecap="round" stroke-linejoin="round" stroke-width="1"></path><path d="M62 67.75h-9v-26h8a1 1 0 0 1 1 1Z" fill="#8ca4b8" stroke-width="1"></path><path d="M62 61.832a3.952 3.952 0 0 0 -2.262 -0.491A5.183 5.183 0 0 0 53 60.277v7.473h9Z" fill="#627b8c" stroke-width="1"></path><path d="M61 41.75h-8v2h8a1 1 0 0 1 1 1v-2a1 1 0 0 0 -1 -1Z" fill="#adc4d9" stroke-width="1"></path><path d="M62 67.75h-9v-26h8a1 1 0 0 1 1 1Z" fill="none" stroke="#45413c" stroke-linecap="round" stroke-linejoin="round" stroke-width="1"></path><path d="M63.154 64.058a1.824 1.824 0 0 0 -0.842 0.212 2.444 2.444 0 0 0 -3.243 -1.223 3.677 3.677 0 0 0 -6.98 1.5 1.879 1.879 0 0 0 -0.589 -0.367v3.57h11.654A1.765 1.765 0 0 0 65 65.9a1.846 1.846 0 0 0 -1.846 -1.842Z" fill="#6dd627" stroke="#45413c" stroke-linecap="round" stroke-linejoin="round" stroke-width="1"></path><path d="M92 19.75a4 4 0 0 0 -4 -4H54a4 4 0 0 0 -4 4v68a4 4 0 0 0 4 4h34a4 4 0 0 0 4 -4Zm-3 58a1 1 0 0 1 -1 1H54a1 1 0 0 1 -1 -1v-51a1 1 0 0 1 1 -1h34a1 1 0 0 1 1 1Z" fill="#ffffff" stroke-width="1"></path><path d="M88 91.75H54a4 4 0 0 1 -4 -4v-3a4 4 0 0 0 4 4h34a4 4 0 0 0 4 -4v3a4 4 0 0 1 -4 4Z" fill="#daedf7" stroke-width="1"></path><path d="M92 19.75a4 4 0 0 0 -4 -4H54a4 4 0 0 0 -4 4v68a4 4 0 0 0 4 4h34a4 4 0 0 0 4 -4Zm-3 58a1 1 0 0 1 -1 1H54a1 1 0 0 1 -1 -1v-51a1 1 0 0 1 1 -1h34a1 1 0 0 1 1 1Z" fill="none" stroke="#45413c" stroke-linecap="round" stroke-linejoin="round" stroke-width="1"></path><path d="M63.5 20.75a1 1 0 1 0 2 0 1 1 0 1 0 -2 0Z" fill="#45413c" stroke-width="1"></path><path d="m68 20.75 9 0" fill="#ffffff" stroke="#45413c" stroke-linecap="round" stroke-linejoin="round" stroke-width="1"></path><path d="M67.75 85.25a3.25 3.25 0 1 0 6.5 0 3.25 3.25 0 1 0 -6.5 0Z" fill="#ffffff" stroke="#45413c" stroke-linecap="round" stroke-linejoin="round" stroke-width="1"></path><path d="M57.5 45.25H60v3h-2.5z" fill="#4acfff" stroke-width="1"></path><path d="m57.5 48.25 0 -3 2.5 0 -2.5 3z" fill="#4acfff" stroke-width="1"></path><path d="M57.5 45.25H60v3h-2.5z" fill="none" stroke="#45413c" stroke-linecap="round" stroke-linejoin="round" stroke-width="1"></path><path d="M53 45.25h2.5v3H53z" fill="#4acfff" stroke-width="1"></path><path d="m53 48.25 0 -3 2.5 0 -2.5 3z" fill="#4acfff" stroke-width="1"></path><path d="M53 45.25h2.5v3H53z" fill="none" stroke="#45413c" stroke-linecap="round" stroke-linejoin="round" stroke-width="1"></path><path d="M57.5 50.25H60v3h-2.5z" fill="#4acfff" stroke-width="1"></path><path d="m57.5 53.25 0 -3 2.5 0 -2.5 3z" fill="#4acfff" stroke-width="1"></path><path d="M57.5 50.25H60v3h-2.5z" fill="none" stroke="#45413c" stroke-linecap="round" stroke-linejoin="round" stroke-width="1"></path><path d="M53 50.25h2.5v3H53z" fill="#4acfff" stroke-width="1"></path><path d="m53 53.25 0 -3 2.5 0 -2.5 3z" fill="#4acfff" stroke-width="1"></path><path d="M53 50.25h2.5v3H53z" fill="none" stroke="#45413c" stroke-linecap="round" stroke-linejoin="round" stroke-width="1"></path><path d="M57.5 55.25H60v3h-2.5z" fill="#4acfff" stroke-width="1"></path><path d="m57.5 58.25 0 -3 2.5 0 -2.5 3z" fill="#4acfff" stroke-width="1"></path><path d="M57.5 55.25H60v3h-2.5z" fill="none" stroke="#45413c" stroke-linecap="round" stroke-linejoin="round" stroke-width="1"></path><path d="M53 55.25h2.5v3H53z" fill="#4acfff" stroke-width="1"></path><path d="m53 58.25 0 -3 2.5 0 -2.5 3z" fill="#4acfff" stroke-width="1"></path><path d="M53 55.25h2.5v3H53z" fill="none" stroke="#45413c" stroke-linecap="round" stroke-linejoin="round" stroke-width="1"></path><path d="M62 53.25h3.5v3H62z" fill="#4acfff" stroke-width="1"></path><path d="M62 53.25h1.5v3H62z" fill="#00b8f0" stroke-width="1"></path><path d="M62 53.25h3.5v3H62z" fill="none" stroke="#45413c" stroke-linecap="round" stroke-linejoin="round" stroke-width="1"></path><path d="M62 58.25h3.5v3H62z" fill="#4acfff" stroke-width="1"></path><path d="M62 58.25h1.5v3H62z" fill="#00b8f0" stroke-width="1"></path><path d="M62 58.25h3.5v3H62z" fill="none" stroke="#45413c" stroke-linecap="round" stroke-linejoin="round" stroke-width="1"></path><path d="m60.5 69.75 1.5 0" fill="none" stroke="#6dd627" stroke-linecap="round" stroke-linejoin="round" stroke-width="1"></path><path d="m62.5 73.25 1.5 0" fill="none" stroke="#6dd627" stroke-linecap="round" stroke-linejoin="round" stroke-width="1"></path><path d="m55 71.75 1.5 0" fill="none" stroke="#6dd627" stroke-linecap="round" stroke-linejoin="round" stroke-width="1"></path><path d="m58 75.75 1.5 0" fill="none" stroke="#6dd627" stroke-linecap="round" stroke-linejoin="round" stroke-width="1"></path><path d="m81.5 69.75 -1.5 0" fill="none" stroke="#6dd627" stroke-linecap="round" stroke-linejoin="round" stroke-width="1"></path><path d="m79.5 73.25 -1.5 0" fill="none" stroke="#6dd627" stroke-linecap="round" stroke-linejoin="round" stroke-width="1"></path><path d="m87 71.75 -1.5 0" fill="none" stroke="#6dd627" stroke-linecap="round" stroke-linejoin="round" stroke-width="1"></path><path d="m84 75.75 -1.5 0" fill="none" stroke="#6dd627" stroke-linecap="round" stroke-linejoin="round" stroke-width="1"></path></svg>