<svg xmlns="http://www.w3.org/2000/svg" width="103" height="103" viewBox="0 0 103 103" fill="none">
	<path d="M80.4688 93.3438H25.75C23.0833 93.3438 20.9219 91.1824 20.9219 88.5156V14.4844C20.9219 11.8176 23.0833 9.65625 25.75 9.65625H80.4688C83.1355 9.65625 85.2969 11.8176 85.2969 14.4844V88.5156C85.2969 91.1824 83.1355 93.3438 80.4688 93.3438Z" fill="#C9BC00" />
	<g filter="url(#filter0_i_182_23193)">
		<path d="M22 88.5C22 86.567 23.567 85 25.5 85H84V89C84 90.6569 82.6569 92 81 92H25.5C23.567 92 22 90.433 22 88.5Z" fill="white" />
	</g>
	<path d="M80.4688 83.6875H20.9219V14.4844C20.9219 11.8176 23.0833 9.65625 25.75 9.65625H80.4688C83.1355 9.65625 85.2969 11.8176 85.2969 14.4844V78.8594C85.2969 81.5261 83.1355 83.6875 80.4688 83.6875Z" fill="#EDDE0C" />
	<path d="M80.4688 83.6875H20.9219V14.4844C20.9219 11.8176 23.0833 9.65625 25.75 9.65625H80.4688C83.1355 9.65625 85.2969 11.8176 85.2969 14.4844V78.8594C85.2969 81.5261 83.1355 83.6875 80.4688 83.6875Z" fill="#EDDE0C" />
	<path d="M30.5781 83.6875H25.75C23.0833 83.6875 20.9219 85.8489 20.9219 88.5156V14.4844C20.9219 11.8176 23.0833 9.65625 25.75 9.65625H30.5781V83.6875Z" fill="#EDDE0C" />
	<rect opacity="0.2" x="24" y="13" width="58" height="68" rx="3" fill="white" />
	<defs>
		<filter id="filter0_i_182_23193" x="22" y="85" width="64" height="9" filterUnits="userSpaceOnUse" color-interpolation-filters="sRGB">
			<feFlood flood-opacity="0" result="BackgroundImageFix" />
			<feBlend mode="normal" in="SourceGraphic" in2="BackgroundImageFix" result="shape" />
			<feColorMatrix in="SourceAlpha" type="matrix" values="0 0 0 0 0 0 0 0 0 0 0 0 0 0 0 0 0 0 127 0" result="hardAlpha" />
			<feOffset dx="2" dy="2" />
			<feGaussianBlur stdDeviation="1" />
			<feComposite in2="hardAlpha" operator="arithmetic" k2="-1" k3="1" />
			<feColorMatrix type="matrix" values="0 0 0 0 0 0 0 0 0 0 0 0 0 0 0 0 0 0 0.24 0" />
			<feBlend mode="normal" in2="shape" result="effect1_innerShadow_182_23193" />
		</filter>
	</defs>
</svg>
