<svg width="343" height="192" viewBox="0 0 343 192" fill="none" xmlns="http://www.w3.org/2000/svg">
	<g opacity="0.32">
		<path d="M18.1417 24.2339C18.494 24.2339 19.1125 23.7441 18.4915 23.7441C18.1392 23.7441 17.5208 24.2339 18.1417 24.2339Z" fill="#98A2B3" />
		<path d="M20.6682 106.609C21.061 106.609 21.6237 106.063 21.0053 106.063C20.6124 106.063 20.0498 106.609 20.6682 106.609Z" fill="#98A2B3" />
		<path d="M46.3026 59.1879C47.9627 58.3825 48.9512 56.9157 48.9943 55.1958C49.0044 54.8454 48.0844 55.0218 48.0793 55.3003C48.0413 56.8507 47.2505 58.1968 45.7348 58.9349C45.1899 59.1995 46.001 59.3318 46.3026 59.1879Z" fill="#98A2B3" />
		<path d="M35.9061 70.8061C36.4282 70.8061 36.6082 70.1934 35.9872 70.1934C35.4651 70.1934 35.2852 70.8061 35.9061 70.8061Z" fill="#98A2B3" />
		<path d="M19.72 77.595C24.5584 78.3377 29.3107 79.2614 33.9818 80.6447C34.2809 80.7329 35.059 80.3337 34.5394 80.1782C29.8657 78.7949 25.116 77.8689 20.2776 77.1285C19.9785 77.0821 19.1953 77.5138 19.72 77.595Z" fill="#98A2B3" />
		<path d="M67.6792 79.9339C68.5663 79.9339 69.9045 79.913 69.9856 78.8477C70.016 78.4392 69.0884 78.5761 69.063 78.9242C69.0225 79.4511 68.4623 79.3652 68.0112 79.3676C67.7907 79.3676 67.5246 79.4209 67.4105 79.6159C67.3117 79.7876 67.4967 79.9362 67.6792 79.9362V79.9339Z" fill="#98A2B3" />
		<path d="M72.5072 55.2233C72.5046 51.8115 72.4235 48.3742 70.8217 45.2246C70.624 44.8394 69.7167 45.0784 69.9068 45.4498C71.4807 48.5482 71.5745 51.9183 71.577 55.279C71.577 55.7386 72.5097 55.6271 72.5097 55.2256L72.5072 55.2233Z" fill="#98A2B3" />
		<path d="M47.3215 22.4214C47.3544 21.175 47.9855 20.3627 48.9157 19.5155C49.3136 19.1512 48.4189 19.0769 48.1604 19.3113C47.1542 20.2281 46.4344 21.1565 46.3989 22.5026C46.3887 22.9088 47.3139 22.7602 47.3215 22.4214Z" fill="#98A2B3" />
		<path d="M76.0704 13.5976H79.4312C79.6492 13.5976 79.9179 13.5442 80.0319 13.3492C80.1333 13.1775 79.9457 13.0312 79.7633 13.0312H76.4025C76.1845 13.0312 75.9158 13.0846 75.8018 13.2796C75.7004 13.4513 75.888 13.5976 76.0704 13.5976Z" fill="#98A2B3" />
		<path d="M112.178 34.2159C112.532 34.2368 112.707 34.4318 112.951 34.643C113.199 34.8635 113.521 34.961 113.856 34.9819C114.319 35.0097 114.786 34.3854 114.167 34.3459C113.812 34.325 113.638 34.1301 113.397 33.9189C113.148 33.6984 112.826 33.6009 112.487 33.58C112.023 33.5522 111.557 34.1765 112.175 34.2159H112.178Z" fill="#98A2B3" />
		<path d="M159.713 29.4024C160.432 28.7479 161.411 27.9797 161.484 26.9863C161.51 26.6196 160.587 26.7798 160.564 27.0815C160.501 27.982 159.626 28.6481 158.97 29.24C158.58 29.5928 159.482 29.6113 159.71 29.4024H159.713Z" fill="#98A2B3" />
		<path d="M85.9376 65.8877V60.5495C85.9376 60.1294 85.015 60.2733 85.015 60.6238V65.9619C85.015 66.382 85.9376 66.2381 85.9376 65.8877Z" fill="#98A2B3" />
		<path d="M115.505 25.7079C115.784 25.7079 116.501 25.3203 115.885 25.3203C115.606 25.3203 114.889 25.7079 115.505 25.7079Z" fill="#98A2B3" />
		<path d="M141.547 46.383C141.95 46.383 142.498 45.8213 141.879 45.8213C141.476 45.8213 140.929 46.383 141.547 46.383Z" fill="#98A2B3" />
		<path d="M149.729 16.249C149.729 15.562 150.008 15.3044 150.53 14.8309C150.687 14.687 150.393 14.6266 150.294 14.629C150.074 14.6336 149.843 14.7032 149.686 14.8448C149.088 15.3879 148.814 15.7013 148.811 16.4741C148.811 16.6853 149.726 16.5414 149.729 16.249Z" fill="#98A2B3" />
		<path d="M190.783 14.1874C191.744 21.0459 194.253 27.4911 196.664 34.0107C196.745 34.2335 197.655 33.9852 197.578 33.7856C195.171 27.266 192.661 20.8207 191.701 13.9623C191.673 13.7674 190.75 13.9437 190.783 14.1874Z" fill="#98A2B3" />
		<path d="M201.976 57.7645C202.303 57.7645 202.957 57.3096 202.338 57.3096C202.012 57.3096 201.358 57.7645 201.976 57.7645Z" fill="#98A2B3" />
		<path d="M159.814 58.4913C163.274 60.1113 166.427 62.2118 169.884 63.8295C170.132 63.9455 170.979 63.6113 170.621 63.4442C167.162 61.8265 164.009 59.726 160.552 58.106C160.306 57.99 159.459 58.3242 159.814 58.4913Z" fill="#98A2B3" />
		<path d="M219.608 76.0673C219.94 76.0673 220.587 75.6055 219.968 75.6055C219.634 75.6055 218.99 76.0673 219.608 76.0673Z" fill="#98A2B3" />
		<path d="M236.192 37.5984C236.192 36.0062 236.104 34.4883 235.356 33.0238C235.211 32.7383 234.314 33.0052 234.441 33.2489C235.191 34.7111 235.277 36.2313 235.277 37.8235C235.28 38.0765 236.195 37.9187 236.195 37.5984H236.192Z" fill="#98A2B3" />
		<path d="M218.527 19.2269C217.508 18.3426 216.185 17.8204 215.166 16.9431C214.867 16.6855 214.003 17.0313 214.327 17.3098C215.351 18.1895 216.671 18.7117 217.688 19.596C217.984 19.8536 218.849 19.5078 218.527 19.2269Z" fill="#98A2B3" />
		<path d="M203.458 46.8337C204.312 41.6371 205.993 36.5357 211.594 34.152C212.162 33.9107 211.655 33.4488 211.184 33.6484C205.326 36.1434 203.433 41.4073 202.531 46.8964C202.46 47.3281 203.395 47.219 203.458 46.8337Z" fill="#98A2B3" />
		<path d="M239.769 15.1214H240.605C240.825 15.1214 241.092 15.068 241.206 14.873C241.304 14.7013 241.119 14.5527 240.934 14.5527H240.095C239.878 14.5527 239.611 14.6061 239.497 14.8011C239.398 14.9728 239.584 15.1214 239.769 15.1214Z" fill="#98A2B3" />
		<path d="M258.782 37.823C258.83 38.4728 259.57 38.7119 259.618 39.3502C259.639 39.6194 260.559 39.4453 260.536 39.125C260.488 38.4752 259.748 38.2361 259.7 37.5978C259.679 37.3286 258.759 37.505 258.782 37.823Z" fill="#98A2B3" />
		<path d="M249.709 62.2789C249.899 62.2789 250.753 61.9424 250.307 61.9424C250.119 61.9424 249.265 62.2789 249.709 62.2789Z" fill="#98A2B3" />
		<path d="M257.971 92.764C258.252 93.0194 258.533 93.2747 258.812 93.5276C259.007 93.704 259.859 93.3953 259.672 93.2236C259.39 92.9683 259.109 92.7153 258.83 92.46C258.635 92.2859 257.783 92.5923 257.971 92.764Z" fill="#98A2B3" />
		<path d="M137.133 105.511C138.727 101.758 139.736 97.8267 141.33 94.0714C141.424 93.8509 140.524 93.9507 140.42 94.1967C138.823 97.9497 137.817 101.881 136.223 105.637C136.129 105.857 137.029 105.757 137.133 105.511Z" fill="#98A2B3" />
		<path d="M298.227 67.5453C299.786 66.1272 301.438 64.6975 302.482 62.9034C302.708 62.5158 301.78 62.5715 301.618 62.8501C300.604 64.5954 298.995 65.981 297.477 67.3597C297.081 67.7194 297.979 67.7728 298.227 67.5477V67.5453Z" fill="#98A2B3" />
		<path d="M307.507 43.6319C305.948 42.2162 304.374 40.7099 302.407 39.7652C302.073 39.6051 301.259 40.0229 301.697 40.2341C303.616 41.1555 305.144 42.6084 306.668 43.994C306.947 44.2493 307.816 43.9128 307.507 43.6343V43.6319Z" fill="#98A2B3" />
		<path d="M281.851 25.7814C282.926 25.7188 283.97 24.9691 284.044 23.9456C284.072 23.551 283.144 23.6995 283.121 24.0291C283.081 24.621 282.642 25.2012 281.955 25.243C281.469 25.2708 281.223 25.8209 281.851 25.7838V25.7814Z" fill="#98A2B3" />
		<path d="M329.711 22.7643C330.23 22.7643 330.415 22.1562 329.794 22.1562C329.272 22.1562 329.09 22.7643 329.711 22.7643Z" fill="#98A2B3" />
		<path d="M270.322 6.1783C269.785 6.14581 269.278 5.84872 268.895 5.50987C268.631 5.27545 267.762 5.60502 268.051 5.85801C268.578 6.32452 269.245 6.6773 269.987 6.71908C270.385 6.74229 270.945 6.21311 270.324 6.17598L270.322 6.1783Z" fill="#98A2B3" />
		<path d="M122.759 5.45266C120.376 4.05777 117.789 3.18045 115.117 2.37044C114.755 2.26135 114.038 2.74179 114.58 2.90658C117.19 3.6957 119.72 4.55445 122.047 5.91685C122.363 6.10021 123.18 5.701 122.759 5.45266Z" fill="#98A2B3" />
		<path d="M55.9011 6.64786C56.1875 6.64786 56.8946 6.25098 56.2813 6.25098C55.9949 6.25098 55.2877 6.64786 55.9011 6.64786Z" fill="#98A2B3" />
		<path d="M4.69564 119.5C8.94098 119.593 12.0432 122.034 13.6603 125.511C13.7743 125.755 14.669 125.488 14.5752 125.286C12.8518 121.579 9.53406 119.198 5.07582 119.101C4.78434 119.094 4.08228 119.486 4.69564 119.5Z" fill="#98A2B3" />
		<path d="M23.175 134.781C23.507 134.781 24.1533 134.321 23.5349 134.321C23.2054 134.321 22.5566 134.781 23.175 134.781Z" fill="#98A2B3" />
		<path d="M5.68947 167.658C6.22425 167.658 6.38393 167.02 5.76297 167.02C5.22818 167.02 5.06851 167.658 5.68947 167.658Z" fill="#98A2B3" />
		<path d="M44.751 178.153C45.7014 178.91 47.2348 178.276 47.3159 177.141C47.3235 177.039 46.4162 177.13 46.4009 177.366C46.3857 177.58 46.3401 177.721 46.2438 177.909C46.074 178.241 45.818 178.035 45.6152 177.872C45.4353 177.731 44.6293 178.056 44.751 178.153Z" fill="#98A2B3" />
		<path d="M50.0286 137.027C50.3049 137.027 51.0247 136.645 50.4113 136.645C50.135 136.645 49.4152 137.027 50.0286 137.027Z" fill="#98A2B3" />
		<path d="M32.0454 154.971C29.9493 155.013 27.3438 155.721 26.2565 157.498C26.1932 157.601 27.0321 157.556 27.1588 157.348C27.9952 155.983 29.8023 155.338 31.4447 155.305C31.6297 155.3 32.4864 154.962 32.0429 154.971H32.0454Z" fill="#98A2B3" />
		<path d="M10.3073 174.314V184.985C10.3073 185.201 11.2222 185.055 11.2222 184.76V174.088C11.2222 173.873 10.3073 174.019 10.3073 174.314Z" fill="#98A2B3" />
		<path d="M180.366 191.69C180.394 189.866 180.729 188.077 181.593 186.422C181.793 186.036 180.873 186.12 180.734 186.385C179.847 188.086 179.477 189.906 179.449 191.785C179.444 192.159 180.361 191.99 180.366 191.69Z" fill="#98A2B3" />
		<path d="M156.405 188.529C154.307 187.002 152.208 185.477 150.107 183.952C149.856 183.771 149.012 184.101 149.255 184.279C151.356 185.804 153.455 187.327 155.554 188.854C155.805 189.037 156.649 188.705 156.405 188.529Z" fill="#98A2B3" />
		<path d="M182.044 171.096C182.095 169.576 182.792 168.223 183.692 166.967C183.925 166.642 183.003 166.721 182.838 166.948C181.918 168.234 181.183 169.638 181.13 171.2C181.119 171.549 182.037 171.375 182.044 171.096Z" fill="#98A2B3" />
		<path d="M194.418 174.046C194.742 174.046 195.401 173.596 194.783 173.596C194.458 173.596 193.799 174.046 194.418 174.046Z" fill="#98A2B3" />
		<path d="M159.291 164.491C156.214 163.245 153.447 161.476 150.537 159.944C150.289 159.814 149.503 160.155 149.678 160.248C152.628 161.799 155.434 163.588 158.551 164.848C158.777 164.939 159.618 164.621 159.291 164.489V164.491Z" fill="#98A2B3" />
		<path d="M122.79 165.879C122.407 166.908 121.974 167.875 121.946 168.975C121.941 169.166 122.856 169.034 122.861 168.75C122.889 167.69 123.327 166.743 123.697 165.752C123.781 165.529 122.879 165.636 122.787 165.879H122.79Z" fill="#98A2B3" />
		<path d="M148.86 146.778C149.311 145.91 149.309 144.988 149.309 144.046C149.309 143.649 148.389 143.809 148.389 144.132C148.389 145.009 148.417 145.912 147.996 146.722C147.788 147.124 148.711 147.066 148.86 146.778Z" fill="#98A2B3" />
		<path d="M167.721 144.606C168.494 145.305 169.27 146.043 170.241 146.514C170.471 146.628 171.204 146.282 171.105 146.233C170.134 145.76 169.361 145.024 168.586 144.325C168.421 144.177 167.59 144.49 167.721 144.606Z" fill="#98A2B3" />
		<path d="M182.044 130.628C182.044 129.941 182.049 129.227 182.779 128.851C182.936 128.767 182.888 128.665 182.721 128.656C182.495 128.644 182.267 128.714 182.072 128.816C181.208 129.264 181.129 130.018 181.127 130.853C181.127 131.002 182.042 130.879 182.042 130.628H182.044Z" fill="#98A2B3" />
		<path d="M193.039 140.052C193.219 140.052 194.078 139.725 193.637 139.725C193.457 139.725 192.598 140.052 193.039 140.052Z" fill="#98A2B3" />
		<path d="M147.633 125.373C148.036 122.586 148.066 119.771 148.474 116.983C148.54 116.54 147.602 116.642 147.546 117.041C147.138 119.826 147.108 122.642 146.705 125.429C146.642 125.872 147.577 125.77 147.633 125.373Z" fill="#98A2B3" />
		<path d="M157.652 105.337C158.802 106.358 160.093 107.196 161.426 108.001C161.636 108.129 162.396 107.786 162.29 107.723C160.954 106.915 159.667 106.08 158.516 105.058C158.354 104.912 157.528 105.228 157.652 105.337Z" fill="#98A2B3" />
		<path d="M304.142 87.0667C305.346 88.1413 306.715 89.0441 307.921 90.1187C308.18 90.3508 309.049 90.0236 308.765 89.7729C307.562 88.6983 306.193 87.7955 304.986 86.7209C304.728 86.4911 303.859 86.816 304.142 87.0667Z" fill="#98A2B3" />
		<path d="M331.468 82.5897C330.971 79.5933 329.301 76.9915 328.104 74.2041C327.942 73.8211 327.03 74.0579 327.189 74.4292C328.383 77.2167 330.053 79.8161 330.548 82.8148C330.616 83.2094 331.534 82.9982 331.465 82.5897H331.468Z" fill="#98A2B3" />
		<path d="M329.371 55.5855V53.6777C329.371 53.2994 328.454 53.4688 328.454 53.7705V55.6784C328.454 56.0567 329.371 55.8872 329.371 55.5855Z" fill="#98A2B3" />
		<path d="M265.572 61.3067C265.572 60.5106 265.443 60.007 264.632 59.6147C264.348 59.4778 263.512 59.8468 263.91 60.0395C264.571 60.3621 264.652 60.7566 264.655 61.4042C264.655 61.7779 265.572 61.6084 265.572 61.309V61.3067Z" fill="#98A2B3" />
		<path d="M278.136 88.4525C278.584 87.6425 279.061 86.8882 279.758 86.2336C280.151 85.8646 279.261 85.7927 279.003 86.0294C278.263 86.7257 277.746 87.5264 277.269 88.3875C277.046 88.789 277.971 88.7449 278.136 88.4525Z" fill="#98A2B3" />
		<path d="M242.903 86.5742H239.548C239.013 86.5742 238.853 87.2171 239.474 87.2171H242.83C243.365 87.2171 243.524 86.5742 242.903 86.5742Z" fill="#98A2B3" />
		<path d="M88.3989 97.3432C91.5468 99.6502 92.1095 103.171 93.4072 106.448C93.5086 106.706 94.4159 106.458 94.3221 106.223C93.0093 102.907 92.4314 99.3601 89.2531 97.0299C89.0224 96.8604 88.1886 97.1877 88.3989 97.3409V97.3432Z" fill="#98A2B3" />
		<path d="M106.928 119.992C106.665 120.203 106.513 120.201 106.214 120.203C106.003 120.203 105.732 120.263 105.608 120.433C105.486 120.597 105.709 120.688 105.856 120.686C106.551 120.683 107.134 120.56 107.664 120.133C108.066 119.813 107.154 119.806 106.926 119.989L106.928 119.992Z" fill="#98A2B3" />
		<path d="M84.8607 129.029C85.1421 129.029 85.8568 128.639 85.2409 128.639C84.9596 128.639 84.2448 129.029 84.8607 129.029Z" fill="#98A2B3" />
		<path d="M95.2491 146.942C95.5228 146.975 95.7738 147.483 95.9537 147.664C96.1286 147.843 96.9929 147.546 96.8129 147.363C96.4758 147.021 96.3694 146.625 95.8321 146.557C95.6014 146.529 94.765 146.882 95.2491 146.942Z" fill="#98A2B3" />
		<path d="M102.909 153.054H103.325C103.614 153.054 104.318 152.654 103.705 152.654H103.289C103 152.654 102.296 153.054 102.909 153.054Z" fill="#98A2B3" />
		<path d="M10.7887 53.4593C11.3691 51.635 12.0154 49.8293 12.6744 48.0259C12.7276 47.8774 11.8456 47.9702 11.7695 48.1768C11.1131 49.9802 10.4668 51.7836 9.88385 53.6102C9.8357 53.768 10.7202 53.6635 10.7887 53.4593Z" fill="#98A2B3" />
		<path d="M29.0502 45.174C29.7016 43.0828 30.2846 40.9731 30.941 38.8819C31.0094 38.6614 30.1071 38.7821 30.0336 39.0142C29.3772 41.1054 28.7943 43.2128 28.1403 45.3063C28.0719 45.5268 28.9767 45.4061 29.0502 45.174Z" fill="#98A2B3" />
		<path d="M80.3923 30.7716C81.0664 32.7793 82.2906 34.4945 83.895 35.9868C84.1713 36.2421 85.0381 35.9079 84.7364 35.6271C83.1701 34.1718 81.9662 32.5124 81.3098 30.5465C81.1881 30.1821 80.2731 30.4119 80.3923 30.7716Z" fill="#98A2B3" />
		<path d="M112.996 55.9982C110.436 57.349 107.38 57.4999 104.812 58.8576C104.277 59.1408 105.094 59.2267 105.372 59.0804C107.932 57.7273 110.986 57.5765 113.556 56.221C114.091 55.9379 113.275 55.852 112.996 56.0005V55.9982Z" fill="#98A2B3" />
		<path d="M16.8029 93.9644C16.8384 95.4753 17.5937 96.6729 18.7291 97.7336C18.9547 97.9448 19.8241 97.6338 19.5782 97.404C18.4706 96.3689 17.7534 95.2107 17.7204 93.7392C17.7128 93.47 16.7953 93.6348 16.8029 93.9644Z" fill="#98A2B3" />
		<path d="M98.9396 174.381C99.33 174.381 99.8952 173.838 99.2767 173.838C98.8864 173.838 98.3212 174.381 98.9396 174.381Z" fill="#98A2B3" />
		<path d="M114.679 152.926C115.054 152.926 115.64 152.401 115.019 152.401C114.644 152.401 114.058 152.926 114.679 152.926Z" fill="#98A2B3" />
		<path d="M135.767 179.785C136.116 179.785 136.74 179.302 136.124 179.302C135.774 179.302 135.151 179.785 135.767 179.785Z" fill="#98A2B3" />
		<path d="M126.936 140.562C127.215 140.562 127.932 140.172 127.316 140.172C127.037 140.172 126.32 140.562 126.936 140.562Z" fill="#98A2B3" />
		<path d="M181.078 112.527C181.344 112.527 182.077 112.16 181.466 112.16C181.2 112.16 180.467 112.527 181.078 112.527Z" fill="#98A2B3" />
		<path d="M328.427 101.458C328.409 99.9034 328.143 98.4203 327.136 97.1321C326.994 96.9488 326.11 97.218 326.277 97.4339C327.261 98.6872 327.494 100.175 327.512 101.684C327.514 101.869 328.432 101.73 328.429 101.458H328.427Z" fill="#98A2B3" />
		<path d="M312.983 74.9025C313.285 74.9025 313.972 74.4824 313.356 74.4824C313.054 74.4824 312.367 74.9025 312.983 74.9025Z" fill="#98A2B3" />
		<path d="M287.496 51.7713C287.835 51.7713 288.474 51.2979 287.853 51.2979C287.514 51.2979 286.877 51.7713 287.496 51.7713Z" fill="#98A2B3" />
		<path d="M266.122 69.6614V74.2383C266.122 74.4612 267.037 74.3126 267.037 74.0132V69.4363C267.037 69.2135 266.122 69.362 266.122 69.6614Z" fill="#98A2B3" />
		<path d="M199.862 79.1129C197.036 81.1484 194.608 83.5784 191.917 85.7508C191.501 86.0873 192.406 86.1593 192.667 85.9458C195.308 83.8174 197.68 81.4269 200.448 79.4308C200.937 79.0781 200.182 78.8808 199.86 79.1106L199.862 79.1129Z" fill="#98A2B3" />
		<path d="M227.063 60.6729C227.461 60.6729 228.016 60.1182 227.397 60.1182C227 60.1182 226.444 60.6729 227.063 60.6729Z" fill="#98A2B3" />
		<path d="M241.837 77.7389C242.105 77.7389 242.835 77.3652 242.222 77.3652C241.953 77.3652 241.223 77.7389 241.837 77.7389Z" fill="#98A2B3" />
		<path d="M182.807 41.5524C183.337 41.5524 183.507 40.9258 182.886 40.9258C182.356 40.9258 182.186 41.5524 182.807 41.5524Z" fill="#98A2B3" />
		<path d="M170.375 10.2565C170.642 10.2565 171.374 9.88281 170.761 9.88281C170.492 9.88281 169.762 10.2565 170.375 10.2565Z" fill="#98A2B3" />
		<path d="M210.046 6.00214C210.36 6.00214 211.029 5.56348 210.411 5.56348C210.096 5.56348 209.427 6.00214 210.046 6.00214Z" fill="#98A2B3" />
		<path d="M250.383 24.1944C250.383 26.2043 250.408 28.205 250.7 30.201C250.733 30.4238 251.655 30.2404 251.617 29.9759C251.326 27.9822 251.303 25.9792 251.3 23.9692C251.3 23.7743 250.383 23.9112 250.383 24.1944Z" fill="#98A2B3" />
		<path d="M268.956 15.0451C270 16.2937 271.227 17.3962 272.441 18.5033C272.596 18.6472 273.419 18.3315 273.305 18.2271C272.112 17.1363 270.9 16.05 269.871 14.8199C269.711 14.6296 268.908 14.987 268.954 15.0451H268.956Z" fill="#98A2B3" />
		<path d="M296.027 11.3269C296.97 13.2835 298.118 15.1449 299.178 17.0481C299.327 17.315 300.212 17.0365 300.093 16.823C299.033 14.9198 297.888 13.0584 296.945 11.1018C296.816 10.8326 295.918 11.0972 296.027 11.3269Z" fill="#98A2B3" />
		<path d="M313.348 22.4376C312.033 24.4986 310.497 26.4088 308.659 28.1077C308.441 28.3096 309.328 28.2191 309.493 28.0659C311.361 26.3415 312.92 24.3942 314.253 22.3007C314.344 22.1591 313.488 22.2171 313.348 22.4376Z" fill="#98A2B3" />
		<path d="M129.46 54.6052C129.769 54.6052 130.449 54.1758 129.83 54.1758C129.521 54.1758 128.842 54.6052 129.46 54.6052Z" fill="#98A2B3" />
		<path d="M106.178 72.6583C106.543 72.6583 107.144 72.1523 106.523 72.1523C106.158 72.1523 105.557 72.6583 106.178 72.6583Z" fill="#98A2B3" />
		<path d="M159.695 76.1051C160.08 76.1051 160.655 75.5713 160.034 75.5713C159.649 75.5713 159.074 76.1051 159.695 76.1051Z" fill="#98A2B3" />
		<path d="M171.24 47.3015C168.908 45.9716 166.67 44.5349 164.693 42.778C164.422 42.5366 163.555 42.8685 163.849 43.1308C165.864 44.9225 168.145 46.3963 170.525 47.7541C170.832 47.9282 171.656 47.5382 171.24 47.3015Z" fill="#98A2B3" />
		<path d="M130.099 26.8795C130.416 25.4498 130.728 24.0201 131.042 22.5904C131.1 22.3258 130.188 22.4673 130.132 22.7157C129.821 24.1454 129.506 25.5751 129.189 27.0048C129.129 27.2694 130.044 27.1278 130.099 26.8795Z" fill="#98A2B3" />
		<path d="M98.623 16.6023C98.5799 14.5506 97.9209 12.6915 97.049 10.8185C96.8995 10.4959 95.9972 10.7489 96.1341 11.0436C96.9831 12.8656 97.6649 14.6945 97.7055 16.6928C97.7131 17.0781 98.6306 16.9087 98.623 16.6023Z" fill="#98A2B3" />
		<path d="M247.104 187.815C247.481 184.976 246.5 182.43 244.138 180.543C243.963 180.404 243.16 180.729 243.274 180.822C245.626 182.704 246.561 185.229 246.186 188.04C246.176 188.119 247.071 188.054 247.104 187.815Z" fill="#98A2B3" />
		<path d="M229.055 168.753C229.075 162.999 229.225 157.375 225.697 152.357C225.56 152.165 224.723 152.501 224.779 152.583C228.307 157.598 228.16 163.224 228.137 168.978C228.137 169.087 229.052 168.978 229.052 168.753H229.055Z" fill="#98A2B3" />
		<path d="M247.445 139.239C248.801 141.676 250.289 144.046 251.64 146.483C251.787 146.747 252.671 146.466 252.557 146.258C251.204 143.821 249.716 141.449 248.36 139.014C248.215 138.749 247.331 139.03 247.445 139.239Z" fill="#98A2B3" />
		<path d="M257.256 125.181C258.108 125.16 258.959 124.961 259.621 124.448C260.313 123.912 260.518 123.034 260.533 122.243C260.533 122.136 259.621 122.243 259.618 122.468C259.601 123.459 259.172 124.831 257.857 124.861C257.636 124.866 257.401 124.919 257.208 125.021C257.066 125.098 257.081 125.186 257.256 125.181Z" fill="#98A2B3" />
		<path d="M254.245 106.425H249.207C248.692 106.425 248.497 107.017 249.118 107.017H254.157C254.671 107.017 254.866 106.425 254.245 106.425Z" fill="#98A2B3" />
		<path d="M219.786 128.092C216.871 131.564 214.532 135.403 210.971 138.385C210.753 138.569 211.633 138.487 211.805 138.343C215.371 135.359 217.703 131.525 220.62 128.048C220.823 127.809 219.928 127.922 219.786 128.092Z" fill="#98A2B3" />
		<path d="M287.739 101.497C288.994 104.634 289.84 107.891 291.095 111.026C291.214 111.323 292.122 111.077 292.013 110.801C290.755 107.666 289.909 104.409 288.654 101.271C288.538 100.974 287.628 101.223 287.739 101.497Z" fill="#98A2B3" />
		<path d="M302.851 135.808C304.169 134.587 305.307 133.216 306.625 131.993C307.023 131.621 306.133 131.521 305.864 131.772C304.549 132.995 303.411 134.365 302.09 135.588C301.692 135.957 302.582 136.059 302.851 135.808Z" fill="#98A2B3" />
		<path d="M327.458 151.893C327.724 151.893 328.457 151.521 327.843 151.521C327.577 151.521 326.847 151.893 327.458 151.893Z" fill="#98A2B3" />
		<path d="M295.292 140.205C295.825 140.205 295.992 139.573 295.371 139.573C294.841 139.573 294.674 140.205 295.292 140.205Z" fill="#98A2B3" />
		<path d="M309.021 173.724C309.429 173.724 309.967 173.153 309.348 173.153C308.938 173.153 308.403 173.724 309.021 173.724Z" fill="#98A2B3" />
		<path d="M292.829 174.44C291.99 173.679 291.151 172.916 290.312 172.152C290.14 171.994 289.301 172.305 289.451 172.44C290.289 173.203 291.126 173.965 291.965 174.728C292.14 174.886 292.979 174.575 292.829 174.44Z" fill="#98A2B3" />
		<path d="M281.071 179.199C280.225 179.946 279.097 180.563 278.519 181.524C278.468 181.608 279.297 181.568 279.419 181.367C279.979 180.438 281.079 179.839 281.898 179.115C282.07 178.962 281.223 179.066 281.074 179.196L281.071 179.199Z" fill="#98A2B3" />
		<path d="M323.481 164.066C323.831 164.066 324.455 163.581 323.834 163.581C323.484 163.581 322.86 164.066 323.481 164.066Z" fill="#98A2B3" />
		<path d="M314.806 185.115C315.343 185.115 315.498 184.465 314.877 184.465C314.339 184.465 314.185 185.115 314.806 185.115Z" fill="#98A2B3" />
		<path d="M335.442 184.72C338.691 177.683 339.756 170.026 342.995 162.987C343.074 162.815 342.194 162.899 342.088 163.126C338.846 170.163 337.779 177.822 334.535 184.857C334.456 185.029 335.338 184.945 335.44 184.72H335.442Z" fill="#98A2B3" />
		<path d="M206.515 185.484C207.04 185.484 207.215 184.862 206.594 184.862C206.067 184.862 205.892 185.484 206.515 185.484Z" fill="#98A2B3" />
		<path d="M0.0115848 27.4459C1.27885 30.7974 2.94657 34.0026 4.20623 37.3564C4.3355 37.6976 5.24539 37.4608 5.12373 37.1312C3.86154 33.7775 2.19382 30.5722 0.929085 27.2208C0.799824 26.8819 -0.112607 27.1187 0.0115848 27.4459Z" fill="#98A2B3" />
		<path d="M130.29 68.6802C130.487 68.6802 131.334 68.332 130.883 68.332C130.688 68.332 129.839 68.6802 130.29 68.6802Z" fill="#98A2B3" />
		<path d="M186.946 101.457C187.123 101.457 187.985 101.137 187.546 101.137C187.369 101.137 186.507 101.457 186.946 101.457Z" fill="#98A2B3" />
		<path d="M203.996 107.508C205.58 110.548 206.12 113.886 207.352 117.04C207.494 117.404 208.404 117.165 208.267 116.815C207.032 113.661 206.495 110.323 204.911 107.283C204.729 106.932 203.826 107.18 203.996 107.508Z" fill="#98A2B3" />
		<path d="M294.527 126.727C294.915 126.727 295.485 126.188 294.866 126.188C294.479 126.188 293.908 126.727 294.527 126.727Z" fill="#98A2B3" />
		<path d="M327.665 129.714C327.964 129.714 328.656 129.299 328.041 129.299C327.741 129.299 327.05 129.714 327.665 129.714Z" fill="#98A2B3" />
		<path d="M324.49 136.748C322.006 141.116 321 145.984 319.005 150.53C318.891 150.79 319.801 150.688 319.918 150.421C321.895 145.916 322.878 141.084 325.339 136.758C325.537 136.41 324.622 136.514 324.49 136.748Z" fill="#98A2B3" />
		<path d="M315.644 110.494C315.644 114.635 315.776 118.725 316.901 122.758C316.987 123.065 317.902 122.842 317.819 122.533C316.704 118.537 316.564 114.5 316.562 110.395C316.562 110.03 315.644 110.207 315.644 110.494Z" fill="#98A2B3" />
		<path d="M286.683 154.993C287.218 154.993 287.375 154.351 286.756 154.351C286.222 154.351 286.062 154.993 286.683 154.993Z" fill="#98A2B3" />
		<path d="M223.996 184.24C224.305 184.24 224.984 183.809 224.366 183.809C224.056 183.809 223.38 184.24 223.996 184.24Z" fill="#98A2B3" />
		<path d="M242.875 162.1C243.144 162.1 243.874 161.727 243.26 161.727C242.992 161.727 242.264 162.1 242.875 162.1Z" fill="#98A2B3" />
		<path d="M206.515 163.756C207.045 163.756 207.212 163.127 206.591 163.127C206.062 163.127 205.894 163.756 206.515 163.756Z" fill="#98A2B3" />
		<path d="M200.716 154.56C199.793 152.503 198.701 150.516 197.776 148.462C197.626 148.131 196.722 148.379 196.861 148.688C197.786 150.742 198.878 152.731 199.799 154.785C199.948 155.114 200.853 154.868 200.716 154.56Z" fill="#98A2B3" />
		<path d="M2.91114 68.4105C3.22035 69.0534 3.22288 69.7705 3.53463 70.4111C3.65629 70.6548 4.54844 70.3833 4.45213 70.186C4.14038 69.5454 4.13531 68.8259 3.82864 68.1853C3.71205 67.9416 2.81736 68.2132 2.91367 68.4105H2.91114Z" fill="#98A2B3" />
		<path d="M34.3444 10.7404C34.6334 10.7404 35.3354 10.3389 34.7221 10.3389C34.4331 10.3389 33.7311 10.7404 34.3444 10.7404Z" fill="#98A2B3" />
		<path d="M10.7834 6.89601C10.5249 8.65994 11.0724 10.2776 12.038 11.7955C12.1749 12.0114 13.0341 11.6981 12.9555 11.5704C12.0127 10.0873 11.4348 8.48122 11.6883 6.75211C11.7212 6.53394 10.8138 6.68945 10.7834 6.89601Z" fill="#98A2B3" />
		<path d="M51.232 35.0106C51.417 35.0106 52.2736 34.6787 51.8301 34.6787C51.6476 34.6787 50.7884 35.0106 51.232 35.0106Z" fill="#98A2B3" />
		<path d="M64.2573 19.0574C64.5817 19.0574 65.2382 18.6025 64.6172 18.6025C64.2902 18.6025 63.6363 19.0574 64.2573 19.0574Z" fill="#98A2B3" />
		<path d="M71.2499 0.406838C72.9075 2.76261 74.9199 4.87003 76.9171 6.98674C77.1173 7.20027 77.9943 6.90087 77.7687 6.66413C75.7715 4.54974 73.7591 2.43999 72.1015 0.0842257C71.9418 -0.140907 71.0522 0.126003 71.2499 0.406838Z" fill="#98A2B3" />
		<path d="M106.447 35.1056C106.824 35.1056 107.407 34.5811 106.786 34.5811C106.409 34.5811 105.826 35.1056 106.447 35.1056Z" fill="#98A2B3" />
		<path d="M95.2978 45.582C95.4752 45.582 96.337 45.2617 95.8985 45.2617C95.7211 45.2617 94.8619 45.582 95.2978 45.582Z" fill="#98A2B3" />
		<path d="M94.8337 48.9281C94.565 49.9771 94.5143 51.0378 94.5143 52.1124C94.5143 52.2424 95.4318 52.124 95.4318 51.8873C95.4318 50.8382 95.4749 49.8031 95.7385 48.7772C95.7841 48.5985 94.8869 48.7238 94.8337 48.9257V48.9281Z" fill="#98A2B3" />
		<path d="M144.721 64.456C144.898 64.456 145.757 64.1357 145.321 64.1357C145.144 64.1357 144.282 64.456 144.721 64.456Z" fill="#98A2B3" />
		<path d="M171.004 71.8405C171.898 74.6674 172.321 77.5918 173.209 80.4187C173.29 80.6764 174.205 80.4443 174.126 80.1936C173.236 77.3667 172.813 74.4423 171.921 71.6154C171.84 71.3577 170.925 71.5898 171.006 71.8405H171.004Z" fill="#98A2B3" />
		<path d="M180.08 65.3171C180.77 65.2567 181.436 64.9689 181.953 64.5512C182.111 64.4235 181.814 64.4142 181.738 64.4189C181.533 64.4351 181.282 64.4908 181.122 64.6185C180.962 64.7508 180.704 64.9666 180.478 64.9875C180.243 65.0084 179.477 65.3728 180.078 65.3194L180.08 65.3171Z" fill="#98A2B3" />
		<path d="M195.976 68.887C196.496 68.887 196.683 68.2812 196.06 68.2812C195.538 68.2812 195.353 68.887 195.976 68.887Z" fill="#98A2B3" />
		<path d="M203.433 71.5537C204.085 73.5799 204.878 75.6339 206.297 77.3282C206.487 77.5557 207.372 77.2655 207.146 76.9986C205.757 75.3391 204.987 73.3176 204.348 71.3285C204.252 71.0338 203.339 71.2636 203.433 71.5537Z" fill="#98A2B3" />
		<path d="M203.667 21.4306C205.616 21.1312 207.565 20.8457 209.521 20.5904C210.041 20.5231 210.208 19.8523 209.59 19.9336C207.55 20.2005 205.514 20.4976 203.482 20.8109C202.896 20.9014 203.091 21.5188 203.664 21.4283L203.667 21.4306Z" fill="#98A2B3" />
		<path d="M180.105 31.5843C180.059 31.3499 179.839 31.2408 179.796 31.0134C179.745 30.7488 178.825 30.9484 178.878 31.2385C178.924 31.4729 179.145 31.582 179.188 31.8095C179.238 32.074 180.161 31.8744 180.105 31.5843Z" fill="#98A2B3" />
		<path d="M179.543 7.64654C180.726 7.08719 181.692 6.26557 182.789 5.58786C183.304 5.26989 182.554 4.96584 182.178 5.19794C181.149 5.83388 180.247 6.61836 179.132 7.1429C178.577 7.40516 179.076 7.86471 179.543 7.64654Z" fill="#98A2B3" />
		<path d="M228.49 54.7358C230.614 54.2183 232.806 54.1602 234.978 53.9003C235.376 53.8516 235.774 53.4547 235.13 53.5313C232.872 53.8005 230.606 53.8771 228.396 54.4132C227.856 54.5432 227.95 54.8658 228.49 54.7335V54.7358Z" fill="#98A2B3" />
		<path d="M225.783 79.848C226.348 81.5075 226.409 83.1971 226.409 84.9262C226.409 85.3231 227.332 85.1676 227.332 84.8403C227.329 83.0695 227.279 81.3288 226.698 79.6228C226.582 79.2817 225.669 79.5138 225.783 79.848Z" fill="#98A2B3" />
		<path d="M222.734 102.904C223.243 102.904 223.446 102.319 222.822 102.319C222.31 102.319 222.11 102.904 222.734 102.904Z" fill="#98A2B3" />
		<path d="M226.766 111.662C227.207 112.412 227.944 112.913 228.811 113.199C229.224 113.333 229.886 112.79 229.331 112.609C228.576 112.361 227.985 111.936 227.6 111.284C227.392 110.933 226.525 111.258 226.766 111.662Z" fill="#98A2B3" />
		<path d="M270.799 99.0026C271.125 100.678 271.688 102.287 272.37 103.867C272.492 104.153 273.396 103.9 273.285 103.642C272.606 102.062 272.04 100.453 271.714 98.7775C271.66 98.4989 270.74 98.7032 270.796 99.0026H270.799Z" fill="#98A2B3" />
		<path d="M295.462 80.9178C296 80.9178 296.152 80.2656 295.531 80.2656C294.994 80.2656 294.842 80.9178 295.462 80.9178Z" fill="#98A2B3" />
		<path d="M280.528 67.0408C280.528 65.509 280.518 63.9748 280.214 62.4639C280.176 62.2736 279.253 62.4685 279.297 62.689C279.603 64.2 279.608 65.7341 279.611 67.2659C279.611 67.4168 280.528 67.2915 280.528 67.0408Z" fill="#98A2B3" />
		<path d="M322.845 64.0493C323.382 64.0493 323.534 63.3994 322.913 63.3994C322.376 63.3994 322.224 64.0493 322.845 64.0493Z" fill="#98A2B3" />
		<path d="M324.933 33.1581C324.277 37.3799 323.213 43.122 327.253 46.239C327.564 46.4781 328.363 46.0673 327.96 45.7563C324.1 42.7785 325.238 37.1177 325.864 33.0955C325.932 32.6684 324.994 32.7821 324.936 33.1604L324.933 33.1581Z" fill="#98A2B3" />
		<path d="M318.037 9.35226C317.674 9.95803 317.14 10.4594 316.777 11.0698C316.536 11.4783 317.464 11.4666 317.652 11.1556C318.011 10.5475 318.549 10.0462 318.911 9.43813C319.152 9.02964 318.224 9.04125 318.037 9.35458V9.35226Z" fill="#98A2B3" />
		<path d="M294.086 31.7279V32.5866C294.086 33.0299 295.013 32.9069 295.013 32.5239V31.6652C295.013 31.2219 294.086 31.3449 294.086 31.7279Z" fill="#98A2B3" />
		<path d="M268.056 44.4746C271.386 45.5121 272.92 48.8426 275.231 51.015C275.444 51.2146 276.311 50.9083 276.085 50.6947C273.728 48.4829 272.185 45.1407 268.788 44.0847C268.525 44.0011 267.694 44.3632 268.056 44.4746Z" fill="#98A2B3" />
		<path d="M255.667 54.8215V53.9628C255.667 53.5311 254.742 53.6657 254.742 54.0324V54.8911C254.742 55.3228 255.667 55.1882 255.667 54.8215Z" fill="#98A2B3" />
		<path d="M262.634 25.5515C263.504 26.1039 264.115 26.8698 264.845 27.5521C265.009 27.7053 265.848 27.399 265.709 27.2667C264.979 26.582 264.368 25.8161 263.499 25.2637C263.286 25.1291 262.505 25.4679 262.634 25.5492V25.5515Z" fill="#98A2B3" />
		<path d="M283.36 9.09217C283.748 9.09217 284.318 8.55371 283.7 8.55371C283.315 8.55371 282.742 9.09217 283.36 9.09217Z" fill="#98A2B3" />
		<path d="M249.055 6.52407C249.453 6.52407 250.011 5.97168 249.39 5.97168C248.992 5.97168 248.437 6.52407 249.055 6.52407Z" fill="#98A2B3" />
		<path d="M49.3493 90.1044C49.7193 91.1674 49.77 92.235 49.77 93.3421C49.77 93.5696 50.6875 93.421 50.6875 93.117C50.6875 92.0099 50.6368 90.9422 50.2668 89.8792C50.173 89.61 49.2606 89.8491 49.3493 90.1044Z" fill="#98A2B3" />
		<path d="M42.4523 103.29C42.7032 103.518 42.8198 103.701 42.8502 104.021C42.8654 104.191 43.788 104.033 43.7652 103.796C43.7322 103.448 43.5751 103.239 43.314 103C43.1391 102.84 42.2977 103.149 42.4523 103.29Z" fill="#98A2B3" />
		<path d="M50.403 112.994C50.9352 112.994 51.0974 112.358 50.4765 112.358C49.9442 112.358 49.782 112.994 50.403 112.994Z" fill="#98A2B3" />
		<path d="M59.8879 103.149C61.472 100.916 62.4199 98.4119 63.6948 96.0352C63.8215 95.7985 62.9218 95.8844 62.7824 96.1443C61.5278 98.4815 60.5925 100.944 59.0363 103.14C58.8107 103.46 59.7308 103.372 59.8879 103.149Z" fill="#98A2B3" />
		<path d="M88.3658 85.4576C89.8079 84.5408 91.3641 83.8329 93.004 83.2643C93.6097 83.0531 93.0445 82.8581 92.6618 82.9904C90.8902 83.6078 89.2073 84.383 87.646 85.3717C87.2405 85.6293 88.1656 85.5829 88.3658 85.4576Z" fill="#98A2B3" />
		<path d="M107.691 82.5987C107.699 82.8401 107.752 82.9376 107.939 83.1117C108.2 83.3554 109.07 83.0281 108.783 82.7612C108.685 82.7032 108.629 82.6196 108.614 82.5152C108.601 82.1113 107.681 82.2715 107.691 82.5987Z" fill="#98A2B3" />
		<path d="M118.555 87.1114C118.755 87.0928 118.922 87.1485 119.049 87.2762C119.247 87.4177 120.045 87.0858 119.913 86.993C119.67 86.8189 119.452 86.7795 119.148 86.7725C118.958 86.7679 118.103 87.1021 118.552 87.1114H118.555Z" fill="#98A2B3" />
		<path d="M137.703 58.8393C139.783 58.6513 141.854 58.4239 143.912 58.0618C144.49 57.9597 144.313 57.3934 143.745 57.4932C141.773 57.8413 139.786 58.0502 137.789 58.2312C137.279 58.2777 137.079 58.8974 137.705 58.8393H137.703Z" fill="#98A2B3" />
		<path d="M137.361 36.9592V36.1956C137.361 35.7848 136.438 35.938 136.438 36.2745V37.0381C136.438 37.4466 137.361 37.2958 137.361 36.9569V36.9592Z" fill="#98A2B3" />
		<path d="M128.508 14.1098C129.058 13.4576 129.658 12.875 130.464 12.4897C131.007 12.2321 130.17 12.2019 129.919 12.3203C129.002 12.7567 128.3 13.3926 127.669 14.1376C127.453 14.3929 128.355 14.2885 128.51 14.1098H128.508Z" fill="#98A2B3" />
		<path d="M94.2631 28.1655C94.7928 28.1655 94.9626 27.5342 94.3392 27.5342C93.8094 27.5342 93.6422 28.1655 94.2631 28.1655Z" fill="#98A2B3" />
		<path d="M75.166 24.278C75.0951 26.0512 74.1801 27.6109 73.4882 29.2332C73.3741 29.5071 74.2866 29.4027 74.4057 29.1265C75.0951 27.5064 76.0126 25.9444 76.0835 24.1689C76.0962 23.8254 75.1787 23.9995 75.166 24.2757V24.278Z" fill="#98A2B3" />
		<path d="M60.2554 56.6592C60.2909 58.0982 60.8941 59.4026 61.984 60.4424C62.278 60.7232 63.1448 60.3774 62.8204 60.0687C61.8243 59.1171 61.2186 57.9288 61.1856 56.6012C61.1729 56.151 60.2478 56.274 60.258 56.6616L60.2554 56.6592Z" fill="#98A2B3" />
		<path d="M24.5409 57.7614C24.7412 57.7614 25.5877 57.4062 25.1315 57.4062C24.9287 57.4062 24.0847 57.7614 24.5409 57.7614Z" fill="#98A2B3" />
		<path d="M45.0148 43.7116H50.4641C50.8011 43.7116 51.4424 43.2451 50.8265 43.2451H45.3747C45.0376 43.2451 44.3964 43.7116 45.0148 43.7116Z" fill="#98A2B3" />
		<path d="M34.2432 21.6718C34.2001 23.2965 33.5589 24.7726 32.7808 26.2093C32.7276 26.3091 33.5716 26.258 33.6806 26.0515C34.4713 24.5939 35.1126 23.0899 35.1582 21.4444C35.1582 21.3376 34.2483 21.442 34.2407 21.6695L34.2432 21.6718Z" fill="#98A2B3" />
		<path d="M17.8676 65.12C18.377 65.12 18.5798 64.5352 17.9563 64.5352C17.4468 64.5352 17.2441 65.12 17.8676 65.12Z" fill="#98A2B3" />
		<path d="M10.525 73.5232C10.525 73.8434 10.5377 74.1637 10.3222 74.4306C10.2208 74.556 10.6669 74.5212 10.6897 74.5165C10.8722 74.4863 11.1079 74.4283 11.2245 74.2844C11.4577 73.9966 11.4399 73.6392 11.4399 73.2957C11.4399 73.1541 10.525 73.2748 10.525 73.5208V73.5232Z" fill="#98A2B3" />
		<path d="M11.3615 106.497C13.1382 106.254 14.6741 105.523 16.2202 104.719C16.7626 104.439 16.2684 104.002 15.8172 104.237C14.4359 104.954 13.0394 105.678 11.4451 105.894C10.9484 105.961 10.738 106.581 11.3615 106.497Z" fill="#98A2B3" />
		<path d="M27.5677 120.507C26.6527 121.509 25.4514 122.22 24.2728 122.932C24.1182 123.025 24.1638 123.143 24.3387 123.16C24.5592 123.181 24.8025 123.111 24.9876 123.002C26.2117 122.261 27.4587 121.516 28.4092 120.477C28.6271 120.238 27.7274 120.337 27.5702 120.509L27.5677 120.507Z" fill="#98A2B3" />
		<path d="M5.27876 142.083C4.87577 143.359 4.42462 144.619 4.0191 145.896C3.92025 146.207 4.84536 146.086 4.9366 145.796C5.34212 144.52 5.79074 143.259 6.19626 141.983C6.29511 141.672 5.37 141.792 5.27876 142.083Z" fill="#98A2B3" />
		<path d="M333.082 111.446C333.515 111.436 333.878 111.325 334.007 110.926C334.129 110.545 333.196 110.647 333.079 110.995L333.044 111.105L333.206 110.889C333.373 110.847 333.363 110.835 333.171 110.854C332.659 110.865 332.456 111.455 333.082 111.443V111.446Z" fill="#98A2B3" />
		<path d="M314.253 92.8484C314.529 92.8484 315.249 92.4678 314.638 92.4678C314.362 92.4678 313.639 92.8484 314.253 92.8484Z" fill="#98A2B3" />
		<path d="M299.71 105.148C300.22 105.148 300.425 104.567 299.802 104.567C299.29 104.567 299.087 105.148 299.71 105.148Z" fill="#98A2B3" />
		<path d="M286.979 86.3821C287.273 86.3821 287.97 85.9736 287.355 85.9736C287.061 85.9736 286.364 86.3821 286.979 86.3821Z" fill="#98A2B3" />
		<path d="M303.152 75.5663C303.52 75.5663 304.118 75.0557 303.499 75.0557C303.132 75.0557 302.534 75.5663 303.152 75.5663Z" fill="#98A2B3" />
		<path d="M306.839 59.9697C308.753 60.7077 309.759 62.785 311.366 63.9315C311.693 64.1636 312.491 63.7412 312.071 63.4418C310.388 62.2396 309.394 60.1809 307.366 59.3964C306.976 59.2455 306.302 59.7608 306.842 59.9697H306.839Z" fill="#98A2B3" />
		<path d="M334.565 23.7211C334.332 24.7145 333.908 25.6104 333.128 26.3461C332.917 26.5457 333.802 26.4506 333.962 26.2997C334.768 25.5361 335.226 24.6124 335.47 23.5819C335.52 23.366 334.616 23.5006 334.565 23.7211Z" fill="#98A2B3" />
		<path d="M319.023 31.5177C318.838 32.5946 318.813 33.6715 318.813 34.76C318.813 35.1291 319.73 34.9527 319.73 34.6626C319.73 33.574 319.753 32.4971 319.941 31.4202C319.999 31.0744 319.074 31.2183 319.023 31.5177Z" fill="#98A2B3" />
		<path d="M319.023 48.1629C319.254 49.639 319.821 51.0501 319.864 52.5495C319.872 52.7932 320.789 52.633 320.782 52.3243C320.739 50.825 320.171 49.4139 319.94 47.9377C319.9 47.6732 318.977 47.8658 319.023 48.1629Z" fill="#98A2B3" />
		<path d="M293.449 48.7686C294.663 49.7225 295.482 50.9619 296.359 52.1688C296.511 52.3776 297.35 52.0481 297.274 51.9436C296.382 50.7158 295.548 49.4532 294.314 48.4808C294.124 48.3322 293.305 48.6548 293.449 48.7686Z" fill="#98A2B3" />
		<path d="M290.768 58.6021C290.507 58.9131 290.462 59.1614 290.735 59.4841C290.996 59.7927 291.866 59.4585 291.572 59.1104L291.539 58.8574C291.896 58.4327 291.029 58.2911 290.768 58.5998V58.6021Z" fill="#98A2B3" />
		<path d="M261.727 55.7779C262.236 55.7779 262.439 55.1953 261.816 55.1953C261.306 55.1953 261.104 55.7779 261.727 55.7779Z" fill="#98A2B3" />
		<path d="M262.858 43.1522C263.211 43.1522 263.829 42.6602 263.208 42.6602C262.856 42.6602 262.237 43.1522 262.858 43.1522Z" fill="#98A2B3" />
		<path d="M277.085 35.6255C277.581 35.8785 277.896 36.2429 278.101 36.7279C278.205 36.9716 279.105 36.714 279.018 36.5028C278.803 35.9922 278.471 35.586 277.941 35.3191C277.688 35.1915 276.907 35.535 277.085 35.6255Z" fill="#98A2B3" />
		<path d="M259.705 15.1279H259.082C258.544 15.1279 258.392 15.7801 259.013 15.7801H259.637C260.174 15.7801 260.326 15.1279 259.705 15.1279Z" fill="#98A2B3" />
		<path d="M228.15 14.0423C228.218 14.3045 228.398 14.4647 228.604 14.6527C228.799 14.8314 229.653 14.525 229.46 14.3486C229.285 14.1862 229.126 14.0446 229.067 13.8171C229.007 13.5804 228.089 13.7962 228.15 14.0423Z" fill="#98A2B3" />
		<path d="M243.055 34.5622C243.073 35.3165 243.273 35.9594 243.719 36.5953C243.907 36.8646 244.792 36.5768 244.563 36.2495C244.178 35.6994 243.991 35.1262 243.975 34.474C243.968 34.0817 243.048 34.2489 243.055 34.5622Z" fill="#98A2B3" />
		<path d="M227.621 46.6548C226.103 48.0381 224.66 49.4957 222.876 50.6028C222.362 50.9208 223.157 51.0136 223.439 50.8395C225.286 49.6953 226.782 48.2145 228.351 46.7825C228.728 46.439 227.826 46.4668 227.621 46.6548Z" fill="#98A2B3" />
		<path d="M237.386 65.3215C237.817 66.2708 238.395 67.169 238.645 68.1786C238.744 68.5848 239.664 68.362 239.563 67.9535C239.315 66.9415 238.734 66.0433 238.303 65.0941C238.126 64.7041 237.216 64.9432 237.386 65.3192V65.3215Z" fill="#98A2B3" />
		<path d="M194.667 53.8911C192.616 55.7873 190.941 57.9945 188.792 59.8025C188.399 60.1344 189.306 60.1251 189.529 59.9418C191.678 58.1338 193.354 55.9265 195.404 54.0326C195.782 53.6822 194.88 53.6961 194.669 53.8934L194.667 53.8911Z" fill="#98A2B3" />
		<path d="M151.351 72.1378C150.59 73.6627 149.635 75.1852 147.965 75.9952C147.422 76.2575 148.264 76.2714 148.507 76.1531C150.342 75.2641 151.417 73.6882 152.258 72.0032C152.349 71.8222 151.465 71.9034 151.348 72.1355L151.351 72.1378Z" fill="#98A2B3" />
		<path d="M124.062 68.1812C124.579 68.1812 124.769 67.5801 124.146 67.5801C123.629 67.5801 123.439 68.1812 124.062 68.1812Z" fill="#98A2B3" />
		<path d="M123.727 52.7216C124.135 52.7216 124.678 52.1553 124.057 52.1553C123.649 52.1553 123.106 52.7216 123.727 52.7216Z" fill="#98A2B3" />
		<path d="M116.798 47.1791C117.185 47.1791 117.756 46.6406 117.137 46.6406C116.749 46.6406 116.179 47.1791 116.798 47.1791Z" fill="#98A2B3" />
		<path d="M89.4321 70.2768C90.4104 72.1358 90.892 74.176 91.959 75.9979C92.0731 76.1929 92.9374 75.8819 92.874 75.7728C91.8095 73.9508 91.3254 71.9107 90.3471 70.0516C90.2482 69.8613 89.3687 70.1561 89.4321 70.2768Z" fill="#98A2B3" />
		<path d="M108.789 95.2794C106.069 96.2333 103.375 97.1664 100.519 97.7187C99.9435 97.8301 100.116 98.3872 100.681 98.2781C103.621 97.7118 106.394 96.7416 109.19 95.7599C109.778 95.5533 109.255 95.1146 108.789 95.2794Z" fill="#98A2B3" />
		<path d="M65.5524 95.5168C67.1441 98.4505 67.1821 101.681 67.1846 104.889C67.1846 105.344 68.1148 105.228 68.1122 104.833C68.1122 101.496 68.0413 98.1905 66.3862 95.1408C66.1987 94.7903 65.3293 95.1083 65.5524 95.5168Z" fill="#98A2B3" />
		<path d="M60.4354 117.703C59.8651 118.048 59.3024 118.394 58.6561 118.61C58.0529 118.814 58.6054 119.079 59.0135 118.942C59.7308 118.701 60.3669 118.325 61.0006 117.939C61.5176 117.626 60.7192 117.528 60.4354 117.7V117.703Z" fill="#98A2B3" />
		<path d="M49.4302 119.808C49.2426 118.534 49.2173 117.232 48.8016 115.995C48.7307 115.781 47.8182 116.02 47.8867 116.22C48.2998 117.457 48.3277 118.759 48.5127 120.033C48.5406 120.224 49.4631 120.045 49.4302 119.808Z" fill="#98A2B3" />
		<path d="M44.2322 112.511H42.3465C42.164 112.511 41.3048 112.838 41.7483 112.838H43.634C43.8165 112.838 44.6757 112.511 44.2322 112.511Z" fill="#98A2B3" />
		<path d="M34.0252 104.395C34.8895 103.566 35.328 102.494 35.5789 101.387C35.6651 100.999 34.7324 101.118 34.6538 101.464C34.4308 102.462 34.048 103.432 33.2699 104.181C32.8771 104.557 33.7667 104.643 34.0252 104.395Z" fill="#98A2B3" />
		<path d="M38.1157 89.0482C41.1115 88.3403 43.5218 86.5439 45.9778 84.9099C46.3909 84.6337 45.4709 84.636 45.2478 84.7846C42.9845 86.2885 40.7592 87.9945 37.9965 88.6466C37.4465 88.7766 37.5657 89.1781 38.1157 89.0482Z" fill="#98A2B3" />
		<path d="M24.3302 130.958C24.9639 130.979 25.5848 131.125 26.2185 131.148C26.4136 131.155 27.2678 130.819 26.8116 130.805C26.1779 130.784 25.557 130.638 24.9208 130.614C24.7256 130.607 23.8715 130.944 24.3277 130.96L24.3302 130.958Z" fill="#98A2B3" />
		<path d="M32.54 128.19C34.8667 128.605 37.3074 128.953 39.5124 127.955C40.0776 127.7 39.5657 127.317 39.1221 127.517C37.2212 128.378 35.0745 128.02 33.0798 127.667C32.7275 127.605 31.995 128.094 32.54 128.19Z" fill="#98A2B3" />
		<path d="M56.5644 124.754H58.2422C58.4551 124.754 58.7263 124.696 58.8429 124.515C58.957 124.346 58.7491 124.234 58.5844 124.234H56.904C56.6911 124.234 56.4199 124.292 56.3033 124.473C56.1892 124.641 56.3971 124.754 56.5618 124.754H56.5644Z" fill="#98A2B3" />
		<path d="M327.76 173.123C329.172 173.091 330.348 172.522 330.918 171.308C331.037 171.058 330.13 171.153 330.003 171.417C329.646 172.172 329.037 172.64 328.12 172.661C327.912 172.666 327.643 172.724 327.514 172.886C327.387 173.047 327.618 173.126 327.757 173.121L327.76 173.123Z" fill="#98A2B3" />
		<path d="M307.192 160.71C307.498 160.71 308.18 160.283 307.562 160.283C307.255 160.283 306.573 160.71 307.192 160.71Z" fill="#98A2B3" />
		<path d="M289.361 185.723C288.662 186.357 287.962 186.993 287.265 187.629C286.854 188.003 287.739 188.16 288.036 187.889C288.733 187.253 289.432 186.619 290.132 185.983C290.542 185.61 289.66 185.452 289.361 185.723Z" fill="#98A2B3" />
		<path d="M245.971 167.898C247.907 166.603 250.323 166.144 252.267 164.846C252.768 164.51 252 164.324 251.681 164.537C249.745 165.833 247.327 166.292 245.385 167.589C244.883 167.926 245.651 168.112 245.971 167.896V167.898Z" fill="#98A2B3" />
		<path d="M264.176 151.09C264.787 150.127 265.007 149.103 265.022 147.998C265.022 147.836 264.11 147.961 264.105 148.224C264.092 149.305 263.864 150.289 263.271 151.229C263.185 151.366 264.039 151.31 264.176 151.09Z" fill="#98A2B3" />
		<path d="M269.762 134.468C273.424 134.408 276.765 136.086 280.346 136.564C280.754 136.617 281.297 136.097 280.681 136.016C276.998 135.524 273.64 133.86 269.863 133.923C269.369 133.932 269.136 134.48 269.762 134.468Z" fill="#98A2B3" />
		<path d="M274.415 116.225C276.412 118.318 279.365 119.279 281.547 121.176C281.72 121.324 282.541 121.006 282.412 120.895C280.227 119.001 277.277 118.038 275.279 115.944C275.135 115.791 274.283 116.088 274.415 116.225Z" fill="#98A2B3" />
		<path d="M245.945 117.555C244.995 118.39 243.902 118.922 242.595 119.112C242.174 119.173 241.822 119.627 242.455 119.535C244.062 119.303 245.492 118.697 246.67 117.664C247.045 117.332 246.14 117.383 245.945 117.555Z" fill="#98A2B3" />
		<path d="M233.257 127.252C233.247 128.804 233.072 130.406 233.886 131.826C234.025 132.07 234.904 131.78 234.803 131.601C233.987 130.178 234.162 128.579 234.175 127.024C234.175 126.834 233.26 126.969 233.257 127.249V127.252Z" fill="#98A2B3" />
		<path d="M102.092 135.83V139.455C102.092 139.71 103.007 139.552 103.007 139.23V135.604C103.007 135.349 102.092 135.507 102.092 135.83Z" fill="#98A2B3" />
		<path d="M78.9982 143.638C79.5102 143.638 79.7105 143.051 79.087 143.051C78.575 143.051 78.3773 143.638 78.9982 143.638Z" fill="#98A2B3" />
		<path d="M91.8757 153.481C92.2001 153.481 92.8591 153.03 92.2406 153.03C91.9187 153.03 91.2572 153.481 91.8757 153.481Z" fill="#98A2B3" />
		<path d="M107.76 169.901C107.529 170.458 107.192 170.938 106.746 171.368C106.592 171.516 106.878 171.581 106.982 171.581C107.202 171.581 107.438 171.507 107.59 171.361C108.069 170.904 108.429 170.377 108.675 169.783C108.774 169.541 107.869 169.646 107.76 169.901Z" fill="#98A2B3" />
		<path d="M42.3283 160.539C38.6861 162.774 36.144 166.104 32.8871 168.741C32.7173 168.88 33.5563 168.783 33.7134 168.657C36.9703 166.021 39.5124 162.69 43.1545 160.455C43.3218 160.351 42.5032 160.434 42.3308 160.539H42.3283Z" fill="#98A2B3" />
		<path d="M25.2813 177.006C25.1013 178.591 25.0735 180.178 25.0709 181.773C25.0709 181.884 25.9859 181.773 25.9859 181.548C25.9859 179.956 26.0138 178.368 26.1963 176.781C26.2064 176.697 25.3066 176.769 25.2813 177.006Z" fill="#98A2B3" />
		<path d="M62.4554 177.8C63.0865 178.181 63.715 178.563 64.3436 178.944C64.5641 179.079 65.3473 178.74 65.2053 178.654C64.5768 178.273 63.9482 177.89 63.3171 177.51C63.0941 177.377 62.3134 177.716 62.4554 177.8Z" fill="#98A2B3" />
		<path d="M4.56137 17.1453C4.83763 17.1453 5.55997 16.7646 4.94662 16.7646C4.67035 16.7646 3.94801 17.1453 4.56137 17.1453Z" fill="#98A2B3" />
		<path d="M22.4067 34.3153C22.6982 34.3153 23.3952 33.9092 22.7819 33.9092C22.4904 33.9092 21.7909 34.3153 22.4067 34.3153Z" fill="#98A2B3" />
		<path d="M39.4288 34.3991C39.8394 34.3991 40.3768 33.8281 39.7583 33.8281C39.3477 33.8281 38.8104 34.3991 39.4288 34.3991Z" fill="#98A2B3" />
		<path d="M55.5054 35.75C56.4786 37.6254 56.7625 39.684 58.2579 41.3157C58.4201 41.4944 59.2894 41.2066 59.1171 41.0163C57.6445 39.4078 57.3784 37.3724 56.4228 35.5249C56.3012 35.2905 55.4141 35.5713 55.5054 35.75Z" fill="#98A2B3" />
		<path d="M68.345 37.3546C68.5857 37.7236 68.971 38.0137 69.4475 38.0624C69.924 38.1112 70.3701 37.4752 69.7542 37.4126C69.4804 37.3847 69.3106 37.1735 69.1788 36.9716C68.9507 36.6211 68.0839 36.9553 68.345 37.3522V37.3546Z" fill="#98A2B3" />
		<path d="M47.7394 10.354C46.7383 12.097 46.4113 14.0559 45.6434 15.8825C45.5699 16.0565 46.4544 15.966 46.5482 15.7409C47.3187 13.9166 47.6457 11.9554 48.6443 10.2124C48.7279 10.0708 47.8662 10.1335 47.7394 10.354Z" fill="#98A2B3" />
		<path d="M29.5419 67.496C29.8486 67.496 30.5304 67.0713 29.912 67.0713C29.6053 67.0713 28.9235 67.496 29.5419 67.496Z" fill="#98A2B3" />
		<path d="M55.3631 72.4837C53.7892 74.5888 51.171 75.8723 48.525 76.5082C47.9547 76.6451 48.1321 77.2486 48.7024 77.1117C51.5563 76.4247 54.4355 75.0251 56.1362 72.7506C56.4682 72.305 55.614 72.1495 55.3631 72.4837Z" fill="#98A2B3" />
		<path d="M108.444 49.3648C108.72 49.3648 109.44 48.9795 108.827 48.9795C108.55 48.9795 107.831 49.3648 108.444 49.3648Z" fill="#98A2B3" />
		<path d="M128.533 44.1386C128.561 45.074 129.027 45.7029 129.818 46.2623C130.008 46.3969 130.794 46.0627 130.682 45.9838C129.907 45.4337 129.473 44.8233 129.448 43.9112C129.443 43.7928 128.525 43.9158 128.531 44.1363L128.533 44.1386Z" fill="#98A2B3" />
		<path d="M149.686 36.976L149.73 37.0851C149.798 37.3148 150.713 37.0897 150.645 36.8599C150.591 36.6766 150.472 36.6093 150.267 36.5907C150.039 36.5698 149.202 36.9319 149.684 36.976H149.686Z" fill="#98A2B3" />
		<path d="M140.577 20.4763C140.98 20.4763 141.528 19.917 140.907 19.917C140.504 19.917 139.956 20.4763 140.577 20.4763Z" fill="#98A2B3" />
		<path d="M165.676 16.4975C166.104 17.8251 166.614 19.097 167.354 20.3062C167.473 20.5012 168.332 20.1855 168.271 20.0811C167.529 18.8719 167.019 17.5977 166.591 16.2701C166.535 16.096 165.623 16.3328 165.676 16.4952V16.4975Z" fill="#98A2B3" />
		<path d="M195.903 9.20798C195.548 10.6493 195.683 12.0303 196.108 13.4484C196.172 13.6549 197.087 13.4275 197.026 13.2232C196.608 11.833 196.456 10.4868 196.808 9.0664C196.859 8.85751 195.956 8.98749 195.903 9.20798Z" fill="#98A2B3" />
		<path d="M180.863 50.3964C178.559 53.1862 173.761 53.6411 170.659 55.4746C170.137 55.7833 170.902 56.0433 171.26 55.832C174.461 53.9382 179.223 53.532 181.623 50.6215C181.973 50.1991 181.104 50.1063 180.863 50.3964Z" fill="#98A2B3" />
		<path d="M218.729 42.6787C218.932 42.6787 219.776 42.3213 219.317 42.3213C219.117 42.3213 218.271 42.6787 218.729 42.6787Z" fill="#98A2B3" />
		<path d="M226.642 20.4185C229.205 21.4536 231.324 23.2292 234.074 23.886C234.416 23.9696 235.158 23.5054 234.616 23.3754C231.934 22.7325 229.859 20.9848 227.357 19.9729C227.043 19.8452 226.219 20.2468 226.642 20.4185Z" fill="#98A2B3" />
		<path d="M245.633 45.0942V45.2799C245.633 45.5073 246.548 45.3588 246.548 45.0548V44.8691C246.548 44.6416 245.633 44.7902 245.633 45.0942Z" fill="#98A2B3" />
		<path d="M283.695 41.9748C284.039 41.9748 284.671 41.499 284.05 41.499C283.707 41.499 283.074 41.9748 283.695 41.9748Z" fill="#98A2B3" />
		<path d="M306.946 52.0061C306.209 52.9624 305.137 53.5148 303.946 53.8838C303.406 54.0509 303.537 54.5476 304.09 54.3758C305.575 53.9163 306.891 53.2548 307.811 52.0618C308.077 51.7183 307.144 51.7532 306.946 52.0085V52.0061Z" fill="#98A2B3" />
		<path d="M333.356 65.2356C333.316 65.3771 333.191 65.463 333.146 65.6162C333.052 65.9388 333.98 65.8158 334.063 65.5187C334.104 65.3771 334.228 65.2913 334.274 65.1381C334.367 64.8155 333.44 64.9385 333.356 65.2356Z" fill="#98A2B3" />
		<path d="M305.869 108.127C305.557 110.562 304.113 112.679 302.754 114.737C302.528 115.079 303.451 114.997 303.608 114.758C304.989 112.669 306.47 110.499 306.786 108.025C306.83 107.684 305.907 107.84 305.871 108.13L305.869 108.127Z" fill="#98A2B3" />
	</g>
</svg>
