<svg viewBox="0 0 100 100" xmlns="http://www.w3.org/2000/svg" height="100" width="100"><path d="M10 50a40 40 0 1 0 80 0 40 40 0 1 0 -80 0Z" fill="#daedf7" stroke="#daedf7" stroke-width="1"></path><path d="M58.609 27.662H41.893l7.274 -10.624a1.314 1.314 0 0 1 2.168 0Z" fill="#ffe500" stroke="#45413c" stroke-linecap="round" stroke-linejoin="round" stroke-width="1"></path><path d="m71.883 40.292 -11.82 -11.82L72.718 26.1a1.314 1.314 0 0 1 1.533 1.533Z" fill="#ffe500" stroke="#45413c" stroke-linecap="round" stroke-linejoin="round" stroke-width="1"></path><path d="M72.338 58.609V41.893l10.624 7.274a1.314 1.314 0 0 1 0 2.168Z" fill="#ffe500" stroke="#45413c" stroke-linecap="round" stroke-linejoin="round" stroke-width="1"></path><path d="m59.708 71.883 11.82 -11.82L73.9 72.718a1.314 1.314 0 0 1 -1.533 1.533Z" fill="#ffe500" stroke="#45413c" stroke-linecap="round" stroke-linejoin="round" stroke-width="1"></path><path d="M41.391 72.338h16.716l-7.274 10.624a1.314 1.314 0 0 1 -2.168 0Z" fill="#ffe500" stroke="#45413c" stroke-linecap="round" stroke-linejoin="round" stroke-width="1"></path><path d="m28.117 59.708 11.82 11.82L27.282 73.9a1.314 1.314 0 0 1 -1.533 -1.533Z" fill="#ffe500" stroke="#45413c" stroke-linecap="round" stroke-linejoin="round" stroke-width="1"></path><path d="M27.662 41.391v16.716l-10.624 -7.274a1.314 1.314 0 0 1 0 -2.168Z" fill="#ffe500" stroke="#45413c" stroke-linecap="round" stroke-linejoin="round" stroke-width="1"></path><path d="m40.292 28.117 -11.82 11.82L26.1 27.282a1.314 1.314 0 0 1 1.533 -1.533Z" fill="#ffe500" stroke="#45413c" stroke-linecap="round" stroke-linejoin="round" stroke-width="1"></path><path d="M26.061 50.122a23.99 23.99 0 1 0 47.98 0 23.99 23.99 0 1 0 -47.98 0Z" fill="#ffe500" stroke-width="1"></path><path d="M26.322 53.671a23.99 23.99 0 1 1 47.458 0 23.959 23.959 0 0 0 -47.458 0" fill="#fff48c" stroke-width="1"></path><path d="M26.061 50.122a23.99 23.99 0 1 0 47.98 0 23.99 23.99 0 1 0 -47.98 0Z" fill="none" stroke="#45413c" stroke-linecap="round" stroke-linejoin="round" stroke-width="1"></path><path d="M55.7 40.765a1.51 1.51 0 0 0 -1.351 -2.186h-5.358a1.513 1.513 0 0 0 -1.331 0.794l-5.987 11.12A1.511 1.511 0 0 0 43 52.72h6.173l-2.423 10.5a0.756 0.756 0 0 0 1.349 0.612l10.225 -14.156a1.511 1.511 0 0 0 -1.225 -2.4h-4.66Z" fill="#fffacf" stroke-width="1"></path><path d="M55.7 40.765a1.51 1.51 0 0 0 -1.351 -2.186h-5.358a1.513 1.513 0 0 0 -1.331 0.794l-5.987 11.12A1.511 1.511 0 0 0 43 52.72h6.173l-2.423 10.5a0.756 0.756 0 0 0 1.349 0.612l10.225 -14.156a1.511 1.511 0 0 0 -1.225 -2.4h-4.66Z" fill="none" stroke="#45413c" stroke-linecap="round" stroke-linejoin="round" stroke-width="1"></path></svg>