<svg viewBox="0 0 100 100" xmlns="http://www.w3.org/2000/svg" height="100" width="100"><path d="M4.396 52.862a40 40 0 1 0 80 0 40 40 0 1 0 -80 0Z" fill="#009fd9" stroke-width="1"></path><path d="M24.526 53.833a33.985 33.985 0 0 0 -19.492 6.116A40 40 0 0 0 58.6 90.259c0.05 -0.753 0.084 -1.509 0.084 -2.273a34.153 34.153 0 0 0 -34.158 -34.153Z" fill="#00dfeb" stroke-width="1"></path><path d="M24.535 53.833a33.987 33.987 0 0 0 -19.5 6.121A39.725 39.725 0 0 0 9.3 72.058a34.171 34.171 0 0 1 47.347 18.884q0.992 -0.318 1.959 -0.688c0.049 -0.749 0.082 -1.5 0.082 -2.268a34.153 34.153 0 0 0 -34.153 -34.153Z" fill="#009fd9" stroke-width="1"></path><path d="M24.535 53.889a33.987 33.987 0 0 0 -19.5 6.121A39.719 39.719 0 0 0 9.3 72.113 34.171 34.171 0 0 1 56.647 91q0.992 -0.32 1.959 -0.689c0.049 -0.748 0.082 -1.5 0.082 -2.268a34.152 34.152 0 0 0 -34.153 -34.154Z" fill="#4aeff7" stroke-width="1"></path><path d="M34.369 55.27H29.29a4.691 4.691 0 0 0 -4.7 3.762 4.525 4.525 0 0 0 4.46 5.281 3.624 3.624 0 0 1 3.5 4.547 3.712 3.712 0 0 1 -3.65 2.687H16a9.925 9.925 0 0 0 -5.877 1.937A39.981 39.981 0 0 0 41.292 92.73a4.971 4.971 0 0 1 2.6 -3.847 7.25 7.25 0 0 0 3.461 -6.178 0.313 0.313 0 0 0 -0.311 -0.307h-3.526a1.809 1.809 0 0 1 -1.809 -1.809v-2.26a1.809 1.809 0 0 1 1.809 -1.809h7.732a4.521 4.521 0 0 0 4.252 -2.971A34.248 34.248 0 0 0 34.369 55.27Z" fill="#6dd627" stroke-width="1"></path><path d="M58.605 90.255a34.79 34.79 0 0 0 0.083 -2.269A34.145 34.145 0 0 0 5.035 59.954" fill="none" stroke="#45413c" stroke-linecap="round" stroke-linejoin="round" stroke-width="1"></path><path d="M32.186 69.329a34.066 34.066 0 0 1 14.387 7.191h4.675a4.521 4.521 0 0 0 4.252 -2.971A34.245 34.245 0 0 0 34.369 55.27H29.29a4.691 4.691 0 0 0 -4.7 3.762 4.525 4.525 0 0 0 4.46 5.281 3.624 3.624 0 0 1 3.5 4.547 3.364 3.364 0 0 1 -0.174 0.513" fill="#9ceb60" stroke-width="1"></path><path d="M41.292 92.73a4.971 4.971 0 0 1 2.6 -3.847 7.25 7.25 0 0 0 3.461 -6.178 0.313 0.313 0 0 0 -0.311 -0.307h-3.526a1.809 1.809 0 0 1 -1.809 -1.809v-2.26a1.809 1.809 0 0 1 1.809 -1.809h7.732a4.521 4.521 0 0 0 4.252 -2.971A34.248 34.248 0 0 0 34.369 55.27H29.29a4.691 4.691 0 0 0 -4.7 3.762 4.525 4.525 0 0 0 4.46 5.281 3.624 3.624 0 0 1 3.5 4.547 3.712 3.712 0 0 1 -3.65 2.687H16a9.925 9.925 0 0 0 -5.877 1.937" fill="none" stroke="#45413c" stroke-linecap="round" stroke-linejoin="round" stroke-width="1"></path><path d="M69.443 38.41a6.5 6.5 0 0 0 -5.089 -5.089c-3.787 -0.856 -8.409 0.647 -11.727 4.091 -7.91 8.215 -8.764 18.167 -8.294 21.02 2.852 0.469 12.8 -0.384 21.019 -8.3C68.8 46.819 70.3 42.2 69.443 38.41Z" fill="#ff8a14" stroke-width="1"></path><path d="M69.443 38.41a6.5 6.5 0 0 0 -5.089 -5.089c-3.787 -0.856 -8.409 0.647 -11.727 4.091 -7.91 8.215 -8.764 18.167 -8.294 21.02 2.852 0.469 12.8 -0.384 21.019 -8.3C68.8 46.819 70.3 42.2 69.443 38.41Z" fill="none" stroke="#45413c" stroke-linecap="round" stroke-linejoin="round" stroke-width="1"></path><path d="M68.953 37.445a4.772 4.772 0 0 0 -3.634 -3.634 8.854 8.854 0 0 0 -8.192 2.737c-5.462 5.68 -5.946 12.662 -5.583 14.672 2.01 0.363 8.992 -0.121 14.672 -5.583a8.854 8.854 0 0 0 2.737 -8.192Z" fill="#ffe500" stroke-width="1"></path><path d="M68.524 36.662A3.18 3.18 0 0 0 66.1 34.24a5.9 5.9 0 0 0 -5.461 1.824 12.905 12.905 0 0 0 -3.721 9.78 12.905 12.905 0 0 0 9.78 -3.721 5.9 5.9 0 0 0 1.826 -5.461Z" fill="#fff48c" stroke-width="1"></path><path d="m50.223 23.131 2.825 -0.942a0.265 0.265 0 0 0 0 -0.5l-2.322 -0.774a1.062 1.062 0 0 1 -0.671 -0.671l-0.774 -2.321a0.265 0.265 0 0 0 -0.5 0L48 20.241a1.06 1.06 0 0 1 -0.671 0.671l-2.323 0.774a0.265 0.265 0 0 0 0 0.5l2.323 0.774a1.062 1.062 0 0 1 0.671 0.671l0.774 2.323a0.265 0.265 0 0 0 0.5 0Z" fill="#ffffff" stroke="#45413c" stroke-linecap="round" stroke-linejoin="round" stroke-width="1"></path><path d="m18.623 39.131 2.825 -0.942a0.265 0.265 0 0 0 0 -0.5l-2.322 -0.774a1.062 1.062 0 0 1 -0.671 -0.671l-0.774 -2.321a0.265 0.265 0 0 0 -0.5 0l-0.781 2.318a1.06 1.06 0 0 1 -0.671 0.671l-2.323 0.774a0.265 0.265 0 0 0 0 0.5l2.323 0.774a1.062 1.062 0 0 1 0.671 0.671l0.774 2.323a0.265 0.265 0 0 0 0.5 0Z" fill="#ffffff" stroke="#45413c" stroke-linecap="round" stroke-linejoin="round" stroke-width="1"></path><path d="m27.37 26.679 0.807 -0.269a0.076 0.076 0 0 0 0 -0.144l-0.663 -0.221a0.3 0.3 0 0 1 -0.192 -0.192l-0.222 -0.663a0.076 0.076 0 0 0 -0.144 0l-0.221 0.663a0.3 0.3 0 0 1 -0.192 0.192l-0.663 0.221a0.076 0.076 0 0 0 0 0.144l0.663 0.221a0.3 0.3 0 0 1 0.192 0.192l0.221 0.664a0.076 0.076 0 0 0 0.144 0Z" fill="#ffffff" stroke-width="1"></path><path d="m41.77 36.679 0.807 -0.269a0.076 0.076 0 0 0 0 -0.144l-0.663 -0.221a0.3 0.3 0 0 1 -0.192 -0.192l-0.222 -0.663a0.076 0.076 0 0 0 -0.144 0l-0.221 0.663a0.3 0.3 0 0 1 -0.192 0.192l-0.663 0.221a0.076 0.076 0 0 0 0 0.144l0.663 0.221a0.3 0.3 0 0 1 0.192 0.192l0.221 0.664a0.076 0.076 0 0 0 0.144 0Z" fill="#ffffff" stroke-width="1"></path><path d="m75.77 53.279 0.807 -0.269a0.076 0.076 0 0 0 0 -0.144l-0.663 -0.221a0.3 0.3 0 0 1 -0.192 -0.192l-0.222 -0.663a0.076 0.076 0 0 0 -0.144 0l-0.221 0.663a0.3 0.3 0 0 1 -0.192 0.192l-0.663 0.221a0.076 0.076 0 0 0 0 0.144l0.663 0.221a0.3 0.3 0 0 1 0.192 0.192l0.221 0.664a0.076 0.076 0 0 0 0.144 0Z" fill="#ffffff" stroke-width="1"></path><path d="m29.37 48.279 0.807 -0.269a0.076 0.076 0 0 0 0 -0.144l-0.663 -0.221a0.3 0.3 0 0 1 -0.192 -0.192l-0.222 -0.663a0.076 0.076 0 0 0 -0.144 0l-0.221 0.663a0.3 0.3 0 0 1 -0.192 0.192l-0.663 0.221a0.076 0.076 0 0 0 0 0.144l0.663 0.221a0.3 0.3 0 0 1 0.192 0.192l0.221 0.664a0.076 0.076 0 0 0 0.144 0Z" fill="#ffffff" stroke-width="1"></path><path d="m59.277 67.964 0.807 -0.269a0.076 0.076 0 0 0 0 -0.144l-0.663 -0.221a0.3 0.3 0 0 1 -0.192 -0.192l-0.221 -0.663a0.077 0.077 0 0 0 -0.072 -0.052 0.075 0.075 0 0 0 -0.072 0.052l-0.221 0.663a0.3 0.3 0 0 1 -0.192 0.192l-0.663 0.221a0.076 0.076 0 0 0 0 0.144l0.664 0.221a0.3 0.3 0 0 1 0.192 0.192l0.221 0.663a0.075 0.075 0 0 0 0.072 0.052 0.077 0.077 0 0 0 0.072 -0.052Z" fill="#ffffff" stroke-width="1"></path><path d="m74.623 71.131 2.825 -0.942a0.265 0.265 0 0 0 0 -0.5l-2.322 -0.774a1.062 1.062 0 0 1 -0.671 -0.671l-0.774 -2.321a0.265 0.265 0 0 0 -0.5 0l-0.781 2.318a1.06 1.06 0 0 1 -0.671 0.671l-2.323 0.774a0.265 0.265 0 0 0 0 0.5l2.323 0.774a1.062 1.062 0 0 1 0.671 0.671l0.774 2.323a0.265 0.265 0 0 0 0.5 0Z" fill="#ffffff" stroke="#45413c" stroke-linecap="round" stroke-linejoin="round" stroke-width="1"></path><path d="m70.728 21.077 -8.894 0.568a1.487 1.487 0 0 0 -1.317 1.014l-4.83 10.091a0.3 0.3 0 0 0 0.475 0.321l6.038 -4.807a1.492 1.492 0 0 1 1.221 -0.329l2.891 0.51" fill="#ff6242" stroke-width="1"></path><path d="M62.769 27.964a1.47 1.47 0 0 1 0.647 -0.029l2.891 0.51 4.421 -7.368 -3.632 0.232Z" fill="#e04122" stroke-width="1"></path><path d="m70.728 21.077 -8.894 0.568a1.487 1.487 0 0 0 -1.317 1.014l-4.83 10.091a0.3 0.3 0 0 0 0.475 0.321l6.038 -4.807a1.492 1.492 0 0 1 1.221 -0.329l2.891 0.51Z" fill="none" stroke="#45413c" stroke-linecap="round" stroke-linejoin="round" stroke-width="1"></path><path d="m81.671 32.019 -0.571 8.894a1.49 1.49 0 0 1 -1.015 1.318L70 47.06a0.3 0.3 0 0 1 -0.321 -0.474l4.806 -6.034a1.491 1.491 0 0 0 0.33 -1.22L74.3 36.44Z" fill="#ff6242" stroke-width="1"></path><path d="m74.3 36.44 0.511 2.892a1.477 1.477 0 0 1 -0.012 0.574l6.649 -4.425 0.221 -3.462Z" fill="#e04122" stroke-width="1"></path><path d="m81.671 32.019 -0.571 8.894a1.49 1.49 0 0 1 -1.015 1.318L70 47.06a0.3 0.3 0 0 1 -0.321 -0.474l4.806 -6.034a1.491 1.491 0 0 0 0.33 -1.22L74.3 36.44" fill="none" stroke="#45413c" stroke-linecap="round" stroke-linejoin="round" stroke-width="1"></path><path d="M94.869 7.336a23.3 23.3 0 0 0 -20.6 7.548l-8.568 12.41a0.294 0.294 0 0 0 0.044 0.371l4.665 4.664 4.664 4.664a0.293 0.293 0 0 0 0.371 0.045l12.41 -8.568a23.3 23.3 0 0 0 7.547 -20.6 0.63 0.63 0 0 0 -0.533 -0.534Z" fill="#f8f8f8" stroke-width="1"></path><path d="M81.974 9.2A14.951 14.951 0 0 0 93.54 20.768a24.06 24.06 0 0 0 1.866 -12.894 0.63 0.63 0 0 0 -0.537 -0.538A24.07 24.07 0 0 0 81.973 9.2" fill="#ff6242" stroke-width="1"></path><path d="M94.869 7.336a23.3 23.3 0 0 0 -20.6 7.548l-8.568 12.41a0.294 0.294 0 0 0 0.044 0.371l4.665 4.664 4.664 4.664a0.293 0.293 0 0 0 0.371 0.045l12.41 -8.568a23.3 23.3 0 0 0 7.547 -20.6 0.63 0.63 0 0 0 -0.533 -0.534Z" fill="none" stroke="#45413c" stroke-linecap="round" stroke-linejoin="round" stroke-width="1"></path><path d="M74.654 23.028a5.061 5.061 0 1 0 10.122 0 5.061 5.061 0 1 0 -10.122 0Z" fill="#87898c" stroke="#45413c" stroke-linecap="round" stroke-linejoin="round" stroke-width="1"></path><path d="M76.716 23.028a2.999 2.999 0 1 0 5.998 0 2.999 2.999 0 1 0 -5.998 0Z" fill="#4acfff" stroke-width="1"></path><path d="M62.678 39.588a1.58 1.58 0 0 1 0.222 -0.354l0.822 -1.081c2.012 -2.648 4.025 -5.3 5.977 -7.989a7.44 7.44 0 0 1 2.166 -2.251 2.487 2.487 0 0 1 2.924 0.175 2.491 2.491 0 0 1 0.146 2.943 7.6 7.6 0 0 1 -2.289 2.158c-3.023 2.159 -5.946 4.452 -8.921 6.676 -0.276 0.207 -1.144 0.7 -1.093 -0.083a0.611 0.611 0 0 1 0.046 -0.194Z" fill="#ff6242" stroke="#45413c" stroke-linecap="round" stroke-linejoin="round" stroke-width="1"></path><path d="M81.973 9.2a24.07 24.07 0 0 1 12.9 -1.868 0.63 0.63 0 0 1 0.537 0.538 24.06 24.06 0 0 1 -1.87 12.898 15.132 15.132 0 0 1 -1.663 -0.45 24.347 24.347 0 0 0 0.7 -9.621 0.63 0.63 0 0 0 -0.538 -0.537 24.355 24.355 0 0 0 -9.615 0.693 15.283 15.283 0 0 1 -0.446 -1.65" fill="#ff6242" stroke-width="1"></path><path d="M81.974 9.2A14.951 14.951 0 0 0 93.54 20.768a24.06 24.06 0 0 0 1.866 -12.894 0.63 0.63 0 0 0 -0.537 -0.538A24.07 24.07 0 0 0 81.973 9.2" fill="none" stroke="#45413c" stroke-linecap="round" stroke-linejoin="round" stroke-width="1"></path><path d="M76.776 23.63a3 3 0 1 1 5.913 -0.209Z" fill="#4acfff" stroke-width="1"></path><path d="M76.716 23.028a2.999 2.999 0 1 0 5.998 0 2.999 2.999 0 1 0 -5.998 0Z" fill="none" stroke="#45413c" stroke-linecap="round" stroke-linejoin="round" stroke-width="1"></path></svg>