<svg xmlns="http://www.w3.org/2000/svg" width="33" height="32" viewBox="0 0 33 32" fill="none">
	<path d="M7.83334 2.66683C7.83334 1.93045 7.23639 1.3335 6.50001 1.3335C5.76363 1.3335 5.16668 1.93045 5.16668 2.66683V4.66683H3.16668C2.4303 4.66683 1.83334 5.26378 1.83334 6.00016C1.83334 6.73654 2.4303 7.3335 3.16668 7.3335H5.16668V9.3335C5.16668 10.0699 5.76363 10.6668 6.50001 10.6668C7.23639 10.6668 7.83334 10.0699 7.83334 9.3335V7.3335H9.83334C10.5697 7.3335 11.1667 6.73654 11.1667 6.00016C11.1667 5.26378 10.5697 4.66683 9.83334 4.66683H7.83334V2.66683Z" fill="#98A2B3" />
	<path d="M7.83334 22.6668C7.83334 21.9304 7.23639 21.3335 6.50001 21.3335C5.76363 21.3335 5.16668 21.9304 5.16668 22.6668V24.6668H3.16668C2.4303 24.6668 1.83334 25.2638 1.83334 26.0002C1.83334 26.7365 2.4303 27.3335 3.16668 27.3335H5.16668V29.3335C5.16668 30.0699 5.76363 30.6668 6.50001 30.6668C7.23639 30.6668 7.83334 30.0699 7.83334 29.3335V27.3335H9.83334C10.5697 27.3335 11.1667 26.7365 11.1667 26.0002C11.1667 25.2638 10.5697 24.6668 9.83334 24.6668H7.83334V22.6668Z" fill="#98A2B3" />
	<path d="M19.0778 3.52152C18.8798 3.0066 18.385 2.66683 17.8333 2.66683C17.2816 2.66683 16.7869 3.0066 16.5889 3.52152L14.2766 9.53334C13.8761 10.5747 13.7502 10.8748 13.5781 11.117C13.4053 11.3599 13.1931 11.5722 12.9501 11.7449C12.708 11.9171 12.4079 12.0429 11.3665 12.4435L5.3547 14.7557C4.83978 14.9537 4.50001 15.4485 4.50001 16.0002C4.50001 16.5519 4.83978 17.0466 5.3547 17.2446L11.3665 19.5569C12.4079 19.9574 12.708 20.0833 12.9501 20.2554C13.1931 20.4282 13.4053 20.6404 13.5781 20.8834C13.7502 21.1255 13.8761 21.4256 14.2766 22.467L16.5889 28.4788C16.7869 28.9937 17.2816 29.3335 17.8333 29.3335C18.385 29.3335 18.8798 28.9937 19.0778 28.4788L21.39 22.467C21.7906 21.4256 21.9164 21.1255 22.0886 20.8834C22.2614 20.6404 22.4736 20.4282 22.7166 20.2554C22.9587 20.0833 23.2588 19.9574 24.3002 19.5569L30.312 17.2446C30.8269 17.0466 31.1667 16.5519 31.1667 16.0002C31.1667 15.4485 30.8269 14.9537 30.312 14.7557L24.3002 12.4435C23.2588 12.0429 22.9587 11.9171 22.7166 11.7449C22.4736 11.5722 22.2614 11.3599 22.0886 11.117C21.9164 10.8748 21.7906 10.5747 21.39 9.53334L19.0778 3.52152Z" fill="#98A2B3" />
</svg>
