<svg width="20" height="20" viewBox="0 0 20 20" fill="none" xmlns="http://www.w3.org/2000/svg">
<g id="vuesax/bold/warning-2">
<g id="warning-2">
<path id="Vector" d="M16.2584 4.875L11.3083 2.01666C10.5 1.55 9.50002 1.55 8.68335 2.01666L3.74168 4.875C2.93335 5.34166 2.43335 6.20833 2.43335 7.15V12.85C2.43335 13.7833 2.93335 14.65 3.74168 15.125L8.69168 17.9833C9.50002 18.45 10.5 18.45 11.3167 17.9833L16.2667 15.125C17.075 14.6583 17.575 13.7917 17.575 12.85V7.15C17.5667 6.20833 17.0667 5.35 16.2584 4.875ZM9.37502 6.45833C9.37502 6.11666 9.65835 5.83333 10 5.83333C10.3417 5.83333 10.625 6.11666 10.625 6.45833V10.8333C10.625 11.175 10.3417 11.4583 10 11.4583C9.65835 11.4583 9.37502 11.175 9.37502 10.8333V6.45833ZM10.7667 13.8583C10.725 13.9583 10.6667 14.05 10.5917 14.1333C10.4333 14.2917 10.225 14.375 10 14.375C9.89168 14.375 9.78335 14.35 9.68335 14.3083C9.57502 14.2667 9.49168 14.2083 9.40835 14.1333C9.33335 14.05 9.27502 13.9583 9.22502 13.8583C9.18335 13.7583 9.16668 13.65 9.16668 13.5417C9.16668 13.325 9.25002 13.1083 9.40835 12.95C9.49168 12.875 9.57502 12.8167 9.68335 12.775C9.99168 12.6417 10.3583 12.7167 10.5917 12.95C10.6667 13.0333 10.725 13.1167 10.7667 13.225C10.8083 13.325 10.8334 13.4333 10.8334 13.5417C10.8334 13.65 10.8083 13.7583 10.7667 13.8583Z" fill="#292D32"/>
</g>
</g>
</svg>
